<svg width="384" height="213" viewBox="0 0 384 213" fill="none" xmlns="http://www.w3.org/2000/svg">
<path d="M16.5971 7.51795C30.9348 66.6184 131.351 93.5977 158.469 87.909C158.991 87.7997 159.501 87.759 160.03 87.8162C205.477 92.7261 202.596 205.239 153.078 210.232C137.869 211.765 120.633 205.449 131.703 203.203C131.703 203.203 107.921 195.679 124.311 190.178C105.986 196.177 87.7565 186.943 101.918 176.198C62.3859 178.32 46.8645 166.545 53.4662 155.149C39.639 152.897 25.8111 136.457 35.7773 129.83C17.2041 125.101 9.01068 102.085 22.875 104.854C6.99044 97.7695 -7.64481 54.2236 10.3733 59.0884C-4.80719 41.0061 8.06927 -16.6327 16.5971 7.51795Z" fill="#F7F6EB"/>
<path d="M131.703 203.203C120.633 205.449 137.869 211.765 153.078 210.232C202.596 205.239 205.477 92.7261 160.03 87.8162C159.501 87.759 158.991 87.7997 158.469 87.909C131.351 93.5977 30.9348 66.6184 16.5971 7.51795C8.06927 -16.6327 -4.80719 41.0061 10.3733 59.0884M131.703 203.203C131.703 203.203 107.688 195.605 124.555 190.098M131.703 203.203C137.427 202.042 140.884 201.3 144.45 198.645M124.555 190.098L131.703 187.318M124.555 190.098C106.148 196.259 87.6937 186.991 101.918 176.198M101.918 176.198C110.187 175.237 113.832 173.653 119.392 169.843M101.918 176.198C62.3859 178.32 46.8645 166.545 53.4662 155.149M53.4662 155.149C67.5865 157.134 75.5043 156.572 89.6252 155.149M53.4662 155.149C39.639 152.897 25.8111 136.457 35.7773 129.83M35.7773 129.83C49.9424 134.154 59.6711 135.549 77.57 138.564M35.7773 129.83C17.2041 125.101 9.01068 102.085 22.875 104.854M22.875 104.854C37.8055 114.657 45.786 119.255 57.478 121.597M22.875 104.854C6.99044 97.7695 -7.64481 54.2236 10.3733 59.0884M10.3733 59.0884L22.875 73.1529" stroke="#5F6964" stroke-width="3" stroke-linecap="round"/>
<path d="M367.925 7.51795C353.588 66.6184 253.171 93.5977 226.053 87.909C225.532 87.7997 225.022 87.759 224.492 87.8162C179.046 92.7261 181.926 205.239 231.444 210.232C246.653 211.765 262.996 208.633 252.819 203.203C252.819 203.203 276.601 195.679 260.212 190.178C278.537 196.177 296.766 186.943 282.605 176.198C322.137 178.32 337.658 166.545 331.056 155.149C344.883 152.897 358.711 136.457 348.745 129.83C367.318 125.101 375.512 102.085 361.647 104.854C377.532 97.7695 392.167 54.2236 374.149 59.0884C389.33 41.0061 376.453 -16.6327 367.925 7.51795Z" fill="#F7F6EB"/>
<path d="M252.819 203.203C262.996 208.633 246.653 211.765 231.444 210.232C181.926 205.239 179.046 92.7261 224.492 87.8162C225.022 87.759 225.532 87.7997 226.053 87.909C253.171 93.5977 353.588 66.6184 367.925 7.51795C376.453 -16.6327 389.33 41.0061 374.149 59.0884M252.819 203.203C252.819 203.203 276.835 195.605 259.968 190.098M252.819 203.203C248.566 203.646 249.328 204.503 241.943 200.215M259.968 190.098L252.819 187.318M259.968 190.098C278.374 196.259 296.829 186.991 282.605 176.198M282.605 176.198C274.335 175.237 270.69 173.653 265.131 169.843M282.605 176.198C322.137 178.32 337.658 166.545 331.056 155.149M331.056 155.149C316.936 157.134 309.018 156.572 294.897 155.149M331.056 155.149C344.883 152.897 358.711 136.457 348.745 129.83M348.745 129.83C334.58 134.154 324.851 135.549 306.952 138.564M348.745 129.83C367.318 125.101 375.512 102.085 361.647 104.854M361.647 104.854C346.717 114.657 338.736 119.255 327.044 121.597M361.647 104.854C377.532 97.7695 392.167 54.2236 374.149 59.0884M374.149 59.0884L361.647 73.1529" stroke="#5F6964" stroke-width="3" stroke-linecap="round"/>
</svg>
