<svg width="191" height="106" viewBox="0 0 191 106" fill="none" xmlns="http://www.w3.org/2000/svg">
<path d="M8.64493 4.403C15.6323 33.2052 64.163 46.5051 78.064 44.0414C78.5883 43.9485 79.112 43.8961 79.6394 43.9693C101.577 47.0128 100.028 101.719 75.8091 104.161C68.3246 104.916 59.8426 101.808 65.2902 100.702C65.2902 100.702 53.5868 96.9996 61.6523 94.2926C52.6343 97.2446 43.6634 92.7004 50.6323 87.4125C31.1782 88.4571 23.5399 82.6625 26.7887 77.0542C19.9842 75.9461 13.1793 67.8556 18.0838 64.5942C8.94367 62.267 4.91157 50.9405 11.7344 52.3032C3.91738 48.817 -3.28482 27.3875 5.58213 29.7815C-1.88838 20.883 4.44829 -7.48187 8.64493 4.403Z" fill="#F7F6EB"/>
<path d="M65.2902 100.702C59.8426 101.808 68.3246 104.916 75.8091 104.161C100.028 101.719 101.577 47.0128 79.6394 43.9693C79.112 43.8961 78.5883 43.9485 78.064 44.0414C64.163 46.5051 15.6323 33.2052 8.64493 4.403C4.44829 -7.48187 -1.88838 20.883 5.58213 29.7815M65.2902 100.702C65.2902 100.702 53.4718 96.9632 61.7723 94.2528M65.2902 100.702C68.1068 100.131 69.8082 99.7656 71.5631 98.4591M61.7723 94.2528L65.2902 92.8848M61.7723 94.2528C52.7142 97.2849 43.6325 92.7238 50.6323 87.4125M50.6323 87.4125C54.7018 86.9396 56.4957 86.1601 59.2316 84.2854M50.6323 87.4125C31.1782 88.4571 23.5399 82.6625 26.7887 77.0542M26.7887 77.0542C33.7375 78.0312 37.634 77.7545 44.583 77.0542M26.7887 77.0542C19.9842 75.9461 13.1793 67.8556 18.0838 64.5942M18.0838 64.5942C25.0546 66.7225 29.8422 67.4087 38.6505 68.8923M18.0838 64.5942C8.94367 62.267 4.91157 50.9405 11.7344 52.3032M11.7344 52.3032C19.0819 57.1276 23.0092 59.3904 28.763 60.5428M11.7344 52.3032C3.91738 48.817 -3.28482 27.3875 5.58213 29.7815M5.58213 29.7815L11.7344 36.7028" stroke="#5F6964" stroke-width="3" stroke-linecap="round"/>
<path d="M181.539 4.403C174.551 33.2052 126.021 46.5051 112.12 44.0414C111.595 43.9485 111.072 43.8961 110.544 43.9693C88.6067 47.0128 90.1556 101.719 114.375 104.161C121.859 104.916 129.902 103.374 124.893 100.702C124.893 100.702 136.597 96.9996 128.531 94.2926C137.549 97.2446 146.52 92.7004 139.551 87.4125C159.005 88.4571 166.644 82.6625 163.395 77.0542C170.199 75.9461 177.004 67.8556 172.1 64.5942C181.24 62.267 185.272 50.9405 178.449 52.3032C186.266 48.817 193.468 27.3875 184.601 29.7815C192.072 20.883 185.735 -7.48187 181.539 4.403Z" fill="#F7F6EB"/>
<path d="M124.893 100.702C129.902 103.374 121.859 104.916 114.375 104.161C90.1556 101.719 88.6067 47.0128 110.544 43.9693C111.072 43.8961 111.595 43.9485 112.12 44.0414C126.021 46.5051 174.551 33.2052 181.539 4.403C185.735 -7.48187 192.072 20.883 184.601 29.7815M124.893 100.702C124.893 100.702 136.712 96.9632 128.411 94.2528M124.893 100.702C122.8 100.92 123.175 101.342 119.541 99.2318M128.411 94.2528L124.893 92.8848M128.411 94.2528C137.469 97.2849 146.551 92.7238 139.551 87.4125M139.551 87.4125C135.482 86.9396 133.688 86.1601 130.952 84.2854M139.551 87.4125C159.005 88.4571 166.644 82.6625 163.395 77.0542M163.395 77.0542C156.446 78.0312 152.55 77.7545 145.601 77.0542M163.395 77.0542C170.199 75.9461 177.004 67.8556 172.1 64.5942M172.1 64.5942C165.129 66.7225 160.341 67.4087 151.533 68.8923M172.1 64.5942C181.24 62.267 185.272 50.9405 178.449 52.3032M178.449 52.3032C171.102 57.1276 167.174 59.3904 161.421 60.5428M178.449 52.3032C186.266 48.817 193.468 27.3875 184.601 29.7815M184.601 29.7815L178.449 36.7028" stroke="#5F6964" stroke-width="3" stroke-linecap="round"/>
</svg>
