<svg width="75" height="95" viewBox="0 0 75 95" fill="none" xmlns="http://www.w3.org/2000/svg">
<path d="M34.7246 4.84546C37.4241 4.93703 39.5735 5.35238 40.6943 6.00659C41.2217 6.3145 41.3089 6.54823 41.3262 6.63354C41.3432 6.71794 41.3625 7.00723 41.0117 7.57983L40.8369 7.84351C39.5896 9.60462 38.6906 12.2265 38.0137 15.2878C37.3281 18.3886 36.8374 22.1026 36.4951 26.1677C35.8104 34.3005 35.708 43.9713 35.873 53.2273C36.0382 62.4904 36.4717 71.3711 36.8633 77.9333C37.0591 81.2152 37.2452 83.9193 37.3818 85.8035C37.4179 86.3 37.451 86.7396 37.4795 87.1179C31.3709 87.0175 28.9221 86.35 27.4482 85.7605C27.0297 85.5931 26.6756 85.4266 26.2881 85.2478C25.9105 85.0736 25.4963 84.8856 25.0312 84.7214C24.0597 84.3785 22.962 84.1736 21.3408 84.1736C18.6077 84.1736 15.82 83.4853 13.6748 82.7703C12.6112 82.4157 11.7251 82.0609 11.1084 81.7966C11.0721 81.7811 11.0373 81.7647 11.0029 81.7498C11.0036 81.6087 11.0048 81.4529 11.0059 81.283C11.0116 80.3555 11.0228 79.0061 11.0459 77.322C11.092 73.9536 11.1846 69.2467 11.3691 63.8943C11.7157 53.8439 12.3865 41.5666 13.6787 31.6033L13.9453 29.6433C14.553 25.3864 15.9974 20.3164 17.6631 15.9373C18.4942 13.7524 19.3703 11.7647 20.21 10.157C20.9603 8.72037 21.637 7.674 22.1777 7.05151L22.4014 6.81128C22.5157 6.69693 22.9196 6.43906 23.7822 6.14331C24.5881 5.86701 25.6282 5.61201 26.8242 5.40112C29.2156 4.97948 32.0998 4.75645 34.7246 4.84546Z" fill="#A0041E" stroke="#530101" stroke-width="3"/>
<path d="M32.082 11.0447C32.832 10.9361 33.3004 10.9496 33.5576 10.99C33.4569 11.4048 33.1279 12.121 32.3574 13.2146L31.9814 13.7302C30.6777 15.4686 29.7433 18.0804 29.043 21.1287C28.3334 24.2174 27.8286 27.9242 27.4785 31.9851C26.7781 40.11 26.6857 49.7907 26.8711 59.0623C27.0567 68.3412 27.5214 77.2448 27.9385 83.8259C28.1471 87.1169 28.3433 89.8291 28.4883 91.7195C28.5265 92.2177 28.5625 92.6592 28.5928 93.0388C22.4891 92.938 20.0416 92.2697 18.5684 91.6804C18.1498 91.513 17.7957 91.3466 17.4082 91.1677C17.0306 90.9935 16.6165 90.8055 16.1514 90.6414C15.1798 90.2984 14.0821 90.0935 12.4609 90.0935C9.72778 90.0935 6.94012 89.4052 4.79492 88.6902C3.73135 88.3357 2.84524 87.9818 2.22852 87.7175C2.19227 87.702 2.15739 87.6855 2.12305 87.6707C2.12375 87.5294 2.12492 87.3731 2.12598 87.2029C2.13174 86.2755 2.14295 84.9267 2.16602 83.2429C2.21216 79.8744 2.30469 75.1668 2.48926 69.8142C2.83582 59.7641 3.50672 47.4873 4.79883 37.5242L5.06543 35.5632C6.26356 27.1707 8.2049 21.9354 13.8613 18.4255L14.4199 18.0906C16.1614 17.0869 23.1601 13.6364 28.5703 11.9167C29.9163 11.4889 31.1155 11.1846 32.082 11.0447Z" fill="#DD2E44" stroke="#530101" stroke-width="3"/>
<path d="M56.9873 1.76318C59.7965 1.59547 62.1771 1.69537 63.9668 2.25049C65.5771 2.74995 66.6066 3.57629 67.127 4.88818L67.2246 5.15674C67.9539 7.37354 69.2153 9.55216 70.333 11.4819C71.4984 13.494 72.4791 15.1946 72.9209 16.687C73.3372 18.0934 73.1879 18.9889 72.4766 19.7349C71.666 20.5847 69.9173 21.4795 66.4346 22.1401L65.7148 22.269C57.7093 23.6217 51.0415 24.2978 46.3809 24.6353C44.0508 24.804 42.2227 24.8882 40.9814 24.9302C40.361 24.9511 39.8871 24.9611 39.5703 24.9663C39.4119 24.9689 39.2924 24.9706 39.2139 24.9712C39.1748 24.9715 39.1457 24.9721 39.127 24.9722H39.0781C39.0603 24.9721 39.0325 24.9715 38.9951 24.9712C38.9199 24.9706 38.8048 24.9689 38.6523 24.9663C38.3475 24.9611 37.8903 24.9511 37.2891 24.9302C36.086 24.8883 34.3058 24.804 32.0146 24.6353C27.7185 24.3189 21.6261 23.7057 14.1689 22.5151L12.6592 22.269C8.62156 21.5983 6.64713 20.6378 5.7627 19.7261C5.03983 18.9808 4.89027 18.0931 5.31152 16.6938C5.76014 15.2038 6.75687 13.5052 7.94238 11.4927C9.0076 9.6844 10.2015 7.6564 10.958 5.58252L11.1035 5.16748C11.5997 3.68374 12.6554 2.78051 14.3428 2.25049C16.1058 1.69683 18.4493 1.59572 21.2275 1.76318C23.9892 1.92965 27.0025 2.3459 30.0918 2.73291C33.1449 3.11538 36.2645 3.46825 39.1016 3.46826C41.8933 3.46826 45.0023 3.11519 48.0605 2.73291C51.1551 2.34609 54.1955 1.92988 56.9873 1.76318Z" fill="#DD2E44" stroke="#530101" stroke-width="3"/>
</svg>
