<svg width="207" height="263" viewBox="0 0 207 263" fill="none" xmlns="http://www.w3.org/2000/svg">
<path d="M73.0742 12.301C79.8903 11.0992 88.0852 10.4663 95.5645 10.72C103.118 10.9762 109.666 12.131 113.391 14.3049C115.221 15.3733 116.161 16.5628 116.415 17.8235C116.655 19.016 116.356 20.6373 114.922 22.8059L114.619 23.2473C111.472 27.6905 109.066 34.5428 107.206 42.9534C105.338 51.4031 103.989 61.5846 103.044 72.8079C101.154 95.2576 100.87 122.007 101.327 147.67C101.785 173.34 102.985 197.958 104.071 216.155C104.614 225.254 105.129 232.749 105.508 237.971C105.697 240.582 105.853 242.625 105.961 244.015C105.975 244.193 105.988 244.36 106 244.517C86.7379 244.411 79.0324 242.421 74.2793 240.52C73.0392 240.024 71.9867 239.529 70.9316 239.042C69.8864 238.56 68.8354 238.084 67.6719 237.673C65.3034 236.837 62.5622 236.304 58.3115 236.304C50.3197 236.304 42.2737 234.3 36.1846 232.271C33.149 231.259 30.6196 230.248 28.8525 229.49C28.0465 229.145 27.4004 228.852 26.9375 228.637C26.9376 228.612 26.9384 228.586 26.9385 228.56C26.9405 227.885 26.9441 226.887 26.9521 225.597C26.9682 223.016 27.0003 219.263 27.0645 214.58C27.1928 205.214 27.4497 192.125 27.9629 177.241C28.9578 148.389 30.9151 112.841 34.7617 84.5706L35.1406 81.8577C36.8632 69.7917 40.9367 55.5194 45.6104 43.2327C47.9454 37.0939 50.4205 31.4758 52.8115 26.8977C55.07 22.5734 57.2022 19.2772 59.0146 17.3274L59.3721 16.9563C60.1437 16.1846 61.7616 15.3102 64.2266 14.4651C66.6347 13.6395 69.666 12.902 73.0742 12.301Z" fill="#A0041E" stroke="#530101" stroke-width="3"/>
<path d="M87.7529 27.9587C90.716 27.5298 92.7715 27.6462 93.918 28.1697C94.4336 28.4051 94.6951 28.6899 94.834 29.0056C94.9843 29.3473 95.0723 29.9119 94.8828 30.8308C94.4931 32.7211 93.0428 35.579 89.9873 39.6531C86.7116 44.0208 84.2154 50.8227 82.293 59.1912C80.3612 67.6002 78.9732 77.7572 78.0068 88.9666C76.0739 111.388 75.8179 138.16 76.332 163.865C76.8463 189.577 78.1315 214.257 79.2881 232.506C79.8664 241.631 80.4127 249.15 80.8145 254.388C81.0153 257.008 81.1803 259.058 81.2949 260.453C81.3095 260.631 81.323 260.798 81.3359 260.955C62.0797 260.849 54.3755 258.86 49.623 256.959C48.3828 256.463 47.3305 255.967 46.2754 255.48C45.2302 254.998 44.1791 254.523 43.0156 254.112C40.6471 253.276 37.906 252.742 33.6553 252.742C25.6635 252.742 17.6175 250.739 11.5283 248.71C8.49268 247.698 5.96336 246.686 4.19629 245.928C3.39039 245.583 2.7441 245.29 2.28125 245.076C2.28132 245.051 2.28215 245.025 2.28223 244.999C2.28423 244.324 2.28788 243.326 2.2959 242.036C2.31193 239.455 2.34405 235.702 2.4082 231.018C2.53652 221.652 2.79342 208.564 3.30664 193.68C4.30154 164.828 6.25891 129.28 10.1055 101.01L10.4844 98.2966C13.8967 74.3945 19.5792 58.725 36.9307 48.3425L37.7656 47.8523C42.7281 44.9923 62.3361 35.3229 77.5781 30.4783C81.3821 29.2692 84.8657 28.3768 87.7529 27.9587Z" fill="#DD2E44" stroke="#530101" stroke-width="3"/>
<path d="M157.128 2.16528C165.007 1.69491 172.01 1.94581 177.453 3.63403C182.656 5.24789 186.33 8.13253 188.078 12.9446L188.241 13.4163C190.164 19.2615 193.513 25.0683 196.645 30.4749C199.824 35.9638 202.744 40.9895 204.081 45.5051C205.392 49.9348 205.093 53.5514 202.22 56.5647C199.287 59.6394 193.464 62.3369 182.989 64.2112L181.961 64.3899C159.639 68.1615 141.04 70.0473 128.028 70.9895C121.523 71.4606 116.414 71.6952 112.936 71.8127C111.197 71.8715 109.865 71.9007 108.971 71.9153C108.523 71.9226 108.184 71.9271 107.959 71.929C107.847 71.9299 107.762 71.9297 107.706 71.9299H107.548C107.494 71.9297 107.413 71.9299 107.306 71.929C107.089 71.9271 106.765 71.9226 106.334 71.9153C105.472 71.9007 104.186 71.8715 102.5 71.8127C99.1273 71.6952 94.1513 71.4606 87.7539 70.9895C75.7582 70.1062 58.7665 68.3934 37.9785 65.0745L33.7705 64.3889C22.4525 62.5087 16.2313 59.7348 13.1475 56.5559C10.2251 53.5434 9.9235 49.935 11.2549 45.5129C12.6136 41.0002 15.5823 35.977 18.8154 30.4885C21.8999 25.2524 25.1933 19.6395 27.1738 13.9797L27.3613 13.4319C29.071 8.31953 32.7867 5.29988 38.085 3.63599C43.4585 1.94849 50.3628 1.69645 58.1572 2.16626C65.9352 2.63509 74.4204 3.80692 82.9404 4.87427C91.4242 5.93707 99.9342 6.89474 107.625 6.89478C115.189 6.89478 123.667 5.93696 132.168 4.87427C140.706 3.80698 149.266 2.63467 157.128 2.16528Z" fill="#DD2E44" stroke="#530101" stroke-width="3"/>
</svg>
