<svg width="61" height="27" viewBox="0 0 61 27" fill="none" xmlns="http://www.w3.org/2000/svg">
<path fill-rule="evenodd" clip-rule="evenodd" d="M21.1506 5.40369C10.9581 5.23287 10.403 11.5012 11.3994 14.6567C11.3994 20.6355 29.4071 30.3867 44.7813 22.059C48.8611 19.1596 50.8741 16.3988 51.625 13.966C53.4548 8.03756 47.79 4.05657 46.276 4.7631C44.1407 5.75957 33.8913 5.61722 21.1506 5.40369ZM17.4176 10.9419C15.834 10.7545 15.9426 8.12633 17.4176 8.22297C28.087 8.92198 35.31 8.83529 45.8891 7.45347C47.313 7.45347 47.3435 9.3472 45.8891 10.3263C45.8197 10.373 45.7312 10.4182 45.6247 10.4619C46.4508 11.2442 47.4362 14.7276 45.5326 14.9485C44.0097 15.1253 44.4087 12.1912 44.7986 10.7021C40.1228 11.7286 23.837 11.7014 17.4176 10.9419Z" fill="#5F6964"/>
<path d="M6.48831 10.8131L11.3994 14.6567C10.403 11.5012 10.9581 5.23287 21.1506 5.40369C33.8913 5.61722 44.1407 5.75957 46.276 4.7631C47.79 4.05657 53.4548 8.03756 51.625 13.966L56.4689 9.5709L56.3132 8.41173L55.6003 3.10401L55.4637 2.0874C45.222 3.31124 21.1597 5.24656 6.84422 3.19717L6.8068 3.99795L6.52635 9.99921L6.48831 10.8131Z" fill="#5F6964"/>
<path d="M6.8068 3.99795L1.41504 2.72377V8.73578L6.52635 9.99921L6.8068 3.99795Z" fill="#1F1F1F"/>
<path d="M59.868 2.5722L55.6003 3.10401L56.3132 8.41173L59.868 7.45347V2.5722Z" fill="#1F1F1F"/>
<path d="M17.4176 8.22297C15.9426 8.12633 15.834 10.7545 17.4176 10.9419C23.837 11.7014 40.1228 11.7286 44.7986 10.7021C45.1378 10.6276 45.4159 10.5476 45.6247 10.4619C45.7312 10.4182 45.8197 10.373 45.8891 10.3263C47.3435 9.3472 47.313 7.45347 45.8891 7.45347C35.31 8.83529 28.087 8.92198 17.4176 8.22297Z" fill="#1F1F1F"/>
<path d="M44.7986 10.7021C44.4087 12.1912 44.0097 15.1253 45.5326 14.9485C47.4362 14.7276 46.4508 11.2442 45.6247 10.4619C45.4159 10.5476 45.1378 10.6276 44.7986 10.7021Z" fill="#1F1F1F"/>
<path d="M11.3994 14.6567L6.48831 10.8131L6.52635 9.99921M11.3994 14.6567C10.403 11.5012 10.9581 5.23287 21.1506 5.40369C33.8913 5.61722 44.1407 5.75957 46.276 4.7631C47.79 4.05657 53.4548 8.03756 51.625 13.966M11.3994 14.6567C11.3994 20.6355 29.4071 30.3867 44.7813 22.059C48.8611 19.1596 50.8741 16.3988 51.625 13.966M51.625 13.966L56.4689 9.5709L56.3132 8.41173M44.7986 10.7021C40.1228 11.7286 23.837 11.7014 17.4176 10.9419C15.834 10.7545 15.9426 8.12633 17.4176 8.22297C28.087 8.92198 35.31 8.83529 45.8891 7.45347C47.313 7.45347 47.3435 9.3472 45.8891 10.3263C45.8197 10.373 45.7312 10.4182 45.6247 10.4619M44.7986 10.7021C44.4087 12.1912 44.0097 15.1253 45.5326 14.9485C47.4362 14.7276 46.4508 11.2442 45.6247 10.4619M44.7986 10.7021C45.1378 10.6276 45.4159 10.5476 45.6247 10.4619M6.8068 3.99795L6.84422 3.19717C21.1597 5.24656 45.222 3.31124 55.4637 2.0874L55.6003 3.10401M6.8068 3.99795L1.41504 2.72377V8.73578L6.52635 9.99921M6.8068 3.99795L6.52635 9.99921M55.6003 3.10401L59.868 2.5722V7.45347L56.3132 8.41173M55.6003 3.10401L56.3132 8.41173" stroke="#1F1F1F" stroke-width="2" stroke-linecap="round"/>
</svg>
