<svg width="439" height="177" viewBox="0 0 439 177" fill="none" xmlns="http://www.w3.org/2000/svg">
<path fill-rule="evenodd" clip-rule="evenodd" d="M149.236 26.7341C73.3651 25.4626 69.2325 72.1225 76.65 95.6114C76.65 140.117 210.696 212.703 325.138 150.713C355.508 129.131 370.492 108.58 376.081 90.4703C389.702 46.3402 347.534 16.7064 336.264 21.9657C320.37 29.3833 244.075 28.3236 149.236 26.7341ZM121.448 67.9593C109.66 66.5645 110.468 47.001 121.448 47.7203C200.869 52.9236 254.636 52.2783 333.384 41.9923C343.984 41.9923 344.21 56.0888 333.384 63.3769C332.868 63.7244 332.209 64.0609 331.416 64.3864C337.566 70.2096 344.9 96.1391 330.73 97.7839C319.394 99.0996 322.364 77.2591 325.267 66.1743C290.461 73.8158 169.233 73.613 121.448 67.9593Z" fill="#5F6964"/>
<path d="M40.0926 67.0008L76.65 95.6114C69.2325 72.1225 73.3651 25.4626 149.236 26.7341C244.075 28.3236 320.37 29.3833 336.264 21.9657C347.534 16.7064 389.702 46.3402 376.081 90.4703L412.139 57.7541L410.979 49.1254L405.672 9.61578L404.656 2.04834C328.418 11.1583 149.303 25.5645 42.7419 10.3093L42.4633 16.2701L40.3757 60.9423L40.0926 67.0008Z" fill="#5F6964"/>
<path d="M42.4633 16.2701L2.32812 6.78532V51.5375L40.3757 60.9423L42.4633 16.2701Z" fill="#1F1F1F"/>
<path d="M437.44 5.65711L405.672 9.61578L410.979 49.1254L437.44 41.9923V5.65711Z" fill="#1F1F1F"/>
<path d="M121.448 47.7203C110.468 47.001 109.66 66.5645 121.448 67.9593C169.233 73.613 290.461 73.8158 325.267 66.1743C327.792 65.6199 329.862 65.0243 331.416 64.3864C332.209 64.0609 332.868 63.7244 333.384 63.3769C344.21 56.0888 343.984 41.9923 333.384 41.9923C254.636 52.2783 200.869 52.9236 121.448 47.7203Z" fill="#1F1F1F"/>
<path d="M325.267 66.1743C322.364 77.2591 319.394 99.0996 330.73 97.7839C344.9 96.1391 337.566 70.2096 331.416 64.3864C329.862 65.0243 327.792 65.6199 325.267 66.1743Z" fill="#1F1F1F"/>
<path d="M76.65 95.6114L40.0926 67.0008L40.3757 60.9423M76.65 95.6114C69.2325 72.1225 73.3651 25.4626 149.236 26.7341C244.075 28.3236 320.37 29.3833 336.264 21.9657C347.534 16.7064 389.702 46.3402 376.081 90.4703M76.65 95.6114C76.65 140.117 210.696 212.703 325.138 150.713C355.508 129.131 370.492 108.58 376.081 90.4703M376.081 90.4703L412.139 57.7541L410.979 49.1254M325.267 66.1743C290.461 73.8158 169.233 73.613 121.448 67.9593C109.66 66.5645 110.468 47.001 121.448 47.7203C200.869 52.9236 254.636 52.2783 333.384 41.9923C343.984 41.9923 344.21 56.0888 333.384 63.3769C332.868 63.7244 332.209 64.0609 331.416 64.3864M325.267 66.1743C322.364 77.2591 319.394 99.0996 330.73 97.7839C344.9 96.1391 337.566 70.2096 331.416 64.3864M325.267 66.1743C327.792 65.62 329.862 65.0243 331.416 64.3864M42.4633 16.2701L42.7419 10.3093C149.303 25.5645 328.418 11.1583 404.656 2.04834L405.672 9.61578M42.4633 16.2701L2.32812 6.78532V51.5375L40.3757 60.9423M42.4633 16.2701L40.3757 60.9423M405.672 9.61578L437.44 5.65711V41.9923L410.979 49.1254M405.672 9.61578L410.979 49.1254" stroke="#1F1F1F" stroke-width="3" stroke-linecap="round"/>
</svg>
