<svg width="116" height="126" viewBox="0 0 116 126" fill="none" xmlns="http://www.w3.org/2000/svg">
<path d="M2.01555 116.728C29.3275 90.9788 32.7346 32.3319 30.9951 5.02536C30.9547 4.39102 31.506 3.89924 32.1357 3.98605L38.1184 4.81095C51.9604 7.99207 58.6434 6.74947 69.7656 2.48642C69.8264 2.46313 69.8926 2.44495 69.9567 2.43391C77.7906 1.08507 79.4596 1.7844 79.1015 4.73587C79.0945 4.79336 79.0916 4.85411 79.094 4.91197C80.9078 48.1663 89.7645 71.5821 113.586 110.681C114.07 111.475 113.301 112.487 112.392 112.289C106.421 110.989 103.42 113.073 99.3922 118.314C99.1747 118.597 98.8204 118.747 98.4656 118.707C90.1556 117.772 86.0581 119.186 79.6882 122.911C79.396 123.082 79.0312 123.093 78.7265 122.946C68.3528 117.92 62.5637 118.884 52.9103 123.816C52.5425 124.004 52.0915 123.949 51.7785 123.679C44.2657 117.21 39.173 116.293 29.0057 121.417C28.6178 121.612 28.1429 121.543 27.8357 121.236C23.0619 116.466 20.0793 113.207 14.3479 117.81C13.616 118.397 12.3461 117.831 12.1606 116.911C11.536 113.812 9.01194 111.475 2.01555 116.728Z" fill="#F7F6EB"/>
<path d="M30.3224 110.234C37.6085 107.043 43.2322 85.2976 41.7804 61.3175M70.0554 59.4305C68.5771 78.8112 75.928 104.413 86.4428 105.285M44.2181 31.9938C46.3445 37.836 49.528 69.9938 49.528 69.9938M67.591 31.1736C62.93 37.4087 60.8484 58.1131 61.2509 69.5824M57.0643 109.296L56.6526 97.5627M2.01555 116.728C29.3275 90.9788 32.7346 32.3319 30.9951 5.02536C30.9547 4.39102 31.506 3.89924 32.1357 3.98605L38.1184 4.81095C51.9604 7.99207 58.6434 6.74947 69.7656 2.48642C69.8264 2.46313 69.8926 2.44495 69.9567 2.43391C77.7906 1.08507 79.4596 1.7844 79.1015 4.73587C79.0945 4.79336 79.0916 4.85411 79.094 4.91197C80.9078 48.1663 89.7645 71.5821 113.586 110.681C114.07 111.475 113.301 112.487 112.392 112.289C106.421 110.989 103.42 113.073 99.3922 118.314C99.1747 118.597 98.8204 118.747 98.4656 118.707C90.1556 117.772 86.0581 119.186 79.6882 122.911C79.396 123.082 79.0312 123.093 78.7265 122.946C68.3528 117.92 62.5637 118.884 52.9103 123.816C52.5425 124.004 52.0915 123.949 51.7785 123.679C44.2657 117.21 39.173 116.293 29.0057 121.417C28.6178 121.612 28.1429 121.543 27.8357 121.236C23.0619 116.466 20.0793 113.207 14.3479 117.81C13.616 118.397 12.3461 117.831 12.1606 116.911C11.536 113.812 9.01194 111.475 2.01555 116.728Z" stroke="#9EB3A9" stroke-width="3" stroke-linecap="round"/>
</svg>
