<svg width="214" height="227" viewBox="0 0 214 227" fill="none" xmlns="http://www.w3.org/2000/svg">
<path d="M1.38867 209.093C54.1076 164.636 65.3802 61.1908 64.5225 9.39473C64.47 6.2278 67.2861 3.78048 70.4103 4.30165L78.0979 5.5841C104.298 12.2998 117.19 10.4896 138.627 3.44114C138.924 3.34317 139.244 3.2701 139.555 3.2299C154.142 1.34443 157.401 2.66998 156.682 7.80297C156.64 8.10156 156.612 8.40978 156.614 8.71128C157.197 85.4628 171.589 128.775 211.265 197.713C213.59 201.753 209.435 206.818 204.791 207.214C198.802 207.725 194.32 211.056 189.014 217.004C187.857 218.301 186.131 218.95 184.407 218.733C170.226 216.948 162.453 219.087 151.215 224.763C149.758 225.499 148.032 225.498 146.566 224.78C128.51 215.944 117.564 217.08 100.261 224.611C98.428 225.408 96.2926 225.071 94.77 223.776C82.0536 212.961 72.5731 211.13 54.7399 218.62C52.7991 219.435 50.5389 219.023 49.0711 217.514C43.194 211.473 38.6663 207.14 32.4431 208.313C27.868 209.176 20.3236 204.891 15.763 203.955C12.7474 203.335 8.17111 204.554 1.38867 209.093Z" fill="#F7F6EB"/>
<path d="M56.0694 198.977C70.2464 193.577 82.4853 153.946 81.3157 109.748M135.626 108.102C131.49 143.652 143.854 191.213 163.945 193.496M87.9588 55.9729C91.6408 66.8551 95.5789 126.206 95.5789 126.206M132.803 55.9729C123.452 67.1397 118.071 105.085 118.071 126.206M107.378 198.977V177.371M1.38867 209.093C54.1076 164.636 65.3802 61.1908 64.5225 9.39473C64.47 6.2278 67.2861 3.78048 70.4103 4.30165L78.0979 5.5841C104.298 12.2998 117.19 10.4896 138.627 3.44114C138.924 3.34317 139.244 3.2701 139.555 3.2299C154.142 1.34443 157.401 2.66998 156.682 7.80297C156.64 8.10156 156.612 8.40978 156.614 8.71128C157.197 85.4628 171.589 128.775 211.265 197.713C213.59 201.753 209.435 206.818 204.791 207.214C198.802 207.725 194.32 211.056 189.014 217.004C187.857 218.301 186.131 218.95 184.407 218.733C170.226 216.948 162.453 219.086 151.215 224.763C149.758 225.499 148.032 225.498 146.566 224.78C128.51 215.944 117.564 217.08 100.261 224.611C98.428 225.408 96.2926 225.071 94.77 223.776C82.0536 212.961 72.5731 211.13 54.7399 218.62C52.7991 219.435 50.5389 219.023 49.0711 217.514C43.194 211.473 38.6663 207.14 32.4431 208.313C27.868 209.176 20.3236 204.891 15.763 203.955C12.7474 203.335 8.17111 204.554 1.38867 209.093Z" stroke="#9EB3A9" stroke-width="3" stroke-linecap="round"/>
</svg>
