<svg width="81" height="246" viewBox="0 0 81 246" fill="none" xmlns="http://www.w3.org/2000/svg">
<path d="M13.4186 14.6786L27.1649 36.9737C30.404 42.1943 32.0156 44.8353 32.5054 47.7681C32.977 50.701 32.2757 53.6643 30.8839 59.5457L30.8622 59.6373L1.77373 182.675C-0.768978 196.541 3.25454 205.765 9.47443 214.29C12.8012 218.85 16.7562 223.209 20.6709 227.972C30.009 239.334 34.6859 245 40.5004 245C46.3149 245 50.9918 239.319 60.3298 227.956C64.2398 223.204 68.1939 218.849 71.5212 214.29C77.7403 205.77 81.7695 196.539 79.227 182.675L50.1228 59.6373C48.7166 53.695 48.0214 50.7162 48.4954 47.7681C48.9655 44.8594 50.5702 42.2528 53.741 37.1021L53.8201 36.9737L67.5664 14.6786L68.1379 14.3065L66.2549 12.3907C61.8296 7.88615 58.2218 4.21167 55.4562 1H25.513C22.7474 4.21167 19.1396 7.88615 14.7142 12.3907L12.4655 14.6786H13.4186Z" fill="#C40505"/>
<path d="M30.8622 59.6373L1.77373 182.675C-0.768978 196.541 3.25454 205.765 9.47443 214.29C12.8012 218.85 16.7562 223.209 20.6709 227.972C30.009 239.334 34.6859 245 40.5004 245C46.3149 245 50.9918 239.319 60.3298 227.956C64.2398 223.204 68.1939 218.849 71.5212 214.29C77.7403 205.77 81.7695 196.539 79.227 182.675L50.1228 59.6373C48.7166 53.695 48.0214 50.7162 48.4954 47.7681C48.9655 44.8594 50.5702 42.2528 53.741 37.1021M30.8622 59.6373L30.8839 59.5457M30.8622 59.6373C30.8694 59.6067 30.8766 59.5762 30.8839 59.5457M53.8201 36.9737L67.5664 14.6786L68.1379 14.3065L66.2549 12.3907C61.8296 7.88615 58.2218 4.21167 55.4562 1H25.513C22.7474 4.21167 19.1396 7.88615 14.7142 12.3907L12.4655 14.6786H13.4186L27.1649 36.9737C30.404 42.1943 32.0156 44.8353 32.5054 47.7681C32.977 50.701 32.2757 53.6643 30.8839 59.5457M53.8201 36.9737L53.741 37.1021M53.8201 36.9737C53.7936 37.0167 53.7673 37.0595 53.741 37.1021" stroke="#530101" stroke-width="1.5" stroke-linecap="round" stroke-linejoin="round"/>
</svg>
