<svg width="16" height="45" viewBox="0 0 16 45" fill="none" xmlns="http://www.w3.org/2000/svg">
<path d="M3.20076 3.41057L5.63682 7.33962C6.21083 8.25965 6.49643 8.72508 6.58324 9.24192C6.6668 9.75878 6.54253 10.281 6.29587 11.3175L6.29203 11.3336L1.13712 33.0165C0.68651 35.46 1.39954 37.0857 2.5018 38.5881C3.09134 39.3916 3.79224 40.1599 4.48599 40.9991C6.14083 43.0015 6.96965 44 8.00007 44C9.03049 44 9.85931 42.9988 11.5141 40.9964C12.207 40.1589 12.9078 39.3914 13.4974 38.5881C14.5996 37.0865 15.3136 35.4598 14.863 33.0165L9.70531 11.3336C9.4561 10.2864 9.3329 9.76146 9.4169 9.24192C9.50021 8.72932 9.78459 8.26996 10.3465 7.36225L10.3605 7.33962L12.7966 3.41057L12.8979 3.345L12.5642 3.00738C11.7799 2.21354 11.1406 1.56599 10.6505 1H5.34407C4.85397 1.56599 4.21461 2.21354 3.43037 3.00738L3.03186 3.41057H3.20076Z" fill="#C40505"/>
<path d="M6.29203 11.3336L1.13712 33.0165C0.68651 35.46 1.39954 37.0857 2.5018 38.5881C3.09134 39.3916 3.79224 40.1599 4.48599 40.9991C6.14083 43.0015 6.96965 44 8.00007 44C9.03049 44 9.85931 42.9988 11.5141 40.9964C12.207 40.1589 12.9078 39.3914 13.4974 38.5881C14.5995 37.0865 15.3136 35.4598 14.863 33.0165L9.70531 11.3336C9.4561 10.2864 9.3329 9.76146 9.4169 9.24192C9.50021 8.72932 9.78459 8.26996 10.3465 7.36225M6.29203 11.3336L6.29587 11.3175M6.29203 11.3336C6.29331 11.3282 6.29459 11.3228 6.29587 11.3175M10.3605 7.33962L12.7966 3.41057L12.8979 3.34499L12.5642 3.00738C11.7799 2.21354 11.1406 1.56599 10.6505 1H5.34407C4.85397 1.56599 4.21461 2.21354 3.43037 3.00738L3.03186 3.41057H3.20076L5.63682 7.33962C6.21083 8.25965 6.49643 8.72508 6.58324 9.24192C6.6668 9.75878 6.54253 10.281 6.29587 11.3175M10.3605 7.33962L10.3465 7.36225M10.3605 7.33962C10.3558 7.3472 10.3512 7.35474 10.3465 7.36225" stroke="#530101" stroke-width="1.5" stroke-linecap="round" stroke-linejoin="round"/>
</svg>
