<svg width="292" height="579" viewBox="0 0 292 579" fill="none" xmlns="http://www.w3.org/2000/svg">
<ellipse cx="143.633" cy="550.867" rx="100.633" ry="27.8675" fill="#355E3B" fill-opacity="0.25"/>
<path d="M62.6977 468.146C54.6772 467.587 57.1979 485.728 62.8203 510.657C68.3662 535.246 87.1638 556.072 112.284 558.163C120.622 558.857 129.857 559.086 141.286 558.972C157.981 558.407 170.327 557.814 182.106 556.674C201.133 554.831 218.31 543.443 222.555 524.804C225.668 511.136 228.059 492.791 230.795 466.534L62.6977 468.146Z" fill="#8C7878" stroke="#3D2D15" stroke-width="8"/>
<path d="M145.784 426.497C173.325 426.497 198.36 428.506 216.6 431.794C225.687 433.433 233.285 435.422 238.706 437.732C241.4 438.88 243.784 440.202 245.559 441.765C247.314 443.311 248.929 445.518 248.929 448.369C248.929 451.219 247.314 453.426 245.559 454.972C243.784 456.535 241.4 457.857 238.706 459.005C233.285 461.316 225.687 463.305 216.6 464.943C198.36 468.231 173.325 470.241 145.784 470.241C118.243 470.241 93.2076 468.231 74.9678 464.943C65.8807 463.305 58.2819 461.316 52.8613 459.005C50.1671 457.857 47.7831 456.535 46.0088 454.972C44.3084 453.474 42.74 451.356 42.6436 448.634L42.6387 448.369L42.6436 448.103C42.7401 445.381 44.3085 443.263 46.0088 441.765C47.7831 440.202 50.1671 438.88 52.8613 437.732C58.2819 435.422 65.8806 433.433 74.9678 431.794C93.2076 428.506 118.243 426.497 145.784 426.497Z" fill="#D6C7C7" stroke="#3D2D15" stroke-width="8"/>
<mask id="path-4-outside-1_227_2857" maskUnits="userSpaceOnUse" x="37.6387" y="435.378" width="214" height="52" fill="black">
<rect fill="white" x="37.6387" y="435.378" width="214" height="52"/>
<path d="M243.002 461.26C243.002 471.131 201.397 479.122 146.64 479.122C91.884 479.122 47.4952 471.12 47.4952 461.25C47.4952 457.222 54.8885 453.505 67.3624 450.516C85.4534 446.181 114.231 443.378 146.64 443.378C180.01 443.378 208.496 446.353 225.657 450.912C236.655 453.834 243.002 457.405 243.002 461.26Z"/>
<path d="M225.657 450.912C236.655 453.834 243.002 457.405 243.002 461.26V450.912H225.657Z"/>
<path d="M47.4952 461.25C47.4952 457.222 54.8885 453.505 67.3624 450.516L46.6387 449.248L47.4952 461.25Z"/>
</mask>
<path d="M243.002 461.26C243.002 471.131 201.397 479.122 146.64 479.122C91.884 479.122 47.4952 471.12 47.4952 461.25C47.4952 457.222 54.8885 453.505 67.3624 450.516C85.4534 446.181 114.231 443.378 146.64 443.378C180.01 443.378 208.496 446.353 225.657 450.912C236.655 453.834 243.002 457.405 243.002 461.26Z" fill="#D6C7C7"/>
<path d="M225.657 450.912C236.655 453.834 243.002 457.405 243.002 461.26V450.912H225.657Z" fill="#D6C7C7"/>
<path d="M47.4952 461.25C47.4952 457.222 54.8885 453.505 67.3624 450.516L46.6387 449.248L47.4952 461.25Z" fill="#D6C7C7"/>
<path d="M243.002 461.26L242.758 465.253L247.002 465.513V461.26H243.002ZM67.3624 450.516L67.6067 446.523L67.0109 446.487L66.4304 446.626L67.3624 450.516ZM225.657 450.912L224.63 454.778C229.987 456.201 233.922 457.713 236.427 459.185C239.221 460.826 239.002 461.651 239.002 461.26H243.002H247.002C247.002 457.014 243.609 454.126 240.48 452.287C237.062 450.279 232.325 448.544 226.684 447.046L225.657 450.912ZM47.4952 461.25H51.4952C51.4952 461.556 51.3369 461.491 51.784 461.007C52.2503 460.502 53.1348 459.817 54.6246 459.027C57.5958 457.452 62.1855 455.869 68.2945 454.406L67.3624 450.516L66.4304 446.626C60.0654 448.151 54.7215 449.921 50.8776 451.959C48.9599 452.976 47.2164 454.162 45.9066 455.58C44.5777 457.019 43.4952 458.93 43.4952 461.25H47.4952ZM243.002 461.26L243.246 457.268L67.6067 446.523L67.3624 450.516L67.1182 454.508L242.758 465.253L243.002 461.26ZM47.4952 461.25H55.4952V460.965L55.4749 460.68L47.4952 461.25ZM46.6387 449.248L47.1272 441.263L38.0086 440.705L38.659 449.817L46.6387 449.248ZM225.657 450.912L223.603 458.644L224.612 458.912H225.657V450.912ZM243.002 450.912H251.002V442.912H243.002V450.912ZM67.3624 450.516L66.8739 458.501L68.0656 458.574L69.2265 458.295L67.3624 450.516ZM243.002 461.26H235.002C235.002 459.46 235.986 458.698 235.645 459.017C235.303 459.336 234.348 460.028 232.366 460.918C228.454 462.676 222.256 464.46 213.881 466.03C197.266 469.143 173.697 471.122 146.64 471.122V479.122V487.122C174.341 487.122 198.952 485.106 216.828 481.756C225.7 480.094 233.325 478.029 238.925 475.513C241.7 474.266 244.422 472.714 246.57 470.707C248.718 468.699 251.002 465.529 251.002 461.26H243.002ZM146.64 479.122V471.122C119.588 471.122 95.2991 469.141 77.9534 466.014C69.2152 464.439 62.6329 462.641 58.4231 460.847C56.2863 459.936 55.211 459.213 54.7976 458.849C54.3461 458.451 55.4952 459.251 55.4952 461.25H47.4952H39.4952C39.4952 465.717 42.0315 468.926 44.2213 470.855C46.4494 472.818 49.2697 474.339 52.15 475.566C57.9742 478.048 65.9114 480.102 75.1149 481.761C93.6528 485.102 118.937 487.122 146.64 487.122V479.122ZM47.4952 461.25L55.4749 460.68L54.6184 448.678L46.6387 449.248L38.659 449.817L39.5155 461.819L47.4952 461.25ZM146.64 443.378V451.378C179.708 451.378 207.407 454.342 223.603 458.644L225.657 450.912L227.711 443.18C209.585 438.365 180.312 435.378 146.64 435.378V443.378ZM225.657 450.912V458.912H243.002V450.912V442.912H225.657V450.912ZM243.002 450.912H235.002V461.26H243.002H251.002V450.912H243.002ZM67.3624 450.516L67.8509 442.531L47.1272 441.263L46.6387 449.248L46.1502 457.233L66.8739 458.501L67.3624 450.516ZM67.3624 450.516L69.2265 458.295C86.4665 454.165 114.551 451.378 146.64 451.378V443.378V435.378C113.911 435.378 84.4402 438.197 65.4983 442.736L67.3624 450.516Z" fill="#3D2D15" mask="url(#path-4-outside-1_227_2857)"/>
<path d="M146.854 430.598C171.928 430.598 194.706 431.964 211.285 434.195C219.545 435.306 226.43 436.654 231.331 438.213C233.753 438.983 235.93 439.879 237.581 440.965C239.035 441.921 241.22 443.784 241.22 446.758C241.22 449.731 239.035 451.593 237.581 452.55C235.93 453.636 233.753 454.531 231.331 455.302C226.43 456.861 219.545 458.208 211.285 459.319C194.706 461.55 171.928 462.917 146.854 462.917C121.779 462.917 99.0007 461.55 82.4219 459.319C74.1619 458.208 67.2778 456.861 62.377 455.302C59.9547 454.531 57.7785 453.636 56.127 452.55C54.7183 451.623 52.6237 449.847 52.4941 447.033L52.4883 446.758L52.4941 446.482C52.6235 443.668 54.7183 441.891 56.127 440.965C57.7785 439.879 59.9548 438.983 62.377 438.213C67.2778 436.654 74.1619 435.306 82.4219 434.195C99.0007 431.964 121.779 430.598 146.854 430.598Z" fill="#885E39" stroke="#3D2D15" stroke-width="8"/>
<mask id="path-7-inside-2_227_2857" fill="white">
<path d="M79.2529 6.75424C101.733 13.253 114.498 12.825 137.565 6.75424C127.139 68.2341 125.959 102.824 137.565 164.871C128.781 220.221 128.334 251.409 137.565 307.458C125.564 363.138 125.8 394.366 137.565 450.045C114.786 439.556 102.029 438.238 79.2529 450.045C86.9324 394.358 86.3385 363.146 79.2529 307.458C86.1384 251.449 85.1979 220.192 79.2529 164.871C87.0094 102.736 84.0418 68.2631 79.2529 6.75424Z"/>
<path d="M79.2529 6.75424C101.733 13.253 114.498 12.825 137.565 6.75424C114.233 -1.90715 101.413 -2.58922 79.2529 6.75424Z"/>
</mask>
<path d="M79.2529 6.75424C101.733 13.253 114.498 12.825 137.565 6.75424C127.139 68.2341 125.959 102.824 137.565 164.871C128.781 220.221 128.334 251.409 137.565 307.458C125.564 363.138 125.8 394.366 137.565 450.045C114.786 439.556 102.029 438.238 79.2529 450.045C86.9324 394.358 86.3385 363.146 79.2529 307.458C86.1384 251.449 85.1979 220.192 79.2529 164.871C87.0094 102.736 84.0418 68.2631 79.2529 6.75424Z" fill="#A8C686"/>
<path d="M79.2529 6.75424C101.733 13.253 114.498 12.825 137.565 6.75424C114.233 -1.90715 101.413 -2.58922 79.2529 6.75424Z" fill="#A8C686"/>
<path d="M79.2529 6.75424L78.1421 10.5969C89.6049 13.9107 98.8174 15.5243 108.213 15.4678C117.584 15.4113 126.914 13.6937 138.583 10.6225L137.565 6.75424L136.547 2.88596C125.149 5.88557 116.563 7.41732 108.165 7.4679C99.7912 7.51832 91.3813 6.0966 80.3638 2.91159L79.2529 6.75424ZM79.2529 164.871L77.8463 168.615C89.1741 172.871 98.4177 175.005 107.969 174.948C117.484 174.892 126.999 172.661 138.845 168.661L137.565 164.871L136.285 161.081C124.762 164.973 116.187 166.899 107.922 166.948C99.692 166.997 91.4639 165.185 80.6596 161.126L79.2529 164.871ZM79.2529 307.458L77.4042 311.005C88.9207 317.008 98.4245 320.189 108.245 320.148C118.04 320.107 127.642 316.86 139.346 311.04L137.565 307.458L135.784 303.877C124.489 309.494 116.194 312.115 108.212 312.148C100.255 312.182 92.102 309.644 81.1017 303.911L79.2529 307.458ZM79.2529 6.75424L76.1448 -0.617315L70.8293 1.62389L71.2771 7.37522L79.2529 6.75424ZM137.565 6.75424L145.453 8.09184L146.56 1.55999L140.349 -0.745664L137.565 6.75424ZM137.565 450.045L134.219 457.312L148.685 463.973L145.392 448.392L137.565 450.045ZM79.2529 450.045L71.3279 448.953L69.2171 464.259L82.9348 457.148L79.2529 450.045ZM79.2529 164.871L71.3145 163.88L71.1995 164.802L71.2987 165.726L79.2529 164.871ZM137.565 164.871L145.466 166.125L145.683 164.759L145.429 163.4L137.565 164.871ZM79.2529 307.458L71.3127 306.482L71.1906 307.475L71.3169 308.468L79.2529 307.458ZM137.565 307.458L145.386 309.144L145.706 307.658L145.459 306.158L137.565 307.458ZM137.565 450.045L140.911 442.779C129.248 437.408 119.135 433.882 108.556 433.686C97.8345 433.487 87.5905 436.712 75.5711 442.943L79.2529 450.045L82.9348 457.148C93.6917 451.572 101.214 449.552 108.26 449.683C115.448 449.816 123.103 452.193 134.219 457.312L137.565 450.045ZM79.2529 164.871L87.1913 165.862C95.0561 102.859 92.0212 67.6875 87.2288 6.13326L79.2529 6.75424L71.2771 7.37522C76.0625 68.8388 78.9628 102.612 71.3145 163.88L79.2529 164.871ZM137.565 6.75424L129.678 5.41664C119.121 67.6645 117.894 103.218 129.702 166.342L137.565 164.871L145.429 163.4C134.024 102.429 135.157 68.8037 145.453 8.09184L137.565 6.75424ZM79.2529 450.045L87.1779 451.138C94.9658 394.665 94.3512 362.739 87.1889 306.448L79.2529 307.458L71.3169 308.468C78.3258 363.553 78.8989 394.052 71.3279 448.953L79.2529 450.045ZM79.2529 307.458L87.1932 308.434C94.1695 251.686 93.2017 219.799 87.2071 164.016L79.2529 164.871L71.2987 165.726C77.1941 220.585 78.1074 251.212 71.3127 306.482L79.2529 307.458ZM137.565 164.871L129.664 163.617C120.755 219.753 120.292 251.806 129.672 308.758L137.565 307.458L145.459 306.158C136.376 251.012 136.807 220.688 145.466 166.125L137.565 164.871ZM137.565 307.458L129.745 305.773C117.499 362.588 117.748 394.955 129.738 451.699L137.565 450.045L145.392 448.392C133.852 393.777 133.629 363.687 145.386 309.144L137.565 307.458ZM137.565 6.75424L140.349 -0.745664C128.377 -5.19005 118.315 -7.89875 108.046 -7.99721C97.677 -8.09664 87.8046 -5.53344 76.1448 -0.617315L79.2529 6.75424L82.361 14.1258C92.8615 9.69846 100.479 7.93096 107.893 8.00205C115.408 8.07411 123.421 10.0371 134.781 14.2541L137.565 6.75424Z" fill="#355E3B" mask="url(#path-7-inside-2_227_2857)"/>
<path d="M213.58 303.224C190.211 311.116 177.4 311.538 155.268 303.224C161.213 358.545 162.153 389.802 155.268 445.811C169.126 436.473 190.778 433.028 213.58 445.811C204.349 389.762 204.796 358.573 213.58 303.224Z" fill="#A8C686"/>
<path d="M213.58 145.107C190.512 151.178 177.748 151.606 155.268 145.107C160.056 206.616 163.024 241.088 155.268 303.224C177.4 311.538 190.211 311.116 213.58 303.224C201.973 241.176 203.154 206.587 213.58 145.107Z" fill="#A8C686"/>
<path d="M155.268 145.107C177.748 151.606 190.512 151.178 213.58 145.107C190.248 136.446 177.428 135.764 155.268 145.107Z" fill="#355E3B"/>
<path d="M155.268 145.107C177.748 151.606 190.512 151.178 213.58 145.107M155.268 145.107C160.056 206.616 163.024 241.088 155.268 303.224M155.268 145.107C177.428 135.764 190.248 136.446 213.58 145.107M213.58 145.107C203.154 206.587 201.973 241.176 213.58 303.224M155.268 303.224C177.4 311.538 190.211 311.116 213.58 303.224M155.268 303.224C161.213 358.545 162.153 389.802 155.268 445.811C169.126 436.473 190.778 433.028 213.58 445.811C204.349 389.762 204.796 358.573 213.58 303.224" stroke="#355E3B" stroke-width="8"/>
<path d="M66.0987 186.047C52.5174 181.937 18.9325 207.021 18.8583 243.929C48.5078 253.611 70.4577 208.692 66.0987 186.047Z" fill="#A8C686"/>
<path d="M68.1812 164.871C69.9166 146.047 59.6426 103.318 4.66246 82.9888C-0.335728 131.553 44.9257 157.812 68.1812 164.871Z" fill="#A8C686"/>
<path d="M84.8418 169.106L76.5115 166.988M68.1812 164.871C69.9166 146.047 59.6426 103.318 4.66246 82.9888C-0.335728 131.553 44.9257 157.812 68.1812 164.871ZM68.1812 164.871L76.5115 166.988M76.5115 166.988L66.0987 186.047M66.0987 186.047C52.5174 181.937 18.9325 207.021 18.8583 243.929C48.5078 253.611 70.4577 208.692 66.0987 186.047Z" stroke="#355E3B" stroke-width="8"/>
<path d="M115.552 218.661C116.637 218.661 117.678 218.23 118.445 217.462C119.212 216.695 119.644 215.654 119.644 214.569C119.644 213.484 119.212 212.443 118.445 211.675C117.678 210.908 116.637 210.477 115.552 210.477C114.466 210.477 113.425 210.908 112.658 211.675C111.891 212.443 111.459 213.484 111.459 214.569C111.459 215.654 111.891 216.695 112.658 217.462C113.425 218.23 114.466 218.661 115.552 218.661ZM103.275 214.569C103.275 215.654 102.844 216.695 102.077 217.462C101.309 218.23 100.269 218.661 99.1834 218.661C98.0981 218.661 97.0573 218.23 96.2899 217.462C95.5225 216.695 95.0914 215.654 95.0914 214.569C95.0914 213.484 95.5225 212.443 96.2899 211.675C97.0573 210.908 98.0981 210.477 99.1834 210.477C100.269 210.477 101.309 210.908 102.077 211.675C102.844 212.443 103.275 213.484 103.275 214.569ZM94.5185 225.748C95.3436 225.061 96.4058 224.725 97.476 224.814C98.5462 224.903 99.5386 225.409 100.239 226.223L100.26 226.243C100.298 226.287 100.382 226.369 100.513 226.489C100.775 226.722 101.205 227.07 101.802 227.43C102.977 228.134 104.814 228.891 107.367 228.891C109.921 228.891 111.758 228.134 112.933 227.43C113.492 227.097 114.01 226.699 114.475 226.243L114.496 226.223C115.205 225.423 116.199 224.932 117.266 224.856C118.332 224.779 119.386 225.123 120.202 225.814C121.018 226.505 121.531 227.488 121.632 228.552C121.732 229.617 121.412 230.678 120.74 231.51L120.736 231.518L120.732 231.522L120.72 231.539L120.691 231.571L120.617 231.653C120.331 231.979 120.024 232.285 119.697 232.57C119.103 233.102 118.256 233.781 117.147 234.448C114.189 236.201 110.806 237.109 107.367 237.075C103.928 237.108 100.546 236.198 97.5875 234.444C96.3995 233.734 95.3064 232.876 94.3343 231.89L94.1175 231.657L94.0438 231.571L94.0152 231.539L94.0029 231.522L93.9947 231.514C93.6497 231.101 93.3895 230.624 93.229 230.11C93.0686 229.597 93.0111 229.056 93.0597 228.52C93.1084 227.984 93.2623 227.463 93.5126 226.987C93.7629 226.511 94.1047 226.088 94.5185 225.744V225.748Z" fill="#355E3B"/>
<path d="M194.691 351.365C195.776 351.365 196.817 350.934 197.585 350.167C198.352 349.4 198.783 348.359 198.783 347.273C198.783 346.188 198.352 345.147 197.585 344.38C196.817 343.613 195.776 343.181 194.691 343.181C193.606 343.181 192.565 343.613 191.798 344.38C191.03 345.147 190.599 346.188 190.599 347.273C190.599 348.359 191.03 349.4 191.798 350.167C192.565 350.934 193.606 351.365 194.691 351.365ZM182.415 347.273C182.415 348.359 181.984 349.4 181.217 350.167C180.449 350.934 179.408 351.365 178.323 351.365C177.238 351.365 176.197 350.934 175.43 350.167C174.662 349.4 174.231 348.359 174.231 347.273C174.231 346.188 174.662 345.147 175.43 344.38C176.197 343.613 177.238 343.181 178.323 343.181C179.408 343.181 180.449 343.613 181.217 344.38C181.984 345.147 182.415 346.188 182.415 347.273ZM173.658 358.453C174.483 357.766 175.545 357.43 176.616 357.519C177.686 357.608 178.678 358.114 179.379 358.928L179.399 358.948C179.437 358.992 179.522 359.074 179.653 359.194C179.915 359.427 180.345 359.775 180.942 360.135C182.116 360.839 183.954 361.596 186.507 361.596C189.061 361.596 190.898 360.839 192.072 360.135C192.632 359.802 193.15 359.404 193.615 358.948L193.635 358.928C194.345 358.127 195.339 357.637 196.405 357.56C197.472 357.484 198.526 357.828 199.342 358.519C200.158 359.21 200.671 360.193 200.772 361.257C200.872 362.321 200.552 363.383 199.88 364.214L199.876 364.223L199.872 364.227L199.859 364.243L199.831 364.276L199.757 364.358C199.471 364.683 199.163 364.989 198.836 365.274C198.243 365.806 197.396 366.486 196.287 367.153C193.328 368.905 189.946 369.814 186.507 369.78C183.068 369.813 179.686 368.903 176.727 367.148C175.539 366.438 174.446 365.58 173.474 364.595L173.257 364.362L173.183 364.276L173.155 364.243L173.143 364.227L173.134 364.219C172.789 363.806 172.529 363.329 172.369 362.815C172.208 362.301 172.151 361.761 172.199 361.225C172.248 360.689 172.402 360.168 172.652 359.692C172.903 359.215 173.244 358.793 173.658 358.449V358.453Z" fill="#355E3B"/>
<path d="M225.187 266.393C238.879 264.033 272.739 278.435 272.813 299.625C242.921 305.185 220.792 279.395 225.187 266.393Z" fill="#A8C686"/>
<path d="M223.087 254.235C221.337 243.427 231.695 218.895 287.125 207.223C292.165 235.106 246.533 250.182 223.087 254.235Z" fill="#A8C686"/>
<path d="M206.29 256.666L214.689 255.451M223.087 254.235C221.337 243.427 231.695 218.895 287.125 207.223C292.165 235.106 246.533 250.182 223.087 254.235ZM223.087 254.235L214.689 255.451M214.689 255.451L225.187 266.393M225.187 266.393C238.879 264.033 272.739 278.435 272.813 299.625C242.921 305.185 220.792 279.395 225.187 266.393Z" stroke="#355E3B" stroke-width="8"/>
</svg>
