<svg width="292" height="579" viewBox="0 0 292 579" fill="none" xmlns="http://www.w3.org/2000/svg">
<ellipse cx="143.633" cy="550.867" rx="100.633" ry="27.8675" fill="#355E3B" fill-opacity="0.25"/>
<path d="M62.6977 468.146C54.6772 467.587 57.1979 485.728 62.8203 510.657C68.3662 535.246 87.1638 556.072 112.284 558.163C120.622 558.857 129.857 559.086 141.286 558.972C157.981 558.407 170.327 557.814 182.106 556.674C201.133 554.831 218.31 543.443 222.555 524.804C225.668 511.136 228.059 492.791 230.795 466.534L62.6977 468.146Z" fill="#8C7878" stroke="#3D2D15" stroke-width="8"/>
<path d="M145.784 426.497C173.325 426.497 198.36 428.506 216.6 431.794C225.687 433.433 233.285 435.422 238.706 437.732C241.4 438.88 243.784 440.202 245.559 441.765C247.314 443.311 248.929 445.518 248.929 448.369C248.929 451.219 247.314 453.426 245.559 454.972C243.784 456.535 241.4 457.857 238.706 459.005C233.285 461.316 225.687 463.305 216.6 464.943C198.36 468.231 173.325 470.241 145.784 470.241C118.243 470.241 93.2076 468.231 74.9678 464.943C65.8807 463.305 58.2819 461.316 52.8613 459.005C50.1671 457.857 47.7831 456.535 46.0088 454.972C44.3084 453.474 42.74 451.356 42.6436 448.634L42.6387 448.369L42.6436 448.103C42.7401 445.381 44.3085 443.263 46.0088 441.765C47.7831 440.202 50.1671 438.88 52.8613 437.732C58.2819 435.422 65.8806 433.433 74.9678 431.794C93.2076 428.506 118.243 426.497 145.784 426.497Z" fill="#D6C7C7" stroke="#3D2D15" stroke-width="8"/>
<path d="M146.641 439.378C179.834 439.378 208.475 442.304 226.163 446.912H247.002V461.26L246.998 461.516C246.91 464.147 245.482 466.248 243.839 467.784C242.143 469.369 239.862 470.706 237.285 471.864C232.107 474.191 224.839 476.185 216.092 477.824C198.531 481.115 174.18 483.122 146.641 483.122C119.1 483.122 94.064 481.112 75.8242 477.824C66.7374 476.186 59.1393 474.197 53.7188 471.886C51.0244 470.738 48.6396 469.416 46.8652 467.853C45.1511 466.343 43.5721 464.203 43.499 461.449L42.6484 449.533L42.3232 444.976L46.8828 445.256L67.0234 446.487C85.5653 442.132 114.416 439.378 146.641 439.378Z" fill="#D6C7C7" stroke="#3D2D15" stroke-width="8"/>
<path d="M146.854 430.598C171.928 430.598 194.706 431.964 211.285 434.195C219.545 435.306 226.43 436.654 231.331 438.213C233.753 438.983 235.93 439.879 237.581 440.965C239.035 441.921 241.22 443.784 241.22 446.758C241.22 449.731 239.035 451.593 237.581 452.55C235.93 453.636 233.753 454.531 231.331 455.302C226.43 456.861 219.545 458.208 211.285 459.319C194.706 461.55 171.928 462.917 146.854 462.917C121.779 462.917 99.0007 461.55 82.4219 459.319C74.1619 458.208 67.2778 456.861 62.377 455.302C59.9547 454.531 57.7785 453.636 56.127 452.55C54.7183 451.623 52.6237 449.847 52.4941 447.033L52.4883 446.758L52.4941 446.482C52.6235 443.668 54.7183 441.891 56.127 440.965C57.7785 439.879 59.9548 438.983 62.377 438.213C67.2778 436.654 74.1619 435.306 82.4219 434.195C99.0007 431.964 121.779 430.598 146.854 430.598Z" fill="#885E39" stroke="#3D2D15" stroke-width="8"/>
<path d="M83.6816 12.1055C92.6722 14.3982 100.379 15.5149 108.213 15.4678C115.931 15.4213 123.621 14.2457 132.614 12.1172C123.1 70.0727 122.318 104.822 133.507 164.926C124.804 220 124.355 251.557 133.496 307.359C122.085 360.578 121.825 391.936 132.093 443.298C123.635 439.858 116.131 437.826 108.482 437.685C100.641 437.539 92.9525 439.382 84.1992 443.23C90.8604 391.806 90.031 360.637 83.2822 307.446C90.1273 251.535 89.1867 220.005 83.2783 164.9C90.7749 104.565 88.1956 70.0179 83.6816 12.1055ZM107.932 4.00195C112.507 4.04586 117.182 4.73474 122.42 6.07617C117.333 6.97362 112.722 7.44032 108.165 7.46777C103.352 7.49676 98.5267 7.03817 93.2012 6.03906C98.4574 4.60135 103.199 3.95658 107.932 4.00195Z" fill="#A8C686" stroke="#355E3B" stroke-width="8"/>
<path d="M213.58 303.224C190.211 311.116 177.4 311.538 155.268 303.224C161.213 358.545 162.153 389.802 155.268 445.811C169.126 436.473 190.778 433.028 213.58 445.811C204.349 389.762 204.796 358.573 213.58 303.224Z" fill="#A8C686"/>
<path d="M213.58 145.107C190.512 151.178 177.748 151.606 155.268 145.107C160.056 206.616 163.024 241.088 155.268 303.224C177.4 311.538 190.211 311.116 213.58 303.224C201.973 241.176 203.154 206.587 213.58 145.107Z" fill="#A8C686"/>
<path d="M155.268 145.107C177.748 151.606 190.512 151.178 213.58 145.107C190.248 136.446 177.428 135.764 155.268 145.107Z" fill="#355E3B"/>
<path d="M155.268 145.107C177.748 151.606 190.512 151.178 213.58 145.107M155.268 145.107C160.056 206.616 163.024 241.088 155.268 303.224M155.268 145.107C177.428 135.764 190.248 136.446 213.58 145.107M213.58 145.107C203.154 206.587 201.973 241.176 213.58 303.224M155.268 303.224C177.4 311.538 190.211 311.116 213.58 303.224M155.268 303.224C161.213 358.545 162.153 389.802 155.268 445.811C169.126 436.473 190.778 433.028 213.58 445.811C204.349 389.762 204.796 358.573 213.58 303.224" stroke="#355E3B" stroke-width="8"/>
<path d="M66.0987 186.047C52.5174 181.937 18.9325 207.021 18.8583 243.929C48.5078 253.611 70.4577 208.692 66.0987 186.047Z" fill="#A8C686"/>
<path d="M68.1812 164.871C69.9166 146.047 59.6426 103.318 4.66246 82.9888C-0.335728 131.553 44.9257 157.812 68.1812 164.871Z" fill="#A8C686"/>
<path d="M84.8418 169.106L76.5115 166.988M68.1812 164.871C69.9166 146.047 59.6426 103.318 4.66246 82.9888C-0.335728 131.553 44.9257 157.812 68.1812 164.871ZM68.1812 164.871L76.5115 166.988M76.5115 166.988L66.0987 186.047M66.0987 186.047C52.5174 181.937 18.9325 207.021 18.8583 243.929C48.5078 253.611 70.4577 208.692 66.0987 186.047Z" stroke="#355E3B" stroke-width="8"/>
<path d="M115.552 218.661C116.637 218.661 117.678 218.23 118.445 217.462C119.212 216.695 119.644 215.654 119.644 214.569C119.644 213.484 119.212 212.443 118.445 211.675C117.678 210.908 116.637 210.477 115.552 210.477C114.466 210.477 113.425 210.908 112.658 211.675C111.891 212.443 111.459 213.484 111.459 214.569C111.459 215.654 111.891 216.695 112.658 217.462C113.425 218.23 114.466 218.661 115.552 218.661ZM103.275 214.569C103.275 215.654 102.844 216.695 102.077 217.462C101.309 218.23 100.269 218.661 99.1834 218.661C98.0981 218.661 97.0573 218.23 96.2899 217.462C95.5225 216.695 95.0914 215.654 95.0914 214.569C95.0914 213.484 95.5225 212.443 96.2899 211.675C97.0573 210.908 98.0981 210.477 99.1834 210.477C100.269 210.477 101.309 210.908 102.077 211.675C102.844 212.443 103.275 213.484 103.275 214.569ZM94.5185 225.748C95.3436 225.061 96.4058 224.725 97.476 224.814C98.5462 224.903 99.5386 225.409 100.239 226.223L100.26 226.243C100.298 226.287 100.382 226.369 100.513 226.489C100.775 226.722 101.205 227.07 101.802 227.43C102.977 228.134 104.814 228.891 107.367 228.891C109.921 228.891 111.758 228.134 112.933 227.43C113.492 227.097 114.01 226.699 114.475 226.243L114.496 226.223C115.205 225.423 116.199 224.932 117.266 224.856C118.332 224.779 119.386 225.123 120.202 225.814C121.018 226.505 121.531 227.488 121.632 228.552C121.732 229.617 121.412 230.678 120.74 231.51L120.736 231.518L120.732 231.522L120.72 231.539L120.691 231.571L120.617 231.653C120.331 231.979 120.024 232.285 119.697 232.57C119.103 233.102 118.256 233.781 117.147 234.448C114.189 236.201 110.806 237.109 107.367 237.075C103.928 237.108 100.546 236.198 97.5875 234.444C96.3995 233.734 95.3064 232.876 94.3343 231.89L94.1175 231.657L94.0438 231.571L94.0152 231.539L94.0029 231.522L93.9947 231.514C93.6497 231.101 93.3895 230.624 93.229 230.11C93.0686 229.597 93.0111 229.056 93.0597 228.52C93.1084 227.984 93.2623 227.463 93.5126 226.987C93.7629 226.511 94.1047 226.088 94.5185 225.744V225.748Z" fill="#355E3B"/>
<path d="M194.691 351.365C195.776 351.365 196.817 350.934 197.585 350.167C198.352 349.4 198.783 348.359 198.783 347.273C198.783 346.188 198.352 345.147 197.585 344.38C196.817 343.613 195.776 343.181 194.691 343.181C193.606 343.181 192.565 343.613 191.798 344.38C191.03 345.147 190.599 346.188 190.599 347.273C190.599 348.359 191.03 349.4 191.798 350.167C192.565 350.934 193.606 351.365 194.691 351.365ZM182.415 347.273C182.415 348.359 181.984 349.4 181.217 350.167C180.449 350.934 179.408 351.365 178.323 351.365C177.238 351.365 176.197 350.934 175.43 350.167C174.662 349.4 174.231 348.359 174.231 347.273C174.231 346.188 174.662 345.147 175.43 344.38C176.197 343.613 177.238 343.181 178.323 343.181C179.408 343.181 180.449 343.613 181.217 344.38C181.984 345.147 182.415 346.188 182.415 347.273ZM173.658 358.453C174.483 357.766 175.545 357.43 176.616 357.519C177.686 357.608 178.678 358.114 179.379 358.928L179.399 358.948C179.437 358.992 179.522 359.074 179.653 359.194C179.915 359.427 180.345 359.775 180.942 360.135C182.116 360.839 183.954 361.596 186.507 361.596C189.061 361.596 190.898 360.839 192.072 360.135C192.632 359.802 193.15 359.404 193.615 358.948L193.635 358.928C194.345 358.127 195.339 357.637 196.405 357.56C197.472 357.484 198.526 357.828 199.342 358.519C200.158 359.21 200.671 360.193 200.772 361.257C200.872 362.321 200.552 363.383 199.88 364.214L199.876 364.223L199.872 364.227L199.859 364.243L199.831 364.276L199.757 364.358C199.471 364.683 199.163 364.989 198.836 365.274C198.243 365.806 197.396 366.486 196.287 367.153C193.328 368.905 189.946 369.814 186.507 369.78C183.068 369.813 179.686 368.903 176.727 367.148C175.539 366.438 174.446 365.58 173.474 364.595L173.257 364.362L173.183 364.276L173.155 364.243L173.143 364.227L173.134 364.219C172.789 363.806 172.529 363.329 172.369 362.815C172.208 362.301 172.151 361.761 172.199 361.225C172.248 360.689 172.402 360.168 172.652 359.692C172.903 359.215 173.244 358.793 173.658 358.449V358.453Z" fill="#355E3B"/>
<path d="M225.187 266.393C238.879 264.033 272.739 278.435 272.813 299.625C242.921 305.185 220.792 279.395 225.187 266.393Z" fill="#A8C686"/>
<path d="M223.087 254.235C221.337 243.427 231.695 218.895 287.125 207.223C292.165 235.106 246.533 250.182 223.087 254.235Z" fill="#A8C686"/>
<path d="M206.29 256.666L214.689 255.451M223.087 254.235C221.337 243.427 231.695 218.895 287.125 207.223C292.165 235.106 246.533 250.182 223.087 254.235ZM223.087 254.235L214.689 255.451M214.689 255.451L225.187 266.393M225.187 266.393C238.879 264.033 272.739 278.435 272.813 299.625C242.921 305.185 220.792 279.395 225.187 266.393Z" stroke="#355E3B" stroke-width="8"/>
</svg>
