<svg width="320" height="523" viewBox="0 0 320 523" fill="none" xmlns="http://www.w3.org/2000/svg">
<ellipse cx="161.5" cy="496" rx="97.5" ry="27" fill="#355E3B" fill-opacity="0.25"/>
<path d="M76.6045 411.832C68.4062 411.26 71.0646 429.949 76.8594 455.535C82.4274 480.119 101.203 500.934 126.317 503.101C134.93 503.844 144.465 504.09 156.329 503.971C173.469 503.391 186.09 502.783 198.17 501.598C217.195 499.732 234.385 488.359 238.678 469.731C241.883 455.821 244.33 437.104 247.133 410.197L76.6045 411.832Z" fill="#8C7878" stroke="#3D2D15" stroke-width="8"/>
<path d="M160.894 369.638C188.831 369.638 214.225 371.677 232.724 375.012C241.941 376.673 249.645 378.69 255.138 381.031C257.869 382.195 260.28 383.533 262.074 385.113C263.848 386.676 265.473 388.9 265.473 391.769C265.473 394.637 263.848 396.861 262.074 398.424C260.28 400.004 257.869 401.342 255.138 402.506C249.645 404.847 241.941 406.864 232.724 408.525C214.225 411.86 188.831 413.899 160.894 413.899C132.957 413.899 107.563 411.86 89.064 408.525C79.8473 406.864 72.144 404.847 66.6509 402.506C63.9202 401.342 61.5079 400.004 59.7144 398.424C57.9954 396.91 56.4167 394.775 56.3198 392.035L56.3149 391.769L56.3198 391.501C56.417 388.762 57.9956 386.627 59.7144 385.113C61.5079 383.533 63.9202 382.195 66.6509 381.031C72.144 378.69 79.8473 376.673 89.064 375.012C107.563 371.677 132.957 369.638 160.894 369.638Z" fill="#D6C7C7" stroke="#3D2D15" stroke-width="8"/>
<path d="M161.763 382.705C195.44 382.705 224.494 385.674 242.43 390.348H263.518V404.846L263.514 405.104C263.426 407.752 261.988 409.871 260.328 411.423C258.614 413.024 256.306 414.377 253.695 415.551C248.448 417.908 241.08 419.93 232.208 421.593C214.398 424.93 189.698 426.967 161.763 426.967C133.826 426.967 108.432 424.927 89.9331 421.593C80.7165 419.931 73.0131 417.914 67.52 415.573C64.7894 414.409 62.377 413.071 60.5835 411.491C58.8502 409.964 57.2608 407.806 57.188 405.034L56.3247 392.945L55.9995 388.388L60.5591 388.668L80.9995 389.918C99.8032 385.5 129.07 382.705 161.763 382.705Z" fill="#D6C7C7" stroke="#3D2D15" stroke-width="8"/>
<path d="M161.979 373.799C187.415 373.799 210.52 375.185 227.335 377.447C235.713 378.575 242.693 379.94 247.66 381.521C250.116 382.302 252.318 383.208 253.987 384.306C255.459 385.273 257.652 387.148 257.652 390.134C257.652 393.119 255.459 394.994 253.987 395.962C252.318 397.059 250.116 397.966 247.66 398.747C242.693 400.327 235.713 401.693 227.335 402.82C210.52 405.083 187.415 406.469 161.979 406.469C136.544 406.469 113.439 405.083 96.624 402.82C88.2456 401.693 81.2649 400.327 76.2979 398.747C73.8426 397.966 71.6407 397.059 69.9717 395.962C68.5462 395.025 66.4424 393.236 66.3125 390.41L66.3066 390.134L66.3125 389.857C66.4423 387.032 68.5461 385.243 69.9717 384.306C71.6406 383.208 73.8426 382.302 76.2979 381.521C81.2649 379.94 88.2456 378.575 96.624 377.447C113.439 375.185 136.544 373.799 161.979 373.799Z" fill="#885E39" stroke="#3D2D15" stroke-width="8"/>
<mask id="path-6-outside-1_227_2051" maskUnits="userSpaceOnUse" x="0.000488281" y="0.686035" width="320" height="395" fill="black">
<rect fill="white" x="0.000488281" y="0.686035" width="320" height="395"/>
<path d="M159.594 8.68604C205.283 10.7219 221.241 60.6725 222.597 180.544H222.695C247.144 183.752 246.674 170.349 246.671 170.27C246.671 116.678 272.463 105.471 285.359 106.567C295.531 108.074 314.894 122.924 310.971 170.27C307.047 217.615 250.486 224.794 222.695 222.465H222.568C222.071 273.331 219.987 343.034 214.735 385.424C199.65 383.1 181.553 381.752 161.756 381.752C140.408 381.752 120.617 383.317 104.353 385.983C100.322 354.057 98.1304 306.121 97.0829 262.491V261.121C69.4544 264.625 12.4151 253.974 8.51459 182.731C4.61415 111.488 23.8641 89.1421 33.9765 86.8745C46.7977 85.2258 72.4393 102.089 72.4394 182.731C72.4394 182.731 71.8976 203.033 96.2753 198.192V197.562C96.2752 64.9131 111.511 10.8179 159.375 8.68604H159.594Z"/>
</mask>
<path d="M159.594 8.68604C205.283 10.7219 221.241 60.6725 222.597 180.544H222.695C247.144 183.752 246.674 170.349 246.671 170.27C246.671 116.678 272.463 105.471 285.359 106.567C295.531 108.074 314.894 122.924 310.971 170.27C307.047 217.615 250.486 224.794 222.695 222.465H222.568C222.071 273.331 219.987 343.034 214.735 385.424C199.65 383.1 181.553 381.752 161.756 381.752C140.408 381.752 120.617 383.317 104.353 385.983C100.322 354.057 98.1304 306.121 97.0829 262.491V261.121C69.4544 264.625 12.4151 253.974 8.51459 182.731C4.61415 111.488 23.8641 89.1421 33.9765 86.8745C46.7977 85.2258 72.4393 102.089 72.4394 182.731C72.4394 182.731 71.8976 203.033 96.2753 198.192V197.562C96.2752 64.9131 111.511 10.8179 159.375 8.68604H159.594Z" fill="#A8C686"/>
<path d="M159.594 8.68604L159.95 0.693965L159.772 0.686035H159.594V8.68604ZM222.597 180.544L214.597 180.635L214.687 188.544H222.597V180.544ZM222.695 180.544L223.736 172.612L223.218 172.544H222.695V180.544ZM246.671 170.27H238.671V170.421L238.677 170.572L246.671 170.27ZM285.359 106.567L286.532 98.6533L286.285 98.6167L286.037 98.5956L285.359 106.567ZM310.971 170.27L318.943 170.931V170.931L310.971 170.27ZM222.695 222.465L223.363 214.493L223.03 214.465H222.695V222.465ZM222.568 222.465V214.465H214.646L214.569 222.387L222.568 222.465ZM214.735 385.424L213.517 393.331L221.661 394.586L222.675 386.408L214.735 385.424ZM161.756 381.752V373.752V381.752ZM104.353 385.983L96.4165 386.985L97.4565 395.22L105.648 393.878L104.353 385.983ZM97.0829 262.491H89.0829V262.587L89.0853 262.683L97.0829 262.491ZM97.0829 261.121H105.083V252.042L96.0763 253.184L97.0829 261.121ZM8.51459 182.731L0.526553 183.168H0.526554L8.51459 182.731ZM33.9765 86.8745L32.9562 78.9398L32.5881 78.9872L32.2261 79.0684L33.9765 86.8745ZM72.4394 182.731L80.4365 182.944L80.4394 182.838V182.731H72.4394ZM96.2753 198.192L97.8335 206.039L104.275 204.76V198.192H96.2753ZM96.2753 197.562H104.275V197.562L96.2753 197.562ZM159.375 8.68604V0.686035H159.197L159.019 0.693958L159.375 8.68604ZM159.594 8.68604L159.238 16.6781C169.109 17.118 176.89 20.0793 183.301 25.6018C189.848 31.2424 195.534 40.049 200.183 53.1096C209.566 79.4652 213.92 120.731 214.597 180.635L222.597 180.544L230.596 180.454C229.918 120.486 225.615 76.8404 215.257 47.7437C210.036 33.0782 203.081 21.5235 193.744 13.4798C184.27 5.31792 172.923 1.27203 159.95 0.693965L159.594 8.68604ZM222.597 180.544V188.544H222.695V180.544V172.544H222.597V180.544ZM222.695 180.544L221.655 188.476C235.114 190.242 244.108 187.738 249.53 182.276C254.763 177.004 254.701 170.906 254.665 169.968L246.671 170.27L238.677 170.572C238.644 169.713 238.818 170.356 238.175 171.003C237.721 171.461 234.725 174.054 223.736 172.612L222.695 180.544ZM246.671 170.27H254.671C254.671 144.669 260.833 130.576 267.242 123.129C273.637 115.7 280.807 114.209 284.682 114.538L285.359 106.567L286.037 98.5956C277.015 97.8291 264.841 101.393 255.116 112.691C245.405 123.973 238.671 142.279 238.671 170.27H246.671ZM285.359 106.567L284.187 114.481C288.191 115.074 306.769 124.106 302.998 169.609L310.971 170.27L318.943 170.931C323.019 121.742 302.871 101.074 286.532 98.6533L285.359 106.567ZM310.971 170.27L302.998 169.609C301.361 189.362 289.047 200.912 272.749 207.593C256.155 214.395 236.422 215.588 223.363 214.493L222.695 222.465L222.027 230.437C236.759 231.672 259.201 230.439 278.817 222.398C298.729 214.235 316.657 198.523 318.943 170.931L310.971 170.27ZM222.695 222.465V214.465H222.568V222.465V230.465H222.695V222.465ZM222.568 222.465L214.569 222.387C214.071 273.259 211.986 342.551 206.796 384.441L214.735 385.424L222.675 386.408C227.988 343.517 230.07 273.402 230.568 222.544L222.568 222.465ZM214.735 385.424L215.953 377.518C200.405 375.122 181.895 373.752 161.756 373.752V381.752V389.752C181.211 389.752 198.895 391.079 213.517 393.331L214.735 385.424ZM161.756 381.752V373.752C140.044 373.752 119.815 375.341 103.059 378.088L104.353 385.983L105.648 393.878C121.419 391.292 140.771 389.752 161.756 389.752V381.752ZM104.353 385.983L112.29 384.981C108.314 353.491 106.128 305.909 105.081 262.299L97.0829 262.491L89.0853 262.683C90.1332 306.333 92.3294 354.622 96.4165 386.985L104.353 385.983ZM97.0829 262.491H105.083V261.121H97.0829H89.0829V262.491H97.0829ZM97.0829 261.121L96.0763 253.184C83.6049 254.766 64.3708 253.097 48.0743 243.131C32.2681 233.465 18.319 215.469 16.5026 182.294L8.51459 182.731L0.526554 183.168C2.61072 221.236 19.1315 244.187 39.7272 256.781C59.8326 269.076 82.9324 270.98 98.0896 269.057L97.0829 261.121ZM8.51459 182.731L16.5026 182.294C14.5889 147.339 18.4106 125.151 23.4733 111.767C28.7037 97.94 34.5946 94.9346 35.7269 94.6807L33.9765 86.8745L32.2261 79.0684C23.246 81.082 14.4557 90.3834 8.50816 106.107C2.39293 122.273 -1.46019 146.88 0.526553 183.168L8.51459 182.731ZM33.9765 86.8745L34.9968 94.8092C37.0956 94.5393 44.0283 95.5311 51.0618 107.899C58.1025 120.279 64.4394 143.07 64.4394 182.731H72.4394H80.4394C80.4394 141.75 73.9554 115.789 64.97 99.9889C55.9773 84.1764 43.6787 77.561 32.9562 78.9398L33.9765 86.8745ZM72.4394 182.731C64.4422 182.518 64.4421 182.522 64.442 182.527C64.4419 182.529 64.4418 182.534 64.4417 182.537C64.4416 182.544 64.4414 182.551 64.4412 182.559C64.4409 182.574 64.4406 182.59 64.4403 182.608C64.4397 182.644 64.4391 182.684 64.4388 182.73C64.4381 182.822 64.4382 182.934 64.44 183.065C64.4435 183.327 64.4537 183.668 64.4781 184.074C64.5267 184.882 64.6329 185.975 64.863 187.249C65.3134 189.743 66.2938 193.237 68.5123 196.643C70.8031 200.16 74.3461 203.459 79.5436 205.341C84.6427 207.186 90.7258 207.45 97.8335 206.039L96.2753 198.192L94.7172 190.345C89.636 191.354 86.6452 190.895 84.9896 190.296C83.4325 189.732 82.5401 188.864 81.9191 187.91C81.2259 186.846 80.8181 185.567 80.6083 184.405C80.5083 183.852 80.4664 183.397 80.4493 183.114C80.4409 182.974 80.439 182.883 80.4385 182.85C80.4383 182.834 80.4385 182.833 80.4384 182.848C80.4383 182.855 80.4382 182.867 80.4379 182.883C80.4378 182.891 80.4376 182.9 80.4374 182.91C80.4373 182.916 80.4371 182.921 80.437 182.927C80.4369 182.929 80.4368 182.934 80.4368 182.935C80.4367 182.94 80.4365 182.944 72.4394 182.731ZM96.2753 198.192H104.275V197.562H96.2753H88.2753V198.192H96.2753ZM96.2753 197.562L104.275 197.562C104.275 131.231 108.124 85.6861 117.49 56.6349C122.139 42.2151 127.946 32.5291 134.715 26.3535C141.317 20.3301 149.386 17.1389 159.731 16.6781L159.375 8.68604L159.019 0.693958C145.432 1.29913 133.647 5.66925 123.931 14.5335C114.382 23.2457 107.405 35.7738 102.262 51.7253C92.0444 83.417 88.2753 131.244 88.2753 197.562L96.2753 197.562ZM159.375 8.68604V16.686H159.594V8.68604V0.686035H159.375V8.68604Z" fill="#355E3B" mask="url(#path-6-outside-1_227_2051)"/>
<path d="M173.582 159.938C175.502 159.938 177.343 159.176 178.701 157.818C180.058 156.461 180.821 154.619 180.821 152.699C180.821 150.779 180.058 148.938 178.701 147.58C177.343 146.223 175.502 145.46 173.582 145.46C171.662 145.46 169.821 146.223 168.463 147.58C167.106 148.938 166.343 150.779 166.343 152.699C166.343 154.619 167.106 156.461 168.463 157.818C169.821 159.176 171.662 159.938 173.582 159.938ZM151.865 152.699C151.865 154.619 151.102 156.461 149.744 157.818C148.387 159.176 146.546 159.938 144.626 159.938C142.706 159.938 140.864 159.176 139.507 157.818C138.149 156.461 137.386 154.619 137.386 152.699C137.386 150.779 138.149 148.938 139.507 147.58C140.864 146.223 142.706 145.46 144.626 145.46C146.546 145.46 148.387 146.223 149.744 147.58C151.102 148.938 151.865 150.779 151.865 152.699ZM136.373 172.477C137.833 171.261 139.712 170.667 141.605 170.824C143.498 170.981 145.254 171.876 146.493 173.316L146.529 173.353C146.597 173.43 146.747 173.575 146.978 173.787C147.442 174.2 148.202 174.815 149.259 175.452C151.336 176.697 154.587 178.036 159.104 178.036C163.621 178.036 166.871 176.697 168.949 175.452C169.939 174.863 170.855 174.158 171.678 173.353L171.714 173.316C172.969 171.901 174.728 171.033 176.615 170.898C178.501 170.762 180.366 171.371 181.809 172.593C183.253 173.816 184.161 175.554 184.339 177.437C184.517 179.32 183.95 181.198 182.761 182.669L182.754 182.684L182.747 182.691L182.725 182.72L182.674 182.778L182.544 182.923C182.038 183.499 181.493 184.04 180.915 184.544C179.866 185.485 178.367 186.687 176.405 187.867C171.171 190.968 165.187 192.575 159.104 192.515C153.02 192.573 147.036 190.963 141.802 187.86C139.701 186.603 137.767 185.086 136.047 183.343L135.664 182.93L135.533 182.778L135.483 182.72L135.461 182.691L135.446 182.677C134.836 181.946 134.376 181.102 134.092 180.193C133.808 179.285 133.706 178.329 133.792 177.381C133.878 176.433 134.151 175.511 134.593 174.668C135.036 173.825 135.641 173.078 136.373 172.469V172.477Z" fill="#355E3B"/>
<path d="M93.9434 86.5723L102.001 89.258" stroke="#6E8D4C" stroke-width="8" stroke-linecap="round"/>
<path d="M134.23 282.631L140.516 288.342" stroke="#6E8D4C" stroke-width="8" stroke-linecap="round"/>
<path d="M110.058 322.917L116.344 328.629" stroke="#6E8D4C" stroke-width="8" stroke-linecap="round"/>
<path d="M214.802 113.43L223.939 108.058" stroke="#6E8D4C" stroke-width="8" stroke-linecap="round"/>
<path d="M193.316 234.288L202.452 228.916" stroke="#6E8D4C" stroke-width="8" stroke-linecap="round"/>
<path d="M185.259 360.517L190.63 355.146" stroke="#6E8D4C" stroke-width="8" stroke-linecap="round"/>
<path d="M171.831 16.0605L173.808 6.00002" stroke="#6E8D4C" stroke-width="8" stroke-linecap="round"/>
<path d="M13.3721 108.058L21.4293 113.43" stroke="#6E8D4C" stroke-width="8" stroke-linecap="round"/>
<path d="M249.717 137.601L257.774 142.973" stroke="#6E8D4C" stroke-width="8" stroke-linecap="round"/>
<path d="M78.7017 145.658L69.7724 153.716" stroke="#6E8D4C" stroke-width="8" stroke-linecap="round"/>
<path d="M136.916 59.7151L144.973 70.458" stroke="#6E8D4C" stroke-width="8" stroke-linecap="round"/>
<path d="M315.046 159.087L306.117 167.144" stroke="#6E8D4C" stroke-width="8" stroke-linecap="round"/>
<path d="M16.0576 177.887L24.1148 183.259" stroke="#6E8D4C" stroke-width="8" stroke-linecap="round"/>
<path d="M236.288 177.887L244.345 183.259" stroke="#6E8D4C" stroke-width="8" stroke-linecap="round"/>
<path d="M72.4585 210.116L74.8597 219.497" stroke="#6E8D4C" stroke-width="8" stroke-linecap="round"/>
</svg>
