<svg width="330" height="506" viewBox="0 0 330 506" fill="none" xmlns="http://www.w3.org/2000/svg">
<ellipse cx="173.633" cy="477.867" rx="100.633" ry="27.8675" fill="#355E3B" fill-opacity="0.25"/>
<path d="M88.1311 394.932C79.6757 394.343 82.5354 413.827 88.5791 440.364C94.1767 464.941 112.927 485.735 138.031 488.009C147.042 488.825 157.005 489.097 169.499 488.971C187.283 488.369 200.3 487.737 212.816 486.488C231.837 484.59 249.042 473.244 253.404 454.633C256.745 440.374 259.273 421.119 262.175 393.264L88.1311 394.932Z" fill="#8C7878" stroke="#3D2D15" stroke-width="8"/>
<path d="M174.158 351.951C202.668 351.951 228.58 354.032 247.454 357.435C256.858 359.13 264.713 361.188 270.312 363.573C273.095 364.76 275.548 366.121 277.369 367.725C279.171 369.312 280.811 371.562 280.811 374.456C280.81 377.35 279.171 379.599 277.369 381.187C275.548 382.791 273.095 384.152 270.312 385.338C264.713 387.724 256.858 389.782 247.454 391.477C228.58 394.879 202.668 396.96 174.158 396.96C145.649 396.96 119.737 394.879 100.862 391.477C91.458 389.782 83.6029 387.724 78.0049 385.338C75.2218 384.152 72.7684 382.791 70.9473 381.187C69.2015 379.649 67.6085 377.49 67.5107 374.725L67.5059 374.456L67.5107 374.187C67.6085 371.422 69.2015 369.263 70.9473 367.725C72.7684 366.121 75.2218 364.76 78.0049 363.573C83.6029 361.188 91.458 359.13 100.862 357.435C119.737 354.032 145.649 351.951 174.158 351.951Z" fill="#D6C7C7" stroke="#3D2D15" stroke-width="8"/>
<path d="M175.045 365.288C209.42 365.288 239.069 368.319 257.364 373.089H278.815V387.803L278.811 388.063C278.722 390.736 277.271 392.879 275.585 394.455C273.845 396.081 271.498 397.458 268.838 398.653C263.492 401.055 255.979 403.118 246.927 404.814C228.756 408.219 203.552 410.297 175.045 410.297C146.535 410.297 120.623 408.216 101.749 404.813C92.3447 403.118 84.4896 401.06 78.8916 398.675C76.1085 397.488 73.6551 396.127 71.834 394.523C70.0694 392.969 68.4624 390.779 68.3965 387.971L67.5156 375.65L67.1904 371.094L71.75 371.373L92.623 372.65C111.805 368.141 141.674 365.288 175.045 365.288Z" fill="#D6C7C7" stroke="#3D2D15" stroke-width="8"/>
<path d="M175.265 356.198C201.222 356.198 224.799 357.612 241.956 359.921C250.505 361.071 257.624 362.464 262.687 364.075C265.19 364.871 267.429 365.794 269.123 366.908C270.62 367.892 272.826 369.784 272.826 372.787C272.826 375.79 270.62 377.683 269.123 378.667C267.429 379.781 265.19 380.703 262.687 381.499C257.624 383.109 250.505 384.503 241.956 385.653C224.799 387.962 201.222 389.376 175.265 389.376C149.307 389.376 125.73 387.962 108.572 385.653C100.023 384.503 92.9044 383.109 87.8418 381.499C85.3388 380.702 83.0994 379.781 81.4053 378.667C79.9554 377.713 77.8397 375.908 77.709 373.065L77.7021 372.787L77.709 372.509C77.8399 369.666 79.9555 367.861 81.4053 366.908C83.0994 365.794 85.3387 364.871 87.8418 364.075C92.9044 362.464 100.023 361.071 108.572 359.921C125.73 357.612 149.307 356.198 175.265 356.198Z" fill="#885E39" stroke="#3D2D15" stroke-width="8"/>
<path d="M324.711 238.864C291.962 174.386 236.81 194.343 213.328 212.382L211.424 219.29L216.184 220.442C219.04 220.442 298.055 288.373 324.711 238.864Z" fill="#688549" stroke="#355E3B" stroke-width="8"/>
<path d="M8.6491 316.007C86.3317 200.869 138.755 235.794 155.256 267.649C155.256 267.265 155.637 265.576 157.16 261.892C92.4245 169.781 29.9103 259.589 6.74512 316.007H8.6491Z" fill="#A8C686"/>
<path d="M155.256 267.649C138.755 235.794 86.3317 200.869 8.6491 316.007C63.4839 329.824 123.523 305.645 146.688 291.828L155.256 267.649Z" fill="#688549"/>
<path d="M155.256 267.649C138.755 235.794 86.3317 200.869 8.6491 316.007M155.256 267.649L146.688 291.828C123.523 305.645 63.4839 329.824 8.6491 316.007M155.256 267.649C155.256 267.265 155.637 265.577 157.16 261.892C92.4245 169.781 29.9103 259.589 6.74512 316.007H8.6491" stroke="#355E3B" stroke-width="8"/>
<path d="M181.908 225.048C124.027 296.894 146.367 354.003 164.773 373.576C170.103 363.444 189.04 369.657 193.483 369.657C183.011 317.845 156.205 302.192 205.709 225.048C276.302 115.037 212.055 73.0645 181.908 74.2159L178.101 81.1242L195.237 89.1839C214.911 104.536 239.79 153.201 181.908 225.048Z" fill="#688549" stroke="#355E3B" stroke-width="8"/>
<path d="M185.262 80.5661C185.262 80.5661 186.985 75.4587 185.75 73.054C138.918 -18.1791 38.0505 13.0447 8.23979 54.6587C7.094 56.2582 5.52649 58.0699 6.08871 59.9554C8.2939 67.3508 51.6996 48.3263 116.743 63.0446C126.385 66.6138 144.152 72.6385 148.104 74.193C165.687 81.11 185.262 80.5661 185.262 80.5661Z" fill="#A8C686"/>
<path d="M23.0322 96.9474C-33.9624 154.921 194.926 184.968 190.154 85.7292C202.415 206.556 -56.3515 166.107 23.0322 96.9474Z" fill="#A8C686"/>
<path d="M148.104 74.193C144.152 72.6385 126.385 66.6138 116.743 63.0446C137.349 70.6724 104.446 60.0192 95.805 59.2944C53.3338 73.1034 38.2067 83.7271 23.0322 96.9474C-33.9624 154.921 194.926 184.968 190.154 85.7292C190.049 83.5555 185.577 82.8715 185.262 80.5661C185.262 80.5661 165.687 81.11 148.104 74.193Z" fill="#CD6F71"/>
<path d="M116.743 63.0446C126.385 66.6138 144.152 72.6385 148.104 74.193C165.687 81.11 185.262 80.5661 185.262 80.5661M116.743 63.0446C51.6996 48.3263 8.2939 67.3508 6.08871 59.9554C5.52649 58.0699 7.094 56.2582 8.23979 54.6587C38.0505 13.0447 138.918 -18.1791 185.75 73.054C186.985 75.4587 185.262 80.5661 185.262 80.5661V80.5661M116.743 63.0446C137.349 70.6724 104.446 60.0192 95.805 59.2944M185.262 80.5661C185.577 82.8715 190.049 83.5555 190.154 85.7292M190.154 85.7292C194.926 184.968 -33.9624 154.921 23.0322 96.9474M190.154 85.7292C202.415 206.556 -56.3515 166.107 23.0322 96.9474M95.805 59.2944C53.3338 73.1034 38.2067 83.7271 23.0322 96.9474M95.805 59.2944C87.1643 58.5697 35.8578 83.9016 23.0322 96.9474" stroke="#355E3B" stroke-width="8"/>
<path d="M39.9906 107.386C30.3967 112.385 28.2903 124.499 27.6557 132.943L39.9906 141.166C37.2495 132.943 37.7058 117.519 39.9906 107.386Z" fill="#D4ECDD"/>
<path d="M64.6604 108.273C52.3255 115.126 53.696 137.055 56.7469 145.507L76.7387 150.112C71.5131 141.166 64.6604 120.608 64.6604 108.273Z" fill="#D4ECDD"/>
<path d="M98.924 107.386C90.5465 121.203 94.5093 141.285 97.6826 151.264L109.107 150.112C109.107 139.75 107.302 119.361 98.924 107.386Z" fill="#D4ECDD"/>
<path d="M128.146 146.658C134.558 130.539 128.146 114.496 124.338 107.511C137.299 113.755 142.426 130.539 142.426 142.053C141.157 143.204 136.524 145.737 128.146 146.658Z" fill="#D4ECDD"/>
<path d="M164.71 132.943C167.798 123.012 159.228 109.644 153.746 105.532C159.839 105.532 174.651 116.496 177.045 121.979C176.728 123.13 171.565 127.416 164.71 132.943Z" fill="#D4ECDD"/>
<path d="M23.544 107.386C19.8675 107.386 15.5369 111.288 13.9502 115.126L18.0618 124.72C18.0618 119.238 20.8029 112.385 23.544 107.386Z" fill="#D4ECDD"/>
<path d="M37.707 72.639C29.4838 77.1366 29.0262 86.3444 30.3967 93.1972L38.62 89.0855C37.2495 86.3444 36.1838 79.0868 37.707 72.639Z" fill="#D4ECDD"/>
<path d="M67.4015 63.0452C63.2898 67.1568 63.2898 69.8979 63.2898 75.2721L70.1426 71.2684C68.772 69.8979 67.4015 68.5273 67.4015 63.0452Z" fill="#D4ECDD"/>
<path d="M39.9906 107.386C30.3967 112.385 28.2903 124.499 27.6557 132.943L39.9906 141.166C37.2495 132.943 37.7058 117.519 39.9906 107.386Z" stroke="#355E3B"/>
<path d="M64.6604 108.273C52.3255 115.126 53.696 137.055 56.7469 145.507L76.7387 150.112C71.5131 141.166 64.6604 120.608 64.6604 108.273Z" stroke="#355E3B"/>
<path d="M98.924 107.386C90.5465 121.203 94.5093 141.285 97.6826 151.264L109.107 150.112C109.107 139.75 107.302 119.361 98.924 107.386Z" stroke="#355E3B"/>
<path d="M128.146 146.658C134.558 130.539 128.146 114.496 124.338 107.511C137.299 113.755 142.426 130.539 142.426 142.053C141.157 143.204 136.524 145.737 128.146 146.658Z" stroke="#355E3B"/>
<path d="M164.71 132.943C167.798 123.012 159.228 109.644 153.746 105.532C159.839 105.532 174.651 116.496 177.045 121.979C176.728 123.13 171.565 127.416 164.71 132.943Z" stroke="#355E3B"/>
<path d="M23.544 107.386C19.8675 107.386 15.5369 111.288 13.9502 115.126L18.0618 124.72C18.0618 119.238 20.8029 112.385 23.544 107.386Z" stroke="#355E3B"/>
<path d="M37.707 72.639C29.4838 77.1366 29.0262 86.3444 30.3967 93.1972L38.62 89.0855C37.2495 86.3444 36.1838 79.0868 37.707 72.639Z" stroke="#355E3B"/>
<path d="M67.4015 63.0452C63.2898 67.1568 63.2898 69.8979 63.2898 75.2721L70.1426 71.2684C68.772 69.8979 67.4015 68.5273 67.4015 63.0452Z" stroke="#355E3B"/>
<path d="M19.2252 84.8467C11.9446 73.9471 10.9439 68.5031 13.6851 63.0209L35.8316 59.9168C31.8017 66.4499 20.074 76.2897 19.2252 84.8467Z" fill="#D4ECDD"/>
<path d="M55.0193 84.5864C45.331 73.1656 41.6964 63.0805 45.4255 58.5461L63.2426 57.1755C60.6995 61.1169 57.6525 72.9193 55.0193 84.5864Z" fill="#D4ECDD"/>
<path d="M129.791 92.3883C132.325 89.1493 133.24 72.9499 131.77 68.1399L146.845 73.6221C147.051 76.7019 136.829 88.3761 129.791 92.3883Z" fill="#D4ECDD"/>
<path d="M113.598 88.1835C120.168 81.4478 121.92 69.6943 120.45 64.8843L104.004 60.7726C106.984 66.8809 112.351 80.9209 113.598 88.1835Z" fill="#D4ECDD"/>
<path d="M86.1867 86.813C78.9061 75.9134 78.2664 65.3524 79.3516 58.5461L92.0864 58.5461C92.3821 65.8941 90.9446 78.5194 86.1867 86.813Z" fill="#D4ECDD"/>
<path d="M19.2252 84.8467C11.9446 73.9471 10.9439 68.5031 13.6851 63.0209L35.8316 59.9168C31.8017 66.4499 20.074 76.2897 19.2252 84.8467Z" stroke="#355E3B"/>
<path d="M55.0193 84.5864C45.331 73.1656 41.6964 63.0805 45.4255 58.5461L63.2426 57.1755C60.6995 61.1169 57.6525 72.9193 55.0193 84.5864Z" stroke="#355E3B"/>
<path d="M129.791 92.3883C132.325 89.1493 133.24 72.9499 131.77 68.1399L146.845 73.6221C147.051 76.7019 136.829 88.3761 129.791 92.3883Z" stroke="#355E3B"/>
<path d="M113.598 88.1835C120.168 81.4478 121.92 69.6943 120.45 64.8843L104.004 60.7726C106.984 66.8809 112.351 80.9209 113.598 88.1835Z" stroke="#355E3B"/>
<path d="M86.1867 86.813C78.9061 75.9134 78.2664 65.3524 79.3516 58.5461L92.0864 58.5461C92.3821 65.8941 90.9446 78.5194 86.1867 86.813Z" stroke="#355E3B"/>
<path d="M127.556 40.4482C126.583 41.0418 125.414 41.2246 124.306 40.9564C123.199 40.6881 122.243 39.9908 121.649 39.0178C121.056 38.0448 120.873 36.8758 121.141 35.7681C121.409 34.6603 122.107 33.7044 123.08 33.1108C124.053 32.5172 125.221 32.3344 126.329 32.6026C127.437 32.8709 128.393 33.5682 128.987 34.5412C129.58 35.5142 129.763 36.6831 129.495 37.7909C129.226 38.8987 128.529 39.8545 127.556 40.4482Z" fill="#355E3B"/>
<path d="M102.023 34.033C102.996 33.4393 103.693 32.4835 103.962 31.3757C104.23 30.2679 104.047 29.099 103.453 28.126C102.86 27.153 101.904 26.4556 100.796 26.1874C99.6883 25.9192 98.5193 26.102 97.5463 26.6956C96.5733 27.2892 95.876 28.2451 95.6078 29.3529C95.3395 30.4606 95.5223 31.6296 96.116 32.6026C96.7096 33.5756 97.6654 34.2729 98.7732 34.5412C99.881 34.8094 101.05 34.6266 102.023 34.033Z" fill="#355E3B"/>
</svg>
