<svg width="317" height="522" viewBox="0 0 317 522" fill="none" xmlns="http://www.w3.org/2000/svg">
<ellipse cx="158.633" cy="493.867" rx="100.633" ry="27.8675" fill="#355E3B" fill-opacity="0.25"/>
<path d="M158.488 369.568C187.704 369.568 214.251 371.573 233.579 374.849C243.21 376.481 251.24 378.461 256.954 380.75C259.791 381.887 262.291 383.192 264.15 384.732C265.966 386.236 267.737 388.458 267.737 391.407C267.737 394.357 265.966 396.579 264.15 398.083C262.291 399.623 259.791 400.927 256.954 402.064C251.24 404.353 243.21 406.333 233.579 407.965C214.251 411.241 187.704 413.246 158.488 413.246C129.271 413.246 102.725 411.241 83.397 407.965C73.7654 406.333 65.7358 404.353 60.022 402.064C57.1843 400.927 54.6844 399.623 52.8257 398.083C51.066 396.626 49.3493 394.495 49.2437 391.682L49.2388 391.407L49.2437 391.133C49.349 388.319 51.0658 386.189 52.8257 384.732C54.6845 383.192 57.1841 381.887 60.022 380.75C65.7358 378.461 73.7654 376.481 83.397 374.849C102.725 371.573 129.271 369.568 158.488 369.568Z" fill="#D6C7C7" stroke="#3D2D15" stroke-width="8"/>
<path d="M70.3489 411.244C61.8332 410.686 64.513 428.819 70.4845 453.732C76.3693 478.284 95.5109 498.724 120.658 500.97C130.117 501.814 140.562 502.096 153.763 501.972C172.685 501.369 186.343 500.735 199.627 499.436C218.214 497.619 235.279 486.926 239.787 468.802C243.207 455.05 245.796 436.483 248.768 409.634L70.3489 411.244Z" fill="#8C7878" stroke="#3D2D15" stroke-width="8"/>
<path d="M159.397 382.425C194.652 382.425 225.038 385.351 243.755 389.945H265.691V404.274L265.686 404.54C265.59 407.258 264.026 409.374 262.32 410.874C260.542 412.437 258.15 413.756 255.438 414.901C249.983 417.206 242.305 419.19 233.036 420.823C214.431 424.101 188.612 426.104 159.397 426.104C130.18 426.104 103.634 424.098 84.3062 420.822C74.6746 419.19 66.6449 417.211 60.9312 414.921C58.0935 413.784 55.5936 412.48 53.7349 410.94C51.9575 409.468 50.2248 407.31 50.1509 404.454L49.2505 392.587L48.9038 388.028L53.4683 388.291L74.9185 389.524C94.5508 385.179 125.169 382.425 159.397 382.425Z" fill="#D6C7C7" stroke="#3D2D15" stroke-width="8"/>
<path d="M159.623 373.662C186.226 373.662 210.384 375.025 227.957 377.248C236.715 378.356 243.992 379.696 249.159 381.242C251.713 382.006 253.988 382.888 255.706 383.95C257.164 384.851 259.552 386.708 259.552 389.799C259.552 392.889 257.164 394.745 255.706 395.646C253.988 396.709 251.713 397.591 249.159 398.355C243.992 399.901 236.715 401.24 227.957 402.348C210.384 404.572 186.227 405.935 159.623 405.935C133.02 405.935 108.862 404.572 91.2891 402.348C82.5313 401.24 75.2537 399.901 70.0869 398.355C67.5331 397.591 65.2586 396.709 63.54 395.646C62.1275 394.773 59.8426 393.004 59.7012 390.085L59.6943 389.799L59.7012 389.512C59.8426 386.593 62.1275 384.823 63.54 383.95C65.2585 382.888 67.5333 382.006 70.0869 381.242C75.2537 379.696 82.5312 378.356 91.2891 377.248C108.862 375.025 133.02 373.662 159.623 373.662Z" fill="#885E39" stroke="#3D2D15" stroke-width="8"/>
<path d="M179.552 400.384C176.636 398.723 148.008 393.792 145.929 403C142.9 390.955 141.912 370.983 143.642 356.505L142.798 357.92L141.566 359.388C93.5856 360.784 77.9556 315.194 76.1382 292.225C80.6818 297.749 94.8578 308.274 115.213 306.181C135.568 304.088 150.646 322.172 155.64 331.476C161.306 314.91 164.29 287.316 165.192 272.163L178.823 251.229C180.453 262.319 181.879 280 180.957 297.459C189.333 281.758 223.714 256.463 294.231 280.886C281.035 280.886 258.71 290.944 244.506 300.628C241.764 302.497 238.823 304.044 235.641 304.989C219.487 309.786 182.885 320.449 178.823 316.596C176.824 327.56 173.405 337.277 167.919 343.688C147.018 368.111 183.537 402.653 179.552 400.384Z" fill="#A8C686"/>
<path d="M180.957 297.459C181.879 280 180.453 262.319 178.823 251.229L165.192 272.163C164.29 287.316 161.306 314.91 155.64 331.476M180.957 297.459C189.333 281.758 223.714 256.463 294.231 280.886C281.035 280.886 258.71 290.944 244.506 300.628C241.764 302.497 238.823 304.044 235.641 304.989C219.487 309.786 182.885 320.449 178.823 316.596M180.957 297.459C180.612 303.988 179.938 310.486 178.823 316.596M178.823 316.596C176.824 327.56 173.405 337.277 167.919 343.688C147.018 368.111 183.537 402.653 179.552 400.384C176.636 398.723 148.008 393.792 145.929 403C142.9 390.955 141.912 370.983 143.642 356.505M155.64 331.476C153.696 337.162 151.436 341.548 148.835 343.688C145.927 346.08 144.335 350.713 143.642 356.505M155.64 331.476C150.646 322.172 135.568 304.088 115.213 306.181C94.8578 308.274 80.6818 297.749 76.1382 292.225C77.9556 315.194 93.5856 360.784 141.566 359.388L142.798 357.92L143.642 356.505" stroke="#355E3B" stroke-width="8"/>
<path d="M23.4321 210.233C34.3368 170.459 66.1419 165.749 80.6814 168.365L90.6773 191.044C79.7727 201.511 51.0572 220.002 23.4321 210.233Z" fill="#FFF67B" stroke="#9A5E05" stroke-width="8"/>
<path d="M104.675 277.561C84.1711 241.447 103.938 217.072 116.385 209.398L139.869 219.31C139.42 234.106 131.753 266.471 104.675 277.561Z" fill="#FFF67B" stroke="#9A5E05" stroke-width="8"/>
<path d="M228.395 266.578C185.769 262.397 175.995 232.967 176.436 218.774L198.23 205.783C210.692 214.502 234.172 238.869 228.395 266.578Z" fill="#FFF67B" stroke="#9A5E05" stroke-width="8"/>
<path d="M297.963 187.773C263.311 211.964 235.57 196.306 226.031 185.453L233.23 161.818C248.573 160.329 283 163.436 297.963 187.773Z" fill="#FFF67B" stroke="#9A5E05" stroke-width="8"/>
<path d="M42.5146 59.3347C49.7844 88.1188 71.2302 139.058 98.8552 112.542C133.387 79.3964 79.7721 61.9515 42.5146 59.3347Z" fill="#FFF67B" stroke="#9A5E05" stroke-width="8"/>
<path d="M149.657 7C128.126 40.1599 97.6631 106.154 148.06 104.85C211.057 103.219 180.288 41.1957 149.657 7Z" fill="#FFF67B" stroke="#9A5E05" stroke-width="8"/>
<path d="M294.163 93.6626C254.204 86.2085 179.105 82.479 198.381 127.194C222.477 183.088 271.834 133.342 294.163 93.6626Z" fill="#FFF67B" stroke="#9A5E05" stroke-width="8"/>
<path d="M156.708 282.956C181.814 252.2 219.463 189.716 169.21 185.833C106.393 180.98 130.067 245.809 156.708 282.956Z" fill="#FFF67B" stroke="#9A5E05" stroke-width="8"/>
<path d="M7.07471 161.712C44.5003 177.081 117.095 195.916 108.067 148.306C96.7827 88.7935 37.613 127.44 7.07471 161.712Z" fill="#FFF67B" stroke="#9A5E05" stroke-width="8"/>
<path d="M89.7678 20.9558C75.9552 69.1038 102.187 96.8412 117.029 104.691C122.482 105.854 135.567 105.389 144.291 94.2245C145.199 77.6518 127.025 34.9118 89.7678 20.9558Z" fill="#FFF67B" stroke="#9A5E05" stroke-width="8"/>
<path d="M218.352 17.2763C171.25 38.4894 166.334 75.6522 169.764 91.582C172.386 96.3154 181.258 105.559 195.768 104.668C209.481 94.5609 231.513 53.5265 218.352 17.2763Z" fill="#FFF67B" stroke="#9A5E05" stroke-width="8"/>
<path d="M310.879 137.73C267.436 110.251 231.85 125.632 219.488 136.758C216.651 141.377 213.071 153.467 221.44 164.879C237.581 170.827 285.544 167.434 310.879 137.73Z" fill="#FFF67B" stroke="#9A5E05" stroke-width="8"/>
<path d="M273.85 237.046C263.148 188.174 226.592 175.053 209.652 174.602C204.251 175.966 192.841 182.133 190.416 195.894C197.518 211.024 234.072 241.024 273.85 237.046Z" fill="#FFF67B" stroke="#9A5E05" stroke-width="8"/>
<path d="M45.9103 249.386C97.9274 250.419 119.501 219.202 123.786 203.464C123.622 198.105 119.94 186.044 106.523 180.667C89.5625 183.89 50.8591 211.292 45.9103 249.386Z" fill="#FFF67B" stroke="#9A5E05" stroke-width="8"/>
<path d="M7.82858 105.256C33.5592 148.661 72.5424 150.447 88.8176 145.915C93.5278 143.034 102.432 133.818 100.367 120.004C88.7927 107.675 44.4444 89.8151 7.82858 105.256Z" fill="#FFF67B" stroke="#9A5E05" stroke-width="8"/>
<path d="M261.393 53.2367C209.545 57.3855 191.459 90.5816 188.897 106.661C189.639 111.975 194.604 123.605 208.529 127.617C225.05 122.724 260.585 91.6174 261.393 53.2367Z" fill="#FFF67B" stroke="#9A5E05" stroke-width="8"/>
<path d="M157.014 80.7798C199.628 80.7798 233.89 113.898 233.89 154.41C233.89 194.922 199.628 228.04 157.014 228.04C114.401 228.04 80.1382 194.922 80.1382 154.41C80.1382 113.898 114.401 80.7798 157.014 80.7798Z" fill="#E4A74C" stroke="#9A5E05" stroke-width="8"/>
<path d="M173.118 148.921C175.036 148.921 176.876 148.159 178.233 146.802C179.589 145.445 180.352 143.606 180.352 141.687C180.352 139.769 179.589 137.929 178.233 136.572C176.876 135.215 175.036 134.453 173.118 134.453C171.199 134.453 169.36 135.215 168.003 136.572C166.646 137.929 165.884 139.769 165.884 141.687C165.884 143.606 166.646 145.445 168.003 146.802C169.36 148.159 171.199 148.921 173.118 148.921ZM151.417 141.687C151.417 143.606 150.655 145.445 149.298 146.802C147.942 148.159 146.102 148.921 144.183 148.921C142.265 148.921 140.425 148.159 139.068 146.802C137.712 145.445 136.95 143.606 136.95 141.687C136.95 139.769 137.712 137.929 139.068 136.572C140.425 135.215 142.265 134.453 144.183 134.453C146.102 134.453 147.942 135.215 149.298 136.572C150.655 137.929 151.417 139.769 151.417 141.687ZM135.937 161.449C137.395 160.234 139.273 159.641 141.165 159.798C143.057 159.955 144.811 160.85 146.05 162.288L146.086 162.325C146.153 162.402 146.303 162.546 146.534 162.759C146.997 163.171 147.757 163.786 148.813 164.422C150.889 165.667 154.137 167.005 158.651 167.005C163.164 167.005 166.412 165.667 168.488 164.422C169.478 163.834 170.393 163.13 171.215 162.325L171.252 162.288C172.505 160.874 174.263 160.007 176.148 159.872C178.033 159.737 179.896 160.345 181.339 161.566C182.781 162.787 183.689 164.525 183.866 166.406C184.044 168.288 183.478 170.165 182.29 171.634L182.283 171.649L182.276 171.656L182.254 171.685L182.203 171.743L182.073 171.888C181.567 172.463 181.023 173.004 180.446 173.508C179.397 174.448 177.899 175.649 175.939 176.828C170.709 179.926 164.729 181.532 158.651 181.472C152.571 181.53 146.592 179.922 141.362 176.821C139.262 175.565 137.33 174.049 135.611 172.307L135.228 171.895L135.098 171.743L135.047 171.685L135.025 171.656L135.011 171.642C134.401 170.912 133.941 170.068 133.658 169.16C133.374 168.252 133.272 167.297 133.358 166.35C133.444 165.402 133.716 164.481 134.159 163.639C134.601 162.797 135.206 162.05 135.937 161.442V161.449Z" fill="#9A5E05"/>
</svg>
