<svg width="298" height="394" viewBox="0 0 298 394" fill="none" xmlns="http://www.w3.org/2000/svg">
<ellipse cx="149" cy="363.5" rx="110" ry="30.5" fill="#355E3B" fill-opacity="0.25"/>
<path d="M150.517 155.268C183.801 155.268 214.068 158.61 236.13 164.081C247.13 166.808 256.314 170.12 262.846 173.95C269.1 177.617 274.23 182.553 274.23 188.956C274.23 195.358 269.1 200.295 262.846 203.962C256.314 207.792 247.13 211.103 236.13 213.831C214.068 219.302 183.801 222.643 150.517 222.643C117.232 222.643 86.964 219.302 64.9023 213.831C53.9026 211.103 44.7179 207.792 38.1865 203.962C31.9322 200.295 26.8018 195.358 26.8018 188.956C26.8018 182.553 31.9322 177.617 38.1865 173.95C44.7179 170.12 53.9025 166.808 64.9023 164.081C86.964 158.61 117.232 155.268 150.517 155.268Z" fill="#D6C7C7" stroke="#152B3D" stroke-width="8"/>
<path d="M50.2631 221.968C38.5517 220.844 45.4566 265.195 55.0871 319.982C59.3032 343.966 75.3784 365.572 99.3245 370.002C112.309 372.403 126.241 373.214 145.141 372.953C166.921 371.939 182.57 370.87 197.85 368.656C218.525 365.661 235.975 351.375 240.443 330.967C245.681 307.049 249.125 273.202 253.205 219.289L50.2631 221.968Z" fill="#8C7878" stroke="#3D2D15" stroke-width="8"/>
<path d="M151.551 176.665C191.638 176.665 226.255 181.52 247.659 189.181H271.903V210.37L271.89 210.955C271.605 216.964 266.961 221.717 261.124 225.325C254.893 229.177 246.111 232.497 235.52 235.228C214.276 240.704 184.833 244.04 151.551 244.04C118.266 244.04 87.9982 240.699 65.9365 235.228C54.9368 232.5 45.752 229.189 39.2207 225.36C33.0224 221.726 27.9307 216.844 27.8398 210.525L26.8076 190.623L26.5693 186.046L31.1367 186.431L55.3555 188.468C77.7896 181.232 112.646 176.665 151.551 176.665Z" fill="#D6C7C7" stroke="#152B3D" stroke-width="8"/>
<path d="M151.808 162.082C182.106 162.082 209.639 164.353 229.69 168.064C239.683 169.914 248.019 172.157 253.95 174.753C256.901 176.044 259.483 177.519 261.388 179.242C263.282 180.955 264.921 183.311 264.921 186.279C264.921 189.247 263.282 191.603 261.388 193.316C259.483 195.039 256.901 196.514 253.95 197.805C248.019 200.401 239.683 202.644 229.69 204.494C209.639 208.205 182.106 210.476 151.808 210.476C121.51 210.476 93.9759 208.205 73.9248 204.494C63.9321 202.644 55.5967 200.401 49.665 197.805C46.7138 196.514 44.1326 195.039 42.2275 193.316C40.3927 191.656 38.7971 189.394 38.6992 186.555L38.6943 186.279L38.6992 186.003C38.7972 183.164 40.3927 180.902 42.2275 179.242C44.1326 177.519 46.7138 176.044 49.665 174.753C55.5967 172.157 63.9321 169.914 73.9248 168.064C93.9759 164.353 121.51 162.082 151.808 162.082Z" fill="#396D88" stroke="#152B3D" stroke-width="8"/>
<path d="M98.4497 180.678C90.216 186.322 72.3701 201.738 66.8555 218.247C81.3314 227.933 113.864 214.395 128.321 206.416C126.326 199.801 126.48 196.349 126.885 190.219L98.4497 180.678Z" fill="#A8C686"/>
<path d="M126.885 190.219C126.48 196.349 126.326 199.801 128.321 206.416C133.108 216.413 142.47 240.178 148.139 240.81C158.065 241.918 169.74 219.28 172.265 202.21C172.899 197.926 172.957 193.992 172.265 190.873L126.885 190.219Z" fill="#A8C686"/>
<path d="M172.265 190.873C172.957 193.992 172.899 197.926 172.265 202.21C183.18 211.775 210.58 228.153 232.869 217.147C241.83 204.6 217.344 187.155 203.981 180C195.037 185.059 184.539 188.875 172.265 190.873Z" fill="#A8C686"/>
<path d="M128.321 206.416C113.864 214.395 81.3314 227.933 66.8555 218.247C72.3701 201.738 90.216 186.322 98.4497 180.678L126.885 190.219M128.321 206.416C126.326 199.801 126.48 196.349 126.885 190.219M128.321 206.416C133.108 216.413 142.47 240.178 148.139 240.81C158.065 241.918 169.74 219.28 172.265 202.21M126.885 190.219L172.265 190.873M172.265 190.873C172.957 193.992 172.899 197.926 172.265 202.21M172.265 190.873C184.539 188.875 195.037 185.059 203.981 180C217.344 187.155 241.83 204.6 232.869 217.147C210.58 228.153 183.18 211.775 172.265 202.21" stroke="#355E3B" stroke-width="8"/>
<path d="M148.79 183.903C148.813 187.001 148.573 189.853 148.138 192.383C156.856 192.62 164.882 192.075 172.265 190.873C184.539 188.875 195.036 185.06 203.98 180.001C207.642 177.93 211.043 175.65 214.199 173.201C233.95 157.876 244.098 135.926 248.389 116.989C250.077 109.54 250.859 102.558 250.963 96.6277C242.255 97.6346 231.231 100.055 219.656 104.284C209.437 108.018 198.788 113.162 188.924 119.987C169.058 133.732 152.375 154.297 148.79 183.903Z" fill="#C4058B"/>
<path d="M52.2067 96.6277C51.7367 105.083 51.0099 110.382 54.2172 121.667C59.1552 139.042 71.1812 163.063 90.407 175.92C92.9327 177.609 95.6109 179.2 98.4491 180.678C106.56 184.902 115.979 188.203 126.884 190.219C133.422 191.428 140.494 192.175 148.138 192.383C148.237 189.477 148.457 186.651 148.79 183.903C148.659 165.857 139.653 139.42 108.789 119.107C99.8247 113.207 89.0163 107.824 76.0459 103.313C68.794 100.791 60.8661 98.5421 52.2067 96.6277Z" fill="#C4058B"/>
<path d="M163.253 81.494C157.61 74.9872 152.211 70.4877 148.138 70.4877C144.57 70.4877 140.085 73.8796 135.36 79.0176C125.48 89.7624 114.553 108.143 108.789 119.107C139.653 139.42 148.659 165.857 148.79 183.903C152.375 154.297 169.058 133.732 188.924 119.987C183.247 109.58 172.893 92.6086 163.253 81.494Z" fill="#D18BBB"/>
<path d="M5.10254 112.312C9.23851 135.205 63.4083 164.164 90.407 175.92C71.1812 163.063 59.1552 139.042 54.2172 121.667C44.1645 117.265 41.2923 116.989 34.6862 115.063C25.4952 112.862 19.4636 110.661 5.10254 112.312Z" fill="#D18BBB"/>
<path d="M214.199 173.201C236.028 164.645 282.328 140.928 292.897 114.513C286.224 108.945 277.99 107.869 270.207 108.892C261.373 110.053 253.121 113.918 248.389 116.989C244.098 135.926 233.95 157.876 214.199 173.201Z" fill="#D18BBB"/>
<path d="M54.2172 121.667C51.0099 110.382 51.7367 105.083 52.2067 96.6277C60.8661 98.5421 68.794 100.791 76.0459 103.313C74.5568 98.8294 70.8406 82.3901 69.4399 75.7157C58.4853 65.81 42.4412 66.0852 28.3674 64.1191C28.9418 70.7628 26.6441 96.6277 34.6862 115.063C41.2923 116.989 44.1645 117.265 54.2172 121.667Z" fill="#E4BCD8"/>
<path d="M219.656 104.284C231.231 100.055 242.255 97.6346 250.963 96.6277C250.859 102.558 250.077 109.54 248.389 116.989C253.121 113.918 261.373 110.053 270.207 108.892C273.462 99.9427 279.628 78.3022 278.249 63.3336C259.58 59.4414 242.251 69.1973 230.283 76.3941C227.023 86.6045 223.066 96.6119 219.656 104.284Z" fill="#E4BCD8"/>
<path d="M148.138 70.4877C152.211 70.4877 157.61 74.9872 163.253 81.494C168.942 73.4068 178.357 61.6055 188.924 51.2071C179.828 37.2723 166.808 18.4428 148.138 5C130.331 16.7918 116.867 35.4721 108.789 51.5337C119.414 60.8816 129.313 71.6843 135.36 79.0176C140.085 73.8796 144.57 70.4877 148.138 70.4877Z" fill="#C4058B"/>
<path d="M76.0459 103.313C89.0163 107.824 99.8247 113.207 108.789 119.107C114.553 108.143 125.48 89.7624 135.36 79.0176C129.313 71.6843 119.414 60.8816 108.789 51.5337C96.9552 41.1226 78.7622 31.3752 69.4399 31.3752C61.1105 45.4083 67.7652 67.7361 69.4399 75.7157C70.8406 82.3901 74.5568 98.8294 76.0459 103.313Z" fill="#CD6FB0"/>
<path d="M163.253 81.494C172.893 92.6086 183.247 109.58 188.924 119.987C198.788 113.162 209.437 108.018 219.656 104.284C223.066 96.6119 227.023 86.6045 230.283 76.3941C234.304 52.5625 233.73 46.509 226.837 28.6636C210.752 31.6505 201.366 38.9628 188.924 51.2071C178.357 61.6055 168.942 73.4068 163.253 81.494Z" fill="#CD6FB0"/>
<path d="M148.138 192.383C140.494 192.175 133.422 191.428 126.884 190.219C115.979 188.203 106.56 184.902 98.4491 180.678C95.6109 179.2 92.9327 177.609 90.407 175.92M148.138 192.383C156.856 192.62 164.882 192.075 172.265 190.873C184.539 188.875 195.036 185.06 203.98 180.001C207.642 177.93 211.043 175.65 214.199 173.201M148.138 192.383C148.573 189.853 148.813 187.001 148.79 183.903M148.138 192.383C148.237 189.477 148.457 186.651 148.79 183.903M108.789 119.107C99.8247 113.207 89.0163 107.824 76.0459 103.313M108.789 119.107C114.553 108.143 125.48 89.7624 135.36 79.0176M108.789 119.107C139.653 139.42 148.659 165.857 148.79 183.903M188.924 119.987C183.247 109.58 172.893 92.6086 163.253 81.494M188.924 119.987C198.788 113.162 209.437 108.018 219.656 104.284M188.924 119.987C169.058 133.732 152.375 154.297 148.79 183.903M163.253 81.494C157.61 74.9872 152.211 70.4877 148.138 70.4877C144.57 70.4877 140.085 73.8796 135.36 79.0176M163.253 81.494C168.942 73.4068 178.357 61.6055 188.924 51.2071M219.656 104.284C231.231 100.055 242.255 97.6346 250.963 96.6277C250.859 102.558 250.077 109.54 248.389 116.989M219.656 104.284C223.066 96.6119 227.023 86.6045 230.283 76.3941M214.199 173.201C236.028 164.645 282.328 140.928 292.897 114.513C286.224 108.945 277.99 107.869 270.207 108.892M214.199 173.201C233.95 157.876 244.098 135.926 248.389 116.989M248.389 116.989C253.121 113.918 261.373 110.053 270.207 108.892M270.207 108.892C273.462 99.9427 279.628 78.3022 278.249 63.3336C259.58 59.4414 242.251 69.1973 230.283 76.3941M230.283 76.3941C234.304 52.5625 233.73 46.509 226.837 28.6636C210.752 31.6505 201.366 38.9628 188.924 51.2071M90.407 175.92C63.4083 164.164 9.23851 135.205 5.10254 112.312C19.4636 110.661 25.4952 112.862 34.6862 115.063M90.407 175.92C71.1812 163.063 59.1552 139.042 54.2172 121.667M54.2172 121.667C51.0099 110.382 51.7367 105.083 52.2067 96.6277C60.8661 98.5421 68.794 100.791 76.0459 103.313M54.2172 121.667C44.1645 117.265 41.2923 116.989 34.6862 115.063M76.0459 103.313C74.5568 98.8294 70.8406 82.3901 69.4399 75.7157M135.36 79.0176C129.313 71.6843 119.414 60.8816 108.789 51.5337M108.789 51.5337C96.9552 41.1226 78.7622 31.3752 69.4399 31.3752C61.1105 45.4083 67.7652 67.7361 69.4399 75.7157M108.789 51.5337C116.867 35.4721 130.331 16.7918 148.138 5C166.808 18.4428 179.828 37.2723 188.924 51.2071M34.6862 115.063C26.6441 96.6277 28.9418 70.7628 28.3674 64.1191C42.4412 66.0852 58.4853 65.81 69.4399 75.7157" stroke="#530101" stroke-width="8"/>
<path d="M159.825 110.202C161.26 110.202 162.637 109.632 163.651 108.617C164.666 107.602 165.236 106.226 165.236 104.791C165.236 103.355 164.666 101.979 163.651 100.964C162.637 99.9491 161.26 99.3789 159.825 99.3789C158.39 99.3789 157.013 99.9491 155.998 100.964C154.983 101.979 154.413 103.355 154.413 104.791C154.413 106.226 154.983 107.602 155.998 108.617C157.013 109.632 158.39 110.202 159.825 110.202ZM143.59 104.791C143.59 106.226 143.02 107.602 142.005 108.617C140.99 109.632 139.613 110.202 138.178 110.202C136.743 110.202 135.366 109.632 134.352 108.617C133.337 107.602 132.767 106.226 132.767 104.791C132.767 103.355 133.337 101.979 134.352 100.964C135.366 99.9491 136.743 99.3789 138.178 99.3789C139.613 99.3789 140.99 99.9491 142.005 100.964C143.02 101.979 143.59 103.355 143.59 104.791ZM132.009 119.575C133.1 118.666 134.505 118.223 135.92 118.34C137.336 118.457 138.648 119.127 139.574 120.203L139.601 120.23C139.652 120.288 139.764 120.396 139.937 120.555C140.283 120.863 140.852 121.323 141.642 121.799C143.195 122.73 145.625 123.731 149.002 123.731C152.378 123.731 154.808 122.73 156.361 121.799C157.101 121.359 157.786 120.832 158.402 120.23L158.429 120.203C159.367 119.145 160.681 118.496 162.092 118.395C163.502 118.294 164.896 118.749 165.975 119.662C167.054 120.576 167.733 121.876 167.866 123.284C167.999 124.691 167.576 126.095 166.687 127.195L166.681 127.206L166.676 127.211L166.66 127.233L166.622 127.276L166.524 127.384C166.146 127.815 165.739 128.22 165.307 128.596C164.522 129.3 163.402 130.198 161.935 131.08C158.022 133.398 153.549 134.6 149.002 134.555C144.453 134.598 139.98 133.395 136.068 131.075C134.497 130.136 133.051 129.001 131.765 127.698L131.479 127.39L131.381 127.276L131.343 127.233L131.327 127.211L131.316 127.2C130.86 126.654 130.516 126.023 130.304 125.344C130.092 124.665 130.015 123.95 130.08 123.241C130.144 122.533 130.348 121.843 130.679 121.213C131.01 120.583 131.462 120.025 132.009 119.57V119.575Z" fill="#530101"/>
</svg>
