<svg width="77" height="78" viewBox="0 0 77 78" fill="none" xmlns="http://www.w3.org/2000/svg">
<path d="M26.6469 79.192C25.7781 79.1315 25.5346 80.1803 25.6747 81.9513C26.3479 90.459 33.6584 97.2437 42.1923 97.1582C51.1345 96.8555 58.4747 91.299 59.5101 82.4117C59.6373 81.3196 59.7656 80.1432 59.8979 78.8733L26.6469 79.192Z" fill="#8C7878" stroke="#3D2D15" stroke-width="2"/>
<path d="M43.082 70.7451C48.5382 70.7451 53.5035 71.1437 57.127 71.7969C58.9305 72.122 60.4516 72.5184 61.5449 72.9844C62.0876 73.2157 62.5824 73.4873 62.957 73.8174C63.3269 74.1432 63.6943 74.6322 63.6943 75.2803C63.6943 75.9283 63.3268 76.4173 62.957 76.7432C62.5824 77.0732 62.0876 77.3449 61.5449 77.5762C60.4516 78.0421 58.9305 78.4395 57.127 78.7646C53.5035 79.4178 48.5381 79.8154 43.082 79.8154C37.6259 79.8154 32.6606 79.4178 29.0371 78.7646C27.2337 78.4396 25.7134 78.0421 24.6201 77.5762C24.0774 77.3449 23.5827 77.0732 23.208 76.7432C22.8613 76.4377 22.5164 75.9892 22.4746 75.4004L22.4707 75.2803L22.4746 75.1611C22.5162 74.5719 22.8612 74.1229 23.208 73.8174C23.5827 73.4873 24.0774 73.2157 24.6201 72.9844C25.7133 72.5185 27.2338 72.122 29.0371 71.7969C32.6606 71.1437 37.6259 70.7451 43.082 70.7451Z" fill="#D6C7C7" stroke="#3D2D15" stroke-width="2"/>
<path d="M43.252 73.2932C49.8078 73.2932 55.4801 73.8698 59.0059 74.7834H63.3125V77.8303L63.3086 77.9456C63.2708 78.5137 62.9578 78.959 62.6211 79.2737C62.2621 79.6092 61.7876 79.8847 61.2676 80.1184C60.2214 80.5885 58.765 80.9863 57.0283 81.3118C53.5382 81.9658 48.7078 82.3635 43.252 82.3635C37.7957 82.3635 32.8305 81.9659 29.207 81.3127C27.4034 80.9876 25.8824 80.5902 24.7891 80.1243C24.2466 79.893 23.7525 79.6212 23.3779 79.2913C23.0217 78.9775 22.6683 78.5125 22.6426 77.8997L22.4736 75.5256L22.3916 74.387L23.5322 74.4563L27.4873 74.6985C31.178 73.8361 36.888 73.2932 43.252 73.2932Z" fill="#D6C7C7" stroke="#3D2D15" stroke-width="2"/>
<path d="M43.2939 71.5566C48.26 71.5566 52.7752 71.8277 56.0664 72.2705C57.7046 72.4909 59.0808 72.7584 60.0674 73.0723C60.5536 73.227 61.0054 73.4114 61.3555 73.6416C61.6562 73.8394 62.1689 74.2625 62.1689 74.9619C62.1689 75.6614 61.6561 76.0845 61.3555 76.2822C61.0054 76.5124 60.5536 76.6959 60.0674 76.8506C59.0808 77.1644 57.7047 77.4329 56.0664 77.6533C52.7752 78.0961 48.26 78.3672 43.2939 78.3672C38.3279 78.3672 33.8127 78.0961 30.5215 77.6533C28.8832 77.4329 27.5071 77.1644 26.5205 76.8506C26.0343 76.6959 25.5825 76.5124 25.2324 76.2822C24.9505 76.0969 24.4823 75.7133 24.4248 75.0898L24.4189 74.9619L24.4248 74.834C24.4822 74.2104 24.9505 73.827 25.2324 73.6416C25.5825 73.4114 26.0342 73.227 26.5205 73.0723C27.5071 72.7584 28.8833 72.4909 30.5215 72.2705C33.8127 71.8277 38.3279 71.5566 43.2939 71.5566Z" fill="#885E39" stroke="#3D2D15" stroke-width="2"/>
<path d="M38.8865 58.6358C38.9556 57.4812 38.9659 56.384 38.9219 55.3417C38.8122 52.747 38.3653 50.4917 37.6487 48.5338L37.6269 48.4746C37.6168 48.4473 37.6066 48.42 37.5964 48.3929C36.6046 45.7504 35.1171 43.6558 33.3034 42.0035C24.2407 33.7476 7.03328 36.5373 2.81489 37.2211C2.49973 37.2722 2.16135 37.3116 2 37.3337C9.05375 40.4082 13.7562 52.2671 18.4587 56.4397C23.5887 60.9916 32.3901 61.445 37.1065 61.5026C37.1098 61.485 37.1095 61.4879 37.107 61.5026C37.6127 61.5088 38.013 61.6452 38.4095 61.6949C38.5259 61.6952 38.6446 61.6995 38.7653 61.7103C39.9175 61.8139 41.2322 61.6185 41.6745 61.4488C40.4767 60.8291 39.5207 59.9082 38.8865 58.6358Z" fill="#688549"/>
<path d="M33.2838 41.9385L33.3034 42.0035C35.1171 43.6558 36.6046 45.7504 37.5964 48.3929C37.6066 48.42 37.6168 48.4473 37.6269 48.4746L37.6487 48.5338C40.3514 46.3483 41.8447 44.0396 42.6865 41.9455C43.6088 39.6512 43.7491 37.6145 43.841 36.2799C43.8591 36.0172 43.8753 35.7817 43.8953 35.5768C43.8953 33.3807 43.8953 32.7219 43.6815 31.4042C43.6157 30.9986 43.493 30.3982 43.3936 29.9115L43.3934 29.9107C43.3314 29.6073 43.2785 29.3482 43.254 29.2081C42.7553 26.3532 41.7578 20.8629 34.704 17.1296C27.6503 13.3962 22.7615 3.674 22.4844 1.66475C22.3521 0.705383 22.2939 0.283885 21.1196 0C19.0121 3.68104 18.515 9.33694 19.1673 14.4942C19.8383 19.7982 21.1196 23.7179 24.2298 26.6906C30.5016 32.6852 32.0056 37.6874 33.2838 41.9385Z" fill="#688549"/>
<path d="M42.6865 41.9455C45.4652 41.6678 51.2156 40.9792 57.0296 30.965C58.9105 27.4512 64.9383 23.3518 67.717 21.7414C68.1781 21.492 68.5631 21.168 68.5529 20.8629C68.5331 20.2723 67.0317 19.7528 61.732 19.9845C51.6858 20.4237 43.6815 27.8904 43.254 29.2081C43.2785 29.3482 43.3314 29.6073 43.3934 29.9107L43.3936 29.9115C43.493 30.3982 43.6157 30.9986 43.6815 31.4042C43.8953 32.7219 43.8953 33.3807 43.8953 35.5768C43.8753 35.7817 43.8591 36.0172 43.841 36.2799C43.7491 37.6145 43.6088 39.6512 42.6865 41.9455Z" fill="#688549"/>
<path d="M38.9219 55.3417C38.9659 56.384 38.9556 57.4812 38.8865 58.6358C39.5207 59.9082 40.4767 60.8291 41.6745 61.4488C41.789 61.4049 41.8773 61.4488 41.9715 61.4488C42.0816 61.4488 45.1227 62.0749 45.1777 62.3692C54.7056 66.8207 75.0888 52.7067 75.8395 44.8004C57.5498 41.431 47.9891 44.2636 43.0403 48.973C41.28 50.648 39.4399 53.9204 38.9219 55.3417Z" fill="#688549"/>
<path d="M38.9219 55.3417C39.4399 53.9204 41.28 50.648 43.0403 48.973L42.6865 41.9455C41.8447 44.0396 40.3514 46.3483 37.6487 48.5338C38.3653 50.4917 38.8122 52.747 38.9219 55.3417Z" fill="#A8C686"/>
<path d="M36.1699 74.8869C37.8799 73.8328 46.0328 74.0085 47.529 74.2281C47.2492 72.331 45.3793 63.4457 45.1777 62.3692C45.0876 62.3271 41.7621 61.4942 41.6745 61.4488C41.2322 61.6185 39.9175 61.8139 38.7653 61.7103C38.6452 61.7167 38.5275 61.7096 38.4095 61.6949C37.9132 61.6934 37.459 61.7645 37.0722 61.7103C37.0722 61.7104 37.0722 61.7103 37.0722 61.7103C37.0441 61.8995 37.0136 62.1466 36.9814 62.4409C36.6606 65.3707 36.1699 72.9872 36.1699 74.8869Z" fill="#A8C686"/>
<path d="M37.0722 61.7103C37.459 61.7645 37.9132 61.6934 38.4095 61.6948M37.0722 61.7103C37.0612 61.7671 37.0981 61.5562 37.107 61.5026M37.0722 61.7103C37.0441 61.8995 37.0136 62.1466 36.9814 62.4409M37.0722 61.7103C37.0722 61.7104 37.0722 61.7103 37.0722 61.7103ZM39.7157 61.2712C39.476 60.4987 39.2146 59.603 38.8865 58.6358M15.6803 42.529C29.2598 43.4591 37.0689 53.2789 38.8865 58.6358M38.8865 58.6358C38.9556 57.4812 38.9659 56.384 38.9219 55.3417M38.8865 58.6358C39.5207 59.9082 40.4767 60.8291 41.6745 61.4488M38.8865 58.6358C42.2661 55.1221 52.1032 48.2702 64.4152 48.973M38.7653 61.7103C39.9175 61.8139 41.2322 61.6185 41.6745 61.4488M38.7653 61.7103C38.6446 61.6995 38.5259 61.6952 38.4095 61.6948M38.7653 61.7103C38.6452 61.7167 38.5275 61.7096 38.4095 61.6948M38.9219 55.3417C39.4399 53.9204 41.28 50.648 43.0403 48.973M38.9219 55.3417C38.8122 52.747 38.3653 50.4917 37.6487 48.5338M43.0403 48.973C47.9891 44.2636 57.5498 41.431 75.8395 44.8004C75.0888 52.7067 54.7056 66.8207 45.1777 62.3692M43.0403 48.973L42.6865 41.9455M42.6865 41.9455C45.4652 41.6678 51.2156 40.9792 57.0296 30.965C58.9106 27.4512 64.9383 23.3518 67.717 21.7414C68.1781 21.492 68.5631 21.168 68.5529 20.8629C68.5331 20.2723 67.0317 19.7528 61.732 19.9845C51.6858 20.4237 43.6815 27.8904 43.254 29.2081M42.6865 41.9455C43.6088 39.6512 43.7491 37.6145 43.841 36.2799M42.6865 41.9455C41.8447 44.0396 40.3514 46.3483 37.6487 48.5338M43.254 29.2081C42.7553 26.3532 41.7578 20.8629 34.704 17.1296C27.6503 13.3962 22.7615 3.674 22.4844 1.66475C22.3521 0.705383 22.2939 0.283885 21.1196 0C19.0121 3.68104 18.515 9.33694 19.1673 14.4942C19.8383 19.7982 21.1196 23.7179 24.2298 26.6906C30.5017 32.6852 32.0056 37.6874 33.2838 41.9385M43.254 29.2081C43.2785 29.3482 43.3314 29.6073 43.3934 29.9107L43.3936 29.9115C43.493 30.3982 43.6157 30.9986 43.6815 31.4042C43.8953 32.7219 43.8953 33.3807 43.8953 35.5768M37.6487 48.5338C37.6414 48.514 37.6342 48.4943 37.6269 48.4746M37.6487 48.5338L37.6269 48.4746M37.6487 48.5338C43.3124 43.9541 43.6651 38.8327 43.841 36.2799M43.8953 35.5768C46.4049 33.1611 56.3351 23.4543 59.0711 24.1571M43.8953 35.5768C43.8753 35.7817 43.8591 36.0172 43.841 36.2799M33.3034 42.0035C24.2407 33.7476 7.03328 36.5373 2.81489 37.2211C2.49973 37.2722 2.16135 37.3116 2 37.3337C9.05375 40.4082 13.7562 52.2671 18.4587 56.4397C23.5887 60.9916 32.3901 61.445 37.1065 61.5026M33.3034 42.0035C35.1171 43.6558 36.6046 45.7504 37.5964 48.3929M33.3034 42.0035L33.2838 41.9385M33.3034 42.0035C33.2969 41.9819 33.2903 41.9602 33.2838 41.9385M45.1777 62.3692C45.3793 63.4457 47.2492 72.331 47.529 74.2281C46.0328 74.0085 37.8799 73.8328 36.1699 74.8869C36.1699 72.9872 36.6606 65.3707 36.9814 62.4409M45.1777 62.3692C45.1226 62.0749 42.0816 61.4488 41.9715 61.4488C41.8773 61.4488 41.789 61.4049 41.6745 61.4488M45.1777 62.3692C45.0876 62.3271 41.7621 61.4942 41.6745 61.4488M37.1065 61.5026C37.1098 61.485 37.1095 61.4879 37.107 61.5026M37.1065 61.5026L37.107 61.5026M37.1065 61.5026C37.0695 61.6995 37.0272 62.0224 36.9814 62.4409M37.5964 48.3929L37.9103 44.3612C38.1718 37.4069 35.8289 29.4091 33.6353 26.6906C28.9328 20.8629 27.009 20.8629 25.7265 17.7884M37.5964 48.3929C37.6066 48.42 37.6168 48.4473 37.6269 48.4746M37.107 61.5026C37.6127 61.5088 38.013 61.6452 38.4095 61.6948" stroke="#355E3B" stroke-width="2" stroke-linecap="round"/>
<path d="M42.4535 66.9661C42.6098 66.9661 42.7596 66.9041 42.8701 66.7936C42.9806 66.6831 43.0427 66.5332 43.0427 66.377C43.0427 66.2207 42.9806 66.0709 42.8701 65.9604C42.7596 65.8499 42.6098 65.7878 42.4535 65.7878C42.2973 65.7878 42.1474 65.8499 42.0369 65.9604C41.9265 66.0709 41.8644 66.2207 41.8644 66.377C41.8644 66.5332 41.9265 66.6831 42.0369 66.7936C42.1474 66.9041 42.2973 66.9661 42.4535 66.9661ZM40.6861 66.377C40.6861 66.5332 40.624 66.6831 40.5135 66.7936C40.4031 66.9041 40.2532 66.9661 40.0969 66.9661C39.9407 66.9661 39.7908 66.9041 39.6804 66.7936C39.5699 66.6831 39.5078 66.5332 39.5078 66.377C39.5078 66.2207 39.5699 66.0709 39.6804 65.9604C39.7908 65.8499 39.9407 65.7878 40.0969 65.7878C40.2532 65.7878 40.4031 65.8499 40.5135 65.9604C40.624 66.0709 40.6861 66.2207 40.6861 66.377ZM39.4253 67.9865C39.5441 67.8876 39.697 67.8393 39.8511 67.8521C40.0052 67.8648 40.1481 67.9377 40.2489 68.0549L40.2519 68.0578C40.2574 68.0641 40.2696 68.0759 40.2884 68.0932C40.3261 68.1267 40.388 68.1768 40.474 68.2287C40.6431 68.33 40.9076 68.439 41.2752 68.439C41.6429 68.439 41.9074 68.33 42.0765 68.2287C42.157 68.1808 42.2316 68.1234 42.2986 68.0578L42.3015 68.0549C42.4036 67.9397 42.5468 67.869 42.7003 67.858C42.8539 67.847 43.0056 67.8966 43.1231 67.996C43.2406 68.0955 43.3145 68.237 43.3289 68.3903C43.3434 68.5435 43.2973 68.6963 43.2006 68.816L43.2 68.8172L43.1994 68.8178L43.1976 68.8202L43.1935 68.8249L43.1829 68.8367C43.1417 68.8835 43.0974 68.9276 43.0503 68.9686C42.9649 69.0452 42.843 69.143 42.6833 69.2391C42.2573 69.4914 41.7703 69.6222 41.2752 69.6173C40.7801 69.622 40.2931 69.491 39.8672 69.2385C39.6961 69.1362 39.5388 69.0127 39.3988 68.8708L39.3676 68.8373L39.357 68.8249L39.3529 68.8202L39.3511 68.8178L39.3499 68.8166C39.3002 68.7572 39.2628 68.6885 39.2397 68.6146C39.2166 68.5406 39.2083 68.4628 39.2153 68.3856C39.2223 68.3085 39.2445 68.2335 39.2805 68.1649C39.3165 68.0963 39.3658 68.0355 39.4253 67.9859V67.9865Z" fill="#355E3B"/>
</svg>
