<svg width="69" height="69" viewBox="0 0 69 69" fill="none" xmlns="http://www.w3.org/2000/svg">
<circle cx="34.5" cy="34.5" r="33.5" fill="#A2DFF2" stroke="#185485" stroke-width="2"/>
<path d="M11.1295 27.8225C7.09427 27.1854 4.5958 29.7061 3.73071 31.2276C3.65121 31.3674 3.59137 31.5215 3.54472 31.6755C0.909251 40.3724 5.03077 42.0219 7.51252 43.1249C10.0166 44.2378 10.0166 38.3951 15.8593 38.6733C21.702 38.9516 21.4238 32.2741 20.8674 29.7701C20.3109 27.2661 16.4157 28.6572 11.1295 27.8225Z" fill="#A8C686"/>
<path d="M41.4561 5.56445C42.436 4.58456 45.7885 7.05578 49.0448 6.14116C49.9208 5.8951 50.865 5.72725 51.6757 6.14046C55.3696 8.02329 59.7832 12.297 61.7666 15.0241C64.0448 18.1567 68.995 28.3501 67.4765 39.3984C67.3919 40.0138 67.1354 40.7667 66.5144 40.7793C66.0586 40.7886 65.3511 40.5274 63.9924 39.7862C60.9319 38.1169 60.0972 37.004 53.9762 36.4475C47.8553 35.8911 41.1779 36.4475 36.1698 34.7782C31.1617 33.1088 35.0569 27.8225 37.5609 26.1532C40.065 24.4838 44.7948 20.8669 44.7948 16.137C44.7948 11.4072 41.4561 17.2499 36.7262 15.0241C35.6133 14.4677 40.3432 6.67735 41.4561 5.56445Z" fill="#A8C686"/>
<path d="M21.9803 59.5403C20.6758 59.5403 19.6183 59.8653 18.7752 60.3318C17.2239 61.19 17.7981 63.2836 19.4334 63.9685C33.0311 69.6636 43.3866 67.6399 48.856 64.8288C50.3679 64.0518 50.5706 62.0164 49.106 61.1539C48.6854 60.9062 48.2569 60.7201 47.8553 60.6532C46.1859 60.375 42.8472 56.2016 38.3956 55.3669C34.0017 54.543 37.7395 57.785 30.0786 59.4745C29.8792 59.5185 29.6678 59.5403 29.4636 59.5403H21.9803Z" fill="#A8C686"/>
<path d="M47.2988 50.9153C46.9936 50.4575 47.1941 49.1015 47.4699 47.9057C47.6812 46.9894 48.3808 46.2044 49.3208 46.2265C50.1788 46.2468 50.999 46.5246 51.7094 46.8985C52.9951 47.5749 53.0658 49.2617 52.0944 50.342C51.2857 51.2414 50.4625 52.0282 50.0811 52.0282H49.5432C49.3456 52.0282 49.1482 52.0117 48.9587 51.956C48.4396 51.8034 47.6666 51.467 47.2988 50.9153Z" fill="#A8C686"/>
<path d="M11.1295 27.8225C7.09427 27.1854 4.5958 29.7061 3.73071 31.2276C3.65121 31.3674 3.59137 31.5215 3.54472 31.6755C0.909251 40.3724 5.03077 42.0219 7.51252 43.1249C10.0166 44.2378 10.0166 38.3951 15.8593 38.6733C21.702 38.9516 21.4238 32.2741 20.8674 29.7701C20.3109 27.2661 16.4157 28.6572 11.1295 27.8225Z" stroke="#355E3B" stroke-width="2"/>
<path d="M41.4561 5.56445C42.436 4.58456 45.7885 7.05578 49.0448 6.14116C49.9208 5.8951 50.865 5.72725 51.6757 6.14046C55.3696 8.02329 59.7832 12.297 61.7666 15.0241C64.0448 18.1567 68.995 28.3501 67.4765 39.3984C67.3919 40.0138 67.1354 40.7667 66.5144 40.7793C66.0586 40.7886 65.3511 40.5274 63.9924 39.7862C60.9319 38.1169 60.0972 37.004 53.9762 36.4475C47.8553 35.8911 41.1779 36.4475 36.1698 34.7782C31.1617 33.1088 35.0569 27.8225 37.5609 26.1532C40.065 24.4838 44.7948 20.8669 44.7948 16.137C44.7948 11.4072 41.4561 17.2499 36.7262 15.0241C35.6133 14.4677 40.3432 6.67735 41.4561 5.56445Z" stroke="#355E3B" stroke-width="2"/>
<path d="M21.9803 59.5403C20.6758 59.5403 19.6183 59.8653 18.7752 60.3318C17.2239 61.19 17.7981 63.2836 19.4334 63.9685C33.0311 69.6636 43.3866 67.6399 48.856 64.8288C50.3679 64.0518 50.5706 62.0164 49.106 61.1539C48.6854 60.9062 48.2569 60.7201 47.8553 60.6532C46.1859 60.375 42.8472 56.2016 38.3956 55.3669C34.0017 54.543 37.7395 57.785 30.0786 59.4745C29.8792 59.5185 29.6678 59.5403 29.4636 59.5403H21.9803Z" stroke="#355E3B" stroke-width="2"/>
<path d="M47.2988 50.9153C46.9936 50.4575 47.1941 49.1015 47.4699 47.9057C47.6812 46.9894 48.3808 46.2044 49.3208 46.2265C50.1788 46.2468 50.999 46.5246 51.7094 46.8985C52.9951 47.5749 53.0658 49.2617 52.0944 50.342C51.2857 51.2414 50.4625 52.0282 50.0811 52.0282H49.5432C49.3456 52.0282 49.1482 52.0117 48.9587 51.956C48.4396 51.8034 47.6666 51.467 47.2988 50.9153Z" stroke="#355E3B" stroke-width="2"/>
<circle cx="34.5" cy="34.5" r="33.5" stroke="#185485" stroke-width="2"/>
<path d="M31.8384 30.6165C31.8384 31.4006 31.5269 32.1525 30.9725 32.7069C30.4182 33.2612 29.6662 33.5727 28.8822 33.5727C28.0982 33.5727 27.3463 33.2612 26.7919 32.7069C26.2375 32.1525 25.9261 31.4006 25.9261 30.6165C25.9261 29.8325 26.2375 29.0806 26.7919 28.5262C27.3463 27.9719 28.0982 27.6604 28.8822 27.6604C29.6662 27.6604 30.4182 27.9719 30.9725 28.5262C31.5269 29.0806 31.8384 29.8325 31.8384 30.6165ZM25.5122 38.6928C26.1083 38.1962 26.8756 37.9539 27.6488 38.018C28.4219 38.0822 29.1388 38.4477 29.6449 39.0357L29.6597 39.0504C29.6873 39.082 29.7484 39.1411 29.843 39.2278C30.0322 39.3963 30.3426 39.6476 30.7742 39.9077C31.6226 40.4162 32.9499 40.9631 34.7945 40.9631C36.6392 40.9631 37.9665 40.4162 38.8149 39.9077C39.2192 39.6673 39.5933 39.3795 39.9294 39.0504L39.9441 39.0357C40.4565 38.4576 41.1747 38.1031 41.9451 38.0479C42.7156 37.9928 43.477 38.2413 44.0665 38.7404C44.656 39.2395 45.0267 39.9495 45.0994 40.7185C45.172 41.4875 44.9408 42.2543 44.4552 42.855L44.4523 42.8609L44.4493 42.8639L44.4404 42.8757L44.4197 42.8994L44.3665 42.9585C44.1597 43.1936 43.9375 43.4148 43.7014 43.6207C43.2728 44.005 42.6608 44.4957 41.8597 44.9775C39.7222 46.2436 37.2787 46.9 34.7945 46.8754C32.31 46.8991 29.8665 46.2417 27.7293 44.9746C26.8711 44.4615 26.0814 43.8417 25.3792 43.1299L25.2225 42.9614L25.1693 42.8994L25.1486 42.8757L25.1397 42.8639L25.1338 42.858C24.8846 42.5596 24.6966 42.215 24.5807 41.8439C24.4648 41.4729 24.4232 41.0826 24.4584 40.6954C24.4935 40.3082 24.6047 39.9318 24.7855 39.5876C24.9664 39.2435 25.2133 38.9384 25.5122 38.6898V38.6928Z" fill="#185485"/>
<path d="M42.7974 32.7069C42.2431 33.2612 41.4911 33.5727 40.7071 33.5727C39.9231 33.5727 39.1712 33.2612 38.6168 32.7069C38.0624 32.1525 37.751 31.4006 37.751 30.6165C37.751 29.8325 38.0624 29.0806 38.6168 28.5262C39.1712 27.9719 39.9231 27.6604 40.7071 27.6604C41.4911 27.6604 42.2431 27.9719 42.7974 28.5262C43.3518 29.0806 43.6633 29.8325 43.6633 30.6165C43.6633 31.4006 43.3518 32.1525 42.7974 32.7069Z" fill="#355E3B"/>
</svg>
