<svg width="78" height="78" viewBox="0 0 78 78" fill="none" xmlns="http://www.w3.org/2000/svg">
<g clip-path="url(#clip0_649_3401)">
<path d="M26.214 75.3441C25.427 75.2893 25.2064 76.2393 25.3333 77.8435C25.9431 85.5498 32.565 91.6954 40.295 91.618V91.618V91.618C48.395 91.3438 55.0437 86.3107 55.9816 78.2606C56.0969 77.2713 56.213 76.2057 56.3329 75.0554L26.214 75.3441Z" fill="#8C7878" stroke="#3D2D15" stroke-width="2"/>
<path d="M41.1016 67.5989C46.0476 67.5989 50.5507 67.9601 53.8398 68.553C55.4761 68.8479 56.8615 69.2089 57.8613 69.635C58.3573 69.8464 58.816 70.0971 59.166 70.4055C59.5112 70.7097 59.8652 71.176 59.8652 71.801C59.8652 72.426 59.5112 72.8924 59.166 73.1965C58.816 73.5049 58.3573 73.7567 57.8613 73.968C56.8615 74.394 55.476 74.7551 53.8398 75.05C50.5507 75.6429 46.0475 76.0032 41.1016 76.0032C36.1554 76.0032 31.6515 75.643 28.3623 75.05C26.726 74.7551 25.3406 74.3941 24.3408 73.968C23.8449 73.7567 23.3872 73.5049 23.0371 73.1965C22.7134 72.9113 22.381 72.4839 22.3408 71.9163L22.3369 71.801L22.3408 71.6858C22.381 71.1183 22.7134 70.6907 23.0371 70.4055C23.3871 70.0972 23.845 69.8463 24.3408 69.635C25.3406 69.2089 26.726 68.848 28.3623 68.553C31.6515 67.9601 36.1554 67.5989 41.1016 67.5989Z" fill="#D6C7C7" stroke="#3D2D15" stroke-width="2"/>
<path d="M41.2549 69.9067C47.1867 69.9067 52.3263 70.4283 55.5322 71.2563H59.5205V75.1743L59.1602 75.1519C59.0682 75.277 58.9672 75.3897 58.8633 75.4868C58.5275 75.8006 58.0878 76.0553 57.6123 76.269C56.6547 76.6994 55.327 77.0616 53.751 77.3569C50.5822 77.9507 46.2006 78.311 41.2549 78.311C36.3087 78.311 31.8049 77.9508 28.5156 77.3579C26.8793 77.0629 25.4939 76.702 24.4941 76.2759C23.9982 76.0645 23.5405 75.8128 23.1904 75.5044C22.8557 75.2095 22.5128 74.7623 22.4922 74.1655L22.3398 72.0298L22.2578 70.8911L23.3984 70.9604L26.959 71.1782H26.9697C30.3231 70.397 35.4959 69.9067 41.2549 69.9067Z" fill="#D6C7C7" stroke="#3D2D15" stroke-width="2"/>
<path d="M41.292 68.3337C45.7932 68.3337 49.8875 68.5794 52.874 68.9812C54.3599 69.1811 55.6123 69.425 56.5137 69.7117C56.9573 69.8528 57.3765 70.0226 57.7041 70.238C57.9824 70.4211 58.4834 70.8289 58.4834 71.5125C58.4833 72.1961 57.9824 72.6038 57.7041 72.7869C57.3765 73.0023 56.9573 73.1721 56.5137 73.3132C55.6123 73.5999 54.3598 73.8438 52.874 74.0437C49.8875 74.4455 45.7932 74.6912 41.292 74.6912C36.7909 74.6912 32.6965 74.4455 29.71 74.0437C28.2242 73.8438 26.9717 73.5999 26.0703 73.3132C25.6267 73.1721 25.2075 73.0023 24.8799 72.7869C24.619 72.6153 24.1626 72.2462 24.1064 71.6375L24.1006 71.5125L24.1064 71.3875C24.1625 70.7786 24.6189 70.4097 24.8799 70.238C25.2075 70.0226 25.6267 69.8528 26.0703 69.7117C26.9717 69.425 28.2242 69.1811 29.71 68.9812C32.6965 68.5794 36.7909 68.3337 41.292 68.3337Z" fill="#885E39" stroke="#3D2D15" stroke-width="2"/>
<path d="M67.1536 48.3359C61.4864 37.1778 51.9421 40.6315 47.8783 43.7531L47.5488 44.9487L48.3726 45.1479C48.8668 45.1479 62.5407 56.9038 67.1536 48.3359Z" fill="#688549" stroke="#355E3B" stroke-width="2"/>
<path d="M12.4594 61.6862C25.9027 41.7609 34.9747 47.8049 37.8303 53.3176C37.8303 53.2511 37.8962 52.9589 38.1598 52.3213C26.957 36.3811 16.1387 51.9228 12.1299 61.6862H12.4594Z" fill="#A8C686"/>
<path d="M37.8303 53.3176C34.9747 47.8049 25.9027 41.7609 12.4594 61.6862C21.9488 64.0772 32.3387 59.8929 36.3476 57.5019L37.8303 53.3176Z" fill="#688549"/>
<path d="M37.8303 53.3176C34.9747 47.8049 25.9027 41.7609 12.4594 61.6862M37.8303 53.3176L36.3476 57.5019C32.3387 59.8929 21.9488 64.0772 12.4594 61.6862M37.8303 53.3176C37.8303 53.2511 37.8962 52.9589 38.1598 52.3213C26.957 36.3811 16.1387 51.9228 12.1299 61.6862H12.4594" stroke="#355E3B" stroke-width="2"/>
<path d="M42.441 45.9454C32.4244 58.3787 36.2905 68.2616 39.4756 71.6489C40.3981 69.8954 43.6752 70.9706 44.444 70.9707C42.6318 62.0043 37.9929 59.2955 46.5597 45.9454C58.7762 26.9076 47.658 19.6441 42.441 19.8433L41.7821 21.0388L44.7475 22.4336C48.1522 25.0903 52.4576 33.512 42.441 45.9454Z" fill="#688549" stroke="#355E3B" stroke-width="2"/>
<path d="M43.022 20.9423C43.022 20.9423 43.3201 20.0585 43.1065 19.6423C35.7088 5.2311 20.5202 8.47615 14.0037 14.6286C12.5731 15.9793 12.3855 17.7985 14.338 17.5562C17.4308 17.1725 23.4088 16.1552 31.1644 17.9102C32.8331 18.5278 35.9078 19.5704 36.5917 19.8395C39.6345 21.0365 43.022 20.9423 43.022 20.9423V20.9423Z" fill="#A8C686"/>
<path d="M14.9475 23.7772C5.08435 33.8097 44.6944 39.0095 43.8686 21.8358C45.9905 42.7454 1.20982 35.7456 14.9475 23.7772Z" fill="#A8C686"/>
<path d="M36.5917 19.8395C35.9078 19.5704 32.8331 18.5278 31.1644 17.9102C34.7305 19.2302 29.0364 17.3866 27.5411 17.2612C20.1913 19.6509 17.5735 21.4894 14.9475 23.7772C5.08435 33.8097 44.6944 39.0095 43.8686 21.8358C43.8505 21.4597 43.0766 21.3413 43.022 20.9423C43.022 20.9423 39.6345 21.0365 36.5917 19.8395Z" fill="#CD6F71"/>
<path d="M31.1644 17.9102C32.8331 18.5278 35.9078 19.5704 36.5917 19.8395C39.6345 21.0365 43.022 20.9423 43.022 20.9423M31.1644 17.9102C23.4088 16.1552 17.4308 17.1725 14.338 17.5562C12.3855 17.7985 12.5731 15.9793 14.0037 14.6286C20.5202 8.47615 35.7088 5.2311 43.1065 19.6423C43.3201 20.0585 43.022 20.9423 43.022 20.9423V20.9423M31.1644 17.9102C34.7305 19.2302 29.0364 17.3866 27.5411 17.2612M43.022 20.9423C43.0766 21.3413 43.8505 21.4597 43.8686 21.8358M43.8686 21.8358C44.6944 39.0095 5.08435 33.8097 14.9475 23.7772M43.8686 21.8358C45.9905 42.7454 1.20982 35.7456 14.9475 23.7772M27.5411 17.2612C20.1913 19.6509 17.5735 21.4894 14.9475 23.7772M27.5411 17.2612C26.0458 17.1358 17.167 21.5196 14.9475 23.7772" stroke="#355E3B" stroke-width="2"/>
<path d="M17.8824 25.5831C16.2221 26.4481 15.8576 28.5446 15.7478 30.0058L17.8824 31.4288C17.408 30.0058 17.487 27.3365 17.8824 25.5831Z" fill="#D4ECDD"/>
<path d="M22.1516 25.7366C20.017 26.9224 20.2542 30.7173 20.7821 32.18L24.2418 32.977C23.3375 31.4288 22.1516 27.8712 22.1516 25.7366Z" fill="#D4ECDD"/>
<path d="M28.081 25.5831C26.6313 27.9741 27.317 31.4494 27.8662 33.1762L29.8432 32.977C29.8432 31.1837 29.5308 27.6553 28.081 25.5831Z" fill="#D4ECDD"/>
<path d="M33.1381 32.3792C34.2477 29.5897 33.1381 26.8135 32.4791 25.6047C34.722 26.6853 35.6093 29.5897 35.6093 31.5822C35.3896 31.7815 34.5878 32.2198 33.1381 32.3792Z" fill="#D4ECDD"/>
<path d="M39.4656 30.0058C40 28.2872 38.5169 25.9737 37.5682 25.2622C38.6226 25.2622 41.1858 27.1596 41.6002 28.1083C41.5453 28.3076 40.6518 29.0494 39.4656 30.0058Z" fill="#D4ECDD"/>
<path d="M15.0362 25.5831C14.4 25.5831 13.6506 26.2583 13.376 26.9224L14.0875 28.5827C14.0875 27.634 14.5619 26.4481 15.0362 25.5831Z" fill="#D4ECDD"/>
<path d="M17.4872 19.5699C16.0641 20.3482 15.9849 21.9417 16.2221 23.1276L17.6452 22.4161C17.408 21.9417 17.2236 20.6857 17.4872 19.5699Z" fill="#D4ECDD"/>
<path d="M22.6259 17.9097C21.9144 18.6212 21.9144 19.0956 21.9144 20.0256L23.1003 19.3327C22.8631 19.0956 22.6259 18.8584 22.6259 17.9097Z" fill="#D4ECDD"/>
<path d="M17.8824 25.5831C16.2221 26.4481 15.8576 28.5446 15.7478 30.0058L17.8824 31.4288C17.408 30.0058 17.487 27.3365 17.8824 25.5831Z" stroke="#355E3B"/>
<path d="M22.1516 25.7366C20.017 26.9224 20.2542 30.7173 20.7821 32.18L24.2418 32.977C23.3375 31.4288 22.1516 27.8712 22.1516 25.7366Z" stroke="#355E3B"/>
<path d="M28.081 25.5831C26.6313 27.9741 27.317 31.4494 27.8662 33.1762L29.8432 32.977C29.8432 31.1837 29.5308 27.6553 28.081 25.5831Z" stroke="#355E3B"/>
<path d="M33.1381 32.3792C34.2477 29.5897 33.1381 26.8135 32.4791 25.6047C34.722 26.6853 35.6093 29.5897 35.6093 31.5822C35.3896 31.7815 34.5878 32.2198 33.1381 32.3792Z" stroke="#355E3B"/>
<path d="M39.4656 30.0058C40 28.2872 38.5169 25.9737 37.5682 25.2622C38.6226 25.2622 41.1858 27.1596 41.6002 28.1083C41.5453 28.3076 40.6518 29.0494 39.4656 30.0058Z" stroke="#355E3B"/>
<path d="M15.0362 25.5831C14.4 25.5831 13.6506 26.2583 13.376 26.9224L14.0875 28.5827C14.0875 27.634 14.5619 26.4481 15.0362 25.5831Z" stroke="#355E3B"/>
<path d="M17.4872 19.5699C16.0641 20.3482 15.9849 21.9417 16.2221 23.1276L17.6452 22.4161C17.408 21.9417 17.2236 20.6857 17.4872 19.5699Z" stroke="#355E3B"/>
<path d="M22.6259 17.9097C21.9144 18.6212 21.9144 19.0956 21.9144 20.0256L23.1003 19.3327C22.8631 19.0956 22.6259 18.8584 22.6259 17.9097Z" stroke="#355E3B"/>
<path d="M14.2886 21.6835C13.0287 19.7973 12.8555 18.8552 13.3299 17.9064L17.1624 17.3693C16.465 18.4999 14.4355 20.2027 14.2886 21.6835Z" fill="#D4ECDD"/>
<path d="M20.4829 21.6385C18.8063 19.662 18.1773 17.9168 18.8227 17.1321L21.906 16.8949C21.4659 17.5769 20.9386 19.6194 20.4829 21.6385Z" fill="#D4ECDD"/>
<path d="M33.4224 22.9886C33.861 22.4281 34.0193 19.6247 33.7649 18.7923L36.3736 19.741C36.4094 20.274 34.6404 22.2943 33.4224 22.9886Z" fill="#D4ECDD"/>
<path d="M30.6201 22.2609C31.7572 21.0953 32.0604 19.0613 31.806 18.2289L28.9599 17.5174C29.4757 18.5744 30.4043 21.0041 30.6201 22.2609Z" fill="#D4ECDD"/>
<path d="M25.8766 22.0238C24.6166 20.1375 24.5059 18.3099 24.6937 17.1321L26.8975 17.1321C26.9487 18.4037 26.6999 20.5885 25.8766 22.0238Z" fill="#D4ECDD"/>
<path d="M14.2886 21.6835C13.0287 19.7973 12.8555 18.8552 13.3299 17.9064L17.1624 17.3693C16.465 18.4999 14.4355 20.2027 14.2886 21.6835Z" stroke="#355E3B"/>
<path d="M20.4829 21.6385C18.8063 19.662 18.1773 17.9168 18.8227 17.1321L21.906 16.8949C21.4659 17.5769 20.9386 19.6194 20.4829 21.6385Z" stroke="#355E3B"/>
<path d="M33.4224 22.9886C33.861 22.4281 34.0193 19.6247 33.7649 18.7923L36.3736 19.741C36.4094 20.274 34.6404 22.2943 33.4224 22.9886Z" stroke="#355E3B"/>
<path d="M30.6201 22.2609C31.7572 21.0953 32.0604 19.0613 31.806 18.2289L28.9599 17.5174C29.4757 18.5744 30.4043 21.0041 30.6201 22.2609Z" stroke="#355E3B"/>
<path d="M25.8766 22.0238C24.6166 20.1375 24.5059 18.3099 24.6937 17.1321L26.8975 17.1321C26.9487 18.4037 26.6999 20.5885 25.8766 22.0238Z" stroke="#355E3B"/>
<path d="M33.0359 13.9998C32.8675 14.1026 32.6652 14.1342 32.4735 14.0878C32.2818 14.0413 32.1164 13.9207 32.0137 13.7523C31.9109 13.5839 31.8793 13.3816 31.9257 13.1899C31.9722 12.9982 32.0928 12.8328 32.2612 12.7301C32.4296 12.6273 32.6319 12.5957 32.8236 12.6421C33.0153 12.6885 33.1807 12.8092 33.2834 12.9776C33.3862 13.146 33.4178 13.3483 33.3714 13.54C33.325 13.7317 33.2043 13.8971 33.0359 13.9998Z" fill="#355E3B"/>
<path d="M28.6173 12.8896C28.7857 12.7869 28.9063 12.6215 28.9528 12.4298C28.9992 12.2381 28.9676 12.0358 28.8648 11.8674C28.7621 11.699 28.5967 11.5784 28.405 11.5319C28.2133 11.4855 28.011 11.5171 27.8426 11.6199C27.6742 11.7226 27.5535 11.888 27.5071 12.0797C27.4607 12.2714 27.4923 12.4737 27.5951 12.6421C27.6978 12.8105 27.8632 12.9312 28.0549 12.9776C28.2466 13.024 28.4489 12.9924 28.6173 12.8896Z" fill="#355E3B"/>
</g>
<defs>
<clipPath id="clip0_649_3401">
<rect width="78" height="78" fill="white"/>
</clipPath>
</defs>
</svg>
