<svg width="78" height="78" viewBox="0 0 78 78" fill="none" xmlns="http://www.w3.org/2000/svg">
<g clip-path="url(#clip0_649_3401)">
<path d="M39.1621 78.5928C44.2645 78.5928 48.9092 78.9648 52.3008 79.5762C53.9883 79.8804 55.4149 80.2531 56.4434 80.6914C56.9536 80.9089 57.4236 81.1654 57.7812 81.4805C58.134 81.7913 58.4922 82.2653 58.4922 82.8975C58.4921 83.5294 58.1339 84.0027 57.7812 84.3135C57.4236 84.6285 56.9536 84.886 56.4434 85.1035C55.4149 85.5418 53.9882 85.9136 52.3008 86.2178C48.9092 86.8292 44.2645 87.2011 39.1621 87.2012C34.0596 87.2012 29.4142 86.8292 26.0225 86.2178C24.3351 85.9136 22.9083 85.5418 21.8799 85.1035C21.3696 84.886 20.8996 84.6285 20.542 84.3135C20.2113 84.0221 19.8756 83.5877 19.835 83.0137L19.8311 82.8975L19.835 82.7803C19.8757 82.2063 20.2113 81.7718 20.542 81.4805C20.8996 81.1654 21.3696 80.9089 21.8799 80.6914C22.9083 80.2531 24.3349 79.8804 26.0225 79.5762C29.4142 78.9648 34.0596 78.5928 39.1621 78.5928Z" fill="#D6C7C7" stroke="#3D2D15" stroke-width="2"/>
<path d="M28.0762 58.5254C29.527 59.1339 30.8546 59.4569 32.2227 59.4512C33.5475 59.4456 34.8458 59.1316 36.2646 58.5645C34.5496 67.23 34.586 72.8707 36.2822 81.543C34.8779 81.0062 33.5891 80.6856 32.2705 80.6611C30.9016 80.6358 29.5646 80.9294 28.0908 81.5312C29.1921 72.8236 29.1108 67.2157 28.0762 58.5254ZM36.4102 31.917C35.0471 41.0508 35.0242 46.7869 36.5381 56.2646C34.7972 57.075 33.4763 57.4459 32.2139 57.4512C30.9501 57.4564 29.6446 57.0957 27.9355 56.2646C29.0636 46.7808 28.9507 41.0562 28.0176 31.9355C29.4883 32.3863 30.8111 32.6145 32.1719 32.6064C33.5301 32.5984 34.8826 32.3549 36.4102 31.917ZM27.9668 2.57617C29.4973 2.94539 30.8445 3.12834 32.2168 3.12012C33.5597 3.11203 34.894 2.92156 36.4102 2.58008C34.7447 12.8557 34.5925 19.2335 36.501 29.8008C34.7876 30.3359 33.4488 30.5988 32.1602 30.6064C30.8706 30.6141 29.5738 30.3672 27.9492 29.8105C29.217 19.1847 28.7666 12.8457 27.9668 2.57617ZM32.1611 1C32.5079 1.00333 32.8585 1.02832 33.2197 1.07324C32.8759 1.10125 32.5395 1.1181 32.2051 1.12012C31.804 1.12253 31.4022 1.10436 30.9902 1.06836C31.3877 1.01881 31.775 0.996298 32.1611 1Z" fill="#A8C686" stroke="#355E3B" stroke-width="2"/>
<path d="M51.6971 56.0619C47.3766 57.5212 45.0079 57.5991 40.916 56.0619C42.0152 66.2901 42.189 72.0691 40.916 82.4243C43.4783 80.6978 47.4814 80.061 51.6971 82.4243C49.9904 72.0616 50.0731 66.2953 51.6971 56.0619Z" fill="#A8C686"/>
<path d="M51.6971 26.8284C47.4323 27.9508 45.0723 28.0299 40.916 26.8284C41.8014 38.2005 42.3501 44.574 40.916 56.0619C45.0079 57.5991 47.3766 57.5212 51.6971 56.0619C49.5513 44.5902 49.7695 38.1951 51.6971 26.8284Z" fill="#A8C686"/>
<path d="M40.916 26.8284C45.0723 28.0299 47.4323 27.9508 51.6971 26.8284C47.3834 25.227 45.0131 25.1009 40.916 26.8284Z" fill="#355E3B"/>
<path d="M40.916 26.8284C45.0723 28.0299 47.4323 27.9508 51.6971 26.8284M40.916 26.8284C41.8014 38.2005 42.3501 44.574 40.916 56.0619M40.916 26.8284C45.0131 25.1009 47.3834 25.227 51.6971 26.8284M51.6971 26.8284C49.7695 38.1951 49.5513 44.5902 51.6971 56.0619M40.916 56.0619C45.0079 57.5991 47.3766 57.5212 51.6971 56.0619M40.916 56.0619C42.0152 66.2901 42.189 72.0691 40.916 82.4243C43.4783 80.6978 47.4814 80.061 51.6971 82.4243C49.9904 72.0616 50.0731 66.2953 51.6971 56.0619" stroke="#355E3B" stroke-width="2"/>
<path d="M24.4294 34.3975C21.9184 33.6377 15.709 38.2753 15.6953 45.0991C21.1771 46.8893 25.2353 38.5843 24.4294 34.3975Z" fill="#A8C686"/>
<path d="M24.8144 30.4823C25.1353 27.0021 23.2357 19.1021 13.0707 15.3435C12.1466 24.3224 20.5148 29.1772 24.8144 30.4823Z" fill="#A8C686"/>
<path d="M27.8947 31.2654L26.3545 30.8738M24.8144 30.4823C25.1353 27.0021 23.2357 19.1021 13.0707 15.3435C12.1466 24.3224 20.5148 29.1772 24.8144 30.4823ZM24.8144 30.4823L26.3545 30.8738M26.3545 30.8738L24.4294 34.3975M24.4294 34.3975C21.9184 33.6377 15.709 38.2753 15.6953 45.0991C21.1771 46.8893 25.2353 38.5843 24.4294 34.3975Z" stroke="#355E3B" stroke-width="2"/>
<path d="M33.5727 40.4272C33.7733 40.4272 33.9657 40.3475 34.1076 40.2056C34.2495 40.0637 34.3292 39.8713 34.3292 39.6706C34.3292 39.47 34.2495 39.2775 34.1076 39.1357C33.9657 38.9938 33.7733 38.9141 33.5727 38.9141C33.372 38.9141 33.1796 38.9938 33.0377 39.1357C32.8958 39.2775 32.8161 39.47 32.8161 39.6706C32.8161 39.8713 32.8958 40.0637 33.0377 40.2056C33.1796 40.3475 33.372 40.4272 33.5727 40.4272ZM31.303 39.6706C31.303 39.8713 31.2233 40.0637 31.0814 40.2056C30.9395 40.3475 30.7471 40.4272 30.5464 40.4272C30.3458 40.4272 30.1533 40.3475 30.0114 40.2056C29.8696 40.0637 29.7899 39.8713 29.7899 39.6706C29.7899 39.47 29.8696 39.2775 30.0114 39.1357C30.1533 38.9938 30.3458 38.9141 30.5464 38.9141C30.7471 38.9141 30.9395 38.9938 31.0814 39.1357C31.2233 39.2775 31.303 39.47 31.303 39.6706ZM29.6839 41.7375C29.8365 41.6105 30.0329 41.5484 30.2307 41.5649C30.4286 41.5813 30.6121 41.6748 30.7416 41.8253L30.7454 41.8291C30.7524 41.8372 30.7681 41.8523 30.7923 41.8745C30.8407 41.9176 30.9202 41.9819 31.0306 42.0485C31.2477 42.1786 31.5874 42.3186 32.0595 42.3186C32.5316 42.3186 32.8713 42.1786 33.0885 42.0485C33.1919 41.987 33.2877 41.9133 33.3737 41.8291L33.3775 41.8253C33.5086 41.6774 33.6924 41.5866 33.8896 41.5725C34.0867 41.5584 34.2816 41.622 34.4325 41.7497C34.5834 41.8775 34.6782 42.0592 34.6968 42.256C34.7154 42.4528 34.6562 42.6491 34.532 42.8028L34.5312 42.8043L34.5305 42.8051L34.5282 42.8081L34.5229 42.8141L34.5093 42.8293C34.4563 42.8894 34.3995 42.9461 34.339 42.9987C34.2293 43.0971 34.0727 43.2227 33.8677 43.346C33.3207 43.67 32.6953 43.838 32.0595 43.8317C31.4237 43.8378 30.7983 43.6695 30.2514 43.3452C30.0317 43.2139 29.8296 43.0553 29.6499 42.8731L29.6098 42.83L29.5962 42.8141L29.5909 42.8081L29.5886 42.8051L29.5871 42.8035C29.5233 42.7272 29.4752 42.639 29.4455 42.544C29.4159 42.4491 29.4052 42.3492 29.4142 42.2501C29.4232 42.151 29.4517 42.0546 29.498 41.9666C29.5442 41.8785 29.6074 41.8004 29.6839 41.7368V41.7375Z" fill="#355E3B"/>
<path d="M48.2045 64.9626C48.4051 64.9626 48.5976 64.8829 48.7395 64.741C48.8813 64.5991 48.961 64.4067 48.961 64.206C48.961 64.0054 48.8813 63.8129 48.7395 63.6711C48.5976 63.5292 48.4051 63.4495 48.2045 63.4495C48.0038 63.4495 47.8114 63.5292 47.6695 63.6711C47.5276 63.8129 47.4479 64.0054 47.4479 64.206C47.4479 64.4067 47.5276 64.5991 47.6695 64.741C47.8114 64.8829 48.0038 64.9626 48.2045 64.9626ZM45.9348 64.206C45.9348 64.4067 45.8551 64.5991 45.7132 64.741C45.5713 64.8829 45.3789 64.9626 45.1782 64.9626C44.9776 64.9626 44.7852 64.8829 44.6433 64.741C44.5014 64.5991 44.4217 64.4067 44.4217 64.206C44.4217 64.0054 44.5014 63.8129 44.6433 63.6711C44.7852 63.5292 44.9776 63.4495 45.1782 63.4495C45.3789 63.4495 45.5713 63.5292 45.7132 63.6711C45.8551 63.8129 45.9348 64.0054 45.9348 64.206ZM44.3158 66.2729C44.4683 66.1459 44.6647 66.0838 44.8626 66.1003C45.0604 66.1167 45.2439 66.2102 45.3734 66.3607L45.3772 66.3645C45.3843 66.3726 45.3999 66.3877 45.4241 66.4099C45.4725 66.453 45.552 66.5173 45.6624 66.5839C45.8796 66.714 46.2193 66.854 46.6914 66.854C47.1635 66.854 47.5032 66.714 47.7203 66.5839C47.8238 66.5224 47.9195 66.4487 48.0055 66.3645L48.0093 66.3607C48.1404 66.2128 48.3242 66.122 48.5214 66.1079C48.7186 66.0938 48.9135 66.1574 49.0643 66.2851C49.2152 66.4129 49.3101 66.5946 49.3287 66.7914C49.3473 66.9882 49.2881 67.1845 49.1638 67.3382L49.1631 67.3397L49.1623 67.3405L49.16 67.3435L49.1547 67.3495L49.1411 67.3647C49.0882 67.4248 49.0313 67.4815 48.9709 67.5341C48.8612 67.6325 48.7046 67.7581 48.4995 67.8814C47.9525 68.2054 47.3271 68.3734 46.6914 68.3671C46.0555 68.3732 45.4302 68.2049 44.8832 67.8806C44.6635 67.7493 44.4614 67.5907 44.2817 67.4085L44.2416 67.3654L44.228 67.3495L44.2227 67.3435L44.2204 67.3405L44.2189 67.3389C44.1551 67.2626 44.107 67.1744 44.0774 67.0794C44.0477 66.9845 44.0371 66.8846 44.0461 66.7855C44.0551 66.6864 44.0835 66.59 44.1298 66.502C44.1761 66.4139 44.2393 66.3358 44.3158 66.2722V66.2729Z" fill="#355E3B"/>
<path d="M53.8424 49.2522C56.3739 48.8159 62.6341 51.4786 62.6479 55.3964C57.1213 56.4242 53.0298 51.656 53.8424 49.2522Z" fill="#A8C686"/>
<path d="M53.4542 47.0043C53.1307 45.0062 55.0458 40.4705 65.294 38.3125C66.2257 43.4677 57.789 46.255 53.4542 47.0043Z" fill="#A8C686"/>
<path d="M50.3487 47.4539L51.9014 47.2291M53.4542 47.0043C53.1307 45.0062 55.0458 40.4705 65.294 38.3125C66.2257 43.4677 57.789 46.255 53.4542 47.0043ZM53.4542 47.0043L51.9014 47.2291M51.9014 47.2291L53.8424 49.2522M53.8424 49.2522C56.3739 48.8159 62.6341 51.4786 62.6479 55.3964C57.1213 56.4242 53.0298 51.656 53.8424 49.2522Z" stroke="#355E3B" stroke-width="2"/>
</g>
<defs>
<clipPath id="clip0_649_3401">
<rect width="78" height="78" fill="white"/>
</clipPath>
</defs>
</svg>
