<svg width="72" height="77" viewBox="0 0 72 77" fill="none" xmlns="http://www.w3.org/2000/svg">
<path d="M40.9809 89.4189C40.3328 89.0498 33.9711 87.954 33.5092 90.0004C32.8361 87.3237 32.6164 82.8854 33.001 79.6681L32.8133 79.9824L32.5395 80.3087C21.8772 80.6189 18.4039 70.4879 18 65.3836C19.0097 66.6112 22.1599 68.9501 26.6833 68.4849C31.2067 68.0197 34.5573 72.0385 35.6672 74.1061C36.9263 70.4246 37.5894 64.2926 37.7898 60.9254L40.819 56.2734C41.1811 58.7378 41.4981 62.6669 41.293 66.5466C43.1544 63.0576 50.7947 57.4364 66.4651 62.8638C64.4486 62.8638 61.4725 63.9208 58.7837 65.281C55.8226 66.7788 52.8884 68.417 49.6905 69.303C45.9231 70.3467 41.473 71.4198 40.819 70.7995C40.3746 73.2359 39.6149 75.3951 38.3957 76.8197C33.7512 82.2471 41.8665 89.9232 40.9809 89.4189Z" fill="#A8C686"/>
<path d="M41.293 66.5466C41.4981 62.6669 41.1811 58.7378 40.819 56.2734L37.7898 60.9254C37.5894 64.2926 36.9263 70.4246 35.6672 74.1061M41.293 66.5466C43.1544 63.0576 50.7947 57.4364 66.4651 62.8638C64.4486 62.8638 61.4725 63.9208 58.7837 65.281C55.8226 66.7788 52.8884 68.417 49.6905 69.303C45.9231 70.3467 41.473 71.4198 40.819 70.7995M41.293 66.5466C41.2164 67.9975 41.0667 69.4415 40.819 70.7995M40.819 70.7995C40.3746 73.2359 39.6149 75.3951 38.3957 76.8197C33.7512 82.2471 41.8665 89.9232 40.9809 89.4189C40.3328 89.0498 33.9711 87.954 33.5092 90.0004C32.8361 87.3237 32.6164 82.8854 33.001 79.6681M35.6672 74.1061C35.2351 75.3695 34.7328 76.3443 34.1549 76.8197C33.5087 77.3514 33.1548 78.381 33.001 79.6681M35.6672 74.1061C34.5573 72.0385 31.2067 68.0197 26.6833 68.4849C22.1599 68.9501 19.0097 66.6112 18 65.3836C18.4039 70.4879 21.8772 80.6189 32.5395 80.3087L32.8133 79.9824L33.001 79.6681" stroke="#355E3B" stroke-width="2"/>
<path d="M6.28711 47.1629C8.71037 38.3241 15.7782 37.2774 19.0092 37.8589L21.2305 42.8986C18.8073 45.2246 12.426 49.3338 6.28711 47.1629Z" fill="#FFF67B" stroke="#9A5E05" stroke-width="2"/>
<path d="M24.3414 62.125C19.785 54.0996 24.1777 48.6828 26.9436 46.9775L32.1624 49.1802C32.0626 52.4682 30.3588 59.6605 24.3414 62.125Z" fill="#FFF67B" stroke="#9A5E05" stroke-width="2"/>
<path d="M51.8375 59.6842C42.3649 58.7552 40.193 52.215 40.2911 49.061L45.1341 46.174C47.9034 48.1117 53.1212 53.5265 51.8375 59.6842Z" fill="#FFF67B" stroke="#9A5E05" stroke-width="2"/>
<path d="M67.2938 42.1716C59.5932 47.5474 53.4286 44.0679 51.3089 41.6561L52.9086 36.4038C56.3182 36.073 63.9687 36.7634 67.2938 42.1716Z" fill="#FFF67B" stroke="#9A5E05" stroke-width="2"/>
<path d="M10.5283 13.6299C12.1438 20.0264 16.9096 31.3462 23.0485 25.4537C30.7221 18.088 18.8078 14.2114 10.5283 13.6299Z" fill="#FFF67B" stroke="#9A5E05" stroke-width="2"/>
<path d="M34.3389 2C29.5542 9.36889 22.7847 24.0342 33.9841 23.7444C47.9834 23.3821 41.1457 9.59906 34.3389 2Z" fill="#FFF67B" stroke="#9A5E05" stroke-width="2"/>
<path d="M66.4502 21.2583C57.5704 19.6018 40.8816 18.773 45.1653 28.7098C50.5199 41.1307 61.4882 30.0759 66.4502 21.2583Z" fill="#FFF67B" stroke="#9A5E05" stroke-width="2"/>
<path d="M35.9043 63.3235C41.4835 56.4887 49.85 42.6034 38.6826 41.7405C24.7233 40.6619 29.9842 55.0685 35.9043 63.3235Z" fill="#FFF67B" stroke="#9A5E05" stroke-width="2"/>
<path d="M2.65332 36.3809C10.9701 39.7962 27.1023 43.9818 25.0961 33.4017C22.5885 20.1767 9.43962 28.7649 2.65332 36.3809Z" fill="#FFF67B" stroke="#9A5E05" stroke-width="2"/>
<path d="M21.0294 5.10132C17.96 15.8009 23.7893 21.9648 27.0876 23.7093C28.2992 23.9677 31.2071 23.8644 33.1457 21.3833C33.3476 17.7005 29.3089 8.20265 21.0294 5.10132Z" fill="#FFF67B" stroke="#9A5E05" stroke-width="2"/>
<path d="M49.6034 4.28392C39.1364 8.99796 38.044 17.2564 38.8061 20.7963C39.3889 21.8482 41.3605 23.9024 44.5849 23.7044C47.6323 21.4583 52.5282 12.3395 49.6034 4.28392Z" fill="#FFF67B" stroke="#9A5E05" stroke-width="2"/>
<path d="M70.1654 31.0513C60.5112 24.9446 52.6032 28.3628 49.856 30.8352C49.2257 31.8615 48.4301 34.5482 50.2899 37.0842C53.8768 38.406 64.5353 37.6521 70.1654 31.0513Z" fill="#FFF67B" stroke="#9A5E05" stroke-width="2"/>
<path d="M61.9368 53.1215C59.5586 42.261 51.4351 39.3453 47.6707 39.245C46.4703 39.5481 43.9349 40.9187 43.3958 43.9765C44.974 47.339 53.0971 54.0055 61.9368 53.1215Z" fill="#FFF67B" stroke="#9A5E05" stroke-width="2"/>
<path d="M11.2827 55.8635C22.8421 56.0931 27.6363 49.1559 28.5884 45.6586C28.552 44.4677 27.7338 41.7873 24.7522 40.5925C20.9832 41.3087 12.3824 47.3982 11.2827 55.8635Z" fill="#FFF67B" stroke="#9A5E05" stroke-width="2"/>
<path d="M2.82052 23.8349C8.53845 33.4805 17.2014 33.8774 20.8181 32.8701C21.8649 32.2299 23.8435 30.182 23.3846 27.1121C20.8126 24.3724 10.9574 20.4035 2.82052 23.8349Z" fill="#FFF67B" stroke="#9A5E05" stroke-width="2"/>
<path d="M59.1674 12.2749C47.6455 13.1968 43.6265 20.5738 43.0572 24.147C43.222 25.3278 44.3253 27.9123 47.4199 28.8039C51.0913 27.7166 58.9879 20.8039 59.1674 12.2749Z" fill="#FFF67B" stroke="#9A5E05" stroke-width="2"/>
<path d="M35.9727 18.5066C45.3852 18.5067 52.9452 25.8207 52.9453 34.7576C52.9453 43.6946 45.3852 51.0085 35.9727 51.0085C26.56 51.0085 19 43.6946 19 34.7576C19.0001 25.8206 26.5601 18.5066 35.9727 18.5066Z" fill="#E4A74C" stroke="#9A5E05" stroke-width="2"/>
<path d="M39.552 33.538C39.9784 33.538 40.3872 33.3686 40.6887 33.0671C40.9902 32.7657 41.1595 32.3568 41.1595 31.9305C41.1595 31.5042 40.9902 31.0953 40.6887 30.7938C40.3872 30.4924 39.9784 30.323 39.552 30.323C39.1257 30.323 38.7168 30.4924 38.4154 30.7938C38.1139 31.0953 37.9446 31.5042 37.9446 31.9305C37.9446 32.3568 38.1139 32.7657 38.4154 33.0671C38.7168 33.3686 39.1257 33.538 39.552 33.538ZM34.7296 31.9305C34.7296 32.3568 34.5602 32.7657 34.2588 33.0671C33.9573 33.3686 33.5484 33.538 33.1221 33.538C32.6958 33.538 32.2869 33.3686 31.9855 33.0671C31.684 32.7657 31.5146 32.3568 31.5146 31.9305C31.5146 31.5042 31.684 31.0953 31.9855 30.7938C32.2869 30.4924 32.6958 30.323 33.1221 30.323C33.5484 30.323 33.9573 30.4924 34.2588 30.7938C34.5602 31.0953 34.7296 31.5042 34.7296 31.9305ZM31.2896 36.3221C31.6137 36.0521 32.031 35.9203 32.4514 35.9552C32.8718 35.9901 33.2617 36.1889 33.5368 36.5086L33.5449 36.5166C33.5599 36.5338 33.5931 36.5659 33.6445 36.6131C33.7474 36.7047 33.9162 36.8413 34.1509 36.9828C34.6123 37.2593 35.334 37.5567 36.3371 37.5567C37.3401 37.5567 38.0619 37.2593 38.5233 36.9828C38.7431 36.8521 38.9465 36.6956 39.1293 36.5166L39.1373 36.5086C39.4159 36.1943 39.8065 36.0015 40.2254 35.9715C40.6444 35.9415 41.0584 36.0766 41.379 36.348C41.6995 36.6194 41.9011 37.0055 41.9406 37.4237C41.9801 37.8418 41.8544 38.2588 41.5903 38.5855L41.5887 38.5887L41.5871 38.5903L41.5823 38.5967L41.571 38.6096L41.5421 38.6417C41.4296 38.7696 41.3088 38.8899 41.1804 39.0018C40.9473 39.2108 40.6146 39.4776 40.179 39.7396C39.0167 40.4281 37.6879 40.785 36.3371 40.7716C34.9861 40.7846 33.6573 40.4271 32.4952 39.738C32.0285 39.459 31.5991 39.122 31.2172 38.735L31.1321 38.6433L31.1031 38.6096L31.0919 38.5967L31.087 38.5903L31.0838 38.5871C30.9483 38.4248 30.8461 38.2375 30.7831 38.0357C30.72 37.8339 30.6974 37.6216 30.7165 37.4111C30.7357 37.2006 30.7961 36.9959 30.8944 36.8087C30.9928 36.6216 31.127 36.4557 31.2896 36.3205V36.3221Z" fill="#9A5E05"/>
</svg>
