<svg width="78" height="78" viewBox="0 0 78 78" fill="none" xmlns="http://www.w3.org/2000/svg">
<g clip-path="url(#clip0_649_3401)">
<path d="M39.3848 47.114C45.8944 47.114 51.8212 47.7672 56.1494 48.8406C58.3058 49.3753 60.122 50.028 61.4229 50.7908C62.6543 51.5128 63.7528 52.5332 63.7529 53.9089C63.7529 55.2847 62.6543 56.305 61.4229 57.0271C60.122 57.7898 58.3058 58.4425 56.1494 58.9773C51.8212 60.0506 45.8944 60.7038 39.3848 60.7039C32.875 60.7039 26.9475 60.0507 22.6191 58.9773C20.4629 58.4426 18.6475 57.7898 17.3467 57.0271C16.115 56.305 15.0156 55.2849 15.0156 53.9089C15.0158 52.5331 16.1151 51.5129 17.3467 50.7908C18.6475 50.0282 20.463 49.3753 22.6191 48.8406C26.9475 47.7672 32.875 47.114 39.3848 47.114Z" fill="#D6C7C7" stroke="#152B3D" stroke-width="2"/>
<path d="M19.8157 60.3532C18.2127 60.1995 18.3963 64.4095 19.2972 70.626C20.7789 80.8499 28.0066 89.9688 38.3363 89.8263V89.8263V89.8263C48.9428 89.332 57.3392 81.9771 58.432 71.4155C58.7672 68.176 59.0875 64.3671 59.4307 59.8303L19.8157 60.3532Z" fill="#8C7878" stroke="#3D2D15" stroke-width="2"/>
<path d="M39.5859 51.2908C47.3993 51.2908 54.168 52.2345 58.3828 53.7341H63.2988V59.1775L63.0693 59.158C62.7045 59.9926 61.9439 60.6677 61.0908 61.1951C59.8478 61.9635 58.1096 62.6185 56.0322 63.1541C51.8625 64.229 46.0952 64.8806 39.5859 64.8806C33.0763 64.8806 27.1495 64.2274 22.8213 63.1541C20.6649 62.6193 18.8487 61.9666 17.5479 61.2039C16.3315 60.4906 15.2473 59.4867 15.2207 58.1365L15.2188 58.1375L15.0166 54.2458L14.958 53.1013L16.0996 53.198L20.7793 53.5916H20.79C25.2008 52.1783 32.0072 51.2908 39.5859 51.2908Z" fill="#D6C7C7" stroke="#152B3D" stroke-width="2"/>
<path d="M39.6377 48.4441C45.5609 48.4441 50.9492 48.8884 54.8799 49.616C56.8371 49.9783 58.4837 50.4197 59.6641 50.9363C60.2504 51.1929 60.7783 51.4917 61.1748 51.8503C61.5686 52.2066 61.9364 52.7209 61.9365 53.3865C61.9365 54.0521 61.5686 54.5663 61.1748 54.9226C60.7782 55.2814 60.2506 55.581 59.6641 55.8376C58.4837 56.3542 56.8371 56.7957 54.8799 57.158C50.9492 57.8855 45.5608 58.3288 39.6377 58.3289C33.7143 58.3289 28.3253 57.8855 24.3945 57.158C22.4373 56.7957 20.7907 56.3542 19.6104 55.8376C19.0239 55.581 18.4962 55.2813 18.0996 54.9226C17.7304 54.5886 17.3836 54.1158 17.3418 53.5095L17.3379 53.3865L17.3418 53.2634C17.3837 52.6572 17.7304 52.1843 18.0996 51.8503C18.4961 51.4917 19.024 51.1929 19.6104 50.9363C20.7907 50.4197 22.4373 49.9783 24.3945 49.616C28.3253 48.8884 33.7143 48.4441 39.6377 48.4441Z" fill="#396D88" stroke="#152B3D" stroke-width="2"/>
<path d="M29.222 52.2933C27.6148 53.3951 24.1312 56.4044 23.0547 59.6271C25.8804 61.5178 32.2309 58.8751 35.053 57.3175C34.6636 56.0262 34.6938 55.3525 34.7726 54.1558L29.222 52.2933Z" fill="#A8C686"/>
<path d="M34.7726 54.1558C34.6938 55.3525 34.6636 56.0262 35.053 57.3175C35.9874 59.269 37.8149 63.9081 38.9216 64.0315C40.8592 64.2476 43.1382 59.8286 43.6312 56.4966C43.7549 55.6602 43.7661 54.8924 43.6312 54.2835L34.7726 54.1558Z" fill="#A8C686"/>
<path d="M43.6312 54.2835C43.7661 54.8924 43.7549 55.6602 43.6312 56.4966C45.7617 58.3637 51.1105 61.5608 55.4612 59.4123C57.2105 56.963 52.4307 53.5576 49.8221 52.1611C48.0763 53.1486 46.0271 53.8934 43.6312 54.2835Z" fill="#A8C686"/>
<path d="M35.053 57.3175C32.2309 58.8751 25.8804 61.5178 23.0547 59.6271C24.1312 56.4044 27.6148 53.3951 29.222 52.2933L34.7726 54.1558M35.053 57.3175C34.6636 56.0262 34.6938 55.3525 34.7726 54.1558M35.053 57.3175C35.9874 59.269 37.8149 63.9081 38.9216 64.0315C40.8592 64.2476 43.1382 59.8286 43.6312 56.4966M34.7726 54.1558L43.6312 54.2835M43.6312 54.2835C43.7661 54.8924 43.7549 55.6602 43.6312 56.4966M43.6312 54.2835C46.0271 53.8934 48.0763 53.1486 49.8221 52.1611C52.4307 53.5576 57.2105 56.963 55.4612 59.4123C51.1105 61.5608 45.7617 58.3637 43.6312 56.4966" stroke="#355E3B" stroke-width="2"/>
<path d="M39.0485 52.9226C39.0528 53.5275 39.0062 54.084 38.9212 54.578C40.6229 54.6243 42.1896 54.5179 43.6308 54.2833C46.0268 53.8932 48.0759 53.1484 49.8218 52.1609C50.5365 51.7566 51.2005 51.3116 51.8165 50.8336C55.672 47.8421 57.6529 43.5573 58.4907 39.8608C58.8202 38.4067 58.9728 37.0437 58.9931 35.8861C57.2932 36.0827 55.1413 36.5552 52.8818 37.3807C50.8869 38.1096 48.8082 39.1136 46.8827 40.446C43.0049 43.1291 39.7483 47.1435 39.0485 52.9226Z" fill="#C4058B"/>
<path d="M20.1949 35.8861C20.1032 37.5367 19.9613 38.5711 20.5874 40.7739C21.5513 44.1655 23.8988 48.8546 27.6518 51.3643C28.1448 51.694 28.6676 52.0046 29.2217 52.2931C30.805 53.1177 32.6436 53.762 34.7723 54.1555C36.0485 54.3915 37.4289 54.5374 38.9212 54.578C38.9406 54.0107 38.9835 53.4591 39.0485 52.9226C39.0229 49.4 37.2649 44.2393 31.2401 40.2742C29.4902 39.1225 27.3803 38.0717 24.8485 37.1912C23.4328 36.6989 21.8853 36.2598 20.1949 35.8861Z" fill="#C4058B"/>
<path d="M41.8717 32.932C40.7701 31.6618 39.7162 30.7835 38.9212 30.7835C38.2247 30.7835 37.3491 31.4456 36.4269 32.4486C34.4981 34.546 32.3653 38.134 31.2401 40.2742C37.2649 44.2393 39.0229 49.4 39.0485 52.9226C39.7483 47.1435 43.0049 43.1291 46.8827 40.446C45.7746 38.4145 43.7535 35.1016 41.8717 32.932Z" fill="#D18BBB"/>
<path d="M11 38.9477C11.8074 43.4166 22.3815 49.0695 27.6518 51.3643C23.8988 48.8546 21.5513 44.1655 20.5874 40.7739C18.6251 39.9146 18.0644 39.8608 16.7749 39.4849C14.9807 39.0552 13.8033 38.6255 11 38.9477Z" fill="#D18BBB"/>
<path d="M51.8165 50.8336C56.0776 49.1634 65.1156 44.5338 67.1788 39.3774C65.8762 38.2906 64.2689 38.0805 62.7495 38.2802C61.0252 38.5068 59.4142 39.2612 58.4907 39.8608C57.6529 43.5573 55.672 47.8421 51.8165 50.8336Z" fill="#D18BBB"/>
<path d="M20.5874 40.7739C19.9613 38.5711 20.1032 37.5367 20.1949 35.8861C21.8853 36.2598 23.4328 36.6989 24.8485 37.1912C24.5578 36.3159 23.8324 33.1069 23.5589 31.804C21.4206 29.8704 18.2887 29.9241 15.5414 29.5403C15.6535 30.8372 15.205 35.8861 16.7749 39.4849C18.0644 39.8608 18.6251 39.9146 20.5874 40.7739Z" fill="#E4BCD8"/>
<path d="M52.8818 37.3807C55.1413 36.5552 57.2932 36.0827 58.9931 35.8861C58.9728 37.0437 58.8202 38.4067 58.4907 39.8608C59.4142 39.2612 61.0252 38.5068 62.7495 38.2802C63.385 36.5332 64.5885 32.3089 64.3194 29.387C60.6751 28.6272 57.2924 30.5316 54.9563 31.9364C54.3199 33.9296 53.5473 35.8831 52.8818 37.3807Z" fill="#E4BCD8"/>
<path d="M38.9212 30.7835C39.7162 30.7835 40.7701 31.6618 41.8717 32.932C42.9821 31.3533 44.82 29.0497 46.8827 27.0198C45.1072 24.2997 42.5655 20.6241 38.9212 18C35.4451 20.3018 32.8169 23.9483 31.2401 27.0836C33.3142 28.9083 35.2464 31.0171 36.4269 32.4486C37.3491 31.4456 38.2247 30.7835 38.9212 30.7835Z" fill="#C4058B"/>
<path d="M24.8485 37.1912C27.3803 38.0717 29.4902 39.1225 31.2401 40.2742C32.3653 38.134 34.4981 34.546 36.4269 32.4486C35.2464 31.0171 33.3142 28.9083 31.2401 27.0836C28.9301 25.0513 25.3787 23.1486 23.5589 23.1486C21.933 25.8879 23.232 30.2464 23.5589 31.804C23.8324 33.1069 24.5578 36.3159 24.8485 37.1912Z" fill="#CD6FB0"/>
<path d="M41.8717 32.932C43.7535 35.1016 45.7746 38.4145 46.8827 40.446C48.8082 39.1136 50.8869 38.1096 52.8818 37.3807C53.5473 35.8831 54.3199 33.9296 54.9563 31.9364C55.7412 27.2844 55.6291 26.1027 54.2835 22.6192C51.1437 23.2023 49.3115 24.6297 46.8827 27.0198C44.82 29.0497 42.9821 31.3533 41.8717 32.932Z" fill="#CD6FB0"/>
<path d="M38.9212 54.578C37.4289 54.5374 36.0485 54.3915 34.7723 54.1555C32.6436 53.762 30.805 53.1177 29.2217 52.2931C28.6676 52.0046 28.1448 51.694 27.6518 51.3643M38.9212 54.578C40.6229 54.6243 42.1896 54.5179 43.6308 54.2833C46.0268 53.8932 48.0759 53.1484 49.8218 52.1609C50.5365 51.7566 51.2005 51.3116 51.8165 50.8336M38.9212 54.578C39.0062 54.084 39.0528 53.5275 39.0485 52.9226M38.9212 54.578C38.9406 54.0107 38.9835 53.4591 39.0485 52.9226M31.2401 40.2742C29.4902 39.1225 27.3803 38.0717 24.8485 37.1912M31.2401 40.2742C32.3653 38.134 34.4981 34.546 36.4269 32.4486M31.2401 40.2742C37.2649 44.2393 39.0229 49.4 39.0485 52.9226M46.8827 40.446C45.7746 38.4145 43.7535 35.1016 41.8717 32.932M46.8827 40.446C48.8082 39.1136 50.8869 38.1096 52.8818 37.3807M46.8827 40.446C43.0049 43.1291 39.7483 47.1435 39.0485 52.9226M41.8717 32.932C40.7701 31.6618 39.7162 30.7835 38.9212 30.7835C38.2247 30.7835 37.3491 31.4456 36.4269 32.4486M41.8717 32.932C42.9821 31.3533 44.82 29.0497 46.8827 27.0198M52.8818 37.3807C55.1413 36.5552 57.2932 36.0827 58.9931 35.8861C58.9728 37.0437 58.8202 38.4067 58.4907 39.8608M52.8818 37.3807C53.5473 35.8831 54.3199 33.9296 54.9563 31.9364M51.8165 50.8336C56.0776 49.1634 65.1156 44.5338 67.1788 39.3774C65.8762 38.2906 64.2689 38.0805 62.7495 38.2802M51.8165 50.8336C55.672 47.8421 57.6529 43.5573 58.4907 39.8608M58.4907 39.8608C59.4142 39.2612 61.0252 38.5068 62.7495 38.2802M62.7495 38.2802C63.385 36.5332 64.5885 32.3089 64.3194 29.387C60.6751 28.6272 57.2924 30.5316 54.9563 31.9364M54.9563 31.9364C55.7412 27.2844 55.6291 26.1027 54.2835 22.6192C51.1437 23.2023 49.3115 24.6297 46.8827 27.0198M27.6518 51.3643C22.3815 49.0695 11.8074 43.4166 11 38.9477C13.8033 38.6255 14.9807 39.0552 16.7749 39.4849M27.6518 51.3643C23.8988 48.8546 21.5513 44.1655 20.5874 40.7739M20.5874 40.7739C19.9613 38.5711 20.1032 37.5367 20.1949 35.8861C21.8853 36.2598 23.4328 36.6989 24.8485 37.1912M20.5874 40.7739C18.6251 39.9146 18.0644 39.8608 16.7749 39.4849M24.8485 37.1912C24.5578 36.3159 23.8324 33.1069 23.5589 31.804M36.4269 32.4486C35.2464 31.0171 33.3142 28.9083 31.2401 27.0836M31.2401 27.0836C28.9301 25.0513 25.3787 23.1486 23.5589 23.1486C21.933 25.8879 23.232 30.2464 23.5589 31.804M31.2401 27.0836C32.8169 23.9483 35.4451 20.3018 38.9212 18C42.5655 20.6241 45.1072 24.2997 46.8827 27.0198M16.7749 39.4849C15.205 35.8861 15.6535 30.8372 15.5414 29.5403C18.2887 29.9241 21.4206 29.8704 23.5589 31.804" stroke="#530101" stroke-width="2"/>
<path d="M41.2023 38.5361C41.4825 38.5361 41.7512 38.4248 41.9493 38.2267C42.1474 38.0286 42.2587 37.7599 42.2587 37.4797C42.2587 37.1995 42.1474 36.9309 41.9493 36.7327C41.7512 36.5346 41.4825 36.4233 41.2023 36.4233C40.9221 36.4233 40.6534 36.5346 40.4553 36.7327C40.2572 36.9309 40.1459 37.1995 40.1459 37.4797C40.1459 37.7599 40.2572 38.0286 40.4553 38.2267C40.6534 38.4248 40.9221 38.5361 41.2023 38.5361ZM38.0332 37.4797C38.0332 37.7599 37.9219 38.0286 37.7238 38.2267C37.5256 38.4248 37.2569 38.5361 36.9768 38.5361C36.6966 38.5361 36.4279 38.4248 36.2298 38.2267C36.0317 38.0286 35.9204 37.7599 35.9204 37.4797C35.9204 37.1995 36.0317 36.9309 36.2298 36.7327C36.4279 36.5346 36.6966 36.4233 36.9768 36.4233C37.2569 36.4233 37.5256 36.5346 37.7238 36.7327C37.9219 36.9309 38.0332 37.1995 38.0332 37.4797ZM35.7725 40.3657C35.9855 40.1883 36.2597 40.1017 36.536 40.1246C36.8123 40.1475 37.0685 40.2782 37.2493 40.4883L37.2546 40.4936C37.2645 40.5048 37.2863 40.526 37.3201 40.5569C37.3877 40.6172 37.4986 40.707 37.6529 40.7999C37.956 40.9816 38.4304 41.177 39.0895 41.177C39.7487 41.177 40.223 40.9816 40.5262 40.7999C40.6707 40.714 40.8044 40.6112 40.9245 40.4936L40.9297 40.4883C41.1128 40.2817 41.3695 40.155 41.6448 40.1353C41.9201 40.1156 42.1922 40.2044 42.4029 40.3828C42.6135 40.5611 42.746 40.8148 42.772 41.0896C42.7979 41.3644 42.7153 41.6385 42.5418 41.8531L42.5407 41.8552L42.5397 41.8563L42.5365 41.8605L42.5291 41.869L42.5101 41.8901C42.4362 41.9741 42.3568 42.0532 42.2724 42.1267C42.1192 42.2641 41.9006 42.4394 41.6143 42.6116C40.8505 43.0641 39.9773 43.2986 39.0895 43.2898C38.2017 43.2983 37.3285 43.0634 36.5648 42.6105C36.2581 42.4272 35.9759 42.2057 35.725 41.9514L35.669 41.8912L35.65 41.869L35.6426 41.8605L35.6394 41.8563L35.6373 41.8542C35.5482 41.7476 35.4811 41.6244 35.4396 41.4918C35.3982 41.3592 35.3834 41.2197 35.3959 41.0814C35.4085 40.943 35.4482 40.8085 35.5128 40.6855C35.5775 40.5625 35.6657 40.4535 35.7725 40.3647V40.3657Z" fill="#530101"/>
</g>
<defs>
<clipPath id="clip0_649_3401">
<rect width="78" height="78" fill="white"/>
</clipPath>
</defs>
</svg>
