<svg width="352" height="352" viewBox="0 0 352 352" fill="none" xmlns="http://www.w3.org/2000/svg">
<circle cx="176" cy="176" r="172" fill="#A2DFF2" stroke="#185485" stroke-width="8"/>
<path d="M56.7743 141.936C35.3982 138.56 22.4754 152.556 18.5583 160.177C18.4847 160.32 18.4255 160.471 18.3777 160.625C4.33242 205.836 25.5708 214.332 38.3227 220C51.0969 225.677 51.0969 195.871 80.9033 197.29C110.71 198.71 109.29 164.645 106.452 151.871C103.613 139.097 83.742 146.194 56.7743 141.936Z" fill="#A8C686"/>
<path d="M211.484 28.387C217.034 22.8375 237.5 38.9859 255.652 29.1119C256.451 28.6771 257.397 28.5575 258.244 28.8894C277.97 36.6193 303.996 61.3807 315.097 76.6452C326.985 92.9913 353.134 147.023 343.642 204.861C343.542 205.474 343.254 206.051 342.797 206.471C340.29 208.778 337.911 209.218 326.452 202.968C310.839 194.452 306.581 188.774 275.355 185.935C244.129 183.097 210.065 185.935 184.516 177.419C158.968 168.903 178.839 141.936 191.613 133.419C204.387 124.903 228.516 106.452 228.516 82.3226C228.516 58.1935 211.484 88 187.355 76.6452C181.678 73.8064 205.807 34.0644 211.484 28.387Z" fill="#A8C686"/>
<path d="M112.129 303.742C98.4436 303.742 90.088 310.755 85.6133 316.63C84.5391 318.041 85.1541 320.044 86.7561 320.804C172.959 361.676 235.692 341.922 260.121 324.086C261.494 323.084 261.653 321.132 260.454 319.928C256.442 315.9 249.767 310.359 244.129 309.419C235.613 308 218.581 286.71 195.871 282.452C173.219 278.204 192.932 295.139 152.184 303.677C151.984 303.719 151.77 303.742 151.566 303.742H112.129Z" fill="#A8C686"/>
<path d="M241.29 259.742C239.183 256.58 241.803 245.022 243.703 238.46C243.965 237.556 244.647 236.829 245.552 236.574C256.236 233.563 266.769 240.17 272.17 245.191C273.234 246.18 273.294 247.806 272.39 248.943C267.243 255.418 258.556 265.419 255.484 265.419H251.523C251.325 265.419 251.13 265.401 250.937 265.358C248.453 264.804 243.473 263.016 241.29 259.742Z" fill="#A8C686"/>
<path d="M56.7743 141.936C35.3982 138.56 22.4754 152.556 18.5583 160.177C18.4847 160.32 18.4255 160.471 18.3777 160.625C4.33242 205.836 25.5708 214.332 38.3227 220C51.0969 225.677 51.0969 195.871 80.9033 197.29C110.71 198.71 109.29 164.645 106.452 151.871C103.613 139.097 83.742 146.194 56.7743 141.936Z" stroke="#355E3B" stroke-width="8"/>
<path d="M211.484 28.387C217.034 22.8375 237.5 38.9859 255.652 29.1119C256.451 28.6771 257.397 28.5575 258.244 28.8894C277.97 36.6193 303.996 61.3807 315.097 76.6452C326.985 92.9913 353.134 147.023 343.642 204.861C343.542 205.474 343.254 206.051 342.797 206.471C340.29 208.778 337.911 209.218 326.452 202.968C310.839 194.452 306.581 188.774 275.355 185.935C244.129 183.097 210.065 185.935 184.516 177.419C158.968 168.903 178.839 141.936 191.613 133.419C204.387 124.903 228.516 106.452 228.516 82.3226C228.516 58.1935 211.484 88 187.355 76.6452C181.678 73.8064 205.807 34.0644 211.484 28.387Z" stroke="#355E3B" stroke-width="8"/>
<path d="M112.129 303.742C98.4436 303.742 90.088 310.755 85.6133 316.63C84.5391 318.041 85.1541 320.044 86.7561 320.804C172.959 361.676 235.692 341.922 260.121 324.086C261.494 323.084 261.653 321.132 260.454 319.928C256.442 315.9 249.767 310.359 244.129 309.419C235.613 308 218.581 286.71 195.871 282.452C173.219 278.204 192.932 295.139 152.184 303.677C151.984 303.719 151.77 303.742 151.566 303.742H112.129Z" stroke="#355E3B" stroke-width="8"/>
<path d="M241.29 259.742C239.183 256.58 241.803 245.022 243.703 238.46C243.965 237.556 244.647 236.829 245.552 236.574C256.236 233.563 266.769 240.17 272.17 245.191C273.234 246.18 273.294 247.806 272.39 248.943C267.243 255.418 258.556 265.419 255.484 265.419H251.523C251.325 265.419 251.13 265.401 250.937 265.358C248.453 264.804 243.473 263.016 241.29 259.742Z" stroke="#355E3B" stroke-width="8"/>
<circle cx="176" cy="176" r="172" stroke="#185485" stroke-width="8"/>
<path d="M162.42 156.19C162.42 160.189 160.831 164.025 158.003 166.853C155.175 169.681 151.339 171.27 147.34 171.27C143.34 171.27 139.504 169.681 136.676 166.853C133.848 164.025 132.259 160.189 132.259 156.19C132.259 152.19 133.848 148.354 136.676 145.526C139.504 142.698 143.34 141.109 147.34 141.109C151.339 141.109 155.175 142.698 158.003 145.526C160.831 148.354 162.42 152.19 162.42 156.19ZM130.148 197.39C133.188 194.857 137.103 193.62 141.047 193.948C144.991 194.275 148.649 196.14 151.23 199.139L151.306 199.215C151.447 199.375 151.758 199.677 152.241 200.119C153.206 200.979 154.789 202.261 156.991 203.588C161.319 206.182 168.091 208.972 177.501 208.972C186.911 208.972 193.682 206.182 198.011 203.588C200.073 202.362 201.982 200.893 203.696 199.215L203.771 199.139C206.385 196.19 210.049 194.382 213.979 194.1C217.91 193.819 221.794 195.087 224.801 197.633C227.809 200.179 229.7 203.801 230.071 207.724C230.441 211.647 229.262 215.559 226.784 218.623L226.769 218.654L226.754 218.669L226.709 218.729L226.604 218.85L226.332 219.151C225.277 220.351 224.143 221.479 222.939 222.529C220.752 224.49 217.631 226.993 213.544 229.451C202.639 235.91 190.174 239.259 177.501 239.133C164.826 239.254 152.361 235.901 141.458 229.436C137.08 226.819 133.052 223.657 129.469 220.026L128.67 219.166L128.398 218.85L128.293 218.729L128.248 218.669L128.217 218.638C126.946 217.116 125.987 215.359 125.396 213.466C124.804 211.572 124.592 209.581 124.772 207.606C124.951 205.631 125.518 203.711 126.441 201.955C127.363 200.199 128.623 198.643 130.148 197.375V197.39Z" fill="#185485"/>
<path d="M218.325 166.853C215.497 169.681 211.661 171.27 207.662 171.27C203.662 171.27 199.826 169.681 196.998 166.853C194.17 164.025 192.581 160.189 192.581 156.19C192.581 152.19 194.17 148.354 196.998 145.526C199.826 142.698 203.662 141.109 207.662 141.109C211.661 141.109 215.497 142.698 218.325 145.526C221.153 148.354 222.742 152.19 222.742 156.19C222.742 160.189 221.153 164.025 218.325 166.853Z" fill="#355E3B"/>
</svg>
