<svg width="76" height="77" viewBox="0 0 76 77" fill="none" xmlns="http://www.w3.org/2000/svg">
<mask id="path-1-outside-1_648_3336" maskUnits="userSpaceOnUse" x="0.75" y="0.60791" width="75" height="87" fill="black">
<rect fill="white" x="0.75" y="0.60791" width="75" height="87"/>
<path d="M37.9269 2.60791C48.529 3.05039 52.2324 13.9073 52.547 39.9614H52.5695C58.2365 40.6578 58.1339 37.7516 58.133 37.728C58.133 26.0802 64.1178 23.6444 67.1105 23.8823C69.4708 24.2099 73.9643 27.4374 73.0539 37.728C72.1433 48.0185 59.0182 49.5789 52.5695 49.0728H52.5402C52.4247 60.1292 51.9387 75.2803 50.7199 84.4937C47.2199 83.9888 43.0216 83.6939 38.4289 83.6938C33.4754 83.6938 28.8833 84.0353 25.1095 84.6147C24.1738 77.6756 23.6641 67.2558 23.421 57.772V57.4741C17.0097 58.2357 3.77437 55.9204 2.86928 40.436C1.96428 24.952 6.43089 20.0951 8.77749 19.6021C11.7526 19.2436 17.7032 22.9086 17.7033 40.436C17.7033 40.436 17.5776 44.8486 23.2345 43.7964V43.6597C23.2345 14.8287 26.7694 3.07135 37.8761 2.60791H37.9269Z"/>
</mask>
<path d="M37.9269 2.60791C48.529 3.05039 52.2324 13.9073 52.547 39.9614H52.5695C58.2365 40.6578 58.1339 37.7516 58.133 37.728C58.133 26.0802 64.1178 23.6444 67.1105 23.8823C69.4708 24.2099 73.9643 27.4374 73.0539 37.728C72.1433 48.0185 59.0182 49.5789 52.5695 49.0728H52.5402C52.4247 60.1292 51.9387 75.2803 50.7199 84.4937C47.2199 83.9888 43.0216 83.6939 38.4289 83.6938C33.4754 83.6938 28.8833 84.0353 25.1095 84.6147C24.1738 77.6756 23.6641 67.2558 23.421 57.772V57.4741C17.0097 58.2357 3.77437 55.9204 2.86928 40.436C1.96428 24.952 6.43089 20.0951 8.77749 19.6021C11.7526 19.2436 17.7032 22.9086 17.7033 40.436C17.7033 40.436 17.5776 44.8486 23.2345 43.7964V43.6597C23.2345 14.8287 26.7694 3.07135 37.8761 2.60791H37.9269Z" fill="#A8C686"/>
<path d="M37.9269 2.60791L38.0103 0.60965L37.9686 0.60791H37.9269V2.60791ZM52.547 39.9614L50.5472 39.9856L50.571 41.9614H52.547V39.9614ZM52.5695 39.9614L52.8134 37.9764L52.6919 37.9614H52.5695V39.9614ZM58.133 37.728H56.133V37.7672L56.1345 37.8064L58.133 37.728ZM67.1105 23.8823L67.3854 21.9013L67.3274 21.8933L67.269 21.8886L67.1105 23.8823ZM73.0539 37.728L75.0461 37.9043L75.0461 37.9043L73.0539 37.728ZM52.5695 49.0728L52.726 47.0789L52.6479 47.0728H52.5695V49.0728ZM52.5402 49.0728V47.0728H50.561L50.5403 49.0519L52.5402 49.0728ZM50.7199 84.4937L50.4343 86.4732L52.4372 86.7621L52.7026 84.7559L50.7199 84.4937ZM38.4289 83.6938L38.4289 81.6938H38.4289V83.6938ZM25.1095 84.6147L23.1275 84.882L23.3997 86.9007L25.413 86.5916L25.1095 84.6147ZM23.421 57.772H21.421V57.7976L21.4217 57.8232L23.421 57.772ZM23.421 57.4741H25.421V55.2225L23.1851 55.4881L23.421 57.4741ZM2.86928 40.436L0.872689 40.5527L0.87269 40.5527L2.86928 40.436ZM8.77749 19.6021L8.53826 17.6164L8.45164 17.6268L8.36626 17.6448L8.77749 19.6021ZM17.7033 40.436L19.7025 40.493L19.7033 40.4645L19.7033 40.436L17.7033 40.436ZM23.2345 43.7964L23.6002 45.7627L25.2345 45.4587V43.7964H23.2345ZM23.2345 43.6597L25.2345 43.6597L25.2345 43.6597L23.2345 43.6597ZM37.8761 2.60791V0.60791H37.8344L37.7927 0.609649L37.8761 2.60791ZM37.9269 2.60791L37.8435 4.60617C40.1363 4.70186 41.9252 5.34668 43.3839 6.52369C44.8681 7.72136 46.1618 9.59289 47.2252 12.3909C49.3786 18.0566 50.39 26.9687 50.5472 39.9856L52.547 39.9614L54.5469 39.9373C54.3894 26.9 53.3917 17.3566 50.9643 10.9697C49.7373 7.74141 48.0975 5.18736 45.8957 3.41073C43.6683 1.61343 41.0185 0.7352 38.0103 0.60965L37.9269 2.60791ZM52.547 39.9614V41.9614H52.5695V39.9614V37.9614H52.547V39.9614ZM52.5695 39.9614L52.3255 41.9465C55.4338 42.3285 57.5443 41.7976 58.8474 40.5711C60.1397 39.3549 60.142 37.9184 60.1314 37.6497L58.133 37.728L56.1345 37.8064C56.1249 37.5612 56.1789 37.5896 56.106 37.6583C56.0439 37.7167 55.3722 38.2908 52.8134 37.9764L52.5695 39.9614ZM58.133 37.728H60.133C60.133 32.2332 61.5418 29.2577 62.9721 27.7013C64.4109 26.1357 66.0461 25.804 66.952 25.876L67.1105 23.8823L67.269 21.8886C65.1821 21.7227 62.3286 22.49 60.0268 24.9947C57.7165 27.5088 56.133 31.5751 56.133 37.728H58.133ZM67.1105 23.8823L66.8356 25.8633C67.7196 25.986 71.9207 27.8414 71.0616 37.5518L73.0539 37.728L75.0461 37.9043C76.0078 27.0335 71.222 22.4337 67.3854 21.9013L67.1105 23.8823ZM73.0539 37.728L71.0616 37.5517C70.6986 41.6544 67.9685 44.1241 64.1716 45.582C60.3307 47.0568 55.7559 47.3167 52.726 47.0789L52.5695 49.0728L52.413 51.0666C55.8317 51.335 61.0439 51.0677 65.6054 49.3162C70.2108 47.5478 74.4986 44.0921 75.0461 37.9043L73.0539 37.728ZM52.5695 49.0728V47.0728H52.5402V49.0728V51.0728H52.5695V49.0728ZM52.5402 49.0728L50.5403 49.0519C50.4248 60.1097 49.9383 75.1513 48.7371 84.2314L50.7199 84.4937L52.7026 84.7559C53.9391 75.4094 54.4246 60.1487 54.5401 49.0936L52.5402 49.0728ZM50.7199 84.4937L51.0054 82.5141C47.3973 81.9937 43.1023 81.6939 38.4289 81.6938L38.4289 83.6938L38.4288 85.6938C42.9409 85.6939 47.0425 85.9839 50.4343 86.4732L50.7199 84.4937ZM38.4289 83.6938V81.6938C33.3899 81.6938 28.695 82.0408 24.806 82.6379L25.1095 84.6147L25.413 86.5916C29.0716 86.0299 33.5609 85.6938 38.4289 85.6938V83.6938ZM25.1095 84.6147L27.0916 84.3475C26.1715 77.5246 25.6633 67.1988 25.4204 57.7207L23.421 57.772L21.4217 57.8232C21.6649 67.3127 22.176 77.8265 23.1275 84.882L25.1095 84.6147ZM23.421 57.772H25.421V57.4741H23.421H21.421V57.772H23.421ZM23.421 57.4741L23.1851 55.4881C20.2899 55.832 15.8354 55.4662 12.0744 53.3118C8.44292 51.2317 5.2794 47.394 4.86587 40.3193L2.86928 40.436L0.87269 40.5527C1.36425 48.9624 5.27095 54.0245 10.0862 56.7828C14.772 59.4668 20.1409 59.8778 23.6569 59.4602L23.421 57.4741ZM2.86928 40.436L4.86587 40.3193C4.42387 32.7569 5.30902 27.9928 6.45853 25.1463C7.64237 22.2148 8.95824 21.6077 9.18871 21.5593L8.77749 19.6021L8.36626 17.6448C6.25013 18.0894 4.1594 20.1573 2.74954 23.6485C1.30535 27.2247 0.409689 32.631 0.872689 40.5527L2.86928 40.436ZM8.77749 19.6021L9.01671 21.5877C9.50656 21.5287 11.0663 21.7475 12.6465 24.3499C14.2386 26.9717 15.7032 31.8529 15.7033 40.436L17.7033 40.436L19.7033 40.436C19.7032 31.4917 18.1926 25.7766 16.0655 22.2738C13.9267 18.7514 11.0235 17.317 8.53826 17.6164L8.77749 19.6021ZM17.7033 40.436C15.7041 40.3791 15.704 40.3804 15.704 40.3816C15.704 40.3821 15.704 40.3834 15.7039 40.3843C15.7039 40.3861 15.7038 40.388 15.7038 40.3899C15.7037 40.3938 15.7036 40.3981 15.7035 40.4026C15.7034 40.4115 15.7032 40.4217 15.7031 40.433C15.703 40.4556 15.703 40.4827 15.7034 40.5141C15.7043 40.5767 15.7069 40.6568 15.713 40.7517C15.7251 40.9403 15.7515 41.1936 15.8082 41.4878C15.9194 42.0644 16.1612 42.87 16.7056 43.6527C17.2689 44.4626 18.1226 45.196 19.3416 45.6093C20.5334 46.0134 21.9488 46.0698 23.6002 45.7627L23.2345 43.7964L22.8688 41.8301C21.6918 42.049 21.0015 41.9485 20.6259 41.8211C20.2774 41.703 20.1019 41.5305 19.9895 41.3689C19.8581 41.18 19.7778 40.9482 19.7358 40.7303C19.716 40.6273 19.7079 40.5441 19.7048 40.4955C19.7033 40.4717 19.7031 40.4581 19.703 40.4566C19.703 40.4559 19.7031 40.4584 19.703 40.4643C19.703 40.4673 19.7029 40.4711 19.7029 40.4759C19.7028 40.4783 19.7028 40.4809 19.7027 40.4837C19.7027 40.4852 19.7026 40.4866 19.7026 40.4882C19.7026 40.4889 19.7025 40.4902 19.7025 40.4905C19.7025 40.4917 19.7025 40.493 17.7033 40.436ZM23.2345 43.7964H25.2345V43.6597H23.2345H21.2345V43.7964H23.2345ZM23.2345 43.6597L25.2345 43.6597C25.2345 29.2436 26.1292 19.3998 28.2814 13.1469C29.3463 10.0531 30.6687 7.99416 32.202 6.68386C33.7027 5.40148 35.5563 4.70645 37.9595 4.60617L37.8761 2.60791L37.7927 0.609649C34.6426 0.741093 31.8893 1.68951 29.6034 3.64294C27.3502 5.56845 25.7064 8.33765 24.4992 11.845C22.1073 18.7944 21.2345 29.2448 21.2345 43.6597L23.2345 43.6597ZM37.8761 2.60791V4.60791H37.9269V2.60791V0.60791H37.8761V2.60791Z" fill="#355E3B" mask="url(#path-1-outside-1_648_3336)"/>
<path d="M41.0647 35.4305C41.4958 35.4305 41.9094 35.2592 42.2143 34.9543C42.5191 34.6494 42.6904 34.2359 42.6904 33.8047C42.6904 33.3735 42.5191 32.96 42.2143 32.6551C41.9094 32.3502 41.4958 32.179 41.0647 32.179C40.6335 32.179 40.22 32.3502 39.9151 32.6551C39.6102 32.96 39.4389 33.3735 39.4389 33.8047C39.4389 34.2359 39.6102 34.6494 39.9151 34.9543C40.22 35.2592 40.6335 35.4305 41.0647 35.4305ZM36.1874 33.8047C36.1874 34.2359 36.0161 34.6494 35.7112 34.9543C35.4063 35.2592 34.9928 35.4305 34.5616 35.4305C34.1305 35.4305 33.717 35.2592 33.4121 34.9543C33.1072 34.6494 32.9359 34.2359 32.9359 33.8047C32.9359 33.3735 33.1072 32.96 33.4121 32.6551C33.717 32.3502 34.1305 32.179 34.5616 32.179C34.9928 32.179 35.4063 32.3502 35.7112 32.6551C36.0161 32.96 36.1874 33.3735 36.1874 33.8047ZM32.7083 38.2463C33.0361 37.9732 33.4581 37.8399 33.8833 37.8752C34.3085 37.9105 34.7028 38.1115 34.9811 38.4349L34.9892 38.443C35.0044 38.4603 35.038 38.4929 35.09 38.5405C35.1941 38.6332 35.3648 38.7714 35.6021 38.9145C36.0687 39.1941 36.7987 39.4949 37.8132 39.4949C38.8276 39.4949 39.5576 39.1941 40.0242 38.9145C40.2465 38.7822 40.4523 38.624 40.6371 38.443L40.6452 38.4349C40.927 38.117 41.322 37.922 41.7457 37.8917C42.1694 37.8613 42.5882 37.998 42.9123 38.2725C43.2365 38.547 43.4404 38.9374 43.4804 39.3604C43.5203 39.7833 43.3932 40.205 43.1261 40.5353L43.1245 40.5386L43.1229 40.5402L43.118 40.5467L43.1066 40.5597L43.0774 40.5922C42.9636 40.7216 42.8414 40.8432 42.7116 40.9564C42.4758 41.1678 42.1393 41.4376 41.6987 41.7026C40.5232 42.399 39.1794 42.7599 37.8132 42.7464C36.4468 42.7594 35.103 42.3979 33.9276 41.701C33.4556 41.4189 33.0213 41.078 32.6351 40.6865L32.549 40.5939L32.5197 40.5597L32.5083 40.5467L32.5034 40.5402L32.5002 40.537C32.3631 40.3729 32.2597 40.1834 32.196 39.9793C32.1323 39.7752 32.1094 39.5606 32.1287 39.3476C32.1481 39.1347 32.2092 38.9277 32.3086 38.7384C32.4081 38.5492 32.5439 38.3814 32.7083 38.2447V38.2463Z" fill="#355E3B"/>
<path d="M22.6943 19.5364L24.564 20.1201" stroke="#6E8D4C" stroke-width="2" stroke-linecap="round"/>
<path d="M32.041 62.1499L33.4996 63.3913" stroke="#6E8D4C" stroke-width="2" stroke-linecap="round"/>
<path d="M26.4326 70.906L27.8912 72.1474" stroke="#6E8D4C" stroke-width="2" stroke-linecap="round"/>
<path d="M50.7383 25.374L52.8584 24.2066" stroke="#6E8D4C" stroke-width="2" stroke-linecap="round"/>
<path d="M45.752 51.6426L47.872 50.4751" stroke="#6E8D4C" stroke-width="2" stroke-linecap="round"/>
<path d="M43.8828 79.0784L45.1293 77.9109" stroke="#6E8D4C" stroke-width="2" stroke-linecap="round"/>
<path d="M40.7666 4.21069L41.2253 2.02404" stroke="#6E8D4C" stroke-width="2" stroke-linecap="round"/>
<path d="M3.99707 24.2065L5.86674 25.374" stroke="#6E8D4C" stroke-width="2" stroke-linecap="round"/>
<path d="M58.8398 30.6274L60.7095 31.7949" stroke="#6E8D4C" stroke-width="2" stroke-linecap="round"/>
<path d="M19.1562 32.3787L17.0842 34.1299" stroke="#6E8D4C" stroke-width="2" stroke-linecap="round"/>
<path d="M32.665 13.699L34.5347 16.034" stroke="#6E8D4C" stroke-width="2" stroke-linecap="round"/>
<path d="M74 35.2974L71.928 37.0486" stroke="#6E8D4C" stroke-width="2" stroke-linecap="round"/>
<path d="M4.62012 39.3838L6.48979 40.5513" stroke="#6E8D4C" stroke-width="2" stroke-linecap="round"/>
<path d="M55.7236 39.3838L57.5933 40.5513" stroke="#6E8D4C" stroke-width="2" stroke-linecap="round"/>
<path d="M17.708 46.3887L18.2652 48.4277" stroke="#6E8D4C" stroke-width="2" stroke-linecap="round"/>
</svg>
