<svg width="375" height="510" viewBox="0 0 375 510" fill="none" xmlns="http://www.w3.org/2000/svg">
<ellipse cx="208.82" cy="482.133" rx="100.633" ry="27.8675" fill="#355E3B" fill-opacity="0.25"/>
<path d="M124.041 400.828C116.159 400.279 118.573 417.995 124.061 442.41C129.589 467.004 148.399 487.835 173.524 489.867C181.648 490.524 190.65 490.74 201.742 490.629C218.089 490.076 230.219 489.496 241.764 488.389C260.793 486.565 277.959 475.169 282.167 456.522C285.209 443.042 287.557 424.987 290.24 399.235L124.041 400.828Z" fill="#8C7878" stroke="#3D2D15" stroke-width="8"/>
<path d="M206.19 359.605C233.422 359.605 258.178 361.593 276.215 364.844C285.201 366.464 292.717 368.431 298.081 370.717C300.747 371.854 303.11 373.162 304.869 374.712C306.609 376.246 308.216 378.44 308.216 381.276C308.216 384.112 306.609 386.305 304.869 387.838C303.11 389.388 300.747 390.697 298.081 391.833C292.717 394.12 285.201 396.087 276.215 397.707C258.178 400.958 233.422 402.946 206.19 402.946C178.959 402.946 154.203 400.958 136.166 397.707C127.18 396.087 119.664 394.12 114.3 391.833C111.634 390.697 109.272 389.388 107.513 387.838C105.827 386.353 104.266 384.248 104.17 381.54L104.165 381.276L104.17 381.011C104.266 378.303 105.827 376.198 107.513 374.712C109.272 373.163 111.634 371.853 114.3 370.717C119.664 368.431 127.18 366.464 136.166 364.844C154.203 361.593 178.959 359.605 206.19 359.605Z" fill="#D6C7C7" stroke="#3D2D15" stroke-width="8"/>
<path d="M207.037 372.341C239.855 372.341 268.175 375.234 285.669 379.79H306.311V394.021L306.307 394.276C306.219 396.894 304.799 398.982 303.169 400.505C301.487 402.077 299.226 403.401 296.677 404.547C291.553 406.849 284.362 408.822 275.713 410.442C258.347 413.697 234.267 415.682 207.037 415.682C179.806 415.682 155.051 413.694 137.014 410.442C128.028 408.823 120.511 406.855 115.147 404.569C112.481 403.433 110.119 402.124 108.359 400.574C106.656 399.074 105.082 396.941 105.016 394.191L104.175 382.43L103.85 377.873L108.409 378.152L128.318 379.369C146.656 375.063 175.18 372.341 207.037 372.341Z" fill="#D6C7C7" stroke="#3D2D15" stroke-width="8"/>
<path d="M207.248 363.66C232.041 363.66 254.564 365.011 270.958 367.217C279.126 368.316 285.936 369.648 290.785 371.191C293.182 371.953 295.339 372.84 296.977 373.917C298.417 374.864 300.594 376.718 300.594 379.682C300.594 382.646 298.417 384.5 296.977 385.448C295.339 386.525 293.182 387.411 290.785 388.173C285.936 389.716 279.126 391.048 270.958 392.147C254.564 394.353 232.041 395.703 207.248 395.703C182.455 395.703 159.932 394.353 143.538 392.147C135.37 391.048 128.561 389.716 123.712 388.173C121.315 387.411 119.159 386.525 117.521 385.448C116.125 384.53 114.038 382.761 113.909 379.956L113.903 379.682L113.909 379.407C114.038 376.603 116.125 374.835 117.521 373.917C119.159 372.84 121.315 371.953 123.712 371.191C128.561 369.648 135.37 368.316 143.538 367.217C159.932 365.011 182.455 363.66 207.248 363.66Z" fill="#885E39" stroke="#3D2D15" stroke-width="8"/>
<path d="M185.216 298.081C185.562 292.31 185.613 286.826 185.393 281.615C184.845 268.647 182.611 257.374 179.029 247.587L178.92 247.291C178.87 247.155 178.819 247.019 178.768 246.883C173.81 233.675 166.376 223.206 157.31 214.947C112.012 173.682 26.0037 187.625 4.91877 191.043C3.34349 191.299 1.65216 191.495 0.845703 191.606C36.1026 206.973 59.6072 266.248 83.1118 287.104C108.753 309.856 152.745 312.122 176.319 312.41C176.336 312.322 176.334 312.336 176.322 312.41C178.849 312.441 180.85 313.123 182.832 313.371C183.414 313.372 184.007 313.394 184.61 313.448C190.37 313.966 196.941 312.989 199.152 312.141C193.165 309.044 188.386 304.441 185.216 298.081Z" fill="#688549"/>
<path d="M157.212 214.622L157.31 214.947C166.376 223.206 173.81 233.675 178.768 246.883C178.819 247.019 178.87 247.155 178.92 247.291L179.029 247.587C192.538 236.664 200.002 225.124 204.21 214.657C208.82 203.19 209.521 193.01 209.98 186.339C210.071 185.026 210.152 183.849 210.252 182.824C210.252 171.847 210.252 168.554 209.183 161.968C208.854 159.941 208.241 156.94 207.744 154.507L207.743 154.504C207.434 152.987 207.169 151.692 207.047 150.992C204.554 136.722 199.568 109.28 164.311 90.6191C129.054 71.9585 104.618 23.3639 103.233 13.321C102.572 8.52573 102.281 6.41895 96.4117 5C85.8775 23.399 83.3929 51.669 86.6536 77.4469C90.0071 103.958 96.4117 123.549 111.958 138.408C143.306 168.371 150.824 193.374 157.212 214.622Z" fill="#688549"/>
<path d="M204.21 214.657C218.099 213.269 246.841 209.827 275.901 159.773C285.303 142.21 315.432 121.72 329.321 113.67C331.625 112.424 333.55 110.804 333.499 109.28C333.4 106.327 325.895 103.731 299.406 104.889C249.191 107.084 209.183 144.405 207.047 150.992C207.169 151.692 207.434 152.987 207.743 154.504L207.744 154.507C208.241 156.94 208.854 159.941 209.183 161.968C210.252 168.554 210.252 171.847 210.252 182.824C210.152 183.849 210.071 185.026 209.98 186.339C209.521 193.01 208.82 203.19 204.21 214.657Z" fill="#688549"/>
<path d="M185.393 281.615C185.613 286.826 185.562 292.31 185.216 298.081C188.386 304.441 193.165 309.044 199.152 312.141C199.724 311.921 200.166 312.141 200.636 312.141C201.187 312.141 216.387 315.27 216.662 316.741C264.285 338.991 366.167 268.445 369.92 228.927C278.502 212.085 230.714 226.244 205.978 249.783C197.18 258.155 187.983 274.512 185.393 281.615Z" fill="#688549"/>
<path d="M185.393 281.615C187.983 274.512 197.18 258.155 205.978 249.783L204.21 214.657C200.002 225.124 192.538 236.664 179.029 247.587C182.611 257.374 184.845 268.647 185.393 281.615Z" fill="#A8C686"/>
<path d="M171.638 379.309C180.185 374.04 220.936 374.918 228.414 376.016C227.016 366.534 217.669 322.122 216.662 316.741C216.211 316.531 199.589 312.368 199.152 312.141C196.941 312.989 190.37 313.966 184.61 313.448C184.01 313.48 183.422 313.445 182.832 313.371C180.351 313.364 178.081 313.719 176.148 313.448C176.148 313.448 176.148 313.448 176.148 313.448C176.007 314.394 175.855 315.629 175.694 317.1C174.091 331.744 171.638 369.813 171.638 379.309Z" fill="#A8C686"/>
<path d="M176.148 313.448C178.081 313.719 180.351 313.364 182.832 313.371M176.148 313.448C176.093 313.732 176.277 312.678 176.322 312.41M176.148 313.448C176.007 314.394 175.855 315.629 175.694 317.1M176.148 313.448C176.148 313.448 176.148 313.448 176.148 313.448ZM189.361 311.253C188.163 307.392 186.856 302.915 185.216 298.081M69.2241 217.574C137.099 222.223 176.131 271.305 185.216 298.081M185.216 298.081C185.562 292.31 185.613 286.826 185.393 281.615M185.216 298.081C188.386 304.441 193.165 309.044 199.152 312.141M185.216 298.081C202.108 280.518 251.278 246.27 312.817 249.783M184.61 313.448C190.37 313.966 196.941 312.989 199.152 312.141M184.61 313.448C184.007 313.394 183.414 313.372 182.832 313.371M184.61 313.448C184.01 313.48 183.422 313.445 182.832 313.371M185.393 281.615C187.983 274.512 197.18 258.155 205.978 249.783M185.393 281.615C184.845 268.647 182.611 257.374 179.029 247.587M205.978 249.783C230.714 226.244 278.502 212.085 369.92 228.927C366.167 268.445 264.286 338.991 216.662 316.741M205.978 249.783L204.21 214.657M204.21 214.657C218.099 213.269 246.841 209.827 275.901 159.773C285.303 142.21 315.432 121.72 329.321 113.67C331.625 112.424 333.55 110.804 333.499 109.28C333.4 106.327 325.895 103.731 299.406 104.889C249.191 107.084 209.183 144.405 207.047 150.992M204.21 214.657C208.82 203.19 209.521 193.01 209.981 186.339M204.21 214.657C200.002 225.124 192.538 236.664 179.029 247.587M207.047 150.992C204.554 136.722 199.568 109.28 164.311 90.6191C129.054 71.9585 104.618 23.3639 103.233 13.321C102.572 8.52573 102.281 6.41895 96.4117 5C85.8775 23.399 83.3929 51.669 86.6536 77.4469C90.0071 103.958 96.4117 123.55 111.958 138.408C143.306 168.371 150.824 193.374 157.212 214.622M207.047 150.992C207.169 151.692 207.434 152.987 207.743 154.504L207.744 154.507C208.241 156.94 208.854 159.941 209.183 161.968C210.252 168.554 210.252 171.847 210.252 182.824M179.029 247.587C178.993 247.489 178.957 247.39 178.92 247.291M179.029 247.587L178.92 247.291M179.029 247.587C207.338 224.697 209.102 199.099 209.981 186.339M210.252 182.824C222.796 170.75 272.43 122.232 286.105 125.745M210.252 182.824C210.152 183.849 210.071 185.026 209.981 186.339M157.31 214.947C112.012 173.682 26.0037 187.625 4.91877 191.043C3.34349 191.299 1.65216 191.495 0.845703 191.606C36.1026 206.973 59.6072 266.248 83.1118 287.104C108.753 309.856 152.745 312.122 176.319 312.41M157.31 214.947C166.376 223.206 173.81 233.675 178.768 246.883M157.31 214.947L157.212 214.622M157.31 214.947C157.278 214.839 157.245 214.731 157.212 214.622M216.662 316.741C217.669 322.122 227.016 366.533 228.414 376.016C220.936 374.918 180.185 374.04 171.638 379.309C171.638 369.813 174.091 331.744 175.694 317.1M216.662 316.741C216.387 315.27 201.187 312.141 200.636 312.141C200.166 312.141 199.724 311.921 199.152 312.141M216.662 316.741C216.211 316.531 199.589 312.368 199.152 312.141M176.319 312.41C176.336 312.322 176.334 312.336 176.322 312.41M176.319 312.41L176.322 312.41M176.319 312.41C176.135 313.394 175.923 315.008 175.694 317.1M178.768 246.883L180.337 226.731C181.644 191.972 169.934 151.996 158.969 138.408C135.464 109.28 125.849 109.28 119.438 93.9121M178.768 246.883C178.819 247.019 178.87 247.155 178.92 247.291M176.322 312.41C178.849 312.441 180.85 313.123 182.832 313.371" stroke="#355E3B" stroke-width="8" stroke-linecap="round"/>
<path d="M203.051 339.719C203.832 339.719 204.581 339.408 205.133 338.856C205.685 338.304 205.996 337.555 205.996 336.774C205.996 335.993 205.685 335.244 205.133 334.692C204.581 334.139 203.832 333.829 203.051 333.829C202.27 333.829 201.521 334.139 200.969 334.692C200.416 335.244 200.106 335.993 200.106 336.774C200.106 337.555 200.416 338.304 200.969 338.856C201.521 339.408 202.27 339.719 203.051 339.719ZM194.217 336.774C194.217 337.555 193.906 338.304 193.354 338.856C192.802 339.408 192.053 339.719 191.272 339.719C190.491 339.719 189.742 339.408 189.19 338.856C188.637 338.304 188.327 337.555 188.327 336.774C188.327 335.993 188.637 335.244 189.19 334.692C189.742 334.139 190.491 333.829 191.272 333.829C192.053 333.829 192.802 334.139 193.354 334.692C193.906 335.244 194.217 335.993 194.217 336.774ZM187.915 344.819C188.509 344.324 189.273 344.083 190.043 344.147C190.813 344.211 191.527 344.575 192.032 345.16L192.046 345.175C192.074 345.207 192.135 345.265 192.229 345.352C192.417 345.52 192.727 345.77 193.156 346.029C194.002 346.536 195.324 347.08 197.161 347.08C198.999 347.08 200.321 346.536 201.166 346.029C201.569 345.79 201.942 345.503 202.276 345.175L202.291 345.16C202.801 344.585 203.517 344.232 204.284 344.177C205.052 344.122 205.81 344.369 206.397 344.866C206.985 345.364 207.354 346.071 207.426 346.837C207.499 347.603 207.268 348.367 206.785 348.965L206.782 348.971L206.779 348.974L206.77 348.986L206.749 349.009L206.696 349.068C206.49 349.302 206.269 349.523 206.034 349.728C205.607 350.111 204.997 350.599 204.199 351.079C202.07 352.341 199.636 352.994 197.161 352.97C194.686 352.994 192.252 352.339 190.123 351.076C189.268 350.565 188.482 349.948 187.782 349.239L187.626 349.071L187.573 349.009L187.553 348.986L187.544 348.974L187.538 348.968C187.29 348.671 187.102 348.328 186.987 347.958C186.871 347.588 186.83 347.199 186.865 346.814C186.9 346.428 187.011 346.053 187.191 345.71C187.371 345.367 187.617 345.064 187.915 344.816V344.819Z" fill="#355E3B"/>
</svg>
