<svg width="65" height="69" viewBox="0 0 65 69" fill="none" xmlns="http://www.w3.org/2000/svg">
<path d="M14.8958 46.1884C14.8958 43.2201 17.321 40.8137 20.3125 40.8137H44.6875C47.679 40.8137 50.1042 43.2201 50.1042 46.1884V59.6251C50.1042 62.5935 47.679 64.9998 44.6875 64.9998H20.3125C17.321 64.9998 14.8958 62.5935 14.8958 59.6251V46.1884Z" fill="#9A5E05"/>
<path d="M14.8958 46.1884C14.8958 43.2201 17.321 40.8137 20.3125 40.8137H44.6875C47.679 40.8137 50.1042 43.2201 50.1042 46.1884V54.2504C50.1042 57.2188 47.679 59.6251 44.6875 59.6251H20.3125C17.321 59.6251 14.8958 57.2188 14.8958 54.2504V46.1884Z" fill="#F7F6EB"/>
<path d="M11.1759 36.5343L13.0598 40.0629L13.062 40.0617L11.1759 36.5343ZM27.4314 27.8428L29.3174 31.3702C29.3267 31.3653 29.3359 31.3603 29.3451 31.3553L27.4314 27.8428ZM32.5014 26.5817L32.4688 30.5815C32.4905 30.5817 32.5122 30.5817 32.5339 30.5815L32.5014 26.5817ZM37.5714 27.8428L35.6576 31.3553C35.6668 31.3603 35.6761 31.3653 35.6853 31.3702L37.5714 27.8428ZM53.8268 36.5343L51.9407 40.0617L51.9429 40.0629L53.8268 36.5343ZM50.8964 47.1715L50.8972 43.1715H50.8964V47.1715ZM14.1064 47.1715V43.1715H14.1055L14.1064 47.1715ZM23.0847 13.4686C23.0847 15.6778 24.8755 17.4686 27.0847 17.4686C29.2938 17.4686 31.0847 15.6778 31.0847 13.4686H23.0847ZM35.1067 17.7667L36.8884 21.348L36.8905 21.347L35.1067 17.7667ZM32.5013 20.9453H28.5013V20.9453L32.5013 20.9453ZM11.1759 36.5343L13.062 40.0617L29.3174 31.3702L27.4314 27.8428L25.5453 24.3154L9.28989 33.0068L11.1759 36.5343ZM27.4314 27.8428L29.3451 31.3553C30.283 30.8443 31.362 30.5725 32.4688 30.5815L32.5014 26.5817L32.5339 22.5818C30.0852 22.5619 27.6644 23.1607 25.5176 24.3303L27.4314 27.8428ZM32.5014 26.5817L32.5339 30.5815C33.6408 30.5725 34.7197 30.8443 35.6576 31.3553L37.5714 27.8428L39.4851 24.3303C37.3383 23.1607 34.9176 22.5619 32.4688 22.5818L32.5014 26.5817ZM37.5714 27.8428L35.6853 31.3702L51.9407 40.0617L53.8268 36.5343L55.7128 33.0068L39.4574 24.3154L37.5714 27.8428ZM53.8268 36.5343L51.9429 40.0629C52.3388 40.2742 52.6079 40.5811 52.7501 40.8996L56.4023 39.2682L60.0545 37.6368C59.1632 35.6415 57.6208 34.0255 55.7107 33.0057L53.8268 36.5343ZM56.4023 39.2682L52.7501 40.8996C52.8904 41.2137 52.9137 41.5487 52.8264 41.8655L56.6828 42.9279L60.5391 43.9903C61.1217 41.8754 60.9477 39.6364 60.0545 37.6368L56.4023 39.2682ZM56.6828 42.9279L52.8264 41.8655C52.7382 42.1857 52.5296 42.5098 52.1857 42.762L54.5512 45.9876L56.9167 49.2131C58.6668 47.9297 59.9574 46.1018 60.5391 43.9903L56.6828 42.9279ZM54.5512 45.9876L52.1857 42.762C51.8386 43.0165 51.3857 43.1716 50.8972 43.1715L50.8964 47.1715L50.8955 51.1715C53.0521 51.1719 55.1698 50.4943 56.9167 49.2131L54.5512 45.9876ZM50.8964 47.1715V43.1715H14.1064V47.1715V51.1715H50.8964V47.1715ZM14.1064 47.1715L14.1055 43.1715C13.6171 43.1716 13.1641 43.0165 12.817 42.762L10.4515 45.9876L8.08599 49.2131C9.83291 50.4943 11.9506 51.1719 14.1072 51.1715L14.1064 47.1715ZM10.4515 45.9876L12.817 42.762C12.4731 42.5098 12.2645 42.1857 12.1763 41.8655L8.31996 42.9279L4.46362 43.9903C5.04532 46.1018 6.3359 47.9297 8.08599 49.2131L10.4515 45.9876ZM8.31996 42.9279L12.1763 41.8655C12.089 41.5487 12.1123 41.2137 12.2526 40.8996L8.60041 39.2682L4.94822 37.6368C4.05502 39.6364 3.88101 41.8754 4.46362 43.9903L8.31996 42.9279ZM8.60041 39.2682L12.2526 40.8996C12.3949 40.5811 12.6639 40.2742 13.0598 40.0629L11.1759 36.5343L9.29205 33.0057C7.38195 34.0255 5.83951 35.6415 4.94822 37.6368L8.60041 39.2682ZM27.0847 13.4686H31.0847C31.0847 13.3559 31.1267 13.1741 31.3553 12.9671C31.5904 12.7543 31.9843 12.5657 32.5013 12.5657V8.56567V4.56567C27.6831 4.56567 23.0847 8.18691 23.0847 13.4686H27.0847ZM32.5013 8.56567V12.5657C33.0183 12.5657 33.4123 12.7543 33.6473 12.9671C33.876 13.1741 33.918 13.3559 33.918 13.4686H37.918H41.918C41.918 8.18691 37.3196 4.56567 32.5013 4.56567V8.56567ZM37.918 13.4686H33.918C33.918 13.5571 33.895 13.6566 33.8142 13.7775C33.7272 13.9077 33.5686 14.0641 33.323 14.1865L35.1067 17.7667L36.8905 21.347C39.7214 19.9366 41.918 17.0509 41.918 13.4686H37.918ZM35.1067 17.7667L33.3251 14.1855C32.3729 14.6591 31.2667 15.3677 30.3477 16.3786C29.4124 17.4074 28.5013 18.9539 28.5013 20.9453H32.5013H36.5013C36.5013 21.2066 36.4393 21.4278 36.3706 21.5807C36.3073 21.7214 36.2514 21.7774 36.2671 21.7601C36.2827 21.743 36.3403 21.6854 36.4579 21.6018C36.5733 21.5198 36.7191 21.4323 36.8884 21.348L35.1067 17.7667ZM32.5013 20.9453L28.5013 20.9453L28.5014 26.5817L32.5014 26.5817L36.5014 26.5816L36.5013 20.9453L32.5013 20.9453ZM14.8958 46.1884H18.8958C18.8958 45.4585 19.5007 44.8137 20.3125 44.8137V40.8137V36.8137C15.1412 36.8137 10.8958 40.9816 10.8958 46.1884H14.8958ZM20.3125 40.8137V44.8137H44.6875V40.8137V36.8137H20.3125V40.8137ZM44.6875 40.8137V44.8137C45.4993 44.8137 46.1042 45.4585 46.1042 46.1884H50.1042H54.1042C54.1042 40.9816 49.8588 36.8137 44.6875 36.8137V40.8137ZM50.1042 46.1884H46.1042V59.6251H50.1042H54.1042V46.1884H50.1042ZM50.1042 59.6251H46.1042C46.1042 60.355 45.4993 60.9998 44.6875 60.9998V64.9998V68.9998C49.8588 68.9998 54.1042 64.8319 54.1042 59.6251H50.1042ZM44.6875 64.9998V60.9998H20.3125V64.9998V68.9998H44.6875V64.9998ZM20.3125 64.9998V60.9998C19.5007 60.9998 18.8958 60.355 18.8958 59.6251H14.8958H10.8958C10.8958 64.8319 15.1412 68.9998 20.3125 68.9998V64.9998ZM14.8958 59.6251H18.8958V46.1884H14.8958H10.8958V59.6251H14.8958ZM50.1042 46.1884H46.1042V54.2504H50.1042H54.1042V46.1884H50.1042ZM50.1042 54.2504H46.1042C46.1042 54.9804 45.4993 55.6251 44.6875 55.6251V59.6251V63.6251C49.8588 63.6251 54.1042 59.4572 54.1042 54.2504H50.1042ZM44.6875 59.6251V55.6251H20.3125V59.6251V63.6251H44.6875V59.6251ZM20.3125 59.6251V55.6251C19.5007 55.6251 18.8958 54.9804 18.8958 54.2504H14.8958H10.8958C10.8958 59.4572 15.1412 63.6251 20.3125 63.6251V59.6251ZM14.8958 54.2504H18.8958V46.1884H14.8958H10.8958V54.2504H14.8958Z" fill="#F7F6EB"/>
<g clip-path="url(#clip0_227_2135)">
<path d="M10.7243 36.0306L26.9797 27.3391C28.5221 26.4988 30.2719 26.0635 32.0497 26.078C33.8275 26.0635 35.5773 26.4988 37.1197 27.3391L53.3751 36.0306C54.5281 36.6462 55.4339 37.6076 55.9506 38.7645C56.4674 39.9214 56.566 41.2084 56.2311 42.4242C55.8962 43.64 55.1465 44.7161 54.0995 45.4839C53.0525 46.2517 51.7672 46.6681 50.4447 46.6678H13.6547C12.3322 46.6681 11.0469 46.2517 9.99986 45.4839C8.95286 44.7161 8.20324 43.64 7.8683 42.4242C7.53336 41.2084 7.63199 39.9214 8.14875 38.7645C8.66552 37.6076 9.57127 36.6462 10.7243 36.0306Z" stroke="#9EB3A9" stroke-width="3" stroke-linecap="round" stroke-linejoin="round"/>
<path d="M26.6328 12.965C26.6328 10.2574 29.0568 8.06201 32.0495 8.06201C35.0422 8.06201 37.4661 10.2574 37.4661 12.965C37.4661 14.818 36.3286 16.4292 34.6549 17.2631C33.3305 17.922 32.0495 19.0184 32.0495 20.4416V26.0781" stroke="#9EB3A9" stroke-width="3" stroke-linecap="round" stroke-linejoin="round"/>
<rect x="15.0581" y="40.238" width="34" height="23.7714" rx="4" fill="#9A5E05"/>
<rect x="15.0581" y="40.238" width="34" height="18.819" rx="4" fill="#EE8F00"/>
</g>
<defs>
<clipPath id="clip0_227_2135">
<rect width="65" height="64.4961" fill="white"/>
</clipPath>
</defs>
</svg>
