<svg width="440" height="595" viewBox="0 0 440 595" fill="none" xmlns="http://www.w3.org/2000/svg">
<path d="M139.177 367.311V135.081M297.309 367.311V135.081" stroke="#7A6545" stroke-width="5"/>
<path d="M-19.3642 99.6006V55.6736L-32.0801 -1.70679V538.729L-19.3642 530.489V523.218V405.308V373.923V310.648V302.962V173.065V168.817V142.761V122.393V99.6006Z" fill="#9F8155"/>
<path d="M88.1947 425.304V102.057L81.9705 131.087V355.991V432.575L88.1947 425.304Z" fill="#9F8155"/>
<path d="M-19.3642 405.308V523.218L81.9705 432.575V355.991H80.5115L-19.3642 405.308Z" fill="#9F8155"/>
<path d="M-19.3642 405.308L80.5115 355.991H48.9097L-19.3642 373.923V405.308Z" fill="#B58844"/>
<path d="M-19.3642 55.6736V99.6006L39.6305 136.897L48.9097 142.761L81.9705 131.087L-19.3642 55.6736Z" fill="#B58844"/>
<path d="M48.9097 182.841L67.5476 177.571L47.5697 164.168L-19.3642 122.393V142.761L48.9097 182.841Z" fill="#B58844"/>
<path d="M39.6305 136.897L-19.3642 99.6006V122.393L47.5697 164.168L48.9097 142.761L39.6305 136.897Z" fill="#8B6F42"/>
<path d="M88.1947 102.057L81.9705 90.7161L-32.0801 -1.70679L-19.3642 55.6736L81.9705 131.087L88.1947 102.057Z" fill="#9F8155"/>
<path d="M48.9097 182.841L-19.3642 142.761V168.817V173.065V302.962V310.648V373.923L48.9097 355.991V295.83V182.841Z" fill="#8B6F42"/>
<path d="M67.5476 177.571L48.9097 182.841V295.83V355.991H80.5115H81.9705V131.087L48.9097 142.761L47.5697 164.168L67.5476 177.571Z" fill="#9F8155"/>
<path d="M88.1947 102.057V425.304L81.9705 432.575M88.1947 102.057L81.9705 131.087M88.1947 102.057L81.9705 90.7161L-32.0801 -1.70679M-19.3642 523.218V405.308M-19.3642 523.218L81.9705 432.575M-19.3642 523.218V530.489L-32.0801 538.729V-1.70679M-19.3642 55.6736V99.6006M-19.3642 55.6736L-32.0801 -1.70679M-19.3642 55.6736L81.9705 131.087M-19.3642 99.6006L39.6305 136.897L48.9097 142.761M-19.3642 99.6006V122.393M-19.3642 122.393V142.761M-19.3642 122.393L47.5697 164.168M48.9097 182.841L67.5476 177.571L47.5697 164.168M48.9097 182.841L-19.3642 142.761M48.9097 182.841V295.83V355.991M-19.3642 142.761V168.817V173.065V302.962V310.648V373.923M-19.3642 405.308L80.5115 355.991M-19.3642 405.308V373.923M80.5115 355.991H48.9097M80.5115 355.991H81.9705M48.9097 355.991L-19.3642 373.923M47.5697 164.168L48.9097 142.761M48.9097 142.761L81.9705 131.087M81.9705 432.575V355.991M81.9705 131.087V355.991" stroke="#7A6545" stroke-width="5"/>
<path d="M460.048 99.6006V55.6736L472.764 -1.70679V538.729L460.048 530.489V523.218V405.308V373.923V310.648V302.962V173.065V168.817V142.761V122.393V99.6006Z" fill="#9F8155"/>
<path d="M352.489 425.304V102.057L358.713 131.087V355.991V432.575L352.489 425.304Z" fill="#9F8155"/>
<path d="M460.048 405.308V523.218L358.713 432.575V355.991H360.172L460.048 405.308Z" fill="#9F8155"/>
<path d="M460.048 405.308L360.172 355.991H391.774L460.048 373.923V405.308Z" fill="#B58844"/>
<path d="M460.048 55.6736V99.6006L401.053 136.897L391.774 142.761L358.713 131.087L460.048 55.6736Z" fill="#B58844"/>
<path d="M391.774 182.841L373.136 177.571L393.114 164.168L460.048 122.393V142.761L391.774 182.841Z" fill="#B58844"/>
<path d="M401.053 136.897L460.048 99.6006V122.393L393.114 164.168L391.774 142.761L401.053 136.897Z" fill="#8B6F42"/>
<path d="M352.489 102.057L358.713 90.7161L472.764 -1.70679L460.048 55.6736L358.713 131.087L352.489 102.057Z" fill="#9F8155"/>
<path d="M391.774 182.841L460.048 142.761V168.817V173.065V302.962V310.648V373.923L391.774 355.991V295.83V182.841Z" fill="#9F8155"/>
<path d="M373.136 177.571L391.774 182.841V295.83V355.991H360.172H358.713V131.087L391.774 142.761L393.114 164.168L373.136 177.571Z" fill="#9F8155"/>
<path d="M352.489 102.057V425.304L358.713 432.575M352.489 102.057L358.713 131.087M352.489 102.057L358.713 90.7161L472.764 -1.70679M460.048 523.218V405.308M460.048 523.218L358.713 432.575M460.048 523.218V530.489L472.764 538.729V-1.70679M460.048 55.6736V99.6006M460.048 55.6736L472.764 -1.70679M460.048 55.6736L358.713 131.087M460.048 99.6006L401.053 136.897L391.774 142.761M460.048 99.6006V122.393M460.048 122.393V142.761M460.048 122.393L393.114 164.168M391.774 182.841L373.136 177.571L393.114 164.168M391.774 182.841L460.048 142.761M391.774 182.841V295.83V355.991M460.048 142.761V168.817V173.065V302.962V310.648V373.923M460.048 405.308L360.172 355.991M460.048 405.308V373.923M360.172 355.991H391.774M360.172 355.991H358.713M391.774 355.991L460.048 373.923M393.114 164.168L391.774 142.761M391.774 142.761L358.713 131.087M358.713 432.575V355.991M358.713 131.087V355.991" stroke="#7A6545" stroke-width="5"/>
<path d="M-127 592L138.895 367.31H297.828L566.382 592H-127Z" fill="url(#paint0_linear_298_5193)" stroke="#7A6545" stroke-width="6"/>
<path fill-rule="evenodd" clip-rule="evenodd" d="M175.266 359.311C175.266 363.729 178.847 367.311 183.266 367.311H247.681C252.099 367.311 255.681 363.729 255.681 359.311V200.048C255.681 195.63 252.099 192.048 247.681 192.048H183.266C178.847 192.048 175.266 195.63 175.266 200.048V359.311ZM188.313 200.731C183.895 200.731 180.313 204.312 180.313 208.731V353.155C180.313 357.573 183.895 361.155 188.313 361.155H242.861C247.28 361.155 250.861 357.573 250.861 353.154V208.731C250.861 204.312 247.28 200.731 242.861 200.731H188.313Z" fill="#9F8155"/>
<path d="M188.313 361.155C183.895 361.155 180.313 357.573 180.313 353.155V208.731C180.313 204.312 183.895 200.731 188.313 200.731H242.861C247.28 200.731 250.861 204.312 250.861 208.731V353.154C250.861 357.573 247.28 361.155 242.861 361.155H188.313Z" fill="#AAE8FF"/>
<mask id="mask0_298_5193" style="mask-type:alpha" maskUnits="userSpaceOnUse" x="180" y="200" width="71" height="162">
<path fill-rule="evenodd" clip-rule="evenodd" d="M188.312 200.73C183.893 200.73 180.312 204.312 180.312 208.73V353.154C180.312 357.572 183.893 361.154 188.312 361.154H242.86C247.278 361.154 250.86 357.572 250.86 353.154V208.73C250.86 204.312 247.278 200.73 242.86 200.73H188.312Z" fill="#9F8155"/>
<path d="M188.312 361.154C183.893 361.154 180.312 357.572 180.312 353.154V208.73C180.312 204.312 183.893 200.73 188.312 200.73H242.86C247.278 200.73 250.86 204.312 250.86 208.73V353.154C250.86 357.572 247.278 361.154 242.86 361.154H188.312Z" fill="#AAE8FF"/>
</mask>
<g mask="url(#mask0_298_5193)">
<line x1="173.335" y1="307.489" x2="256.112" y2="205.339" stroke="#D3F3FF" stroke-width="19"/>
<line x1="168.985" y1="361.678" x2="260.568" y2="247.2" stroke="#D3F3FF" stroke-width="12"/>
</g>
<path d="M39.4805 308.572C44.2526 308.97 53.797 315.302 53.797 311.866C53.797 308.43 52.4105 256.471 51.7172 230.505L45.5989 219.131L39.4805 207.758V308.572Z" fill="#CBB3B3"/>
<path d="M57.4942 224.386L39.4805 204.461V207.758L45.5989 219.131L51.7172 230.505C52.4105 256.471 53.797 308.43 53.797 311.866C53.797 315.302 44.2526 308.97 39.4805 308.572V314.537L66.3586 316.455L66.1019 313.789L57.4942 224.386Z" fill="#FF9B9B"/>
<path d="M75.2874 303.037L71.8212 226.206L55.3365 211.254L39.4805 204.461L57.4942 224.386L66.1019 313.789L75.2874 314.968V303.037Z" fill="#FFC6D9"/>
<path d="M39.4805 204.461L57.4942 224.386L66.1019 313.789M39.4805 204.461V207.758M39.4805 204.461L55.3365 211.254L71.8212 226.206L75.2874 303.037V314.968L66.1019 313.789M39.4805 308.572V314.537L66.3586 316.455L66.1019 313.789M39.4805 308.572C44.2526 308.97 53.797 315.302 53.797 311.866C53.797 308.43 52.4105 256.471 51.7172 230.505L45.5989 219.131L39.4805 207.758M39.4805 308.572V207.758" stroke="#725170" stroke-width="5"/>
<path d="M50.0017 304.872C56.19 254.185 41.3494 217.426 33.1555 205.383L20.0904 198.639L2.38444 189.5L17.5119 205.383L20.0904 304.872C21.9948 304.872 30.2545 305.422 41.5918 305.184C44.241 305.129 47.0582 305.03 50.0017 304.872Z" fill="#E2B46F"/>
<path d="M20.0904 198.639L2.38444 189.5L17.5119 205.383L20.0904 304.872C21.9948 304.872 30.2545 305.422 41.5918 305.184M20.0904 198.639L33.1555 205.383C41.3494 217.426 56.19 254.185 50.0017 304.872C47.0582 305.03 44.241 305.129 41.5918 305.184M20.0904 198.639L23.5285 231.041M41.5918 305.184L38.9998 272.058" stroke="#4C5772" stroke-width="5"/>
<path d="M36.8844 203.894L26.6624 198.847L14.598 192.048L22.6116 306.717L41.5156 308.181L36.8844 203.894Z" fill="#D7CAB0" stroke="#4C5772" stroke-width="5"/>
<path d="M27.3598 197.609L23.5717 194.579V270.144C24.8344 271.28 29.7839 272.076 39.4805 266.167C37.8139 264.046 36.5133 235.865 36.0714 222.04L27.3598 197.609Z" fill="#D9D9D9" stroke="#4C5772" stroke-width="5"/>
<path d="M22.2985 193.663L12.0765 189.394L0.0120354 183.642L8.02568 280.641L26.9297 281.88L22.2985 193.663Z" fill="#D7CAB0" stroke="#4C5772" stroke-width="5"/>
<path d="M-16.748 309.366C-11.9759 309.878 -2.43155 318.036 -2.43155 313.609C-2.43155 309.182 -3.81803 242.234 -4.51127 208.778L-10.6297 194.123L-16.748 179.469V309.366Z" fill="#C2C2C2"/>
<path d="M1.26573 200.895L-16.748 175.221V179.469L-10.6297 194.123L-4.51127 208.778C-3.81803 242.234 -2.43155 309.182 -2.43155 313.609C-2.43155 318.036 -11.9759 309.878 -16.748 309.366V317.052L10.1301 319.523L9.87337 316.088L1.26573 200.895Z" fill="#C7EDFA"/>
<path d="M19.0589 302.234L15.5927 203.239L-0.891973 183.974L-16.748 175.221L1.26573 200.895L9.87337 316.088L19.0589 317.606V302.234Z" fill="#B0C1F0"/>
<path d="M-16.748 175.221L1.26573 200.895L9.87338 316.088M-16.748 175.221V179.469M-16.748 175.221L-0.891972 183.974L15.5927 203.239L19.0589 302.234V317.606L9.87338 316.088M-16.748 309.366V317.052L10.1301 319.523L9.87338 316.088M-16.748 309.366C-11.9759 309.878 -2.43155 318.036 -2.43155 313.609C-2.43155 309.182 -3.81803 242.234 -4.51127 208.778L-10.6297 194.123L-16.748 179.469M-16.748 309.366V179.469" stroke="#4D6E7C" stroke-width="5"/>
<path d="M402.415 308.572C397.643 308.97 388.099 315.302 388.099 311.866C388.099 308.43 389.485 256.471 390.178 230.505L396.297 219.131L402.415 207.758V308.572Z" fill="#C2C2C2"/>
<path d="M384.401 224.386L402.415 204.461V207.758L396.297 219.131L390.178 230.505C389.485 256.471 388.099 308.43 388.099 311.866C388.099 315.302 397.643 308.97 402.415 308.572V314.537L375.537 316.455L375.794 313.789L384.401 224.386Z" fill="#C7EDFA"/>
<path d="M366.608 303.037L370.074 226.206L386.559 211.254L402.415 204.461L384.401 224.386L375.794 313.789L366.608 314.968V303.037Z" fill="#FFC6D9"/>
<path d="M402.415 204.461L384.401 224.386L375.794 313.789M402.415 204.461V207.758M402.415 204.461L386.559 211.254L370.074 226.206L366.608 303.037V314.968L375.794 313.789M402.415 308.572V314.537L375.537 316.455L375.794 313.789M402.415 308.572C397.643 308.97 388.099 315.302 388.099 311.866C388.099 308.43 389.485 256.471 390.178 230.505L396.297 219.131L402.415 207.758M402.415 308.572V207.758" stroke="#78576D" stroke-width="5"/>
<path d="M391.895 304.872C385.706 254.185 400.547 217.426 408.741 205.383L421.806 198.639L439.512 189.5L424.385 205.383L421.806 304.872C419.902 304.872 411.642 305.422 400.305 305.184C397.656 305.129 394.838 305.03 391.895 304.872Z" fill="#E2B46F"/>
<path d="M421.806 198.639L439.512 189.5L424.385 205.383L421.806 304.872C419.902 304.872 411.642 305.422 400.305 305.184M421.806 198.639L408.741 205.383C400.547 217.426 385.706 254.185 391.895 304.872C394.838 305.03 397.656 305.129 400.305 305.184M421.806 198.639L418.368 231.041M400.305 305.184L402.897 272.058" stroke="#4C5772" stroke-width="5"/>
<path d="M405.012 203.894L415.234 198.847L427.299 192.048L419.285 306.717L400.381 308.181L405.012 203.894Z" fill="#D7CAB0" stroke="#4C5772" stroke-width="5"/>
<path d="M414.536 197.609L418.324 194.579V270.144C417.061 271.28 412.112 272.076 402.415 266.167C404.082 264.046 405.382 235.865 405.824 222.04L414.536 197.609Z" fill="#D9D9D9" stroke="#4C5772" stroke-width="5"/>
<path d="M419.598 193.663L429.82 189.394L441.884 183.642L433.871 280.641L414.967 281.88L419.598 193.663Z" fill="#D7CAB0" stroke="#4C5772" stroke-width="5"/>
<path d="M458.645 309.366C453.872 309.878 444.328 318.036 444.328 313.609C444.328 309.182 445.715 242.234 446.408 208.778L452.526 194.123L458.645 179.469V309.366Z" fill="#C2C2C2"/>
<path d="M440.631 200.895L458.645 175.221V179.469L452.526 194.123L446.408 208.778C445.715 242.234 444.328 309.182 444.328 313.609C444.328 318.036 453.872 309.878 458.645 309.366V317.052L431.766 319.523L432.023 316.088L440.631 200.895Z" fill="#C7EDFA"/>
<path d="M422.838 302.234L426.304 203.239L442.788 183.974L458.645 175.221L440.631 200.895L432.023 316.088L422.838 317.606V302.234Z" fill="#FFC6D9"/>
<path d="M458.645 175.221L440.631 200.895L432.023 316.088M458.645 175.221V179.469M458.645 175.221L442.788 183.974L426.304 203.239L422.838 302.234V317.606L432.023 316.088M458.645 309.366V317.052L431.766 319.523L432.023 316.088M458.645 309.366C453.872 309.878 444.328 318.036 444.328 313.609C444.328 309.182 445.715 242.234 446.408 208.778L452.526 194.123L458.645 179.469M458.645 309.366V179.469" stroke="#4D6E7C" stroke-width="5"/>
<path d="M-67.2275 -28.8556L140.885 144.687H296.823L535.021 -51.8332L568.404 -28.8556L561.54 -92L-129 -76.5L-67.2275 -28.8556Z" fill="url(#paint1_linear_298_5193)" stroke="#7A6545" stroke-width="6"/>
<defs>
<linearGradient id="paint0_linear_298_5193" x1="-127" y1="479.655" x2="566.382" y2="479.655" gradientUnits="userSpaceOnUse">
<stop stop-color="#D9A772"/>
<stop offset="1" stop-color="#A47544"/>
</linearGradient>
<linearGradient id="paint1_linear_298_5193" x1="250.588" y1="-92" x2="250.588" y2="144.687" gradientUnits="userSpaceOnUse">
<stop stop-color="#D9A772"/>
<stop offset="0.980769" stop-color="#A47544"/>
</linearGradient>
</defs>
</svg>
