<svg width="440" height="956" viewBox="0 0 440 956" fill="none" xmlns="http://www.w3.org/2000/svg">
<rect x="-281" y="-1" width="1001" height="773" fill="#AAE8FF"/>
<path d="M17.3454 285.333C18.7313 272.465 -1.19206 265.143 -11.3269 263.09L-56.9998 386.208L-11.9262 392.538L25.4036 384.885L59.4755 369.277C63.8669 369.854 73.6466 368.761 81.6456 360.928L114.679 372.332C124.51 372.169 163.562 393.286 171.986 377.943C170.078 356.854 148.441 340.414 137.859 343.028C150.564 310.008 105.732 303.707 103.111 322.216C95.9566 308.776 73.7509 314.29 66.6824 318.429C62.71 311.726 38.78 317.068 34.7086 318.003C36.8544 308.907 28.8846 281.46 17.3454 285.333Z" fill="#F6FDFF"/>
<path d="M85.1669 356.841C84.0519 358.373 82.8696 359.73 81.6456 360.928M81.6456 360.928C73.6466 368.761 63.8669 369.854 59.4755 369.277L25.4036 384.885L-11.9262 392.538L-56.9998 386.208L-11.3269 263.09C-1.19206 265.143 18.7313 272.465 17.3454 285.333C28.8846 281.46 36.8544 308.907 34.7086 318.003C38.78 317.068 62.71 311.726 66.6824 318.429C73.7509 314.29 95.9566 308.776 103.111 322.216C105.732 303.707 150.564 310.008 137.859 343.028C148.441 340.414 170.078 356.854 171.986 377.943C163.562 393.286 124.51 372.169 114.679 372.332L81.6456 360.928Z" stroke="#A1D9F1" stroke-width="6"/>
<path d="M450.036 318C477.65 318.001 500.036 340.386 500.036 368C500.036 395.614 477.65 418 450.036 418C450.035 418 450.033 418 450.031 418C443.074 437.245 424.645 451 403 451C394.446 451 386.395 448.85 379.354 445.064C371.405 462.152 354.088 474 334 474C318.235 474 304.176 466.702 295.012 455.301C287.654 459.56 279.113 462 270 462C242.386 462 220 439.615 220 412C220 384.386 242.386 362 270 362C285.765 362 299.823 369.298 308.987 380.698C316.345 376.439 324.887 374 334 374H334.001C340.958 354.755 359.391 341 381.036 341C389.59 341.001 397.64 343.149 404.681 346.935C412.63 329.848 429.948 318 450.036 318Z" fill="#F6FDFF"/>
<path d="M450.036 318L450.036 315H450.036V318ZM500.036 368L503.036 368.001V368H500.036ZM450.036 418V421H450.036L450.036 418ZM450.031 418L450.032 415L447.926 414.999L447.21 416.98L450.031 418ZM379.354 445.064L380.775 442.422L377.975 440.916L376.634 443.799L379.354 445.064ZM295.012 455.301L297.35 453.422L295.737 451.415L293.509 452.705L295.012 455.301ZM220 412H217V412.001L220 412ZM308.987 380.698L306.649 382.577L308.262 384.584L310.49 383.294L308.987 380.698ZM334.001 374V377H336.106L336.822 375.02L334.001 374ZM381.036 341L381.036 338H381.036V341ZM404.681 346.935L403.26 349.577L406.06 351.083L407.401 348.201L404.681 346.935ZM450.036 318L450.036 321C475.993 321.001 497.036 342.043 497.036 368H500.036H503.036C503.036 338.729 479.307 315.001 450.036 315L450.036 318ZM500.036 368L497.036 368C497.036 393.958 475.993 415 450.036 415L450.036 418L450.036 421C479.307 421 503.036 397.271 503.036 368.001L500.036 368ZM450.036 418V415C450.114 415 450.186 415.004 450.252 415.008C450.317 415.013 450.378 415.02 450.431 415.027C450.485 415.034 450.534 415.042 450.576 415.05C450.619 415.057 450.657 415.065 450.69 415.073C450.723 415.08 450.752 415.087 450.775 415.093C450.799 415.099 450.819 415.105 450.834 415.109C450.849 415.113 450.862 415.116 450.869 415.119C450.872 415.12 450.875 415.12 450.877 415.121C450.879 415.121 450.88 415.122 450.88 415.122C450.88 415.122 450.88 415.122 450.88 415.122C450.88 415.122 450.88 415.122 450.88 415.122C450.88 415.122 450.879 415.122 450.879 415.122C450.879 415.121 450.878 415.121 450.877 415.121C450.875 415.12 450.872 415.119 450.868 415.118C450.861 415.116 450.848 415.113 450.833 415.108C450.818 415.104 450.797 415.099 450.774 415.093C450.75 415.087 450.721 415.08 450.688 415.072C450.655 415.065 450.617 415.057 450.574 415.049C450.531 415.041 450.482 415.033 450.428 415.026C450.374 415.019 450.314 415.012 450.248 415.007C450.182 415.003 450.11 415 450.032 415L450.031 418L450.031 421C449.953 421 449.881 420.996 449.815 420.992C449.75 420.987 449.69 420.98 449.636 420.973C449.582 420.966 449.533 420.958 449.491 420.95C449.448 420.942 449.41 420.935 449.377 420.927C449.344 420.92 449.316 420.913 449.292 420.907C449.268 420.901 449.248 420.895 449.233 420.891C449.218 420.887 449.206 420.884 449.199 420.881C449.195 420.88 449.192 420.879 449.19 420.879C449.189 420.879 449.187 420.878 449.187 420.878C449.187 420.878 449.188 420.878 449.188 420.878C449.188 420.878 449.188 420.878 449.188 420.878C449.188 420.878 449.188 420.878 449.188 420.878C449.189 420.879 449.19 420.879 449.191 420.879C449.192 420.88 449.195 420.881 449.199 420.882C449.207 420.884 449.219 420.887 449.234 420.892C449.25 420.896 449.27 420.901 449.294 420.907C449.318 420.913 449.347 420.921 449.38 420.928C449.413 420.935 449.451 420.943 449.494 420.951C449.537 420.959 449.586 420.967 449.64 420.974C449.694 420.981 449.754 420.988 449.82 420.993C449.886 420.997 449.958 421 450.036 421V418ZM450.031 418L447.21 416.98C440.668 435.075 423.341 448 403 448V451V454C425.949 454 445.479 439.415 452.853 419.019L450.031 418ZM403 451V448C394.955 448 387.391 445.979 380.775 442.422L379.354 445.064L377.934 447.706C385.4 451.721 393.937 454 403 454V451ZM379.354 445.064L376.634 443.799C369.159 459.868 352.878 471 334 471V474V477C355.299 477 373.652 464.435 382.075 446.329L379.354 445.064ZM334 474V471C319.182 471 305.97 464.145 297.35 453.422L295.012 455.301L292.674 457.181C302.382 469.259 317.287 477 334 477V474ZM295.012 455.301L293.509 452.705C286.595 456.707 278.57 459 270 459V462V465C279.655 465 288.714 462.413 296.515 457.898L295.012 455.301ZM270 462V459C244.043 459 223 437.958 223 412L220 412L217 412.001C217 441.271 240.729 465 270 465V462ZM220 412H223C223 386.043 244.043 365 270 365V362V359C240.729 359 217 382.729 217 412H220ZM270 362V365C284.817 365 298.03 371.855 306.649 382.577L308.987 380.698L311.325 378.818C301.616 366.741 286.712 359 270 359V362ZM308.987 380.698L310.49 383.294C317.403 379.292 325.429 377 334 377V374V371C324.345 371 315.286 373.585 307.484 378.101L308.987 380.698ZM334 374V377H334.001V374V371H334V374ZM334.001 374L336.822 375.02C343.364 356.925 360.694 344 381.036 344V341V338C358.087 338 338.553 352.585 331.18 372.981L334.001 374ZM381.036 341L381.036 344C389.081 344.001 396.645 346.021 403.26 349.577L404.681 346.935L406.101 344.293C398.636 340.278 390.098 338.001 381.036 338L381.036 341ZM404.681 346.935L407.401 348.201C414.877 332.131 431.158 321 450.036 321V318V315C428.738 315 410.384 327.564 401.961 345.67L404.681 346.935Z" fill="#A1D9F1"/>
<path d="M19.3389 116C44.1787 116 65.392 131.523 73.8105 153.396C89.1061 156.135 100.873 172.821 100.873 193C100.873 215.091 86.77 233 69.373 233C61.9138 233 55.0621 229.706 49.666 224.203C40.8284 229.591 30.4462 232.695 19.3389 232.695C4.15636 232.695 -9.67107 226.895 -20.0508 217.392C-24.2641 219.078 -28.7952 220 -33.5166 220C-55.8841 220 -74.0166 199.405 -74.0166 174C-74.0166 148.595 -55.8841 128 -33.5166 128C-28.597 128 -23.8825 128.997 -19.5205 130.821C-9.20249 121.603 4.41405 116 19.3389 116Z" fill="#F6FDFF"/>
<path d="M19.3389 116V113H19.3389L19.3389 116ZM73.8105 153.396L71.0107 154.474L71.6179 156.052L73.2818 156.35L73.8105 153.396ZM49.666 224.203L51.808 222.103L50.1394 220.401L48.1045 221.642L49.666 224.203ZM19.3389 232.695L19.3389 235.695H19.3389V232.695ZM-20.0508 217.392L-18.0249 215.179L-19.4155 213.906L-21.1658 214.607L-20.0508 217.392ZM-33.5166 220V223H-33.5166L-33.5166 220ZM-33.5166 128L-33.5166 125H-33.5166V128ZM-19.5205 130.821L-20.6782 133.589L-18.9327 134.319L-17.5218 133.058L-19.5205 130.821ZM19.3389 116V119C42.8967 119 63.0231 133.72 71.0107 154.474L73.8105 153.396L76.6104 152.319C67.7609 129.326 45.4607 113 19.3389 113V116ZM73.8105 153.396L73.2818 156.35C86.6971 158.752 97.873 173.763 97.873 193H100.873H103.873C103.873 171.88 91.5151 153.519 74.3393 150.443L73.8105 153.396ZM100.873 193H97.873C97.873 214.142 84.4849 230 69.373 230V233V236C89.0551 236 103.873 216.041 103.873 193H100.873ZM69.373 233V230C62.8436 230 56.733 227.125 51.808 222.103L49.666 224.203L47.524 226.304C53.3912 232.287 60.984 236 69.373 236V233ZM49.666 224.203L48.1045 221.642C39.7237 226.75 29.8797 229.695 19.3389 229.695V232.695V235.695C31.0128 235.695 41.9331 232.431 51.2275 226.765L49.666 224.203ZM19.3389 232.695L19.3389 229.695C4.93549 229.695 -8.17644 224.196 -18.0249 215.179L-20.0508 217.392L-22.0767 219.604C-11.1657 229.594 3.37724 235.695 19.3389 235.695L19.3389 232.695ZM-20.0508 217.392L-21.1658 214.607C-25.037 216.156 -29.1904 217 -33.5166 217L-33.5166 220L-33.5166 223C-28.4 223 -23.4912 222 -18.9357 220.177L-20.0508 217.392ZM-33.5166 220V217C-53.8797 217 -71.0166 198.119 -71.0166 174H-74.0166H-77.0166C-77.0166 200.692 -57.8885 223 -33.5166 223V220ZM-74.0166 174H-71.0166C-71.0166 149.881 -53.8797 131 -33.5166 131V128V125C-57.8885 125 -77.0166 147.308 -77.0166 174H-74.0166ZM-33.5166 128L-33.5166 131C-29.0074 131 -24.6856 131.913 -20.6782 133.589L-19.5205 130.821L-18.3628 128.054C-23.0793 126.081 -28.1866 125 -33.5166 125L-33.5166 128ZM-19.5205 130.821L-17.5218 133.058C-7.73239 124.313 5.17938 119 19.3389 119L19.3389 116L19.3389 113C3.64872 113 -10.6726 118.894 -21.5192 128.584L-19.5205 130.821Z" fill="#A1D9F1"/>
<path d="M425.893 90.2532C446.734 88.3192 465.936 96.5871 477.577 110.603C480.606 109.232 483.847 108.325 487.265 108.008C509.16 105.976 530.058 128.931 531.64 145.978C533.222 163.024 516.755 178.491 494.861 180.523C487.347 181.22 480.17 180.244 473.92 177.972C464.361 187.688 450.959 194.332 435.682 195.749C421.013 197.11 407.157 193.417 396.177 186.224C390.391 189.022 383.79 190.903 376.695 191.561C351.404 193.908 329.419 179.847 327.592 160.155C325.765 140.464 344.786 122.598 370.078 120.251C372.991 119.98 375.861 119.929 378.661 120.078C387.47 103.999 404.915 92.1998 425.893 90.2532Z" fill="#F6FDFF"/>
<path d="M425.893 90.2532L425.615 87.266L425.615 87.266L425.893 90.2532ZM477.577 110.603L475.269 112.52L476.73 114.279L478.814 113.336L477.577 110.603ZM487.265 108.008L486.988 105.021L486.988 105.021L487.265 108.008ZM531.64 145.978L534.627 145.7L534.627 145.7L531.64 145.978ZM494.861 180.523L495.138 183.51L495.138 183.51L494.861 180.523ZM473.92 177.972L474.945 175.153L473.133 174.494L471.781 175.868L473.92 177.972ZM435.682 195.749L435.959 198.736L435.959 198.736L435.682 195.749ZM396.177 186.224L397.821 183.714L396.4 182.784L394.871 183.523L396.177 186.224ZM376.695 191.561L376.972 194.549L376.972 194.549L376.695 191.561ZM327.592 160.155L324.605 160.433L324.605 160.433L327.592 160.155ZM370.078 120.251L369.801 117.263L369.801 117.263L370.078 120.251ZM378.661 120.078L378.502 123.074L380.386 123.174L381.292 121.519L378.661 120.078ZM425.893 90.2532L426.17 93.2404C446.066 91.3941 464.286 99.2959 475.269 112.52L477.577 110.603L479.885 108.686C467.586 93.8783 447.402 85.2444 425.615 87.266L425.893 90.2532ZM477.577 110.603L478.814 113.336C481.561 112.093 484.479 111.28 487.543 110.995L487.265 108.008L486.988 105.021C483.215 105.371 479.651 106.371 476.34 107.87L477.577 110.603ZM487.265 108.008L487.542 110.995C497.358 110.084 507.25 114.777 515.023 122.032C522.823 129.312 527.95 138.675 528.653 146.255L531.64 145.978L534.627 145.7C533.749 136.234 527.635 125.596 519.117 117.645C510.571 109.669 499.067 103.9 486.988 105.021L487.265 108.008ZM531.64 145.978L528.653 146.255C530.021 160.999 515.567 175.588 494.584 177.536L494.861 180.523L495.138 183.51C517.944 181.394 536.423 165.05 534.627 145.7L531.64 145.978ZM494.861 180.523L494.584 177.536C487.497 178.193 480.766 177.268 474.945 175.153L473.92 177.972L472.895 180.792C479.574 183.219 487.197 184.247 495.138 183.51L494.861 180.523ZM473.92 177.972L471.781 175.868C462.723 185.075 449.982 191.409 435.405 192.762L435.682 195.749L435.959 198.736C451.936 197.254 465.999 190.301 476.058 180.076L473.92 177.972ZM435.682 195.749L435.405 192.762C421.408 194.061 408.23 190.534 397.821 183.714L396.177 186.224L394.533 188.733C406.084 196.301 420.618 200.16 435.959 198.736L435.682 195.749ZM396.177 186.224L394.871 183.523C389.413 186.163 383.161 187.948 376.418 188.574L376.695 191.561L376.972 194.549C384.418 193.858 391.368 191.882 397.483 188.925L396.177 186.224ZM376.695 191.561L376.418 188.574C352.037 190.836 332.193 177.268 330.579 159.878L327.592 160.155L324.605 160.433C326.646 182.427 350.77 196.98 376.972 194.549L376.695 191.561ZM327.592 160.155L330.579 159.878C328.965 142.489 345.974 125.5 370.355 123.238L370.078 120.251L369.801 117.263C343.598 119.695 322.564 138.438 324.605 160.433L327.592 160.155ZM370.078 120.251L370.355 123.238C373.123 122.981 375.847 122.933 378.502 123.074L378.661 120.078L378.82 117.082C375.876 116.926 372.86 116.979 369.801 117.263L370.078 120.251ZM378.661 120.078L381.292 121.519C389.602 106.352 406.143 95.0988 426.17 93.2404L425.893 90.2532L425.615 87.266C403.687 89.3009 385.338 101.647 376.03 118.636L378.661 120.078Z" fill="#A1D9F1"/>
<path d="M309.729 173.374C316.317 173.027 322.159 176.839 324.711 182.515C325.053 182.463 325.401 182.426 325.754 182.408C331.597 182.1 336.584 186.588 336.892 192.432C337.2 198.275 332.712 203.262 326.868 203.57C324.217 203.709 321.744 202.86 319.803 201.347C317.432 203.11 314.534 204.219 311.362 204.386C307.219 204.605 303.37 203.177 300.449 200.677C299.004 201.39 297.394 201.829 295.682 201.919C288.932 202.275 283.172 197.09 282.816 190.34C282.461 183.59 287.645 177.829 294.395 177.474C296.106 177.384 297.754 177.651 299.266 178.208C301.908 175.414 305.586 173.592 309.729 173.374Z" fill="#F6FDFF"/>
<path d="M309.729 173.374L309.571 170.378L309.571 170.378L309.729 173.374ZM324.711 182.515L321.975 183.745L322.909 185.822L325.16 185.481L324.711 182.515ZM325.754 182.408L325.596 179.412L325.596 179.412L325.754 182.408ZM336.892 192.432L339.888 192.274L339.888 192.274L336.892 192.432ZM326.868 203.57L327.026 206.566L327.026 206.566L326.868 203.57ZM319.803 201.347L321.647 198.98L319.845 197.576L318.012 198.94L319.803 201.347ZM311.362 204.386L311.52 207.382L311.52 207.382L311.362 204.386ZM300.449 200.677L302.4 198.398L300.897 197.111L299.122 197.986L300.449 200.677ZM295.682 201.919L295.84 204.915L295.84 204.915L295.682 201.919ZM282.816 190.34L279.821 190.497L279.821 190.497L282.816 190.34ZM294.395 177.474L294.237 174.478L294.237 174.478L294.395 177.474ZM299.266 178.208L298.229 181.023L300.085 181.707L301.445 180.269L299.266 178.208ZM309.729 173.374L309.887 176.37C315.196 176.09 319.914 179.16 321.975 183.745L324.711 182.515L327.447 181.284C324.405 174.518 317.437 169.964 309.571 170.378L309.729 173.374ZM324.711 182.515L325.16 185.481C325.41 185.443 325.66 185.417 325.911 185.404L325.754 182.408L325.596 179.412C325.141 179.436 324.696 179.483 324.262 179.548L324.711 182.515ZM325.754 182.408L325.911 185.404C330.1 185.183 333.675 188.401 333.896 192.59L336.892 192.432L339.888 192.274C339.493 184.776 333.094 179.017 325.596 179.412L325.754 182.408ZM336.892 192.432L333.896 192.589C334.117 196.778 330.899 200.354 326.71 200.574L326.868 203.57L327.026 206.566C334.524 206.171 340.283 199.772 339.888 192.274L336.892 192.432ZM326.868 203.57L326.71 200.574C324.81 200.674 323.042 200.068 321.647 198.98L319.803 201.347L317.959 203.713C320.446 205.651 323.624 206.745 327.026 206.566L326.868 203.57ZM319.803 201.347L318.012 198.94C316.1 200.362 313.767 201.256 311.204 201.391L311.362 204.386L311.52 207.382C315.301 207.183 318.764 205.859 321.594 203.753L319.803 201.347ZM311.362 204.386L311.204 201.391C307.861 201.567 304.759 200.418 302.4 198.398L300.449 200.677L298.498 202.956C301.98 205.937 306.578 207.642 311.52 207.382L311.362 204.386ZM300.449 200.677L299.122 197.986C298.032 198.524 296.819 198.855 295.525 198.923L295.682 201.919L295.84 204.915C297.968 204.803 299.975 204.256 301.776 203.367L300.449 200.677ZM295.682 201.919L295.525 198.923C290.429 199.192 286.081 195.278 285.812 190.182L282.816 190.34L279.821 190.497C280.263 198.902 287.435 205.358 295.84 204.915L295.682 201.919ZM282.816 190.34L285.812 190.182C285.544 185.086 289.458 180.738 294.553 180.47L294.395 177.474L294.237 174.478C285.833 174.921 279.378 182.093 279.821 190.497L282.816 190.34ZM294.395 177.474L294.553 180.47C295.849 180.401 297.09 180.603 298.229 181.023L299.266 178.208L300.303 175.393C298.418 174.698 296.364 174.366 294.237 174.478L294.395 177.474ZM299.266 178.208L301.445 180.269C303.579 178.013 306.543 176.546 309.887 176.37L309.729 173.374L309.571 170.378C304.63 170.638 300.236 172.816 297.086 176.146L299.266 178.208Z" fill="#A1D9F1"/>
<path d="M422.706 280.153C429.051 278.347 435.596 280.761 439.349 285.725C439.671 285.598 440.001 285.485 440.341 285.389C445.969 283.786 451.831 287.05 453.433 292.678C455.036 298.306 451.772 304.168 446.144 305.77C443.591 306.497 440.991 306.22 438.761 305.177C436.843 307.425 434.265 309.152 431.21 310.022C427.22 311.158 423.149 310.625 419.745 308.838C418.495 309.855 417.023 310.642 415.375 311.112C408.874 312.962 402.103 309.192 400.252 302.691C398.401 296.19 402.171 289.419 408.672 287.568C410.32 287.099 411.985 286.992 413.583 287.198C415.537 283.886 418.716 281.289 422.706 280.153Z" fill="#F6FDFF"/>
<path d="M422.706 280.153L421.885 277.268L421.885 277.268L422.706 280.153ZM439.349 285.725L436.955 287.534L438.329 289.351L440.448 288.516L439.349 285.725ZM440.341 285.389L439.52 282.503L439.52 282.503L440.341 285.389ZM453.433 292.678L456.319 291.856L456.319 291.856L453.433 292.678ZM446.144 305.77L446.966 308.655L446.966 308.655L446.144 305.77ZM438.761 305.177L440.032 302.46L437.962 301.492L436.479 303.23L438.761 305.177ZM431.21 310.022L432.032 312.907L432.032 312.907L431.21 310.022ZM419.745 308.838L421.139 306.182L419.386 305.262L417.851 306.511L419.745 308.838ZM415.375 311.112L416.196 313.997L416.197 313.997L415.375 311.112ZM400.252 302.691L397.366 303.512L397.367 303.512L400.252 302.691ZM408.672 287.568L407.85 284.682L407.85 284.682L408.672 287.568ZM413.583 287.198L413.2 290.173L415.162 290.426L416.168 288.722L413.583 287.198ZM422.706 280.153L423.528 283.039C428.641 281.583 433.924 283.525 436.955 287.534L439.349 285.725L441.742 283.916C437.268 277.998 429.46 275.111 421.885 277.268L422.706 280.153ZM439.349 285.725L440.448 288.516C440.683 288.424 440.921 288.343 441.163 288.274L440.341 285.389L439.52 282.503C439.082 282.628 438.658 282.773 438.249 282.934L439.349 285.725ZM440.341 285.389L441.163 288.274C445.197 287.125 449.399 289.465 450.548 293.499L453.433 292.678L456.319 291.856C454.263 284.635 446.741 280.447 439.52 282.503L440.341 285.389ZM453.433 292.678L450.548 293.499C451.697 297.534 449.357 301.736 445.323 302.885L446.144 305.77L446.966 308.655C454.187 306.599 458.375 299.078 456.319 291.856L453.433 292.678ZM446.144 305.77L445.323 302.885C443.493 303.406 441.634 303.209 440.032 302.46L438.761 305.177L437.491 307.895C440.348 309.231 443.689 309.588 446.966 308.655L446.144 305.77ZM438.761 305.177L436.479 303.23C434.932 305.043 432.856 306.434 430.389 307.137L431.21 310.022L432.032 312.907C435.674 311.87 438.754 309.807 441.043 307.125L438.761 305.177ZM431.21 310.022L430.389 307.137C427.168 308.053 423.889 307.625 421.139 306.182L419.745 308.838L418.351 311.494C422.41 313.625 427.272 314.262 432.032 312.907L431.21 310.022ZM419.745 308.838L417.851 306.511C416.909 307.278 415.8 307.871 414.554 308.226L415.375 311.112L416.197 313.997C418.246 313.413 420.08 312.432 421.638 311.165L419.745 308.838ZM415.375 311.112L414.554 308.226C409.646 309.623 404.535 306.777 403.137 301.869L400.252 302.691L397.367 303.512C399.671 311.607 408.102 316.301 416.196 313.997L415.375 311.112ZM400.252 302.691L403.137 301.869C401.74 296.962 404.586 291.85 409.493 290.453L408.672 287.568L407.85 284.682C399.756 286.987 395.062 295.418 397.366 303.512L400.252 302.691ZM408.672 287.568L409.493 290.453C410.741 290.098 411.996 290.018 413.2 290.173L413.583 287.198L413.967 284.223C411.974 283.966 409.899 284.099 407.85 284.682L408.672 287.568ZM413.583 287.198L416.168 288.722C417.745 286.047 420.307 283.956 423.528 283.039L422.706 280.153L421.885 277.268C417.125 278.623 413.328 281.725 410.999 285.674L413.583 287.198Z" fill="#A1D9F1"/>
<path d="M94.4261 229.233C101.417 228.416 107.898 232.079 111 237.948C111.36 237.87 111.728 237.809 112.102 237.766C118.303 237.042 123.918 241.482 124.642 247.683C125.366 253.884 120.925 259.498 114.724 260.222C111.911 260.551 109.22 259.813 107.05 258.334C104.646 260.373 101.635 261.751 98.2689 262.144C93.8727 262.657 89.6783 261.398 86.3986 258.934C84.9079 259.792 83.2228 260.368 81.4064 260.58C74.2429 261.416 67.7579 256.287 66.9214 249.124C66.085 241.961 71.2139 235.476 78.3774 234.639C80.1937 234.427 81.9663 234.599 83.6144 235.089C86.2381 231.936 90.0301 229.746 94.4261 229.233Z" fill="#F6FDFF"/>
<path d="M94.4261 229.233L94.0781 226.253L94.0781 226.253L94.4261 229.233ZM111 237.948L108.348 239.35L109.412 241.363L111.637 240.88L111 237.948ZM112.102 237.766L111.754 234.786L111.754 234.786L112.102 237.766ZM124.642 247.683L127.622 247.335L127.622 247.335L124.642 247.683ZM114.724 260.222L115.072 263.202L115.072 263.202L114.724 260.222ZM107.05 258.334L108.74 255.855L106.853 254.568L105.11 256.046L107.05 258.334ZM98.2689 262.144L98.6168 265.124L98.6168 265.124L98.2689 262.144ZM86.3986 258.934L88.2006 256.536L86.6184 255.347L84.9028 256.334L86.3986 258.934ZM81.4064 260.58L81.7543 263.56L81.7543 263.56L81.4064 260.58ZM66.9214 249.124L63.9416 249.472L63.9417 249.472L66.9214 249.124ZM78.3774 234.639L78.0295 231.659L78.0295 231.659L78.3774 234.639ZM83.6144 235.089L82.758 237.965L84.6547 238.53L85.9205 237.008L83.6144 235.089ZM94.4261 229.233L94.774 232.212C100.494 231.544 105.804 234.538 108.348 239.35L111 237.948L113.652 236.547C109.991 229.619 102.34 225.288 94.0781 226.253L94.4261 229.233ZM111 237.948L111.637 240.88C111.898 240.823 112.17 240.778 112.45 240.745L112.102 237.766L111.754 234.786C111.287 234.84 110.822 234.917 110.363 235.017L111 237.948ZM112.102 237.766L112.45 240.745C117.006 240.213 121.13 243.475 121.662 248.031L124.642 247.683L127.622 247.335C126.705 239.488 119.601 233.87 111.754 234.786L112.102 237.766ZM124.642 247.683L121.662 248.031C122.194 252.586 118.932 256.711 114.376 257.243L114.724 260.222L115.072 263.202C122.919 262.286 128.538 255.182 127.622 247.335L124.642 247.683ZM114.724 260.222L114.377 257.243C112.31 257.484 110.338 256.945 108.74 255.855L107.05 258.334L105.36 260.813C108.102 262.682 111.512 263.618 115.072 263.202L114.724 260.222ZM107.05 258.334L105.11 256.046C103.142 257.715 100.68 258.842 97.9209 259.164L98.2689 262.144L98.6168 265.124C102.589 264.66 106.15 263.031 108.991 260.622L107.05 258.334ZM98.2689 262.144L97.921 259.164C94.32 259.584 90.8898 258.556 88.2006 256.536L86.3986 258.934L84.5965 261.333C88.4667 264.241 93.4253 265.73 98.6168 265.124L98.2689 262.144ZM86.3986 258.934L84.9028 256.334C83.7574 256.993 82.4618 257.436 81.0584 257.6L81.4064 260.58L81.7543 263.56C83.9837 263.299 86.0583 262.591 87.8944 261.535L86.3986 258.934ZM81.4064 260.58L81.0584 257.6C75.5407 258.245 70.5455 254.294 69.9012 248.776L66.9214 249.124L63.9417 249.472C64.9703 258.281 72.9451 264.588 81.7543 263.56L81.4064 260.58ZM66.9214 249.124L69.9012 248.776C69.2569 243.258 73.2075 238.263 78.7254 237.619L78.3774 234.639L78.0295 231.659C69.2203 232.688 62.9131 240.663 63.9416 249.472L66.9214 249.124ZM78.3774 234.639L78.7253 237.619C80.1297 237.455 81.4928 237.588 82.758 237.965L83.6144 235.089L84.4707 232.214C82.4399 231.609 80.2577 231.399 78.0295 231.659L78.3774 234.639ZM83.6144 235.089L85.9205 237.008C88.0716 234.423 91.1729 232.633 94.774 232.212L94.4261 229.233L94.0781 226.253C88.8873 226.859 84.4047 229.449 81.3083 233.171L83.6144 235.089Z" fill="#A1D9F1"/>
<path d="M112.642 101.449C116.833 101.335 120.488 104.101 122.026 108.098C122.245 108.068 122.467 108.05 122.692 108.044C126.41 107.943 129.513 111.162 129.623 115.232C129.733 119.302 126.808 122.683 123.09 122.783C121.403 122.829 119.845 122.19 118.633 121.1C117.101 122.28 115.244 122.996 113.226 123.051C110.59 123.122 108.167 122.053 106.348 120.257C105.418 120.726 104.388 121 103.298 121.029C99.0038 121.145 95.4189 117.428 95.2919 112.726C95.1649 108.024 98.5437 104.118 102.838 104.002C103.928 103.973 104.972 104.191 105.925 104.609C107.645 102.718 110.007 101.52 112.642 101.449Z" fill="#F6FDFF"/>
<path d="M112.642 101.449L112.561 98.4496L112.561 98.4496L112.642 101.449ZM122.026 108.098L119.226 109.176L120.078 111.388L122.428 111.071L122.026 108.098ZM122.692 108.044L122.611 105.045L122.611 105.045L122.692 108.044ZM129.623 115.232L132.622 115.151L132.622 115.151L129.623 115.232ZM123.09 122.783L123.171 125.782L123.171 125.782L123.09 122.783ZM118.633 121.1L120.64 118.87L118.782 117.197L116.802 118.723L118.633 121.1ZM113.226 123.051L113.307 126.05L113.307 126.05L113.226 123.051ZM106.348 120.257L108.455 118.122L106.922 116.608L104.997 117.578L106.348 120.257ZM103.298 121.029L103.379 124.028L103.379 124.028L103.298 121.029ZM95.2919 112.726L92.293 112.807L92.293 112.807L95.2919 112.726ZM102.838 104.002L102.757 101.003L102.757 101.003L102.838 104.002ZM105.925 104.609L104.721 107.357L106.695 108.221L108.145 106.627L105.925 104.609ZM112.642 101.449L112.723 104.447C115.466 104.373 118.077 106.19 119.226 109.176L122.026 108.098L124.826 107.02C122.898 102.012 118.199 98.2975 112.561 98.4496L112.642 101.449ZM122.026 108.098L122.428 111.071C122.544 111.055 122.659 111.046 122.773 111.043L122.692 108.044L122.611 105.045C122.275 105.054 121.946 105.082 121.625 105.125L122.026 108.098ZM122.692 108.044L122.773 111.043C124.585 110.994 126.552 112.638 126.624 115.313L129.623 115.232L132.622 115.151C132.474 109.686 128.235 104.893 122.611 105.045L122.692 108.044ZM129.623 115.232L126.624 115.313C126.696 117.988 124.821 119.736 123.009 119.785L123.09 122.783L123.171 125.782C128.795 125.63 132.77 120.617 132.622 115.151L129.623 115.232ZM123.09 122.783L123.009 119.785C122.157 119.808 121.331 119.491 120.64 118.87L118.633 121.1L116.626 123.329C118.359 124.889 120.65 125.85 123.171 125.782L123.09 122.783ZM118.633 121.1L116.802 118.723C115.738 119.543 114.486 120.016 113.145 120.052L113.226 123.051L113.307 126.05C116.001 125.977 118.464 125.018 120.464 123.476L118.633 121.1ZM113.226 123.051L113.145 120.052C111.402 120.099 109.749 119.399 108.455 118.122L106.348 120.257L104.241 122.393C106.585 124.707 109.779 126.145 113.307 126.05L113.226 123.051ZM106.348 120.257L104.997 117.578C104.448 117.856 103.849 118.013 103.217 118.03L103.298 121.029L103.379 124.028C104.927 123.986 106.389 123.596 107.699 122.936L106.348 120.257ZM103.298 121.029L103.217 118.03C100.829 118.095 98.3801 115.952 98.2908 112.645L95.2919 112.726L92.293 112.807C92.4577 118.904 97.1788 124.196 103.379 124.028L103.298 121.029ZM95.2919 112.726L98.2908 112.645C98.2015 109.338 100.531 107.066 102.919 107.001L102.838 104.002L102.757 101.003C96.5566 101.171 92.1284 106.71 92.293 112.807L95.2919 112.726ZM102.838 104.002L102.919 107.001C103.551 106.984 104.157 107.109 104.721 107.357L105.925 104.609L107.129 101.861C105.786 101.273 104.305 100.962 102.757 101.003L102.838 104.002ZM105.925 104.609L108.145 106.627C109.367 105.282 110.979 104.495 112.723 104.447L112.642 101.449L112.561 98.4496C109.034 98.5449 105.922 100.153 103.706 102.59L105.925 104.609Z" fill="#A1D9F1"/>
<path d="M309.536 394.998C206.5 387.93 50.1477 341.731 -7 307V536.5L719.869 590.465L635 374.5C543.121 392.903 401.526 401.307 309.536 394.998Z" fill="#9FD980" stroke="#84C466" stroke-width="6"/>
<path d="M-30.2982 388.729C-17.6829 388.902 7.85866 393.188 9.10291 408.948C22.0638 401.69 45.9118 419.317 45.3934 430.723C50.0637 428.679 59.0072 432.388 65.2836 439.536C72.8241 432.969 90.8083 423.464 102.421 437.981C101.384 415.169 151.673 401.69 143.896 444.202C155.993 438.672 181.949 433.833 189 458.718C182.364 479.041 157.203 488.96 145.451 491.38L103.27 485.159C95.4478 496.37 83.9688 499.894 78.5733 500.193L41.2459 526.634L-1.78424 544.26L-57.2568 546.853L-30.2982 388.729Z" fill="#72C056"/>
<path d="M339.221 471.161C319.728 462.866 315.892 482.221 316.41 492.935L494.233 546.853C498.553 484.122 505.224 357.001 497.343 350.365C487.493 342.07 472.977 351.402 465.201 353.994C450.684 345.18 433.576 356.586 429.429 367.473C408.691 360.215 395.731 390.803 401.952 411.022C375.512 401.69 363.069 427.612 366.698 437.981C338.184 436.425 336.111 458.718 339.221 471.161Z" fill="#72C056"/>
<path d="M65.2836 439.536C59.0072 432.388 50.0637 428.679 45.3934 430.723C45.9118 419.317 22.0638 401.69 9.10291 408.948C7.85866 393.188 -17.6829 388.902 -30.2982 388.729L-57.2568 546.853L-1.78424 544.26L41.2459 526.634L78.5733 500.193C83.9688 499.894 95.4478 496.37 103.27 485.159M65.2836 439.536C70.1547 445.083 73.4194 452.702 71.8336 461.31C84.276 453.015 102.421 460.274 106.569 479.456C105.578 481.547 104.467 483.443 103.27 485.159M65.2836 439.536C72.8241 432.969 90.8083 423.464 102.421 437.981C101.384 415.169 151.673 401.69 143.896 444.202C155.993 438.672 181.949 433.833 189 458.718C182.364 479.041 157.203 488.96 145.451 491.38L103.27 485.159M316.41 492.935C315.892 482.221 319.728 462.866 339.221 471.161C336.111 458.718 338.184 436.425 366.698 437.981C363.069 427.612 375.512 401.69 401.952 411.022C395.731 390.803 408.691 360.215 429.429 367.473C433.576 356.586 450.684 345.18 465.201 353.994C472.977 351.402 487.493 342.07 497.343 350.365C505.223 357.001 498.553 484.122 494.233 546.853L316.41 492.935Z" stroke="#52A22D" stroke-width="6"/>
<path d="M526.689 1033.58C536.267 948.055 542.885 731.097 492.73 547.434C471.412 533.277 448.5 522 425 511.857C424 508.5 424 501 425 497.5L417 502.54C417.5 500.5 418 497.5 417.5 494.5C415.5 495.5 411.5 498 409.038 500C409 497.5 407 494.5 404 492.5C405.5 496 404 500.5 402 503.242C398 501 392.5 499 386.5 498.229C387 497.5 387 492.5 385.5 489.5C383.5 493 375 494.5 370.5 493.661C359.135 490.625 347.623 487.98 336 485.7C333.5 485 331.5 478 332.5 473C327.5 475 326.5 480.5 326 483.832C324.5 480.5 323.5 473.5 318 470C319 474 318.333 479.098 316 482.148C303.422 480.141 289.5 479 278 477.299C276.5 477 274 475 273 471.5C269 477 263.5 475.657 258 475.657C237.196 474.255 216.299 473.78 195.5 474.091C195.667 471.394 194 466 187 462C187 464 186.5 470.561 184 474.342C181 472.902 178.5 467 179 463C176 466.5 174.167 469.601 173.5 472.902C168.856 469.803 166 467.5 161 466.5C162 469 162.333 472.872 161 475.309C149.931 475.919 138.921 476.733 128 477.727C125.167 476.485 117.5 472.5 110 471C113.5 475 112.5 478 110.5 480C93.3679 481.846 79.4952 483.201 63 485.812C61.5 483.963 59.5 481 59 476.264C56 478.5 54.5 483.5 53 487.43C52 486.049 45.5 477.93 38.5 474.929C39 476.93 39 484.136 37.5 487.43C-38.966 500.797 -99.1353 522.47 -144.647 540.377L-213 1033.58H526.689Z" fill="#41AA61" stroke="#288A36" stroke-width="6"/>
<g clip-path="url(#clip0_217_2136)">
<path d="M18.2756 596.118C20.976 595.667 23.5525 597.643 24.0042 600.344C24.3795 600.175 24.779 600.055 25.2026 599.984C26.3129 599.798 27.4535 599.995 28.4366 600.543C29.4198 601.092 30.1869 601.959 30.6116 603.002C31.0363 604.044 31.0934 605.2 30.7734 606.28C30.4534 607.359 29.7754 608.297 28.851 608.94C29.3385 609.411 29.7243 609.977 29.9844 610.603C30.2445 611.229 30.3734 611.901 30.3631 612.579C30.3529 613.257 30.2037 613.925 29.9248 614.543C29.6459 615.161 29.2432 615.715 28.7417 616.171C28.2401 616.627 27.6503 616.975 27.0088 617.194C26.3673 617.413 25.6877 617.498 25.012 617.444C24.3364 617.39 23.679 617.197 23.0806 616.879C22.4822 616.56 21.9555 616.123 21.533 615.593C21.306 616.231 20.9504 616.817 20.4882 617.313C20.026 617.808 19.467 618.204 18.8457 618.475C18.2245 618.746 17.5542 618.887 16.8763 618.889C16.1985 618.891 15.5275 618.753 14.9049 618.485C14.2822 618.217 13.7212 617.825 13.2564 617.331C12.7917 616.838 12.4331 616.254 12.2028 615.617C11.9726 614.979 11.8756 614.301 11.9178 613.625C11.96 612.948 12.1406 612.287 12.4484 611.683C11.2584 611.35 10.236 610.583 9.58187 609.535C8.92773 608.486 8.68904 607.231 8.91261 606.016C9.13619 604.8 9.8059 603.712 10.7904 602.965C11.7748 602.218 13.0029 601.865 14.2338 601.977C13.7825 599.279 15.5765 596.57 18.2756 596.118Z" fill="#E9E1D0" stroke="#DFC181" stroke-width="3" stroke-linecap="round" stroke-linejoin="round"/>
<path d="M23.2717 607.215C23.4073 608.025 23.2154 608.856 22.7383 609.525C22.2613 610.194 21.5381 610.645 20.728 610.781C19.9178 610.916 19.087 610.724 18.4183 610.247C17.7496 609.77 17.2978 609.047 17.1623 608.237C17.0268 607.427 17.2187 606.596 17.6957 605.927C18.1728 605.259 18.8959 604.807 19.7061 604.671C20.5162 604.536 21.3471 604.728 22.0157 605.205C22.6844 605.682 23.1362 606.405 23.2717 607.215Z" fill="#DFC181"/>
</g>
<g clip-path="url(#clip1_217_2136)">
<path d="M39.1169 547.004C42.5283 545.094 46.9455 546.507 48.856 549.919C49.2788 549.51 49.7578 549.156 50.2929 548.857C51.6953 548.07 53.3236 547.785 54.9098 548.048C56.4959 548.311 57.9453 549.105 59.0194 550.302C60.0935 551.498 60.7283 553.024 60.8191 554.63C60.91 556.235 60.4515 557.823 59.5193 559.133C60.4019 559.531 61.1935 560.105 61.8452 560.821C62.4969 561.537 62.9948 562.379 63.3082 563.294C63.6216 564.21 63.7437 565.181 63.667 566.146C63.5904 567.111 63.3165 568.05 62.8625 568.905C62.4085 569.76 61.7839 570.512 61.0273 571.116C60.2708 571.72 59.3984 572.162 58.4641 572.416C57.5298 572.669 56.5535 572.728 55.5955 572.589C54.6375 572.45 53.7183 572.115 52.8946 571.607C52.8978 572.575 52.7024 573.533 52.3205 574.423C51.9385 575.312 51.3782 576.114 50.674 576.778C49.9699 577.442 49.137 577.955 48.2268 578.285C47.3166 578.614 46.3484 578.753 45.3822 578.694C44.4161 578.634 43.4724 578.377 42.6096 577.938C41.7467 577.499 40.9831 576.888 40.3659 576.142C39.7488 575.397 39.2911 574.532 39.0214 573.603C38.7516 572.673 38.6754 571.698 38.7976 570.737C37.0371 570.863 35.2931 570.327 33.9078 569.233C32.5225 568.14 31.5958 566.568 31.3097 564.826C31.0235 563.085 31.3984 561.299 32.3609 559.819C33.3234 558.34 34.804 557.274 36.5122 556.83C34.6035 553.421 35.707 548.914 39.1169 547.004Z" fill="#E9E1D0" stroke="#DFC181" stroke-width="3" stroke-linecap="round" stroke-linejoin="round"/>
<path d="M51.1884 559.508C51.7616 560.531 51.9047 561.741 51.5862 562.87C51.2678 563.999 50.5139 564.955 49.4904 565.528C48.467 566.101 47.2577 566.244 46.1287 565.926C44.9997 565.607 44.0434 564.854 43.4702 563.83C42.8971 562.807 42.7539 561.597 43.0724 560.468C43.3908 559.339 44.1447 558.383 45.1682 557.81C46.1917 557.237 47.4009 557.094 48.5299 557.412C49.6589 557.73 50.6152 558.484 51.1884 559.508Z" fill="#DFC181"/>
</g>
<g clip-path="url(#clip2_217_2136)">
<path d="M281.556 493.39C284.151 490.836 288.465 491.02 291.019 493.615C291.299 493.144 291.642 492.708 292.049 492.308C293.115 491.257 294.508 490.601 295.997 490.447C297.486 490.294 298.983 490.652 300.242 491.462C301.5 492.273 302.445 493.488 302.921 494.907C303.397 496.327 303.376 497.866 302.86 499.271C303.75 499.412 304.603 499.733 305.364 500.216C306.125 500.699 306.779 501.333 307.285 502.078C307.792 502.824 308.14 503.666 308.308 504.551C308.476 505.437 308.461 506.347 308.263 507.227C308.065 508.106 307.689 508.936 307.158 509.664C306.627 510.392 305.952 511.004 305.175 511.461C304.398 511.918 303.536 512.21 302.641 512.321C301.746 512.431 300.839 512.357 299.974 512.102C300.215 512.971 300.275 513.88 300.15 514.772C300.025 515.665 299.719 516.523 299.25 517.292C298.781 518.062 298.158 518.727 297.422 519.247C296.685 519.766 295.85 520.129 294.967 520.313C294.085 520.497 293.174 520.498 292.292 520.315C291.409 520.133 290.573 519.772 289.835 519.254C289.098 518.735 288.474 518.071 288.004 517.303C287.533 516.534 287.225 515.677 287.099 514.784C285.549 515.33 283.85 515.276 282.338 514.634C280.825 513.992 279.606 512.808 278.921 511.314C278.237 509.82 278.135 508.124 278.636 506.559C279.137 504.994 280.205 503.672 281.63 502.854C279.078 500.262 278.962 495.942 281.556 493.39Z" fill="#E9E1D0" stroke="#DFC181" stroke-width="3" stroke-linecap="round" stroke-linejoin="round"/>
<path d="M295.469 501.655C296.236 502.433 296.661 503.484 296.653 504.576C296.644 505.668 296.202 506.713 295.423 507.479C294.645 508.245 293.594 508.671 292.502 508.662C291.409 508.653 290.365 508.211 289.599 507.433C288.833 506.654 288.407 505.603 288.416 504.511C288.425 503.419 288.867 502.375 289.645 501.608C290.424 500.842 291.475 500.416 292.567 500.425C293.659 500.434 294.703 500.876 295.469 501.655Z" fill="#DFC181"/>
</g>
<g clip-path="url(#clip3_217_2136)">
<path d="M136.75 766.142C140.106 768.092 141.13 772.58 139.181 775.937C139.743 776.091 140.288 776.322 140.814 776.628C142.195 777.429 143.261 778.676 143.838 780.164C144.415 781.652 144.469 783.292 143.989 784.814C143.51 786.337 142.526 787.65 141.2 788.539C139.875 789.428 138.286 789.839 136.696 789.704C136.802 790.659 136.711 791.626 136.429 792.544C136.146 793.463 135.679 794.314 135.054 795.044C134.43 795.775 133.663 796.37 132.799 796.792C131.936 797.214 130.995 797.454 130.035 797.498C129.075 797.542 128.117 797.389 127.218 797.048C126.32 796.706 125.501 796.184 124.813 795.514C124.124 794.844 123.581 794.039 123.215 793.15C122.85 792.261 122.671 791.307 122.69 790.346C121.864 790.838 120.946 791.156 119.993 791.279C119.04 791.402 118.072 791.328 117.149 791.062C116.225 790.796 115.366 790.343 114.625 789.732C113.883 789.121 113.275 788.364 112.838 787.508C112.401 786.653 112.144 785.716 112.083 784.757C112.022 783.798 112.158 782.837 112.483 781.933C112.809 781.029 113.316 780.201 113.974 779.501C114.632 778.8 115.427 778.242 116.309 777.862C115.312 776.421 114.889 774.66 115.124 772.923C115.358 771.187 116.233 769.601 117.577 768.476C118.92 767.352 120.635 766.77 122.386 766.845C124.136 766.92 125.796 767.646 127.038 768.881C128.986 765.528 133.395 764.193 136.75 766.142Z" fill="#E9E1D0" stroke="#DFC181" stroke-width="3" stroke-linecap="round" stroke-linejoin="round"/>
<path d="M132.166 782.775C131.581 783.782 130.62 784.515 129.494 784.814C128.369 785.112 127.171 784.951 126.164 784.366C125.157 783.781 124.423 782.82 124.125 781.695C123.827 780.569 123.987 779.371 124.572 778.364C125.157 777.357 126.118 776.624 127.244 776.325C128.369 776.027 129.568 776.188 130.574 776.773C131.581 777.358 132.315 778.319 132.613 779.444C132.912 780.57 132.751 781.768 132.166 782.775Z" fill="#DFC181"/>
</g>
<g clip-path="url(#clip4_217_2136)">
<path d="M26.6957 794.597C32.1475 797.764 33.8113 805.055 30.6443 810.507C31.5583 810.759 32.4429 811.133 33.2981 811.63C35.5405 812.931 37.273 814.957 38.2104 817.374C39.1477 819.791 39.2341 822.455 38.4552 824.928C37.6763 827.401 36.0787 829.535 33.9252 830.979C31.7718 832.422 29.191 833.09 26.6077 832.871C26.7802 834.422 26.6326 835.992 26.1741 837.485C25.7155 838.977 24.9557 840.359 23.9416 841.545C22.9276 842.732 21.6808 843.698 20.2785 844.384C18.8762 845.07 17.3481 845.46 15.7888 845.532C14.2295 845.603 12.6721 845.354 11.2129 844.8C9.75369 844.245 8.42376 843.397 7.30532 842.309C6.18689 841.22 5.30375 839.913 4.71051 838.469C4.11728 837.025 3.82657 835.475 3.85635 833.914C2.5154 834.713 1.02478 835.229 -0.523328 835.429C-2.07143 835.629 -3.6441 835.509 -5.14406 835.077C-6.64403 834.645 -8.03939 833.909 -9.24386 832.917C-10.4483 831.924 -11.4363 830.694 -12.1466 829.304C-12.857 827.914 -13.2746 826.393 -13.3737 824.835C-13.4728 823.278 -13.2512 821.716 -12.7227 820.247C-12.1942 818.779 -11.37 817.434 -10.3011 816.296C-9.2321 815.159 -7.94114 814.253 -6.50801 813.634C-8.12776 811.294 -8.81457 808.433 -8.43369 805.612C-8.0528 802.792 -6.63172 800.215 -4.44926 798.389C-2.26679 796.562 0.519521 795.617 3.36301 795.738C6.2065 795.86 8.90191 797.04 10.9204 799.046C14.0845 793.599 21.2463 791.431 26.6957 794.597Z" fill="#E9E1D0" stroke="#DFC181" stroke-width="3" stroke-linecap="round" stroke-linejoin="round"/>
<path d="M19.2495 821.615C18.2994 823.251 16.7384 824.442 14.91 824.927C13.0815 825.411 11.1354 825.15 9.49976 824.2C7.8641 823.25 6.67288 821.689 6.18815 819.86C5.70342 818.032 5.96489 816.086 6.91503 814.45C7.86518 812.814 9.42617 811.623 11.2546 811.138C13.083 810.654 15.0292 810.915 16.6648 811.865C18.3005 812.815 19.4917 814.376 19.9764 816.205C20.4612 818.033 20.1997 819.979 19.2495 821.615Z" fill="#DFC181"/>
</g>
<path d="M53.0002 717.702C55.3528 714.301 59.8003 705.939 58.7691 699.697C57.4801 691.894 67.1641 706.158 65.2636 714.061C63.3632 721.963 71.4878 705.616 71.5944 705.002C71.7011 704.387 76.0728 712.706 75.0257 715.692" stroke="#288A36" stroke-width="5" stroke-linecap="round"/>
<path d="M414 769.702C416.353 766.301 420.8 757.939 419.769 751.697C418.48 743.894 428.164 758.158 426.264 766.061C424.363 773.963 432.488 757.616 432.594 757.002C432.701 756.387 437.073 764.706 436.026 767.692" stroke="#288A36" stroke-width="5" stroke-linecap="round"/>
<path d="M338.466 593.702C335.726 590.366 330.62 582.114 332.116 575.794C333.986 567.894 321.628 582.605 323.645 590.488C325.662 598.371 316.375 582.218 316.268 581.604C316.161 580.989 310.511 589.522 311.674 592.489" stroke="#288A36" stroke-width="5" stroke-linecap="round"/>
<path d="M121.466 525.702C118.726 522.366 113.62 514.114 115.116 507.794C116.986 499.894 104.628 514.605 106.645 522.488C108.662 530.371 99.3747 514.218 99.2681 513.604C99.1614 512.989 93.5109 521.522 94.6743 524.489" stroke="#288A36" stroke-width="5" stroke-linecap="round"/>
<g clip-path="url(#clip5_217_2136)">
<path d="M354.324 833.252C356.969 834.195 358.291 837.253 357.348 839.898C357.769 839.933 358.186 840.025 358.601 840.173C359.689 840.561 360.613 841.307 361.22 842.289C361.827 843.271 362.082 844.431 361.942 845.577C361.802 846.723 361.276 847.788 360.451 848.595C359.625 849.403 358.549 849.905 357.4 850.019C357.602 850.685 357.665 851.384 357.586 852.075C357.506 852.766 357.286 853.433 356.939 854.035C356.591 854.637 356.124 855.162 355.566 855.576C355.007 855.99 354.37 856.286 353.693 856.444C353.016 856.602 352.314 856.62 351.63 856.496C350.945 856.372 350.294 856.109 349.716 855.723C349.137 855.337 348.644 854.837 348.267 854.253C347.89 853.669 347.636 853.014 347.522 852.328C347 852.787 346.389 853.134 345.728 853.347C345.066 853.561 344.368 853.636 343.676 853.569C342.984 853.502 342.313 853.294 341.705 852.957C341.096 852.62 340.564 852.162 340.139 851.611C339.715 851.06 339.409 850.428 339.238 849.754C339.068 849.08 339.038 848.378 339.15 847.692C339.262 847.006 339.514 846.35 339.889 845.765C340.265 845.18 340.756 844.678 341.333 844.29C340.434 843.397 339.9 842.2 339.837 840.934C339.775 839.668 340.187 838.424 340.994 837.447C341.801 836.469 342.945 835.829 344.2 835.651C345.455 835.472 346.731 835.77 347.778 836.484C348.72 833.841 351.68 832.309 354.324 833.252Z" fill="#E9E1D0" stroke="#DFC181" stroke-width="3" stroke-linecap="round" stroke-linejoin="round"/>
<path d="M353.262 845.689C352.979 846.483 352.393 847.131 351.631 847.493C350.87 847.854 349.997 847.897 349.203 847.614C348.409 847.332 347.761 846.745 347.4 845.984C347.039 845.222 346.995 844.349 347.278 843.555C347.561 842.762 348.147 842.113 348.909 841.752C349.67 841.391 350.543 841.347 351.337 841.63C352.13 841.913 352.779 842.5 353.14 843.261C353.501 844.022 353.545 844.896 353.262 845.689Z" fill="#DFC181"/>
</g>
<path d="M382.987 796.481C386.97 796.099 390.524 799.245 390.906 803.228C391.47 803.02 392.065 802.886 392.69 802.826C394.328 802.668 395.97 803.073 397.348 803.973C398.725 804.874 399.754 806.216 400.267 807.78C400.779 809.343 400.744 811.035 400.167 812.576C399.59 814.117 398.505 815.415 397.092 816.257C397.754 816.994 398.259 817.859 398.574 818.798C398.889 819.737 399.008 820.731 398.924 821.718C398.839 822.705 398.553 823.664 398.083 824.537C397.613 825.409 396.97 826.175 396.192 826.789C395.414 827.402 394.518 827.849 393.56 828.103C392.603 828.356 391.603 828.411 390.624 828.262C389.644 828.114 388.705 827.766 387.866 827.241C387.026 826.715 386.303 826.023 385.741 825.207C385.345 826.115 384.766 826.932 384.042 827.608C383.317 828.283 382.461 828.803 381.528 829.134C380.594 829.466 379.603 829.603 378.614 829.536C377.626 829.469 376.662 829.2 375.781 828.746C374.901 828.291 374.123 827.661 373.496 826.894C372.869 826.127 372.406 825.239 372.136 824.286C371.865 823.333 371.793 822.335 371.924 821.353C372.055 820.371 372.386 819.426 372.896 818.577C371.196 817.969 369.784 816.747 368.937 815.151C368.091 813.555 367.872 811.701 368.322 809.952C368.773 808.202 369.86 806.685 371.372 805.696C372.884 804.707 374.711 804.32 376.494 804.608C376.112 800.629 379.005 796.863 382.987 796.481Z" fill="#E9E1D0" stroke="#DFC181" stroke-width="3" stroke-linecap="round" stroke-linejoin="round"/>
<path d="M389.134 813.171C389.249 814.366 388.884 815.558 388.12 816.484C387.356 817.41 386.255 817.995 385.06 818.109C383.865 818.224 382.674 817.859 381.748 817.095C380.822 816.331 380.237 815.231 380.122 814.035C380.008 812.84 380.373 811.649 381.137 810.723C381.901 809.797 383.001 809.212 384.196 809.098C385.391 808.983 386.583 809.348 387.509 810.112C388.435 810.876 389.02 811.976 389.134 813.171Z" fill="#DFC181"/>
<defs>
<clipPath id="clip0_217_2136">
<rect width="29.7327" height="29.7327" fill="white" transform="translate(3 594.905) rotate(-9.49565)"/>
</clipPath>
<clipPath id="clip1_217_2136">
<rect width="42.4609" height="42.4609" fill="white" transform="translate(18 552.747) rotate(-29.2495)"/>
</clipPath>
<clipPath id="clip2_217_2136">
<rect width="39.5377" height="39.5377" fill="white" transform="translate(264 503.735) rotate(-44.5453)"/>
</clipPath>
<clipPath id="clip3_217_2136">
<rect width="42.1509" height="42.1509" fill="white" transform="translate(121.172 751) rotate(30.1521)"/>
</clipPath>
<clipPath id="clip4_217_2136">
<rect width="68.4699" height="68.4699" fill="white" transform="translate(1.39209 770) rotate(30.1521)"/>
</clipPath>
<clipPath id="clip5_217_2136">
<rect width="30.4962" height="30.4962" fill="white" transform="translate(341.242 824.54) rotate(19.6246)"/>
</clipPath>
</defs>
</svg>
