<svg width="440" height="567" viewBox="0 0 440 567" fill="none" xmlns="http://www.w3.org/2000/svg">
<path d="M494.013 0C561.399 0 616.025 47.9344 616.025 107.064C616.025 109.172 615.956 111.266 615.819 113.343C614.322 136.061 629.111 163.795 651.878 163.795H826C841.464 163.795 854 176.331 854 191.795V554C854 569.464 841.464 582 826 582H-100.552C-116.016 582 -128.552 569.464 -128.552 554V348.198C-128.552 335.429 -137.289 324.489 -149.195 319.875C-209.154 296.638 -251 244.003 -251 182.79C-251 100.064 -174.574 33.0002 -80.2969 33C-14.987 33 41.7542 65.1848 70.458 112.464C72.1486 115.249 75.0261 117.113 78.2241 117.735V117.735C79.8642 118.053 81.5316 118.022 83.1607 117.652C87.9026 116.574 92.876 116 98.002 116C117.002 116 133.903 123.881 144.694 136.12C152.325 144.777 163.083 151.731 174.623 151.731V151.731C175.64 151.731 176.653 151.744 177.663 151.768C195.98 152.209 215.353 138.721 228.582 126.044C239.369 115.708 254.875 109.227 272.105 109.227C281.234 109.227 289.879 111.046 297.594 114.294C312.468 120.556 331.311 122.836 345.68 115.49C347.746 114.433 349.852 113.429 351.993 112.477C363.468 107.382 371.739 96.6454 374.727 84.4513C386.555 36.1812 435.468 9.11827e-05 494.013 0Z" fill="#F7F6EB"/>
</svg>
