<svg width="32" height="32" viewBox="0 0 32 32" fill="none" xmlns="http://www.w3.org/2000/svg">
<path opacity="0.5" d="M21.5414 4.42261L24.4454 6.17327L24.8227 10.8773C24.8334 11.0053 24.8387 11.0693 24.8414 11.1306C24.9827 13.3426 24.128 15.4933 22.528 16.9506L22.3427 17.1146C22.2507 17.1946 22.2054 17.2359 22.1614 17.2759C20.4886 18.7933 19.3371 20.7996 18.8707 23.0093L18.536 24.4866C18.0907 26.4493 17.8694 27.4306 17.4014 28.0466C17.0596 28.5065 16.6056 28.8711 16.0826 29.1052C15.5597 29.3394 14.9854 29.4353 14.4147 29.3839C13.6614 29.3133 12.8214 28.8079 11.1427 27.7959L10.2454 27.2559C8.56535 26.2439 7.72535 25.7386 7.29069 25.0933C6.96265 24.6035 6.75661 24.0423 6.68981 23.4566C6.623 22.8709 6.69737 22.2777 6.90669 21.7266C7.18669 20.9946 7.88935 20.3026 9.29602 18.9199L10.3547 17.8799L10.528 17.7079C12.117 16.0978 13.1603 14.0294 13.5107 11.7946C13.532 11.6679 13.5427 11.6039 13.5547 11.5439C13.964 9.37061 15.3214 7.52261 17.228 6.54394L17.448 6.43461L21.5414 4.42261Z" fill="#5F6964"/>
<path fill-rule="evenodd" clip-rule="evenodd" d="M22.528 16.9506C23.2341 16.2995 23.8032 15.5142 24.2023 14.6406C24.6013 13.7669 24.8222 12.8226 24.852 11.8626L22.724 12.5733C22.1458 12.7656 21.5286 12.8102 20.9287 12.7031C20.3288 12.596 19.7653 12.3405 19.2894 11.9599C18.7445 11.5247 18.0865 11.2546 17.3931 11.1813C16.6997 11.1081 15.9997 11.2348 15.376 11.5466L13.416 12.5253L13.3614 12.5519C12.9142 14.5004 11.9331 16.2858 10.528 17.7079L10.3547 17.8786L9.29602 18.9186C7.88935 20.3026 7.18535 20.9946 6.90669 21.7253C6.69737 22.2763 6.623 22.8695 6.68981 23.4552C6.75661 24.0409 6.96265 24.6021 7.29069 25.0919C7.72669 25.7386 8.56669 26.2439 10.2454 27.2559L11.1427 27.7959C12.8227 28.8066 13.6614 29.3133 14.4147 29.3826C14.9851 29.4343 15.5593 29.3387 16.0822 29.105C16.6051 28.8714 17.0593 28.5074 17.4014 28.0479C17.868 27.4293 18.0907 26.4479 18.5347 24.4866L18.8707 23.0093L18.9254 22.7666C19.4232 20.6509 20.5517 18.7363 22.1614 17.2759L22.3427 17.1146L22.528 16.9506Z" fill="#5F6964"/>
<path d="M21.54 4.42258L24.4454 6.17325L25.0587 5.06258C25.236 4.74258 25.3254 4.58258 25.332 4.42525C25.3391 4.28591 25.3022 4.14788 25.2267 4.03058C25.1414 3.89725 24.9854 3.80392 24.672 3.61458L23.6187 2.97992C23.284 2.77858 23.116 2.67725 22.9507 2.66792C22.8045 2.65839 22.6592 2.69728 22.5374 2.77858C22.4 2.86925 22.3054 3.03992 22.116 3.38258L21.54 4.42258Z" fill="#5F6964"/>
</svg>
