<svg width="36" height="36" viewBox="0 0 36 36" fill="none" xmlns="http://www.w3.org/2000/svg">
<rect x="0.5" y="0.5" width="35" height="35" rx="17.5" stroke="#355E3B"/>
<path fill-rule="evenodd" clip-rule="evenodd" d="M26.7499 18.0002C26.7499 17.8344 26.684 17.6754 26.5668 17.5582C26.4496 17.441 26.2907 17.3752 26.1249 17.3752H11.3836L15.3174 13.4427C15.3755 13.3846 15.4216 13.3156 15.4531 13.2397C15.4845 13.1637 15.5007 13.0824 15.5007 13.0002C15.5007 12.918 15.4845 12.8366 15.4531 12.7607C15.4216 12.6848 15.3755 12.6158 15.3174 12.5577C15.2593 12.4996 15.1903 12.4535 15.1144 12.422C15.0385 12.3906 14.9571 12.3744 14.8749 12.3744C14.7927 12.3744 14.7113 12.3906 14.6354 12.422C14.5595 12.4535 14.4905 12.4996 14.4324 12.5577L9.4324 17.5577C9.37419 17.6157 9.32801 17.6847 9.29651 17.7606C9.265 17.8366 9.24878 17.918 9.24878 18.0002C9.24878 18.0824 9.265 18.1638 9.29651 18.2397C9.32801 18.3157 9.37419 18.3846 9.4324 18.4427L14.4324 23.4427C14.4905 23.5008 14.5595 23.5469 14.6354 23.5783C14.7113 23.6098 14.7927 23.626 14.8749 23.626C14.9571 23.626 15.0385 23.6098 15.1144 23.5783C15.1903 23.5469 15.2593 23.5008 15.3174 23.4427C15.3755 23.3846 15.4216 23.3156 15.4531 23.2397C15.4845 23.1637 15.5007 23.0824 15.5007 23.0002C15.5007 22.918 15.4845 22.8366 15.4531 22.7607C15.4216 22.6848 15.3755 22.6158 15.3174 22.5577L11.3836 18.6252H26.1249C26.2907 18.6252 26.4496 18.5593 26.5668 18.4421C26.684 18.3249 26.7499 18.1659 26.7499 18.0002Z" fill="#355E3B"/>
</svg>
