<svg width="22" height="10" viewBox="0 0 22 10" fill="none" xmlns="http://www.w3.org/2000/svg">
<path d="M20.75 1.625H20.2391C20.0024 1.48522 19.7508 1.37233 19.4891 1.28844C18.6641 1.01563 17.5747 0.875 16.25 0.875C14.9253 0.875 13.8359 1.01563 13.0128 1.28844C12.3538 1.50828 12.0636 1.75063 11.9698 1.84484C11.6672 1.70013 11.336 1.62501 11.0005 1.62501C10.665 1.62501 10.3338 1.70013 10.0311 1.84484C9.93734 1.75109 9.64719 1.50828 8.98812 1.28844C8.16406 1.01563 7.07469 0.875 5.75 0.875C4.42531 0.875 3.33594 1.01563 2.51281 1.28844C2.25105 1.37233 1.99949 1.48522 1.76281 1.625H1.25C1.05109 1.625 0.860322 1.70402 0.71967 1.84467C0.579018 1.98532 0.5 2.17609 0.5 2.375C0.5 2.57391 0.579018 2.76468 0.71967 2.90533C0.860322 3.04598 1.05109 3.125 1.25 3.125H1.25797C1.30484 5.25594 1.55984 6.53656 2.10687 7.44828C2.44955 8.03691 2.97487 8.49771 3.60312 8.76078C4.17641 9.00641 4.87906 9.12594 5.75 9.12594C6.88203 9.12594 8.49125 8.95203 9.39313 7.44922C9.84688 6.69266 10.1005 5.6825 10.1998 4.14359C10.2329 4.05789 10.2499 3.96685 10.25 3.875C10.25 3.67609 10.329 3.48532 10.4697 3.34467C10.6103 3.20402 10.8011 3.125 11 3.125C11.1989 3.125 11.3897 3.20402 11.5303 3.34467C11.671 3.48532 11.75 3.67609 11.75 3.875C11.7502 3.96653 11.7672 4.05725 11.8002 4.14266C11.8995 5.68156 12.1531 6.69172 12.6069 7.44828C12.9496 8.03691 13.4749 8.49771 14.1031 8.76078C14.6764 9.00641 15.3791 9.12594 16.25 9.12594C17.382 9.12594 18.9913 8.95203 19.8931 7.44922C20.4402 6.5375 20.6961 5.25688 20.742 3.12594H20.75C20.9489 3.12594 21.1397 3.04692 21.2803 2.90627C21.421 2.76562 21.5 2.57485 21.5 2.37594C21.5 2.17703 21.421 1.98626 21.2803 1.84561C21.1397 1.70496 20.9489 1.62594 20.75 1.62594V1.625Z" fill="#355E3B"/>
</svg>
