<svg width="543" height="366" viewBox="0 0 543 366" fill="none" xmlns="http://www.w3.org/2000/svg">
<path d="M456.548 34.4261C455.998 33.8144 455.28 33.4669 454.394 33.3836C453.507 33.3004 452.733 33.5077 452.069 34.0055C447.682 37.299 444.149 40.9259 441.471 44.8862C438.793 48.8465 436.9 52.9074 435.791 57.069C434.682 61.2304 433.999 66.0675 433.741 71.5799C433.7 72.4379 433.933 73.1492 434.441 73.7139C434.991 74.3256 435.709 74.6731 436.595 74.7563C437.481 74.8396 438.256 74.6323 438.92 74.1344C439.532 73.6749 439.905 73.0206 440.039 72.1714C440.22 71.0897 440.414 69.5459 440.619 67.5401C440.824 65.5342 440.981 64.1164 441.089 63.2864C441.963 57.7454 443.527 53.1043 445.782 49.3628C448.037 45.6213 451.486 42.0081 456.129 38.5231C456.792 38.0253 457.165 37.3709 457.248 36.56C457.331 35.7491 457.098 35.0379 456.548 34.4261ZM469.86 12.7322C471.869 14.9675 473.654 17.4295 475.216 20.1183C478.778 26.2696 480.474 32.5419 480.302 38.935C480.131 45.3282 478.404 51.9037 475.122 58.6618C471.946 65.3007 467.501 70.7647 461.787 75.0535C458.012 77.8878 453.867 80.0731 449.353 81.6099C448.865 81.7795 447.298 82.1277 444.654 82.6547C442.009 83.1817 440.393 83.6657 439.807 84.1066C439.399 84.4128 439.233 85.1676 439.31 86.3703C439.387 87.5731 439.553 88.8275 439.808 90.133C440.063 91.4392 440.134 92.7655 440.019 94.112C439.905 95.4584 439.478 96.4094 438.738 96.9642C437.641 97.7876 436.646 98.1897 435.753 98.1704C434.86 98.1518 433.651 97.887 432.125 97.3775C431.99 97.3215 431.797 97.25 431.547 97.1618C431.297 97.0735 431.121 97.0087 431.019 96.9667C430.918 96.9247 430.779 96.8415 430.603 96.7179C430.428 96.5936 430.266 96.4487 430.118 96.2841C429.378 95.4608 428.996 94.2992 428.973 92.8C428.95 91.3 429.125 89.8785 429.498 88.5347C429.871 87.1908 430.146 85.8809 430.324 84.6056C430.501 83.3296 430.389 82.468 429.988 82.0208C429.903 81.9266 429.323 81.6134 428.247 81.0819C427.171 80.5497 426.502 80.1854 426.239 79.9885C424.931 78.9607 423.717 77.8235 422.596 76.5764C420.165 73.8706 418.394 70.8659 417.284 67.5624C416.174 64.2589 415.741 60.9491 415.986 57.6328C416.231 54.3166 416.937 51.049 418.102 47.8299C419.267 44.6108 420.86 41.5342 422.879 38.6C423.902 37.1234 425.482 35.4351 427.619 33.5353C429.756 31.6355 431.951 29.8111 434.202 28.062C436.453 26.313 438.667 24.5334 440.842 22.7234C443.017 20.9133 444.849 19.0656 446.337 17.1802C447.825 15.2949 448.676 13.5436 448.888 11.9262L449.082 10.0377L449.323 8.20222L449.721 6.72086L450.611 5.10781L452.132 3.69957C453.127 2.95279 454.513 2.81899 456.289 3.29817C458.065 3.77733 459.855 4.64019 461.659 5.88673C463.462 7.13329 465.079 8.36234 466.509 9.57384C467.94 10.7853 469.057 11.8382 469.86 12.7322Z" fill="#A8C686"/>
<path d="M501.502 99.7979C501.871 99.0815 501.907 98.3393 501.609 97.5712C501.311 96.8031 500.775 96.2517 499.998 95.917C494.864 93.7031 489.767 92.3384 484.707 91.823C479.646 91.3076 474.823 91.4836 470.236 92.3509C465.65 93.2182 460.578 94.7266 455.022 96.876C454.157 97.21 453.554 97.7077 453.213 98.3691C452.845 99.0854 452.809 99.8276 453.107 100.596C453.404 101.364 453.941 101.915 454.717 102.25C455.434 102.559 456.24 102.587 457.137 102.333C458.283 102.02 459.891 101.518 461.961 100.828C464.03 100.138 465.498 99.6597 466.365 99.3936C472.213 97.7404 477.469 97.0437 482.132 97.3035C486.795 97.5634 491.842 98.8647 497.275 101.207C498.051 101.542 498.858 101.57 499.694 101.291C500.531 101.012 501.134 100.514 501.502 99.7979ZM528.64 101.5C527.293 104.118 525.625 106.648 523.638 109.091C519.088 114.671 513.618 118.76 507.228 121.358C500.839 123.956 493.602 125.348 485.519 125.532C477.599 125.753 470.296 124.422 463.61 121.539C459.192 119.634 455.256 117.146 451.804 114.075C451.427 113.744 450.411 112.599 448.757 110.639C447.103 108.68 445.933 107.553 445.246 107.257C444.768 107.051 443.952 107.237 442.796 107.817C441.641 108.396 440.473 109.071 439.292 109.841C438.111 110.611 436.831 111.238 435.452 111.72C434.073 112.203 432.95 112.258 432.085 111.884C430.801 111.331 429.978 110.681 429.614 109.935C429.25 109.189 428.993 108.076 428.843 106.597C428.84 106.461 428.828 106.271 428.808 106.027C428.788 105.783 428.777 105.609 428.774 105.507C428.772 105.405 428.795 105.255 428.842 105.057C428.889 104.859 428.963 104.663 429.062 104.47C429.559 103.506 430.543 102.692 432.014 102.031C433.486 101.369 434.965 100.904 436.453 100.636C437.94 100.369 439.352 100.035 440.688 99.635C442.025 99.2349 442.828 98.7731 443.098 98.2495C443.155 98.1393 443.216 97.5255 443.28 96.4087C443.344 95.2915 443.417 94.5825 443.499 94.2812C443.954 92.76 444.557 91.2694 445.309 89.809C446.94 86.6404 449.15 83.8894 451.938 81.5561C454.726 79.2229 457.81 77.447 461.192 76.2283C464.573 75.0096 468.103 74.1919 471.783 73.7753C475.463 73.3587 479.185 73.3559 482.949 73.7671C484.846 73.979 487.191 74.5609 489.984 75.5127C492.777 76.4646 495.52 77.4958 498.213 78.6065C500.906 79.7172 503.613 80.7834 506.333 81.805C509.054 82.8266 511.664 83.5482 514.164 83.9699C516.665 84.3916 518.76 84.3437 520.449 83.8262L522.397 83.1765L524.314 82.5888L525.948 82.2835L527.923 82.327L529.966 82.9809C531.131 83.4829 531.857 84.5703 532.144 86.2433C532.432 87.9162 532.347 89.7649 531.888 91.7895C531.43 93.8139 530.908 95.6768 530.325 97.3778C529.741 99.079 529.179 100.453 528.64 101.5Z" fill="#A8C686"/>
<path d="M86.4267 330.866C86.9764 331.478 87.6944 331.825 88.5808 331.908C89.4672 331.992 90.2421 331.784 90.9054 331.286C95.293 327.993 98.8258 324.366 101.504 320.406C104.182 316.445 106.075 312.385 107.184 308.223C108.293 304.062 108.976 299.224 109.234 293.712C109.275 292.854 109.041 292.143 108.534 291.578C107.984 290.966 107.266 290.619 106.38 290.536C105.493 290.452 104.718 290.66 104.055 291.158C103.443 291.617 103.07 292.271 102.936 293.121C102.754 294.202 102.561 295.746 102.356 297.752C102.151 299.758 101.994 301.176 101.885 302.006C101.012 307.547 99.448 312.188 97.1928 315.929C94.9377 319.671 91.4887 323.284 86.8459 326.769C86.1826 327.267 85.8096 327.921 85.7266 328.732C85.6436 329.543 85.8769 330.254 86.4267 330.866ZM73.1145 352.56C71.1059 350.325 69.3207 347.862 67.7589 345.174C64.1964 339.022 62.5008 332.75 62.6722 326.357C62.8436 319.964 64.5704 313.388 67.8525 306.63C71.0282 299.991 75.4732 294.527 81.1875 290.238C84.9628 287.404 89.1076 285.219 93.6217 283.682C94.11 283.513 95.6765 283.164 98.321 282.637C100.966 282.11 102.581 281.626 103.168 281.185C103.576 280.879 103.742 280.124 103.665 278.922C103.587 277.719 103.421 276.464 103.166 275.159C102.911 273.853 102.841 272.527 102.955 271.18C103.07 269.834 103.497 268.883 104.236 268.328C105.333 267.504 106.328 267.102 107.221 267.122C108.114 267.14 109.324 267.405 110.849 267.915C110.985 267.971 111.178 268.042 111.428 268.13C111.678 268.219 111.854 268.283 111.955 268.325C112.057 268.367 112.196 268.45 112.371 268.574C112.547 268.698 112.709 268.843 112.857 269.008C113.597 269.831 113.978 270.993 114.002 272.492C114.025 273.992 113.85 275.414 113.477 276.757C113.104 278.101 112.829 279.411 112.651 280.686C112.473 281.962 112.585 282.824 112.987 283.271C113.072 283.365 113.652 283.679 114.728 284.21C115.804 284.742 116.473 285.107 116.736 285.303C118.043 286.331 119.258 287.469 120.378 288.716C122.81 291.421 124.58 294.426 125.691 297.73C126.801 301.033 127.234 304.343 126.989 307.659C126.743 310.975 126.038 314.243 124.873 317.462C123.707 320.681 122.115 323.758 120.095 326.692C119.073 328.169 117.493 329.857 115.356 331.757C113.218 333.656 111.024 335.481 108.773 337.23C106.521 338.979 104.308 340.759 102.133 342.569C99.9573 344.379 98.1256 346.226 96.6374 348.112C95.1491 349.997 94.2988 351.748 94.0862 353.366L93.8929 355.254L93.6521 357.09L93.2532 358.571L92.364 360.184L90.8422 361.592C89.8473 362.339 88.4618 362.473 86.6857 361.994C84.9095 361.515 83.1197 360.652 81.3161 359.405C79.5125 358.159 77.8955 356.93 76.4652 355.718C75.0348 354.507 73.9179 353.454 73.1145 352.56Z" fill="#A8C686"/>
<path d="M41.4721 265.494C41.1034 266.21 41.0678 266.953 41.3655 267.721C41.6631 268.489 42.2 269.04 42.9761 269.375C48.1103 271.589 53.2076 272.954 58.2678 273.469C63.3282 273.984 68.1516 273.808 72.7382 272.941C77.3247 272.074 82.3964 270.565 87.953 268.416C88.818 268.082 89.4207 267.584 89.7611 266.923C90.1299 266.207 90.1655 265.464 89.8678 264.696C89.5702 263.928 89.0333 263.377 88.2572 263.042C87.5409 262.733 86.7345 262.705 85.8381 262.959C84.6917 263.272 83.0837 263.774 81.014 264.464C78.9444 265.154 77.4763 265.632 76.6099 265.898C70.7615 267.552 65.5059 268.248 60.843 267.988C56.1801 267.729 51.1322 266.427 45.6995 264.085C44.9234 263.75 44.117 263.722 43.2804 264.001C42.4437 264.28 41.841 264.778 41.4721 265.494ZM14.3344 263.792C15.6819 261.174 17.3492 258.644 19.3363 256.201C23.8866 250.621 29.3566 246.532 35.7462 243.934C42.1358 241.336 49.3722 239.944 57.4555 239.76C65.3755 239.539 72.6785 240.87 79.3647 243.753C83.7829 245.658 87.7182 248.146 91.1711 251.217C91.5479 251.548 92.5633 252.693 94.2174 254.653C95.8714 256.612 97.042 257.739 97.729 258.035C98.2064 258.241 99.0231 258.055 100.178 257.475C101.334 256.896 102.502 256.221 103.682 255.451C104.863 254.681 106.143 254.054 107.523 253.572C108.902 253.089 110.024 253.034 110.89 253.408C112.173 253.961 112.997 254.611 113.361 255.357C113.725 256.103 113.982 257.216 114.132 258.695C114.135 258.831 114.147 259.021 114.167 259.265C114.187 259.509 114.198 259.682 114.2 259.785C114.202 259.887 114.18 260.037 114.133 260.235C114.085 260.433 114.011 260.629 113.912 260.822C113.416 261.786 112.432 262.6 110.961 263.261C109.489 263.923 108.009 264.388 106.522 264.656C105.034 264.923 103.622 265.257 102.286 265.657C100.949 266.057 100.146 266.519 99.8766 267.042C99.8197 267.153 99.759 267.766 99.695 268.883C99.6304 270.001 99.5573 270.71 99.4752 271.011C99.0203 272.532 98.4172 274.023 97.6654 275.483C96.0343 278.652 93.8247 281.403 91.0368 283.736C88.249 286.069 85.1644 287.845 81.7831 289.064C78.4017 290.282 74.8712 291.1 71.1914 291.517C67.5117 291.933 63.7896 291.936 60.0253 291.525C58.1283 291.313 55.7832 290.731 52.9903 289.779C50.1974 288.827 47.4545 287.796 44.7616 286.685C42.0688 285.575 39.3621 284.509 36.6416 283.487C33.9211 282.465 31.3106 281.744 28.8101 281.322C26.3097 280.9 24.215 280.948 22.526 281.466L20.5775 282.115L18.6609 282.703L17.0264 283.008L15.0517 282.965L13.0082 282.311C11.844 281.809 11.1181 280.722 10.8303 279.049C10.5424 277.376 10.6278 275.527 11.0864 273.503C11.545 271.478 12.0662 269.615 12.6501 267.914C13.2339 266.213 13.7954 264.839 14.3344 263.792Z" fill="#A8C686"/>
<rect x="81.4883" y="78.5156" width="392" height="216" rx="24" fill="#F7F6EB"/>
<path d="M222.832 119.156V121.956H226.592V123.732H222.832V126.692H227.072V128.516H220.592V117.332H227.072V119.156H222.832ZM228.532 124.052C228.532 123.156 228.708 122.361 229.06 121.668C229.423 120.974 229.913 120.441 230.532 120.068C231.151 119.694 231.839 119.508 232.596 119.508C233.172 119.508 233.721 119.636 234.244 119.892C234.767 120.137 235.183 120.468 235.492 120.884V116.676H237.764V128.516H235.492V127.204C235.215 127.641 234.825 127.993 234.324 128.26C233.823 128.526 233.241 128.66 232.58 128.66C231.833 128.66 231.151 128.468 230.532 128.084C229.913 127.7 229.423 127.161 229.06 126.468C228.708 125.764 228.532 124.958 228.532 124.052ZM235.508 124.084C235.508 123.54 235.401 123.076 235.188 122.692C234.975 122.297 234.687 121.998 234.324 121.796C233.961 121.582 233.572 121.476 233.156 121.476C232.74 121.476 232.356 121.577 232.004 121.78C231.652 121.982 231.364 122.281 231.14 122.676C230.927 123.06 230.82 123.518 230.82 124.052C230.82 124.585 230.927 125.054 231.14 125.46C231.364 125.854 231.652 126.158 232.004 126.372C232.367 126.585 232.751 126.692 233.156 126.692C233.572 126.692 233.961 126.59 234.324 126.388C234.687 126.174 234.975 125.876 235.188 125.492C235.401 125.097 235.508 124.628 235.508 124.084ZM241.088 118.596C240.693 118.596 240.362 118.473 240.096 118.228C239.84 117.972 239.712 117.657 239.712 117.284C239.712 116.91 239.84 116.601 240.096 116.356C240.362 116.1 240.693 115.972 241.088 115.972C241.482 115.972 241.808 116.1 242.064 116.356C242.33 116.601 242.464 116.91 242.464 117.284C242.464 117.657 242.33 117.972 242.064 118.228C241.808 118.473 241.482 118.596 241.088 118.596ZM242.192 119.652V128.516H239.952V119.652H242.192ZM247.013 121.492V125.78C247.013 126.078 247.082 126.297 247.221 126.436C247.37 126.564 247.615 126.628 247.957 126.628H248.997V128.516H247.589C245.701 128.516 244.757 127.598 244.757 125.764V121.492H243.701V119.652H244.757V117.46H247.013V119.652H248.997V121.492H247.013ZM250.032 124.052C250.032 123.156 250.208 122.361 250.56 121.668C250.923 120.974 251.408 120.441 252.016 120.068C252.635 119.694 253.323 119.508 254.08 119.508C254.741 119.508 255.317 119.641 255.808 119.908C256.309 120.174 256.709 120.51 257.008 120.916V119.652H259.264V128.516H257.008V127.22C256.72 127.636 256.32 127.982 255.808 128.26C255.307 128.526 254.725 128.66 254.064 128.66C253.317 128.66 252.635 128.468 252.016 128.084C251.408 127.7 250.923 127.161 250.56 126.468C250.208 125.764 250.032 124.958 250.032 124.052ZM257.008 124.084C257.008 123.54 256.901 123.076 256.688 122.692C256.475 122.297 256.187 121.998 255.824 121.796C255.461 121.582 255.072 121.476 254.656 121.476C254.24 121.476 253.856 121.577 253.504 121.78C253.152 121.982 252.864 122.281 252.64 122.676C252.427 123.06 252.32 123.518 252.32 124.052C252.32 124.585 252.427 125.054 252.64 125.46C252.864 125.854 253.152 126.158 253.504 126.372C253.867 126.585 254.251 126.692 254.656 126.692C255.072 126.692 255.461 126.59 255.824 126.388C256.187 126.174 256.475 125.876 256.688 125.492C256.901 125.097 257.008 124.628 257.008 124.084ZM263.692 121.028C263.98 120.558 264.353 120.19 264.812 119.924C265.281 119.657 265.814 119.524 266.412 119.524V121.876H265.82C265.116 121.876 264.582 122.041 264.22 122.372C263.868 122.702 263.692 123.278 263.692 124.1V128.516H261.452V119.652H263.692V121.028ZM276.645 119.524C277.701 119.524 278.554 119.86 279.205 120.532C279.856 121.193 280.181 122.121 280.181 123.316V128.516H277.941V123.62C277.941 122.916 277.765 122.377 277.413 122.004C277.061 121.62 276.581 121.428 275.973 121.428C275.354 121.428 274.864 121.62 274.501 122.004C274.149 122.377 273.973 122.916 273.973 123.62V128.516H271.733V119.652H273.973V120.756C274.272 120.372 274.65 120.073 275.109 119.86C275.578 119.636 276.09 119.524 276.645 119.524ZM286.247 128.66C285.394 128.66 284.626 128.473 283.943 128.1C283.26 127.716 282.722 127.177 282.327 126.484C281.943 125.79 281.751 124.99 281.751 124.084C281.751 123.177 281.948 122.377 282.343 121.684C282.748 120.99 283.298 120.457 283.991 120.084C284.684 119.7 285.458 119.508 286.311 119.508C287.164 119.508 287.938 119.7 288.631 120.084C289.324 120.457 289.868 120.99 290.263 121.684C290.668 122.377 290.871 123.177 290.871 124.084C290.871 124.99 290.663 125.79 290.247 126.484C289.842 127.177 289.287 127.716 288.583 128.1C287.89 128.473 287.111 128.66 286.247 128.66ZM286.247 126.708C286.652 126.708 287.031 126.612 287.383 126.42C287.746 126.217 288.034 125.918 288.247 125.524C288.46 125.129 288.567 124.649 288.567 124.084C288.567 123.241 288.343 122.596 287.895 122.148C287.458 121.689 286.919 121.46 286.279 121.46C285.639 121.46 285.1 121.689 284.663 122.148C284.236 122.596 284.023 123.241 284.023 124.084C284.023 124.926 284.231 125.577 284.647 126.036C285.074 126.484 285.607 126.708 286.247 126.708ZM303.522 119.524C304.61 119.524 305.485 119.86 306.146 120.532C306.818 121.193 307.154 122.121 307.154 123.316V128.516H304.914V123.62C304.914 122.926 304.738 122.398 304.386 122.036C304.034 121.662 303.554 121.476 302.946 121.476C302.338 121.476 301.853 121.662 301.49 122.036C301.138 122.398 300.962 122.926 300.962 123.62V128.516H298.722V123.62C298.722 122.926 298.546 122.398 298.194 122.036C297.842 121.662 297.362 121.476 296.754 121.476C296.135 121.476 295.645 121.662 295.282 122.036C294.93 122.398 294.754 122.926 294.754 123.62V128.516H292.514V119.652H294.754V120.724C295.042 120.35 295.41 120.057 295.858 119.844C296.317 119.63 296.818 119.524 297.362 119.524C298.055 119.524 298.674 119.673 299.218 119.972C299.762 120.26 300.183 120.676 300.482 121.22C300.77 120.708 301.186 120.297 301.73 119.988C302.285 119.678 302.882 119.524 303.522 119.524ZM311.52 120.948C311.808 120.521 312.202 120.174 312.704 119.908C313.216 119.641 313.797 119.508 314.448 119.508C315.205 119.508 315.888 119.694 316.496 120.068C317.114 120.441 317.6 120.974 317.952 121.668C318.314 122.35 318.496 123.145 318.496 124.052C318.496 124.958 318.314 125.764 317.952 126.468C317.6 127.161 317.114 127.7 316.496 128.084C315.888 128.468 315.205 128.66 314.448 128.66C313.786 128.66 313.205 128.532 312.704 128.276C312.213 128.009 311.818 127.668 311.52 127.252V128.516H309.28V116.676H311.52V120.948ZM316.208 124.052C316.208 123.518 316.096 123.06 315.872 122.676C315.658 122.281 315.37 121.982 315.008 121.78C314.656 121.577 314.272 121.476 313.856 121.476C313.45 121.476 313.066 121.582 312.704 121.796C312.352 121.998 312.064 122.297 311.84 122.692C311.626 123.086 311.52 123.55 311.52 124.084C311.52 124.617 311.626 125.081 311.84 125.476C312.064 125.87 312.352 126.174 312.704 126.388C313.066 126.59 313.45 126.692 313.856 126.692C314.272 126.692 314.656 126.585 315.008 126.372C315.37 126.158 315.658 125.854 315.872 125.46C316.096 125.065 316.208 124.596 316.208 124.052ZM322.364 121.028C322.652 120.558 323.025 120.19 323.484 119.924C323.953 119.657 324.486 119.524 325.084 119.524V121.876H324.492C323.788 121.876 323.254 122.041 322.892 122.372C322.54 122.702 322.364 123.278 322.364 124.1V128.516H320.124V119.652H322.364V121.028ZM334.832 123.892C334.832 124.212 334.811 124.5 334.768 124.756H328.288C328.342 125.396 328.566 125.897 328.96 126.26C329.355 126.622 329.84 126.804 330.416 126.804C331.248 126.804 331.84 126.446 332.192 125.732H334.608C334.352 126.585 333.862 127.289 333.136 127.844C332.411 128.388 331.52 128.66 330.464 128.66C329.611 128.66 328.843 128.473 328.16 128.1C327.488 127.716 326.96 127.177 326.576 126.484C326.203 125.79 326.016 124.99 326.016 124.084C326.016 123.166 326.203 122.361 326.576 121.668C326.95 120.974 327.472 120.441 328.144 120.068C328.816 119.694 329.59 119.508 330.464 119.508C331.307 119.508 332.059 119.689 332.72 120.052C333.392 120.414 333.91 120.932 334.272 121.604C334.646 122.265 334.832 123.028 334.832 123.892ZM332.512 123.252C332.502 122.676 332.294 122.217 331.888 121.876C331.483 121.524 330.987 121.348 330.4 121.348C329.846 121.348 329.376 121.518 328.992 121.86C328.619 122.19 328.39 122.654 328.304 123.252H332.512Z" fill="#1F1F1F"/>
<rect x="113.488" y="158.516" width="328" height="40" rx="20" fill="#E5E9E4"/>
<g clip-path="url(#clip0_970_3190)">
<path fill-rule="evenodd" clip-rule="evenodd" d="M139.488 170.516C139.591 170.516 139.693 170.541 139.783 170.59C139.874 170.638 139.951 170.709 140.008 170.794L143.758 176.419C143.821 176.513 143.857 176.623 143.862 176.736C143.868 176.849 143.842 176.961 143.789 177.061C143.736 177.16 143.656 177.244 143.559 177.302C143.462 177.36 143.351 177.391 143.238 177.391H143.116L145.643 181.434C145.702 181.529 145.735 181.638 145.738 181.749C145.741 181.861 145.714 181.971 145.66 182.069C145.606 182.166 145.527 182.248 145.43 182.304C145.334 182.361 145.225 182.391 145.113 182.391H144.875L146.922 186.486C146.97 186.581 146.992 186.687 146.988 186.793C146.983 186.9 146.951 187.003 146.895 187.094C146.839 187.185 146.761 187.26 146.668 187.311C146.575 187.363 146.47 187.391 146.363 187.391H132.613C132.507 187.391 132.402 187.363 132.309 187.311C132.216 187.26 132.137 187.185 132.081 187.094C132.025 187.003 131.994 186.9 131.989 186.793C131.984 186.687 132.007 186.581 132.055 186.486L134.101 182.391H133.863C133.752 182.391 133.642 182.361 133.546 182.304C133.45 182.248 133.371 182.166 133.317 182.069C133.263 181.971 133.236 181.861 133.238 181.749C133.241 181.638 133.274 181.529 133.333 181.434L135.861 177.391H135.738C135.625 177.391 135.514 177.36 135.417 177.302C135.32 177.244 135.241 177.16 135.188 177.061C135.134 176.961 135.109 176.849 135.114 176.736C135.12 176.623 135.156 176.513 135.218 176.419L138.968 170.794C139.025 170.709 139.103 170.638 139.193 170.59C139.284 170.541 139.385 170.516 139.488 170.516V170.516Z" fill="#355E3B"/>
<path d="M138.238 187.391H140.738V190.516H138.238V187.391Z" fill="#848484"/>
</g>
<path d="M162.176 178.932C162.176 177.844 162.422 176.868 162.912 176.004C163.403 175.129 164.07 174.446 164.912 173.956C165.766 173.465 166.71 173.22 167.744 173.22C168.96 173.22 170.022 173.513 170.928 174.1C171.835 174.686 172.496 175.518 172.912 176.596H171.168C170.859 175.924 170.411 175.406 169.824 175.044C169.248 174.681 168.555 174.5 167.744 174.5C166.966 174.5 166.267 174.681 165.648 175.044C165.03 175.406 164.544 175.924 164.192 176.596C163.84 177.257 163.664 178.036 163.664 178.932C163.664 179.817 163.84 180.596 164.192 181.268C164.544 181.929 165.03 182.441 165.648 182.804C166.267 183.166 166.966 183.348 167.744 183.348C168.555 183.348 169.248 183.172 169.824 182.82C170.411 182.457 170.859 181.94 171.168 181.268H172.912C172.496 182.334 171.835 183.161 170.928 183.748C170.022 184.324 168.96 184.612 167.744 184.612C166.71 184.612 165.766 184.372 164.912 183.892C164.07 183.401 163.403 182.724 162.912 181.86C162.422 180.996 162.176 180.02 162.176 178.932ZM179.432 175.588C180.093 175.588 180.69 175.732 181.224 176.02C181.757 176.297 182.173 176.718 182.472 177.284C182.781 177.849 182.936 178.537 182.936 179.348V184.516H181.496V179.556C181.496 178.681 181.277 178.014 180.84 177.556C180.402 177.086 179.805 176.852 179.048 176.852C178.28 176.852 177.666 177.092 177.208 177.572C176.76 178.052 176.536 178.75 176.536 179.668V184.516H175.08V172.676H176.536V176.996C176.824 176.548 177.218 176.201 177.72 175.956C178.232 175.71 178.802 175.588 179.432 175.588ZM193.09 175.748V184.516H191.634V183.22C191.357 183.668 190.967 184.02 190.466 184.276C189.975 184.521 189.431 184.644 188.834 184.644C188.151 184.644 187.538 184.505 186.994 184.228C186.45 183.94 186.018 183.513 185.698 182.948C185.389 182.382 185.234 181.694 185.234 180.884V175.748H186.674V180.692C186.674 181.556 186.893 182.222 187.33 182.692C187.767 183.15 188.365 183.38 189.122 183.38C189.901 183.38 190.514 183.14 190.962 182.66C191.41 182.18 191.634 181.481 191.634 180.564V175.748H193.09ZM196.636 183.316H200.94V184.516H194.972V183.316L199.228 176.932H195.004V175.748H200.908V176.932L196.636 183.316ZM203.582 174.324C203.304 174.324 203.07 174.228 202.878 174.036C202.686 173.844 202.59 173.609 202.59 173.332C202.59 173.054 202.686 172.82 202.878 172.628C203.07 172.436 203.304 172.34 203.582 172.34C203.848 172.34 204.072 172.436 204.254 172.628C204.446 172.82 204.542 173.054 204.542 173.332C204.542 173.609 204.446 173.844 204.254 174.036C204.072 174.228 203.848 174.324 203.582 174.324ZM204.286 175.748V184.516H202.83V175.748H204.286ZM208.543 176.948V182.116C208.543 182.542 208.634 182.846 208.815 183.028C208.996 183.198 209.311 183.284 209.759 183.284H210.831V184.516H209.519C208.708 184.516 208.1 184.329 207.695 183.956C207.29 183.582 207.087 182.969 207.087 182.116V176.948H205.951V175.748H207.087V173.54H208.543V175.748H210.831V176.948H208.543ZM216.419 184.66C215.598 184.66 214.851 184.473 214.179 184.1C213.518 183.726 212.995 183.198 212.611 182.516C212.238 181.822 212.051 181.022 212.051 180.116C212.051 179.22 212.243 178.43 212.627 177.748C213.022 177.054 213.555 176.526 214.227 176.164C214.899 175.79 215.651 175.604 216.483 175.604C217.315 175.604 218.067 175.79 218.739 176.164C219.411 176.526 219.939 177.049 220.323 177.732C220.718 178.414 220.915 179.209 220.915 180.116C220.915 181.022 220.713 181.822 220.307 182.516C219.913 183.198 219.374 183.726 218.691 184.1C218.009 184.473 217.251 184.66 216.419 184.66ZM216.419 183.38C216.942 183.38 217.433 183.257 217.891 183.012C218.35 182.766 218.718 182.398 218.995 181.908C219.283 181.417 219.427 180.82 219.427 180.116C219.427 179.412 219.289 178.814 219.011 178.324C218.734 177.833 218.371 177.47 217.923 177.236C217.475 176.99 216.99 176.868 216.467 176.868C215.934 176.868 215.443 176.99 214.995 177.236C214.558 177.47 214.206 177.833 213.939 178.324C213.673 178.814 213.539 179.412 213.539 180.116C213.539 180.83 213.667 181.433 213.923 181.924C214.19 182.414 214.542 182.782 214.979 183.028C215.417 183.262 215.897 183.38 216.419 183.38ZM225.934 184.66C225.262 184.66 224.659 184.548 224.126 184.324C223.592 184.089 223.171 183.769 222.862 183.364C222.552 182.948 222.382 182.473 222.35 181.94H223.854C223.896 182.377 224.099 182.734 224.462 183.012C224.835 183.289 225.32 183.428 225.918 183.428C226.472 183.428 226.91 183.305 227.23 183.06C227.55 182.814 227.71 182.505 227.71 182.132C227.71 181.748 227.539 181.465 227.198 181.284C226.856 181.092 226.328 180.905 225.614 180.724C224.963 180.553 224.43 180.382 224.014 180.212C223.608 180.03 223.256 179.769 222.958 179.428C222.67 179.076 222.526 178.617 222.526 178.052C222.526 177.604 222.659 177.193 222.926 176.82C223.192 176.446 223.571 176.153 224.062 175.94C224.552 175.716 225.112 175.604 225.742 175.604C226.712 175.604 227.496 175.849 228.094 176.34C228.691 176.83 229.011 177.502 229.054 178.356H227.598C227.566 177.897 227.379 177.529 227.038 177.252C226.707 176.974 226.259 176.836 225.694 176.836C225.171 176.836 224.755 176.948 224.446 177.172C224.136 177.396 223.982 177.689 223.982 178.052C223.982 178.34 224.072 178.58 224.254 178.772C224.446 178.953 224.68 179.102 224.958 179.22C225.246 179.326 225.64 179.449 226.142 179.588C226.771 179.758 227.283 179.929 227.678 180.1C228.072 180.26 228.408 180.505 228.686 180.836C228.974 181.166 229.123 181.598 229.134 182.132C229.134 182.612 229 183.044 228.734 183.428C228.467 183.812 228.088 184.116 227.598 184.34C227.118 184.553 226.563 184.66 225.934 184.66Z" fill="#1F1F1F"/>
<rect x="113.988" y="223.016" width="157" height="39" rx="19.5" stroke="#355E3B"/>
<path d="M155.548 242.916C155.548 241.817 155.794 240.836 156.284 239.972C156.786 239.097 157.463 238.42 158.316 237.94C159.18 237.449 160.146 237.204 161.212 237.204C162.46 237.204 163.554 237.524 164.492 238.164C165.431 238.804 166.087 239.689 166.46 240.82H163.884C163.628 240.286 163.266 239.886 162.796 239.62C162.338 239.353 161.804 239.22 161.196 239.22C160.546 239.22 159.964 239.374 159.452 239.684C158.951 239.982 158.556 240.409 158.268 240.964C157.991 241.518 157.852 242.169 157.852 242.916C157.852 243.652 157.991 244.302 158.268 244.868C158.556 245.422 158.951 245.854 159.452 246.164C159.964 246.462 160.546 246.612 161.196 246.612C161.804 246.612 162.338 246.478 162.796 246.212C163.266 245.934 163.628 245.529 163.884 244.996H166.46C166.087 246.137 165.431 247.028 164.492 247.668C163.564 248.297 162.471 248.612 161.212 248.612C160.146 248.612 159.18 248.372 158.316 247.892C157.463 247.401 156.786 246.724 156.284 245.86C155.794 244.996 155.548 244.014 155.548 242.916ZM167.798 244.052C167.798 243.156 167.974 242.361 168.326 241.668C168.688 240.974 169.174 240.441 169.782 240.068C170.4 239.694 171.088 239.508 171.846 239.508C172.507 239.508 173.083 239.641 173.574 239.908C174.075 240.174 174.475 240.51 174.774 240.916V239.652H177.03V248.516H174.774V247.22C174.486 247.636 174.086 247.982 173.574 248.26C173.072 248.526 172.491 248.66 171.83 248.66C171.083 248.66 170.4 248.468 169.782 248.084C169.174 247.7 168.688 247.161 168.326 246.468C167.974 245.764 167.798 244.958 167.798 244.052ZM174.774 244.084C174.774 243.54 174.667 243.076 174.454 242.692C174.24 242.297 173.952 241.998 173.59 241.796C173.227 241.582 172.838 241.476 172.422 241.476C172.006 241.476 171.622 241.577 171.27 241.78C170.918 241.982 170.63 242.281 170.406 242.676C170.192 243.06 170.086 243.518 170.086 244.052C170.086 244.585 170.192 245.054 170.406 245.46C170.63 245.854 170.918 246.158 171.27 246.372C171.632 246.585 172.016 246.692 172.422 246.692C172.838 246.692 173.227 246.59 173.59 246.388C173.952 246.174 174.24 245.876 174.454 245.492C174.667 245.097 174.774 244.628 174.774 244.084ZM184.129 239.524C185.185 239.524 186.039 239.86 186.689 240.532C187.34 241.193 187.665 242.121 187.665 243.316V248.516H185.425V243.62C185.425 242.916 185.249 242.377 184.897 242.004C184.545 241.62 184.065 241.428 183.457 241.428C182.839 241.428 182.348 241.62 181.985 242.004C181.633 242.377 181.457 242.916 181.457 243.62V248.516H179.217V239.652H181.457V240.756C181.756 240.372 182.135 240.073 182.593 239.86C183.063 239.636 183.575 239.524 184.129 239.524ZM189.219 244.084C189.219 243.166 189.406 242.366 189.779 241.684C190.153 240.99 190.67 240.457 191.331 240.084C191.993 239.7 192.75 239.508 193.603 239.508C194.702 239.508 195.609 239.785 196.323 240.34C197.049 240.884 197.534 241.652 197.779 242.644H195.363C195.235 242.26 195.017 241.961 194.707 241.748C194.409 241.524 194.035 241.412 193.587 241.412C192.947 241.412 192.441 241.646 192.067 242.116C191.694 242.574 191.507 243.23 191.507 244.084C191.507 244.926 191.694 245.582 192.067 246.052C192.441 246.51 192.947 246.74 193.587 246.74C194.494 246.74 195.086 246.334 195.363 245.524H197.779C197.534 246.484 197.049 247.246 196.323 247.812C195.598 248.377 194.691 248.66 193.603 248.66C192.75 248.66 191.993 248.473 191.331 248.1C190.67 247.716 190.153 247.182 189.779 246.5C189.406 245.806 189.219 245.001 189.219 244.084ZM207.66 243.892C207.66 244.212 207.639 244.5 207.596 244.756H201.116C201.17 245.396 201.394 245.897 201.788 246.26C202.183 246.622 202.668 246.804 203.244 246.804C204.076 246.804 204.668 246.446 205.02 245.732H207.436C207.18 246.585 206.69 247.289 205.964 247.844C205.239 248.388 204.348 248.66 203.292 248.66C202.439 248.66 201.671 248.473 200.988 248.1C200.316 247.716 199.788 247.177 199.404 246.484C199.031 245.79 198.844 244.99 198.844 244.084C198.844 243.166 199.031 242.361 199.404 241.668C199.778 240.974 200.3 240.441 200.972 240.068C201.644 239.694 202.418 239.508 203.292 239.508C204.135 239.508 204.887 239.689 205.548 240.052C206.22 240.414 206.738 240.932 207.1 241.604C207.474 242.265 207.66 243.028 207.66 243.892ZM205.34 243.252C205.33 242.676 205.122 242.217 204.716 241.876C204.311 241.524 203.815 241.348 203.228 241.348C202.674 241.348 202.204 241.518 201.82 241.86C201.447 242.19 201.218 242.654 201.132 243.252H205.34ZM211.535 236.676V248.516H209.295V236.676H211.535ZM213.173 244.052C213.173 243.156 213.349 242.361 213.701 241.668C214.063 240.974 214.549 240.441 215.157 240.068C215.775 239.694 216.463 239.508 217.221 239.508C217.882 239.508 218.458 239.641 218.949 239.908C219.45 240.174 219.85 240.51 220.149 240.916V239.652H222.405V248.516H220.149V247.22C219.861 247.636 219.461 247.982 218.949 248.26C218.447 248.526 217.866 248.66 217.205 248.66C216.458 248.66 215.775 248.468 215.157 248.084C214.549 247.7 214.063 247.161 213.701 246.468C213.349 245.764 213.173 244.958 213.173 244.052ZM220.149 244.084C220.149 243.54 220.042 243.076 219.829 242.692C219.615 242.297 219.327 241.998 218.965 241.796C218.602 241.582 218.213 241.476 217.797 241.476C217.381 241.476 216.997 241.577 216.645 241.78C216.293 241.982 216.005 242.281 215.781 242.676C215.567 243.06 215.461 243.518 215.461 244.052C215.461 244.585 215.567 245.054 215.781 245.46C216.005 245.854 216.293 246.158 216.645 246.372C217.007 246.585 217.391 246.692 217.797 246.692C218.213 246.692 218.602 246.59 218.965 246.388C219.327 246.174 219.615 245.876 219.829 245.492C220.042 245.097 220.149 244.628 220.149 244.084ZM226.832 241.028C227.12 240.558 227.494 240.19 227.952 239.924C228.422 239.657 228.955 239.524 229.552 239.524V241.876H228.96C228.256 241.876 227.723 242.041 227.36 242.372C227.008 242.702 226.832 243.278 226.832 244.1V248.516H224.592V239.652H226.832V241.028Z" fill="#355E3B"/>
<rect x="283.488" y="222.516" width="158" height="40" rx="20" fill="#355E3B"/>
<path d="M336.868 240.708C336.612 240.238 336.26 239.881 335.812 239.636C335.364 239.39 334.842 239.268 334.244 239.268C333.583 239.268 332.996 239.417 332.484 239.716C331.972 240.014 331.572 240.441 331.284 240.996C330.996 241.55 330.852 242.19 330.852 242.916C330.852 243.662 330.996 244.313 331.284 244.868C331.583 245.422 331.994 245.849 332.516 246.148C333.039 246.446 333.647 246.596 334.34 246.596C335.194 246.596 335.892 246.372 336.436 245.924C336.98 245.465 337.338 244.83 337.508 244.02H333.668V242.308H339.716V244.26C339.567 245.038 339.247 245.758 338.756 246.42C338.266 247.081 337.631 247.614 336.852 248.02C336.084 248.414 335.22 248.612 334.26 248.612C333.183 248.612 332.207 248.372 331.332 247.892C330.468 247.401 329.786 246.724 329.284 245.86C328.794 244.996 328.548 244.014 328.548 242.916C328.548 241.817 328.794 240.836 329.284 239.972C329.786 239.097 330.468 238.42 331.332 237.94C332.207 237.449 333.178 237.204 334.244 237.204C335.503 237.204 336.596 237.513 337.524 238.132C338.452 238.74 339.092 239.598 339.444 240.708H336.868ZM349.742 239.652V248.516H347.486V247.396C347.198 247.78 346.819 248.084 346.35 248.308C345.891 248.521 345.39 248.628 344.846 248.628C344.152 248.628 343.539 248.484 343.006 248.196C342.472 247.897 342.051 247.465 341.742 246.9C341.443 246.324 341.294 245.641 341.294 244.852V239.652H343.534V244.532C343.534 245.236 343.71 245.78 344.062 246.164C344.414 246.537 344.894 246.724 345.502 246.724C346.12 246.724 346.606 246.537 346.958 246.164C347.31 245.78 347.486 245.236 347.486 244.532V239.652H349.742ZM351.376 244.052C351.376 243.156 351.552 242.361 351.904 241.668C352.266 240.974 352.752 240.441 353.36 240.068C353.978 239.694 354.666 239.508 355.424 239.508C356.085 239.508 356.661 239.641 357.152 239.908C357.653 240.174 358.053 240.51 358.352 240.916V239.652H360.608V248.516H358.352V247.22C358.064 247.636 357.664 247.982 357.152 248.26C356.65 248.526 356.069 248.66 355.408 248.66C354.661 248.66 353.978 248.468 353.36 248.084C352.752 247.7 352.266 247.161 351.904 246.468C351.552 245.764 351.376 244.958 351.376 244.052ZM358.352 244.084C358.352 243.54 358.245 243.076 358.032 242.692C357.818 242.297 357.53 241.998 357.168 241.796C356.805 241.582 356.416 241.476 356 241.476C355.584 241.476 355.2 241.577 354.848 241.78C354.496 241.982 354.208 242.281 353.984 242.676C353.77 243.06 353.664 243.518 353.664 244.052C353.664 244.585 353.77 245.054 353.984 245.46C354.208 245.854 354.496 246.158 354.848 246.372C355.21 246.585 355.594 246.692 356 246.692C356.416 246.692 356.805 246.59 357.168 246.388C357.53 246.174 357.818 245.876 358.032 245.492C358.245 245.097 358.352 244.628 358.352 244.084ZM365.035 241.028C365.323 240.558 365.697 240.19 366.155 239.924C366.625 239.657 367.158 239.524 367.755 239.524V241.876H367.163C366.459 241.876 365.926 242.041 365.563 242.372C365.211 242.702 365.035 243.278 365.035 244.1V248.516H362.795V239.652H365.035V241.028ZM368.688 244.052C368.688 243.156 368.864 242.361 369.216 241.668C369.579 240.974 370.069 240.441 370.688 240.068C371.307 239.694 371.995 239.508 372.752 239.508C373.328 239.508 373.877 239.636 374.4 239.892C374.923 240.137 375.339 240.468 375.648 240.884V236.676H377.92V248.516H375.648V247.204C375.371 247.641 374.981 247.993 374.48 248.26C373.979 248.526 373.397 248.66 372.736 248.66C371.989 248.66 371.307 248.468 370.688 248.084C370.069 247.7 369.579 247.161 369.216 246.468C368.864 245.764 368.688 244.958 368.688 244.052ZM375.664 244.084C375.664 243.54 375.557 243.076 375.344 242.692C375.131 242.297 374.843 241.998 374.48 241.796C374.117 241.582 373.728 241.476 373.312 241.476C372.896 241.476 372.512 241.577 372.16 241.78C371.808 241.982 371.52 242.281 371.296 242.676C371.083 243.06 370.976 243.518 370.976 244.052C370.976 244.585 371.083 245.054 371.296 245.46C371.52 245.854 371.808 246.158 372.16 246.372C372.523 246.585 372.907 246.692 373.312 246.692C373.728 246.692 374.117 246.59 374.48 246.388C374.843 246.174 375.131 245.876 375.344 245.492C375.557 245.097 375.664 244.628 375.664 244.084ZM379.532 244.052C379.532 243.156 379.708 242.361 380.06 241.668C380.423 240.974 380.908 240.441 381.516 240.068C382.135 239.694 382.823 239.508 383.58 239.508C384.241 239.508 384.817 239.641 385.308 239.908C385.809 240.174 386.209 240.51 386.508 240.916V239.652H388.764V248.516H386.508V247.22C386.22 247.636 385.82 247.982 385.308 248.26C384.807 248.526 384.225 248.66 383.564 248.66C382.817 248.66 382.135 248.468 381.516 248.084C380.908 247.7 380.423 247.161 380.06 246.468C379.708 245.764 379.532 244.958 379.532 244.052ZM386.508 244.084C386.508 243.54 386.401 243.076 386.188 242.692C385.975 242.297 385.687 241.998 385.324 241.796C384.961 241.582 384.572 241.476 384.156 241.476C383.74 241.476 383.356 241.577 383.004 241.78C382.652 241.982 382.364 242.281 382.14 242.676C381.927 243.06 381.82 243.518 381.82 244.052C381.82 244.585 381.927 245.054 382.14 245.46C382.364 245.854 382.652 246.158 383.004 246.372C383.367 246.585 383.751 246.692 384.156 246.692C384.572 246.692 384.961 246.59 385.324 246.388C385.687 246.174 385.975 245.876 386.188 245.492C386.401 245.097 386.508 244.628 386.508 244.084ZM393.192 241.028C393.48 240.558 393.853 240.19 394.312 239.924C394.781 239.657 395.314 239.524 395.912 239.524V241.876H395.32C394.616 241.876 394.082 242.041 393.72 242.372C393.368 242.702 393.192 243.278 393.192 244.1V248.516H390.952V239.652H393.192V241.028Z" fill="#F7F6EB"/>
<rect x="87" y="79" width="380" height="211" rx="24" fill="#F7F6EB"/>
<rect x="82.4072" y="75.6211" width="388" height="215.894" rx="21" stroke="#A8C686" stroke-width="6"/>
<path d="M121.881 92.994C129.286 87.2184 133.87 81.3217 136.191 77.4955C137.361 75.5667 137.932 73.1682 139.624 71.6762C140.603 70.8133 142.241 70.6108 146.703 71.1406C149.139 71.4298 150.659 73.8999 149.608 76.1166C147.629 80.2906 144.867 84.3754 142.328 87.9363C138.041 93.9488 132.738 99.5594 126.238 103.066C117.612 107.72 106.736 112.676 98.5795 113.882C95.6926 114.308 92.7393 114.359 89.9073 115.063C81.4226 117.173 79.2826 119.58 79.3574 120.638V128.084C79.3574 128.444 79.4052 128.803 79.4997 129.151C79.1006 128.993 78.7212 128.791 78.3606 128.551C68.5912 122.054 77.2891 104.925 88.976 103.892C89.3664 103.857 89.7513 103.839 90.1291 103.839C98.0671 103.839 109.613 102.563 121.881 92.994Z" fill="#A8C686"/>
<path d="M454.442 214.755C442.21 190.121 460.779 180.02 471.842 177.13C474.545 176.125 478.374 172.548 474.829 165.767C473.906 163.999 471.654 163.54 469.924 164.532C462.488 168.795 457.746 172.319 451.159 177.13C443.314 182.848 430.808 199.235 443.545 219.041C459.466 243.798 469.893 251.662 469.027 260.863C468.391 267.623 469.264 272.777 469.902 274.974C470.002 275.316 470.041 275.672 469.994 276.025C469.699 278.226 472.136 279.244 473.206 277.298C478.529 267.613 479.874 254.833 477.367 247.385C476.017 243.376 471.131 240.849 468.554 237.495C465.526 233.556 460.973 226.565 454.442 214.755Z" fill="#A8C686"/>
<defs>
<clipPath id="clip0_970_3190">
<rect width="20" height="20" fill="white" transform="translate(129.488 170.516)"/>
</clipPath>
</defs>
</svg>
