<svg width="440" height="956" viewBox="0 0 440 956" fill="none" xmlns="http://www.w3.org/2000/svg">
<path d="M412.013 -23C479.399 -23 534.025 24.9344 534.025 84.0645C534.025 86.1721 533.956 88.2656 533.819 90.3431C532.322 113.061 547.111 140.795 569.878 140.795H744.225C759.689 140.795 772.225 153.331 772.225 168.795V927.795C772.225 943.259 759.689 955.795 744.225 955.795H-182.775C-198.239 955.795 -210.775 943.259 -210.775 927.795V325.114C-210.775 312.358 -219.496 301.425 -231.385 296.802C-291.242 273.528 -333 220.939 -333 159.79C-333 77.0636 -256.574 10.0002 -162.297 10C-96.987 10 -40.2458 42.1848 -11.5421 89.464C-9.85138 92.2487 -6.97394 94.1134 -3.77591 94.7346C-2.13583 95.0532 -0.468414 95.0224 1.16074 94.652C5.90256 93.5739 10.876 93 16.002 93C35.0017 93.0001 51.903 100.881 62.6938 113.12C70.3254 121.777 81.083 128.731 92.623 128.731C93.6396 128.731 94.653 128.744 95.6629 128.768C113.98 129.209 133.353 115.721 146.582 103.044C157.369 92.708 172.875 86.2266 190.105 86.2266C199.234 86.2266 207.879 88.046 215.594 91.2941C230.468 97.5558 249.311 99.8363 263.68 92.49C265.746 91.4334 267.852 90.4285 269.993 89.4774C281.468 84.3818 289.739 73.6454 292.727 61.4513C304.555 13.1812 353.468 -22.9999 412.013 -23Z" fill="#F7F6EB"/>
</svg>
