<svg width="440" height="366" viewBox="0 0 440 366" fill="none" xmlns="http://www.w3.org/2000/svg">
<path d="M400.931 34.4261C400.381 33.8144 399.663 33.4669 398.777 33.3836C397.89 33.3004 397.115 33.5077 396.452 34.0055C392.064 37.299 388.532 40.9259 385.854 44.8862C383.176 48.8465 381.282 52.9074 380.174 57.069C379.065 61.2304 378.382 66.0675 378.124 71.5799C378.083 72.4379 378.316 73.1492 378.824 73.7139C379.373 74.3256 380.091 74.6731 380.978 74.7563C381.864 74.8396 382.639 74.6323 383.302 74.1344C383.915 73.6749 384.288 73.0206 384.422 72.1714C384.603 71.0897 384.796 69.5459 385.002 67.5401C385.207 65.5342 385.364 64.1164 385.472 63.2864C386.345 57.7454 387.909 53.1043 390.165 49.3628C392.42 45.6213 395.869 42.0081 400.512 38.5231C401.175 38.0253 401.548 37.3709 401.631 36.56C401.714 35.7491 401.48 35.0379 400.931 34.4261ZM414.243 12.7322C416.252 14.9675 418.037 17.4295 419.599 20.1183C423.161 26.2696 424.857 32.5419 424.685 38.935C424.514 45.3282 422.787 51.9037 419.505 58.6618C416.329 65.3007 411.884 70.7647 406.17 75.0535C402.395 77.8878 398.25 80.0731 393.736 81.6099C393.247 81.7795 391.681 82.1277 389.036 82.6547C386.392 83.1817 384.776 83.6657 384.19 84.1066C383.781 84.4128 383.616 85.1676 383.693 86.3703C383.77 87.5731 383.936 88.8275 384.191 90.133C384.446 91.4392 384.516 92.7655 384.402 94.112C384.288 95.4584 383.861 96.4094 383.121 96.9642C382.024 97.7876 381.029 98.1897 380.136 98.1704C379.243 98.1518 378.034 97.887 376.508 97.3775C376.373 97.3215 376.18 97.25 375.93 97.1618C375.68 97.0735 375.504 97.0087 375.402 96.9667C375.3 96.9247 375.162 96.8415 374.986 96.7179C374.81 96.5936 374.648 96.4487 374.501 96.2841C373.761 95.4608 373.379 94.2992 373.356 92.8C373.333 91.3 373.507 89.8785 373.88 88.5347C374.253 87.1908 374.529 85.8809 374.707 84.6056C374.884 83.3296 374.772 82.468 374.37 82.0208C374.286 81.9266 373.705 81.6134 372.63 81.0819C371.554 80.5497 370.884 80.1854 370.622 79.9885C369.314 78.9607 368.1 77.8235 366.979 76.5764C364.548 73.8706 362.777 70.8659 361.667 67.5624C360.556 64.2589 360.124 60.9491 360.369 57.6328C360.614 54.3166 361.319 51.049 362.485 47.8299C363.65 44.6108 365.243 41.5342 367.262 38.6C368.285 37.1234 369.864 35.4351 372.002 33.5353C374.139 31.6355 376.333 29.8111 378.585 28.062C380.836 26.313 383.05 24.5334 385.225 22.7234C387.4 20.9133 389.232 19.0656 390.72 17.1802C392.208 15.2949 393.059 13.5436 393.271 11.9262L393.465 10.0377L393.705 8.20222L394.104 6.72086L394.993 5.10781L396.515 3.69957C397.51 2.95279 398.896 2.81899 400.672 3.29817C402.448 3.77733 404.238 4.64019 406.041 5.88673C407.845 7.13329 409.462 8.36234 410.892 9.57384C412.323 10.7853 413.44 11.8382 414.243 12.7322Z" fill="#A8C686"/>
<path d="M445.885 99.7977C446.254 99.0813 446.29 98.339 445.992 97.571C445.694 96.8029 445.157 96.2514 444.381 95.9168C439.247 93.7028 434.15 92.3381 429.09 91.8228C424.029 91.3074 419.206 91.4833 414.619 92.3507C410.033 93.218 404.961 94.7264 399.404 96.8757C398.539 97.2098 397.937 97.7075 397.596 98.3688C397.227 99.0852 397.192 99.8274 397.49 100.596C397.787 101.364 398.324 101.915 399.1 102.25C399.817 102.559 400.623 102.586 401.519 102.333C402.666 102.019 404.274 101.518 406.343 100.827C408.413 100.137 409.881 99.6594 410.748 99.3933C416.596 97.7401 421.852 97.0434 426.514 97.3033C431.177 97.5632 436.225 98.8645 441.658 101.207C442.434 101.542 443.24 101.57 444.077 101.291C444.914 101.012 445.516 100.514 445.885 99.7977ZM473.023 101.5C471.676 104.117 470.008 106.648 468.021 109.091C463.471 114.67 458.001 118.76 451.611 121.358C445.222 123.956 437.985 125.348 429.902 125.532C421.982 125.753 414.679 124.422 407.993 121.539C403.574 119.634 399.639 117.146 396.186 114.074C395.81 113.743 394.794 112.598 393.14 110.639C391.486 108.68 390.315 107.552 389.628 107.257C389.151 107.051 388.334 107.237 387.179 107.816C386.024 108.395 384.856 109.07 383.675 109.84C382.494 110.611 381.214 111.238 379.835 111.72C378.456 112.203 377.333 112.258 376.468 111.884C375.184 111.331 374.361 110.681 373.997 109.935C373.633 109.189 373.376 108.076 373.225 106.597C373.223 106.461 373.211 106.271 373.191 106.027C373.171 105.782 373.159 105.609 373.157 105.507C373.155 105.405 373.178 105.255 373.225 105.057C373.272 104.858 373.346 104.662 373.445 104.47C373.941 103.505 374.925 102.692 376.397 102.031C377.869 101.368 379.348 100.904 380.836 100.636C382.323 100.368 383.735 100.034 385.071 99.6348C386.408 99.2347 387.211 98.7729 387.481 98.2493C387.538 98.139 387.598 97.5253 387.662 96.4085C387.727 95.2912 387.8 94.5822 387.882 94.281C388.337 92.7598 388.94 91.2691 389.692 89.8088C391.323 86.6401 393.533 83.8891 396.321 81.5559C399.108 79.2227 402.193 77.4467 405.574 76.228C408.956 75.0093 412.486 74.1917 416.166 73.7751C419.846 73.3584 423.568 73.3557 427.332 73.7668C429.229 73.9788 431.574 74.5607 434.367 75.5125C437.16 76.4643 439.903 77.4956 442.596 78.6063C445.289 79.717 447.995 80.7831 450.716 81.8047C453.436 82.8263 456.047 83.548 458.547 83.9696C461.048 84.3913 463.142 84.3434 464.831 83.8259L466.78 83.1763L468.697 82.5886L470.331 82.2833L472.306 82.3267L474.349 82.9806C475.513 83.4827 476.239 84.5701 476.527 86.243C476.815 87.916 476.73 89.7647 476.271 91.7892C475.812 93.8137 475.291 95.6765 474.707 97.3776C474.123 99.0787 473.562 100.453 473.023 101.5Z" fill="#A8C686"/>
<path d="M30.8095 330.866C31.3592 331.478 32.0772 331.825 32.9636 331.908C33.85 331.992 34.6249 331.784 35.2882 331.286C39.6758 327.993 43.2086 324.366 45.8865 320.406C48.5644 316.445 50.4578 312.385 51.5666 308.223C52.6754 304.062 53.3587 299.224 53.6167 293.712C53.6574 292.854 53.424 292.143 52.9165 291.578C52.3669 290.966 51.6488 290.619 50.7624 290.536C49.876 290.452 49.1011 290.66 48.4379 291.158C47.8257 291.617 47.4525 292.271 47.3186 293.121C47.1372 294.202 46.9439 295.746 46.7387 297.752C46.5334 299.758 46.3765 301.176 46.268 302.006C45.3949 307.547 43.8308 312.188 41.5756 315.929C39.3205 319.671 35.8715 323.284 31.2287 326.769C30.5654 327.267 30.1924 327.921 30.1094 328.732C30.0264 329.543 30.2597 330.254 30.8095 330.866ZM17.4973 352.56C15.4887 350.325 13.7035 347.862 12.1417 345.174C8.57922 339.022 6.88363 332.75 7.05504 326.357C7.22645 319.964 8.95322 313.388 12.2354 306.63C15.4111 299.991 19.856 294.527 25.5703 290.238C29.3456 287.404 33.4904 285.219 38.0045 283.682C38.4929 283.513 40.0593 283.164 42.7039 282.637C45.3484 282.11 46.964 281.626 47.5507 281.185C47.9588 280.879 48.1244 280.124 48.0473 278.922C47.9703 277.719 47.8042 276.464 47.5493 275.159C47.2943 273.853 47.2238 272.527 47.3381 271.18C47.4523 269.834 47.8793 268.883 48.6192 268.328C49.7162 267.504 50.7111 267.102 51.6041 267.122C52.4969 267.14 53.7063 267.405 55.2321 267.915C55.3677 267.971 55.5604 268.042 55.8105 268.13C56.0606 268.219 56.2364 268.283 56.3381 268.325C56.4398 268.367 56.5785 268.45 56.7541 268.574C56.9298 268.698 57.0918 268.843 57.2397 269.008C57.9797 269.831 58.3613 270.993 58.3845 272.492C58.4077 273.992 58.2328 275.414 57.8598 276.757C57.4868 278.101 57.2115 279.411 57.0337 280.686C56.8561 281.962 56.9681 282.824 57.3698 283.271C57.4544 283.365 58.0347 283.679 59.1106 284.21C60.1867 284.742 60.8559 285.107 61.1183 285.303C62.4262 286.331 63.6404 287.469 64.761 288.716C67.1924 291.421 68.9633 294.426 70.0736 297.73C71.1839 301.033 71.6165 304.343 71.3714 307.659C71.1262 310.975 70.4209 314.243 69.2555 317.462C68.09 320.681 66.4976 323.758 64.4781 326.692C63.4557 328.169 61.8758 329.857 59.7385 331.757C57.6011 333.656 55.4067 335.481 53.1553 337.23C50.9039 338.979 48.6906 340.759 46.5154 342.569C44.3401 344.379 42.5084 346.226 41.0202 348.112C39.532 349.997 38.6816 351.748 38.469 353.366L38.2757 355.254L38.0349 357.09L37.636 358.571L36.7468 360.184L35.225 361.592C34.2301 362.339 32.8446 362.473 31.0685 361.994C29.2923 361.515 27.5025 360.652 25.6989 359.405C23.8953 358.159 22.2783 356.93 20.848 355.718C19.4176 354.507 18.3007 353.454 17.4973 352.56Z" fill="#A8C686"/>
<path d="M-14.145 265.494C-14.5138 266.21 -14.5494 266.953 -14.2517 267.721C-13.9541 268.489 -13.4172 269.04 -12.6411 269.375C-7.50684 271.589 -2.40955 272.954 2.65065 273.469C7.71096 273.984 12.5344 273.808 17.121 272.941C21.7075 272.074 26.7792 270.565 32.3358 268.416C33.2008 268.082 33.8036 267.584 34.1439 266.923C34.5128 266.207 34.5483 265.464 34.2506 264.696C33.953 263.928 33.4161 263.377 32.64 263.042C31.9237 262.733 31.1173 262.705 30.2209 262.959C29.0745 263.272 27.4665 263.774 25.3969 264.464C23.3272 265.154 21.8592 265.632 20.9927 265.898C15.1443 267.552 9.88871 268.248 5.22581 267.988C0.562905 267.729 -4.48495 266.427 -9.91771 264.085C-10.6938 263.75 -11.5002 263.722 -12.3368 264.001C-13.1735 264.28 -13.7762 264.778 -14.145 265.494ZM-41.2828 263.792C-39.9353 261.174 -38.268 258.644 -36.2809 256.201C-31.7305 250.621 -26.2606 246.532 -19.871 243.934C-13.4814 241.336 -6.24498 239.944 1.83833 239.76C9.75827 239.539 17.0614 240.87 23.7476 243.753C28.1657 245.658 32.101 248.146 35.5539 251.217C35.9307 251.548 36.9461 252.693 38.6002 254.653C40.2542 256.612 41.4248 257.739 42.1118 258.035C42.5892 258.241 43.4059 258.055 44.5611 257.475C45.7163 256.896 46.8845 256.221 48.065 255.451C49.2461 254.681 50.5263 254.054 51.9055 253.572C53.2847 253.089 54.4072 253.034 55.2724 253.408C56.5561 253.961 57.3797 254.611 57.7433 255.357C58.1076 256.103 58.3643 257.216 58.5148 258.695C58.5176 258.831 58.5296 259.021 58.5496 259.265C58.5696 259.509 58.5809 259.682 58.583 259.785C58.5851 259.887 58.5624 260.037 58.5155 260.235C58.468 260.433 58.3943 260.629 58.295 260.822C57.7988 261.786 56.8147 262.6 55.3435 263.261C53.8716 263.923 52.3922 264.388 50.9047 264.656C49.4173 264.923 48.0051 265.257 46.669 265.657C45.3322 266.057 44.529 266.519 44.2594 267.042C44.2026 267.153 44.1419 267.766 44.0778 268.883C44.0132 270.001 43.9401 270.71 43.8581 271.011C43.4032 272.532 42.8 274.023 42.0482 275.483C40.4171 278.652 38.2075 281.403 35.4196 283.736C32.6318 286.069 29.5472 287.845 26.1659 289.064C22.7845 290.282 19.254 291.1 15.5742 291.517C11.8945 291.933 8.17246 291.936 4.40814 291.525C2.51109 291.313 0.166043 290.731 -2.62685 289.779C-5.4198 288.827 -8.16266 287.796 -10.8556 286.685C-13.5484 285.575 -16.2551 284.509 -18.9756 283.487C-21.6961 282.465 -24.3066 281.744 -26.8071 281.322C-29.3075 280.9 -31.4022 280.948 -33.0912 281.466L-35.0397 282.115L-36.9563 282.703L-38.5908 283.008L-40.5655 282.965L-42.609 282.311C-43.7732 281.809 -44.4991 280.722 -44.7869 279.049C-45.0747 277.376 -44.9894 275.527 -44.5308 273.503C-44.0722 271.478 -43.551 269.615 -42.9671 267.914C-42.3832 266.213 -41.8218 264.839 -41.2828 263.792Z" fill="#A8C686"/>
<rect x="25.8711" y="78.5159" width="392" height="216" rx="24" fill="#F7F6EB"/>
<path d="M167.215 119.156V121.956H170.975V123.732H167.215V126.692H171.455V128.516H164.975V117.332H171.455V119.156H167.215ZM172.915 124.052C172.915 123.156 173.091 122.361 173.443 121.668C173.805 120.975 174.296 120.441 174.915 120.068C175.533 119.695 176.221 119.508 176.979 119.508C177.555 119.508 178.104 119.636 178.627 119.892C179.149 120.137 179.565 120.468 179.875 120.884V116.676H182.147V128.516H179.875V127.204C179.597 127.641 179.208 127.993 178.707 128.26C178.205 128.527 177.624 128.66 176.963 128.66C176.216 128.66 175.533 128.468 174.915 128.084C174.296 127.7 173.805 127.161 173.443 126.468C173.091 125.764 172.915 124.959 172.915 124.052ZM179.891 124.084C179.891 123.54 179.784 123.076 179.571 122.692C179.357 122.297 179.069 121.999 178.707 121.796C178.344 121.583 177.955 121.476 177.539 121.476C177.123 121.476 176.739 121.577 176.387 121.78C176.035 121.983 175.747 122.281 175.523 122.676C175.309 123.06 175.203 123.519 175.203 124.052C175.203 124.585 175.309 125.055 175.523 125.46C175.747 125.855 176.035 126.159 176.387 126.372C176.749 126.585 177.133 126.692 177.539 126.692C177.955 126.692 178.344 126.591 178.707 126.388C179.069 126.175 179.357 125.876 179.571 125.492C179.784 125.097 179.891 124.628 179.891 124.084ZM185.47 118.596C185.076 118.596 184.745 118.473 184.478 118.228C184.222 117.972 184.094 117.657 184.094 117.284C184.094 116.911 184.222 116.601 184.478 116.356C184.745 116.1 185.076 115.972 185.47 115.972C185.865 115.972 186.19 116.1 186.446 116.356C186.713 116.601 186.846 116.911 186.846 117.284C186.846 117.657 186.713 117.972 186.446 118.228C186.19 118.473 185.865 118.596 185.47 118.596ZM186.574 119.652V128.516H184.334V119.652H186.574ZM191.396 121.492V125.78C191.396 126.079 191.465 126.297 191.604 126.436C191.753 126.564 191.998 126.628 192.34 126.628H193.38V128.516H191.972C190.084 128.516 189.14 127.599 189.14 125.764V121.492H188.084V119.652H189.14V117.46H191.396V119.652H193.38V121.492H191.396ZM194.415 124.052C194.415 123.156 194.591 122.361 194.943 121.668C195.305 120.975 195.791 120.441 196.399 120.068C197.017 119.695 197.705 119.508 198.463 119.508C199.124 119.508 199.7 119.641 200.191 119.908C200.692 120.175 201.092 120.511 201.391 120.916V119.652H203.647V128.516H201.391V127.22C201.103 127.636 200.703 127.983 200.191 128.26C199.689 128.527 199.108 128.66 198.447 128.66C197.7 128.66 197.017 128.468 196.399 128.084C195.791 127.7 195.305 127.161 194.943 126.468C194.591 125.764 194.415 124.959 194.415 124.052ZM201.391 124.084C201.391 123.54 201.284 123.076 201.071 122.692C200.857 122.297 200.569 121.999 200.207 121.796C199.844 121.583 199.455 121.476 199.039 121.476C198.623 121.476 198.239 121.577 197.887 121.78C197.535 121.983 197.247 122.281 197.023 122.676C196.809 123.06 196.703 123.519 196.703 124.052C196.703 124.585 196.809 125.055 197.023 125.46C197.247 125.855 197.535 126.159 197.887 126.372C198.249 126.585 198.633 126.692 199.039 126.692C199.455 126.692 199.844 126.591 200.207 126.388C200.569 126.175 200.857 125.876 201.071 125.492C201.284 125.097 201.391 124.628 201.391 124.084ZM208.074 121.028C208.362 120.559 208.736 120.191 209.194 119.924C209.664 119.657 210.197 119.524 210.794 119.524V121.876H210.202C209.498 121.876 208.965 122.041 208.602 122.372C208.25 122.703 208.074 123.279 208.074 124.1V128.516H205.834V119.652H208.074V121.028ZM221.028 119.524C222.084 119.524 222.937 119.86 223.588 120.532C224.238 121.193 224.564 122.121 224.564 123.316V128.516H222.324V123.62C222.324 122.916 222.148 122.377 221.796 122.004C221.444 121.62 220.964 121.428 220.356 121.428C219.737 121.428 219.246 121.62 218.884 122.004C218.532 122.377 218.356 122.916 218.356 123.62V128.516H216.116V119.652H218.356V120.756C218.654 120.372 219.033 120.073 219.492 119.86C219.961 119.636 220.473 119.524 221.028 119.524ZM230.63 128.66C229.777 128.66 229.009 128.473 228.326 128.1C227.643 127.716 227.105 127.177 226.71 126.484C226.326 125.791 226.134 124.991 226.134 124.084C226.134 123.177 226.331 122.377 226.726 121.684C227.131 120.991 227.681 120.457 228.374 120.084C229.067 119.7 229.841 119.508 230.694 119.508C231.547 119.508 232.321 119.7 233.014 120.084C233.707 120.457 234.251 120.991 234.646 121.684C235.051 122.377 235.254 123.177 235.254 124.084C235.254 124.991 235.046 125.791 234.63 126.484C234.225 127.177 233.67 127.716 232.966 128.1C232.273 128.473 231.494 128.66 230.63 128.66ZM230.63 126.708C231.035 126.708 231.414 126.612 231.766 126.42C232.129 126.217 232.417 125.919 232.63 125.524C232.843 125.129 232.95 124.649 232.95 124.084C232.95 123.241 232.726 122.596 232.278 122.148C231.841 121.689 231.302 121.46 230.662 121.46C230.022 121.46 229.483 121.689 229.046 122.148C228.619 122.596 228.406 123.241 228.406 124.084C228.406 124.927 228.614 125.577 229.03 126.036C229.457 126.484 229.99 126.708 230.63 126.708ZM247.905 119.524C248.993 119.524 249.868 119.86 250.529 120.532C251.201 121.193 251.537 122.121 251.537 123.316V128.516H249.297V123.62C249.297 122.927 249.121 122.399 248.769 122.036C248.417 121.663 247.937 121.476 247.329 121.476C246.721 121.476 246.236 121.663 245.873 122.036C245.521 122.399 245.345 122.927 245.345 123.62V128.516H243.105V123.62C243.105 122.927 242.929 122.399 242.577 122.036C242.225 121.663 241.745 121.476 241.137 121.476C240.518 121.476 240.028 121.663 239.665 122.036C239.313 122.399 239.137 122.927 239.137 123.62V128.516H236.897V119.652H239.137V120.724C239.425 120.351 239.793 120.057 240.241 119.844C240.7 119.631 241.201 119.524 241.745 119.524C242.438 119.524 243.057 119.673 243.601 119.972C244.145 120.26 244.566 120.676 244.865 121.22C245.153 120.708 245.569 120.297 246.113 119.988C246.668 119.679 247.265 119.524 247.905 119.524ZM255.903 120.948C256.191 120.521 256.585 120.175 257.087 119.908C257.599 119.641 258.18 119.508 258.831 119.508C259.588 119.508 260.271 119.695 260.879 120.068C261.497 120.441 261.983 120.975 262.335 121.668C262.697 122.351 262.879 123.145 262.879 124.052C262.879 124.959 262.697 125.764 262.335 126.468C261.983 127.161 261.497 127.7 260.879 128.084C260.271 128.468 259.588 128.66 258.831 128.66C258.169 128.66 257.588 128.532 257.087 128.276C256.596 128.009 256.201 127.668 255.903 127.252V128.516H253.663V116.676H255.903V120.948ZM260.591 124.052C260.591 123.519 260.479 123.06 260.255 122.676C260.041 122.281 259.753 121.983 259.391 121.78C259.039 121.577 258.655 121.476 258.239 121.476C257.833 121.476 257.449 121.583 257.087 121.796C256.735 121.999 256.447 122.297 256.223 122.692C256.009 123.087 255.903 123.551 255.903 124.084C255.903 124.617 256.009 125.081 256.223 125.476C256.447 125.871 256.735 126.175 257.087 126.388C257.449 126.591 257.833 126.692 258.239 126.692C258.655 126.692 259.039 126.585 259.391 126.372C259.753 126.159 260.041 125.855 260.255 125.46C260.479 125.065 260.591 124.596 260.591 124.052ZM266.746 121.028C267.034 120.559 267.408 120.191 267.866 119.924C268.336 119.657 268.869 119.524 269.466 119.524V121.876H268.874C268.17 121.876 267.637 122.041 267.274 122.372C266.922 122.703 266.746 123.279 266.746 124.1V128.516H264.506V119.652H266.746V121.028ZM279.215 123.892C279.215 124.212 279.194 124.5 279.151 124.756H272.671C272.724 125.396 272.948 125.897 273.343 126.26C273.738 126.623 274.223 126.804 274.799 126.804C275.631 126.804 276.223 126.447 276.575 125.732H278.991C278.735 126.585 278.244 127.289 277.519 127.844C276.794 128.388 275.903 128.66 274.847 128.66C273.994 128.66 273.226 128.473 272.543 128.1C271.871 127.716 271.343 127.177 270.959 126.484C270.586 125.791 270.399 124.991 270.399 124.084C270.399 123.167 270.586 122.361 270.959 121.668C271.332 120.975 271.855 120.441 272.527 120.068C273.199 119.695 273.972 119.508 274.847 119.508C275.69 119.508 276.442 119.689 277.103 120.052C277.775 120.415 278.292 120.932 278.655 121.604C279.028 122.265 279.215 123.028 279.215 123.892ZM276.895 123.252C276.884 122.676 276.676 122.217 276.271 121.876C275.866 121.524 275.37 121.348 274.783 121.348C274.228 121.348 273.759 121.519 273.375 121.86C273.002 122.191 272.772 122.655 272.687 123.252H276.895Z" fill="#1F1F1F"/>
<rect x="57.8711" y="158.516" width="328" height="40" rx="20" fill="#E5E9E4"/>
<g clip-path="url(#clip0_970_3190)">
<path fill-rule="evenodd" clip-rule="evenodd" d="M83.8711 170.516C83.974 170.516 84.0753 170.541 84.166 170.59C84.2568 170.639 84.3341 170.709 84.3911 170.795L88.1411 176.42C88.2037 176.514 88.2396 176.623 88.245 176.736C88.2504 176.849 88.2251 176.961 88.1718 177.061C88.1184 177.161 88.039 177.244 87.942 177.302C87.845 177.36 87.7341 177.391 87.6211 177.391H87.4986L90.0261 181.435C90.0852 181.529 90.1179 181.638 90.1209 181.749C90.1238 181.861 90.0968 181.971 90.0427 182.069C89.9886 182.166 89.9094 182.248 89.8133 182.304C89.7172 182.361 89.6076 182.391 89.4961 182.391H89.2573L91.3048 186.486C91.3526 186.581 91.3752 186.687 91.3704 186.794C91.3657 186.9 91.3339 187.004 91.2779 187.094C91.2219 187.185 91.1436 187.26 91.0505 187.312C90.9575 187.364 90.8527 187.391 90.7461 187.391H76.9961C76.8895 187.391 76.7847 187.364 76.6916 187.312C76.5985 187.26 76.5203 187.185 76.4643 187.094C76.4083 187.004 76.3764 186.9 76.3717 186.794C76.367 186.687 76.3896 186.581 76.4373 186.486L78.4836 182.391H78.2461C78.1345 182.391 78.025 182.361 77.9288 182.304C77.8327 182.248 77.7535 182.166 77.6994 182.069C77.6453 181.971 77.6184 181.861 77.6213 181.749C77.6242 181.638 77.6569 181.529 77.7161 181.435L80.2436 177.391H80.1211C80.008 177.391 79.8971 177.36 79.8001 177.302C79.7032 177.244 79.6238 177.161 79.5704 177.061C79.517 176.961 79.4917 176.849 79.4971 176.736C79.5025 176.623 79.5384 176.514 79.6011 176.42L83.3511 170.795C83.4081 170.709 83.4854 170.639 83.5761 170.59C83.6668 170.541 83.7681 170.516 83.8711 170.516V170.516Z" fill="#355E3B"/>
<path d="M82.6211 187.391H85.1211V190.516H82.6211V187.391Z" fill="#848484"/>
</g>
<path d="M106.559 178.932C106.559 177.844 106.804 176.868 107.295 176.004C107.786 175.129 108.452 174.447 109.295 173.956C110.148 173.465 111.092 173.22 112.127 173.22C113.343 173.22 114.404 173.513 115.311 174.1C116.218 174.687 116.879 175.519 117.295 176.596H115.551C115.242 175.924 114.794 175.407 114.207 175.044C113.631 174.681 112.938 174.5 112.127 174.5C111.348 174.5 110.65 174.681 110.031 175.044C109.412 175.407 108.927 175.924 108.575 176.596C108.223 177.257 108.047 178.036 108.047 178.932C108.047 179.817 108.223 180.596 108.575 181.268C108.927 181.929 109.412 182.441 110.031 182.804C110.65 183.167 111.348 183.348 112.127 183.348C112.938 183.348 113.631 183.172 114.207 182.82C114.794 182.457 115.242 181.94 115.551 181.268H117.295C116.879 182.335 116.218 183.161 115.311 183.748C114.404 184.324 113.343 184.612 112.127 184.612C111.092 184.612 110.148 184.372 109.295 183.892C108.452 183.401 107.786 182.724 107.295 181.86C106.804 180.996 106.559 180.02 106.559 178.932ZM123.814 175.588C124.476 175.588 125.073 175.732 125.606 176.02C126.14 176.297 126.556 176.719 126.854 177.284C127.164 177.849 127.318 178.537 127.318 179.348V184.516H125.878V179.556C125.878 178.681 125.66 178.015 125.222 177.556C124.785 177.087 124.188 176.852 123.43 176.852C122.662 176.852 122.049 177.092 121.59 177.572C121.142 178.052 120.918 178.751 120.918 179.668V184.516H119.462V172.676H120.918V176.996C121.206 176.548 121.601 176.201 122.102 175.956C122.614 175.711 123.185 175.588 123.814 175.588ZM137.473 175.748V184.516H136.017V183.22C135.74 183.668 135.35 184.02 134.849 184.276C134.358 184.521 133.814 184.644 133.217 184.644C132.534 184.644 131.921 184.505 131.377 184.228C130.833 183.94 130.401 183.513 130.081 182.948C129.772 182.383 129.617 181.695 129.617 180.884V175.748H131.057V180.692C131.057 181.556 131.276 182.223 131.713 182.692C132.15 183.151 132.748 183.38 133.505 183.38C134.284 183.38 134.897 183.14 135.345 182.66C135.793 182.18 136.017 181.481 136.017 180.564V175.748H137.473ZM141.019 183.316H145.323V184.516H139.355V183.316L143.611 176.932H139.387V175.748H145.291V176.932L141.019 183.316ZM147.964 174.324C147.687 174.324 147.452 174.228 147.26 174.036C147.068 173.844 146.972 173.609 146.972 173.332C146.972 173.055 147.068 172.82 147.26 172.628C147.452 172.436 147.687 172.34 147.964 172.34C148.231 172.34 148.455 172.436 148.636 172.628C148.828 172.82 148.924 173.055 148.924 173.332C148.924 173.609 148.828 173.844 148.636 174.036C148.455 174.228 148.231 174.324 147.964 174.324ZM148.668 175.748V184.516H147.212V175.748H148.668ZM152.926 176.948V182.116C152.926 182.543 153.017 182.847 153.198 183.028C153.379 183.199 153.694 183.284 154.142 183.284H155.214V184.516H153.902C153.091 184.516 152.483 184.329 152.078 183.956C151.673 183.583 151.47 182.969 151.47 182.116V176.948H150.334V175.748H151.47V173.54H152.926V175.748H155.214V176.948H152.926ZM160.802 184.66C159.981 184.66 159.234 184.473 158.562 184.1C157.901 183.727 157.378 183.199 156.994 182.516C156.621 181.823 156.434 181.023 156.434 180.116C156.434 179.22 156.626 178.431 157.01 177.748C157.405 177.055 157.938 176.527 158.61 176.164C159.282 175.791 160.034 175.604 160.866 175.604C161.698 175.604 162.45 175.791 163.122 176.164C163.794 176.527 164.322 177.049 164.706 177.732C165.101 178.415 165.298 179.209 165.298 180.116C165.298 181.023 165.095 181.823 164.69 182.516C164.295 183.199 163.757 183.727 163.074 184.1C162.391 184.473 161.634 184.66 160.802 184.66ZM160.802 183.38C161.325 183.38 161.815 183.257 162.274 183.012C162.733 182.767 163.101 182.399 163.378 181.908C163.666 181.417 163.81 180.82 163.81 180.116C163.81 179.412 163.671 178.815 163.394 178.324C163.117 177.833 162.754 177.471 162.306 177.236C161.858 176.991 161.373 176.868 160.85 176.868C160.317 176.868 159.826 176.991 159.378 177.236C158.941 177.471 158.589 177.833 158.322 178.324C158.055 178.815 157.922 179.412 157.922 180.116C157.922 180.831 158.05 181.433 158.306 181.924C158.573 182.415 158.925 182.783 159.362 183.028C159.799 183.263 160.279 183.38 160.802 183.38ZM170.316 184.66C169.644 184.66 169.042 184.548 168.508 184.324C167.975 184.089 167.554 183.769 167.244 183.364C166.935 182.948 166.764 182.473 166.732 181.94H168.236C168.279 182.377 168.482 182.735 168.844 183.012C169.218 183.289 169.703 183.428 170.3 183.428C170.855 183.428 171.292 183.305 171.612 183.06C171.932 182.815 172.092 182.505 172.092 182.132C172.092 181.748 171.922 181.465 171.58 181.284C171.239 181.092 170.711 180.905 169.996 180.724C169.346 180.553 168.812 180.383 168.396 180.212C167.991 180.031 167.639 179.769 167.34 179.428C167.052 179.076 166.908 178.617 166.908 178.052C166.908 177.604 167.042 177.193 167.308 176.82C167.575 176.447 167.954 176.153 168.444 175.94C168.935 175.716 169.495 175.604 170.124 175.604C171.095 175.604 171.879 175.849 172.476 176.34C173.074 176.831 173.394 177.503 173.436 178.356H171.98C171.948 177.897 171.762 177.529 171.42 177.252C171.09 176.975 170.642 176.836 170.076 176.836C169.554 176.836 169.138 176.948 168.828 177.172C168.519 177.396 168.364 177.689 168.364 178.052C168.364 178.34 168.455 178.58 168.636 178.772C168.828 178.953 169.063 179.103 169.34 179.22C169.628 179.327 170.023 179.449 170.524 179.588C171.154 179.759 171.666 179.929 172.06 180.1C172.455 180.26 172.791 180.505 173.068 180.836C173.356 181.167 173.506 181.599 173.516 182.132C173.516 182.612 173.383 183.044 173.116 183.428C172.85 183.812 172.471 184.116 171.98 184.34C171.5 184.553 170.946 184.66 170.316 184.66Z" fill="#1F1F1F"/>
<rect x="58.3711" y="223.016" width="157" height="39" rx="19.5" stroke="#355E3B"/>
<path d="M99.9311 242.916C99.9311 241.817 100.176 240.836 100.667 239.972C101.168 239.097 101.846 238.42 102.699 237.94C103.563 237.449 104.528 237.204 105.595 237.204C106.843 237.204 107.936 237.524 108.875 238.164C109.814 238.804 110.47 239.689 110.843 240.82H108.267C108.011 240.287 107.648 239.887 107.179 239.62C106.72 239.353 106.187 239.22 105.579 239.22C104.928 239.22 104.347 239.375 103.835 239.684C103.334 239.983 102.939 240.409 102.651 240.964C102.374 241.519 102.235 242.169 102.235 242.916C102.235 243.652 102.374 244.303 102.651 244.868C102.939 245.423 103.334 245.855 103.835 246.164C104.347 246.463 104.928 246.612 105.579 246.612C106.187 246.612 106.72 246.479 107.179 246.212C107.648 245.935 108.011 245.529 108.267 244.996H110.843C110.47 246.137 109.814 247.028 108.875 247.668C107.947 248.297 106.854 248.612 105.595 248.612C104.528 248.612 103.563 248.372 102.699 247.892C101.846 247.401 101.168 246.724 100.667 245.86C100.176 244.996 99.9311 244.015 99.9311 242.916ZM112.18 244.052C112.18 243.156 112.356 242.361 112.708 241.668C113.071 240.975 113.556 240.441 114.164 240.068C114.783 239.695 115.471 239.508 116.228 239.508C116.89 239.508 117.466 239.641 117.956 239.908C118.458 240.175 118.858 240.511 119.156 240.916V239.652H121.412V248.516H119.156V247.22C118.868 247.636 118.468 247.983 117.956 248.26C117.455 248.527 116.874 248.66 116.212 248.66C115.466 248.66 114.783 248.468 114.164 248.084C113.556 247.7 113.071 247.161 112.708 246.468C112.356 245.764 112.18 244.959 112.18 244.052ZM119.156 244.084C119.156 243.54 119.05 243.076 118.836 242.692C118.623 242.297 118.335 241.999 117.972 241.796C117.61 241.583 117.22 241.476 116.804 241.476C116.388 241.476 116.004 241.577 115.652 241.78C115.3 241.983 115.012 242.281 114.788 242.676C114.575 243.06 114.468 243.519 114.468 244.052C114.468 244.585 114.575 245.055 114.788 245.46C115.012 245.855 115.3 246.159 115.652 246.372C116.015 246.585 116.399 246.692 116.804 246.692C117.22 246.692 117.61 246.591 117.972 246.388C118.335 246.175 118.623 245.876 118.836 245.492C119.05 245.097 119.156 244.628 119.156 244.084ZM128.512 239.524C129.568 239.524 130.421 239.86 131.072 240.532C131.723 241.193 132.048 242.121 132.048 243.316V248.516H129.808V243.62C129.808 242.916 129.632 242.377 129.28 242.004C128.928 241.62 128.448 241.428 127.84 241.428C127.221 241.428 126.731 241.62 126.368 242.004C126.016 242.377 125.84 242.916 125.84 243.62V248.516H123.6V239.652H125.84V240.756C126.139 240.372 126.517 240.073 126.976 239.86C127.445 239.636 127.957 239.524 128.512 239.524ZM133.602 244.084C133.602 243.167 133.789 242.367 134.162 241.684C134.536 240.991 135.053 240.457 135.714 240.084C136.376 239.7 137.133 239.508 137.986 239.508C139.085 239.508 139.992 239.785 140.706 240.34C141.432 240.884 141.917 241.652 142.162 242.644H139.746C139.618 242.26 139.4 241.961 139.09 241.748C138.792 241.524 138.418 241.412 137.97 241.412C137.33 241.412 136.824 241.647 136.45 242.116C136.077 242.575 135.89 243.231 135.89 244.084C135.89 244.927 136.077 245.583 136.45 246.052C136.824 246.511 137.33 246.74 137.97 246.74C138.877 246.74 139.469 246.335 139.746 245.524H142.162C141.917 246.484 141.432 247.247 140.706 247.812C139.981 248.377 139.074 248.66 137.986 248.66C137.133 248.66 136.376 248.473 135.714 248.1C135.053 247.716 134.536 247.183 134.162 246.5C133.789 245.807 133.602 245.001 133.602 244.084ZM152.043 243.892C152.043 244.212 152.022 244.5 151.979 244.756H145.499C145.553 245.396 145.777 245.897 146.171 246.26C146.566 246.623 147.051 246.804 147.627 246.804C148.459 246.804 149.051 246.447 149.403 245.732H151.819C151.563 246.585 151.073 247.289 150.347 247.844C149.622 248.388 148.731 248.66 147.675 248.66C146.822 248.66 146.054 248.473 145.371 248.1C144.699 247.716 144.171 247.177 143.787 246.484C143.414 245.791 143.227 244.991 143.227 244.084C143.227 243.167 143.414 242.361 143.787 241.668C144.161 240.975 144.683 240.441 145.355 240.068C146.027 239.695 146.801 239.508 147.675 239.508C148.518 239.508 149.27 239.689 149.931 240.052C150.603 240.415 151.121 240.932 151.483 241.604C151.857 242.265 152.043 243.028 152.043 243.892ZM149.723 243.252C149.713 242.676 149.505 242.217 149.099 241.876C148.694 241.524 148.198 241.348 147.611 241.348C147.057 241.348 146.587 241.519 146.203 241.86C145.83 242.191 145.601 242.655 145.515 243.252H149.723ZM155.918 236.676V248.516H153.678V236.676H155.918ZM157.555 244.052C157.555 243.156 157.731 242.361 158.083 241.668C158.446 240.975 158.931 240.441 159.539 240.068C160.158 239.695 160.846 239.508 161.603 239.508C162.265 239.508 162.841 239.641 163.331 239.908C163.833 240.175 164.233 240.511 164.531 240.916V239.652H166.787V248.516H164.531V247.22C164.243 247.636 163.843 247.983 163.331 248.26C162.83 248.527 162.249 248.66 161.587 248.66C160.841 248.66 160.158 248.468 159.539 248.084C158.931 247.7 158.446 247.161 158.083 246.468C157.731 245.764 157.555 244.959 157.555 244.052ZM164.531 244.084C164.531 243.54 164.425 243.076 164.211 242.692C163.998 242.297 163.71 241.999 163.347 241.796C162.985 241.583 162.595 241.476 162.179 241.476C161.763 241.476 161.379 241.577 161.027 241.78C160.675 241.983 160.387 242.281 160.163 242.676C159.95 243.06 159.843 243.519 159.843 244.052C159.843 244.585 159.95 245.055 160.163 245.46C160.387 245.855 160.675 246.159 161.027 246.372C161.39 246.585 161.774 246.692 162.179 246.692C162.595 246.692 162.985 246.591 163.347 246.388C163.71 246.175 163.998 245.876 164.211 245.492C164.425 245.097 164.531 244.628 164.531 244.084ZM171.215 241.028C171.503 240.559 171.876 240.191 172.335 239.924C172.804 239.657 173.338 239.524 173.935 239.524V241.876H173.343C172.639 241.876 172.106 242.041 171.743 242.372C171.391 242.703 171.215 243.279 171.215 244.1V248.516H168.975V239.652H171.215V241.028Z" fill="#355E3B"/>
<rect x="227.871" y="222.516" width="158" height="40" rx="20" fill="#355E3B"/>
<path d="M281.251 240.708C280.995 240.239 280.643 239.881 280.195 239.636C279.747 239.391 279.224 239.268 278.627 239.268C277.966 239.268 277.379 239.417 276.867 239.716C276.355 240.015 275.955 240.441 275.667 240.996C275.379 241.551 275.235 242.191 275.235 242.916C275.235 243.663 275.379 244.313 275.667 244.868C275.966 245.423 276.376 245.849 276.899 246.148C277.422 246.447 278.03 246.596 278.723 246.596C279.576 246.596 280.275 246.372 280.819 245.924C281.363 245.465 281.72 244.831 281.891 244.02H278.051V242.308H284.099V244.26C283.95 245.039 283.63 245.759 283.139 246.42C282.648 247.081 282.014 247.615 281.235 248.02C280.467 248.415 279.603 248.612 278.643 248.612C277.566 248.612 276.59 248.372 275.715 247.892C274.851 247.401 274.168 246.724 273.667 245.86C273.176 244.996 272.931 244.015 272.931 242.916C272.931 241.817 273.176 240.836 273.667 239.972C274.168 239.097 274.851 238.42 275.715 237.94C276.59 237.449 277.56 237.204 278.627 237.204C279.886 237.204 280.979 237.513 281.907 238.132C282.835 238.74 283.475 239.599 283.827 240.708H281.251ZM294.124 239.652V248.516H291.868V247.396C291.58 247.78 291.202 248.084 290.732 248.308C290.274 248.521 289.772 248.628 289.228 248.628C288.535 248.628 287.922 248.484 287.388 248.196C286.855 247.897 286.434 247.465 286.124 246.9C285.826 246.324 285.676 245.641 285.676 244.852V239.652H287.916V244.532C287.916 245.236 288.092 245.78 288.444 246.164C288.796 246.537 289.276 246.724 289.884 246.724C290.503 246.724 290.988 246.537 291.34 246.164C291.692 245.78 291.868 245.236 291.868 244.532V239.652H294.124ZM295.758 244.052C295.758 243.156 295.934 242.361 296.286 241.668C296.649 240.975 297.134 240.441 297.742 240.068C298.361 239.695 299.049 239.508 299.806 239.508C300.468 239.508 301.044 239.641 301.534 239.908C302.036 240.175 302.436 240.511 302.734 240.916V239.652H304.99V248.516H302.734V247.22C302.446 247.636 302.046 247.983 301.534 248.26C301.033 248.527 300.452 248.66 299.79 248.66C299.044 248.66 298.361 248.468 297.742 248.084C297.134 247.7 296.649 247.161 296.286 246.468C295.934 245.764 295.758 244.959 295.758 244.052ZM302.734 244.084C302.734 243.54 302.628 243.076 302.414 242.692C302.201 242.297 301.913 241.999 301.55 241.796C301.188 241.583 300.798 241.476 300.382 241.476C299.966 241.476 299.582 241.577 299.23 241.78C298.878 241.983 298.59 242.281 298.366 242.676C298.153 243.06 298.046 243.519 298.046 244.052C298.046 244.585 298.153 245.055 298.366 245.46C298.59 245.855 298.878 246.159 299.23 246.372C299.593 246.585 299.977 246.692 300.382 246.692C300.798 246.692 301.188 246.591 301.55 246.388C301.913 246.175 302.201 245.876 302.414 245.492C302.628 245.097 302.734 244.628 302.734 244.084ZM309.418 241.028C309.706 240.559 310.08 240.191 310.538 239.924C311.008 239.657 311.541 239.524 312.138 239.524V241.876H311.546C310.842 241.876 310.309 242.041 309.946 242.372C309.594 242.703 309.418 243.279 309.418 244.1V248.516H307.178V239.652H309.418V241.028ZM313.071 244.052C313.071 243.156 313.247 242.361 313.599 241.668C313.962 240.975 314.452 240.441 315.071 240.068C315.69 239.695 316.378 239.508 317.135 239.508C317.711 239.508 318.26 239.636 318.783 239.892C319.306 240.137 319.722 240.468 320.031 240.884V236.676H322.303V248.516H320.031V247.204C319.754 247.641 319.364 247.993 318.863 248.26C318.362 248.527 317.78 248.66 317.119 248.66C316.372 248.66 315.69 248.468 315.071 248.084C314.452 247.7 313.962 247.161 313.599 246.468C313.247 245.764 313.071 244.959 313.071 244.052ZM320.047 244.084C320.047 243.54 319.94 243.076 319.727 242.692C319.514 242.297 319.226 241.999 318.863 241.796C318.5 241.583 318.111 241.476 317.695 241.476C317.279 241.476 316.895 241.577 316.543 241.78C316.191 241.983 315.903 242.281 315.679 242.676C315.466 243.06 315.359 243.519 315.359 244.052C315.359 244.585 315.466 245.055 315.679 245.46C315.903 245.855 316.191 246.159 316.543 246.372C316.906 246.585 317.29 246.692 317.695 246.692C318.111 246.692 318.5 246.591 318.863 246.388C319.226 246.175 319.514 245.876 319.727 245.492C319.94 245.097 320.047 244.628 320.047 244.084ZM323.915 244.052C323.915 243.156 324.091 242.361 324.443 241.668C324.805 240.975 325.291 240.441 325.899 240.068C326.517 239.695 327.205 239.508 327.963 239.508C328.624 239.508 329.2 239.641 329.691 239.908C330.192 240.175 330.592 240.511 330.891 240.916V239.652H333.147V248.516H330.891V247.22C330.603 247.636 330.203 247.983 329.691 248.26C329.189 248.527 328.608 248.66 327.947 248.66C327.2 248.66 326.517 248.468 325.899 248.084C325.291 247.7 324.805 247.161 324.443 246.468C324.091 245.764 323.915 244.959 323.915 244.052ZM330.891 244.084C330.891 243.54 330.784 243.076 330.571 242.692C330.357 242.297 330.069 241.999 329.707 241.796C329.344 241.583 328.955 241.476 328.539 241.476C328.123 241.476 327.739 241.577 327.387 241.78C327.035 241.983 326.747 242.281 326.523 242.676C326.309 243.06 326.203 243.519 326.203 244.052C326.203 244.585 326.309 245.055 326.523 245.46C326.747 245.855 327.035 246.159 327.387 246.372C327.749 246.585 328.133 246.692 328.539 246.692C328.955 246.692 329.344 246.591 329.707 246.388C330.069 246.175 330.357 245.876 330.571 245.492C330.784 245.097 330.891 244.628 330.891 244.084ZM337.574 241.028C337.862 240.559 338.236 240.191 338.694 239.924C339.164 239.657 339.697 239.524 340.294 239.524V241.876H339.702C338.998 241.876 338.465 242.041 338.102 242.372C337.75 242.703 337.574 243.279 337.574 244.1V248.516H335.334V239.652H337.574V241.028Z" fill="#F7F6EB"/>
<rect x="26" y="90" width="392" height="176" rx="24" fill="#F7F6EB"/>
<rect x="26.79" y="75.6216" width="388" height="215.894" rx="21" stroke="#A8C686" stroke-width="6"/>
<path d="M66.2643 92.9942C73.6688 87.2186 78.2526 81.3219 80.5737 77.4958C81.7439 75.5669 82.3147 73.1684 84.0069 71.6765C84.9857 70.8135 86.6237 70.611 91.0863 71.1408C93.5223 71.4301 95.0414 73.9002 93.9907 76.1169C92.0123 80.2909 89.2501 84.3757 86.7108 87.9365C82.4234 93.949 77.1203 99.5597 70.6213 103.066C61.9945 107.721 51.1187 112.676 42.9623 113.882C40.0754 114.309 37.1221 114.359 34.2901 115.063C25.8054 117.173 23.6654 119.58 23.7402 120.638V128.084C23.7402 128.445 23.788 128.804 23.8825 129.152C23.4834 128.993 23.104 128.791 22.7434 128.552C12.974 122.055 21.672 104.926 33.3589 103.892C33.7492 103.857 34.1341 103.839 34.5119 103.839C42.4499 103.839 53.9961 102.563 66.2643 92.9942Z" fill="#A8C686"/>
<path d="M398.825 214.755C386.593 190.121 405.162 180.02 416.225 177.13C418.928 176.125 422.757 172.548 419.212 165.767C418.288 164 416.037 163.54 414.307 164.532C406.87 168.795 402.129 172.319 395.542 177.13C387.697 182.848 375.191 199.236 387.927 219.041C403.849 243.798 414.275 251.662 413.41 260.863C412.774 267.623 413.647 272.777 414.285 274.974C414.385 275.316 414.424 275.672 414.377 276.025C414.082 278.226 416.519 279.244 417.589 277.298C422.912 267.614 424.257 254.833 421.749 247.385C420.4 243.376 415.514 240.849 412.936 237.496C409.909 233.557 405.356 226.566 398.825 214.755Z" fill="#A8C686"/>
<defs>
<clipPath id="clip0_970_3190">
<rect width="20" height="20" fill="white" transform="translate(73.8711 170.516)"/>
</clipPath>
</defs>
</svg>
