<svg width="32" height="32" viewBox="0 0 32 32" fill="none" xmlns="http://www.w3.org/2000/svg">
<path d="M16.3668 25.3334C16.6335 25.3112 16.8615 25.2054 17.0508 25.0161C17.2402 24.8267 17.3344 24.5992 17.3335 24.3334C17.3335 24.0223 17.2335 23.7725 17.0335 23.5841C16.8335 23.3956 16.5779 23.3121 16.2668 23.3334C15.3557 23.4001 14.3891 23.1503 13.3668 22.5841C12.3446 22.0179 11.7002 20.9899 11.4335 19.5001C11.3891 19.2556 11.2726 19.0556 11.0842 18.9001C10.8957 18.7445 10.6788 18.6667 10.4335 18.6667C10.1224 18.6667 9.86683 18.7836 9.66683 19.0174C9.46683 19.2512 9.40016 19.5232 9.46683 19.8334C9.84461 21.8556 10.7335 23.3001 12.1335 24.1667C13.5335 25.0334 14.9446 25.4223 16.3668 25.3334ZM16.0002 29.3334C12.9557 29.3334 10.4171 28.289 8.38416 26.2001C6.35127 24.1112 5.33438 21.5112 5.3335 18.4001C5.3335 16.1779 6.21705 13.7614 7.98416 11.1507C9.75127 8.54008 12.4233 5.71208 16.0002 2.66675C19.5779 5.71119 22.2504 8.53919 24.0175 11.1507C25.7846 13.7623 26.6677 16.1787 26.6668 18.4001C26.6668 21.5112 25.6504 24.1112 23.6175 26.2001C21.5846 28.289 19.0455 29.3334 16.0002 29.3334Z" fill="#4E91DC"/>
</svg>
