<svg width="56" height="57" viewBox="0 0 56 57" fill="none" xmlns="http://www.w3.org/2000/svg">
<path fill-rule="evenodd" clip-rule="evenodd" d="M34.7064 7.64837C34.5289 7.29287 34.2778 6.97921 33.9698 6.72824C33.6617 6.47727 33.3038 6.29474 32.9198 6.19277C32.5358 6.0908 32.1344 6.07174 31.7424 6.13684C31.3505 6.20195 30.9769 6.34973 30.6464 6.57037C29.6804 7.21437 28.9272 8.13277 28.3448 9.03437C27.7456 9.95837 27.2164 11.0308 26.7488 12.1592C25.8136 14.4104 25.0296 17.1096 24.3968 19.8144C23.6293 23.1193 23.0561 26.4664 22.6804 29.8384C21.5412 29.1039 20.6258 28.0704 20.0344 26.8508C19.116 24.9468 18.92 22.5556 18.92 19.4196C18.9199 18.8659 18.7556 18.3246 18.4479 17.8643C18.1403 17.4039 17.703 17.0451 17.1914 16.8333C16.6799 16.6214 16.117 16.5659 15.5739 16.6739C15.0309 16.7819 14.532 17.0485 14.1404 17.44C12.3179 19.2583 10.8727 21.4188 9.88763 23.7973C8.90258 26.1758 8.39716 28.7255 8.40041 31.3C8.40064 34.5231 9.19574 37.6964 10.7153 40.5389C12.2348 43.3814 14.4319 45.8052 17.1119 47.5958C19.7919 49.3864 22.8722 50.4884 26.0798 50.8042C29.2874 51.1201 32.5234 50.64 35.5012 49.4065C38.479 48.173 41.1066 46.2242 43.1514 43.7327C45.1961 41.2412 46.5949 38.2839 47.2237 35.1227C47.8526 31.9615 47.6922 28.694 46.7566 25.6096C45.8211 22.5253 44.1394 19.7192 41.8604 17.44C40.2028 15.7852 39.1164 14.682 38.086 13.3324C37.0696 11.9996 36.0588 10.356 34.7064 7.64837ZM33.9364 42.836C32.7617 44.0092 31.2656 44.8081 29.6371 45.1316C28.0087 45.4551 26.3209 45.2887 24.7869 44.6536C23.2529 44.0184 21.9415 42.9429 21.0184 41.5629C20.0953 40.1829 19.6019 38.5602 19.6004 36.9C19.6004 36.9 22.0616 38.3 26.6004 38.3C26.6004 35.5 28.0004 27.1 30.1004 25.7C31.5004 28.5 32.3012 29.3204 33.9392 30.9612C35.5146 32.5361 36.3999 34.6723 36.4004 36.9C36.3999 39.1276 35.5146 41.2638 33.9392 42.8388" fill="#EE8F00"/>
</svg>
