<svg width="179" height="222" viewBox="0 0 179 222" fill="none" xmlns="http://www.w3.org/2000/svg">
<path d="M91 6.25C101.509 6.25473 111.914 8.33785 121.614 12.3799C131.315 16.422 140.121 22.3437 147.524 29.8027C162.503 44.8727 170.917 65.3086 170.917 86.6006C170.917 122.243 151.303 153.411 132.42 175.251C124.369 184.525 115.639 193.188 106.304 201.167C102.748 204.209 99.7676 206.579 97.667 208.188C96.6094 208.999 95.7912 209.615 95.2129 210.037L94.5391 210.522L94.3682 210.654L94.3106 210.694L94.2881 210.705C92.3187 212.092 89.6813 212.092 87.7119 210.705L87.6895 210.694L87.6377 210.654L87.4551 210.528C86.4042 209.762 85.3634 208.982 84.333 208.188C82.2324 206.579 79.2582 204.209 75.6963 201.167C66.3608 193.188 57.6309 184.525 49.5801 175.251C30.697 153.411 11.0831 122.243 11.083 86.6064C11.0748 65.3243 19.4848 44.9024 34.4766 29.7969C41.88 22.3391 50.6853 16.4191 60.3857 12.3779C70.0865 8.33677 80.4912 6.25399 91 6.25ZM115.505 34.1758C113.326 33.1203 111.507 33.013 110.05 33.8545L107.759 35.5176L106.235 37.6045L105.375 39.6094L104.636 42.1494L103.945 44.7734C103.294 47.0106 101.788 49.3006 99.4287 51.6436C97.0691 53.9867 94.2751 56.2038 91.0469 58.2939C87.8188 60.384 84.5485 62.4234 81.2363 64.4111C77.9242 66.3988 74.6679 68.5047 71.4678 70.7295C68.2676 72.9544 65.8363 75.0004 64.1729 76.8662C60.8834 80.5761 58.1109 84.5778 55.8565 88.8721C53.6019 93.1665 51.929 97.6286 50.8389 102.257C49.7489 106.885 49.5352 111.648 50.1963 116.548C50.8575 121.447 52.4397 126.067 54.9443 130.405C56.0987 132.405 57.3996 134.269 58.8467 135.999C59.1392 136.333 59.9179 136.99 61.1816 137.971C62.4451 138.951 63.1207 139.517 63.208 139.668C63.6218 140.385 63.565 141.625 63.0381 143.388C62.5112 145.151 61.8504 146.941 61.0557 148.758C60.261 150.575 59.7038 152.544 59.3838 154.665C59.0638 156.786 59.2846 158.507 60.0469 159.827C60.1993 160.091 60.3746 160.33 60.5723 160.543C60.7698 160.756 60.9294 160.903 61.0508 160.983C61.1722 161.064 61.3838 161.193 61.6856 161.371C61.9872 161.549 62.219 161.691 62.3809 161.799C64.23 162.844 65.7287 163.476 66.876 163.693C68.0233 163.911 69.4008 163.557 71.0078 162.629C72.0915 162.003 72.8636 160.752 73.3252 158.876C73.7868 157 74.0056 155.113 73.9815 153.216C73.9573 151.318 74.0365 149.512 74.2178 147.798C74.3991 146.084 74.7888 145.054 75.3867 144.709C76.2463 144.213 78.4428 143.875 81.9766 143.695C85.5104 143.516 87.6126 143.359 88.2822 143.224C94.4632 142.019 100.319 139.82 105.851 136.627C114.222 131.794 121.231 125.031 126.877 116.339C132.688 107.501 136.449 98.5892 138.162 89.6025C139.875 80.6159 139.152 71.4008 135.992 61.958C134.605 57.8296 132.878 53.9733 130.809 50.3896C129.981 48.9562 128.786 47.2321 127.224 45.2168C125.661 43.2014 123.863 41.1211 121.827 38.9766C119.792 36.832 117.684 35.2314 115.505 34.1758ZM102.896 76.6152C103.867 76.0542 104.915 75.9276 106.039 76.2344C107.163 76.5411 108.008 77.1845 108.574 78.165C109.141 79.1459 109.276 80.2004 108.979 81.3271C108.683 82.4536 108.05 83.2974 107.078 83.8584C100.276 87.7854 94.9841 92.1483 91.2022 96.9473C87.4202 101.746 84.3188 107.964 81.8994 115.598C81.5658 116.746 81.0326 118.714 80.2998 121.501C79.5671 124.288 78.958 126.425 78.4717 127.913C78.1007 129.083 77.4663 129.927 76.5693 130.445C75.5977 131.006 74.5497 131.133 73.4258 130.826C72.3019 130.519 71.4569 129.875 70.8906 128.895C70.368 127.989 70.2327 126.935 70.4854 125.733C72.1045 118.008 74.1152 111.327 76.5166 105.69C78.918 100.054 82.3082 94.7266 86.6865 89.709C91.0648 84.6914 96.4675 80.3265 102.896 76.6152Z" fill="#A8C686"/>
</svg>
