<svg width="97" height="120" viewBox="0 0 97 120" fill="none" xmlns="http://www.w3.org/2000/svg">
<path d="M49.3125 3.37793C55.0075 3.38049 60.6465 4.50743 65.9033 6.69238C71.16 8.87733 75.9317 12.0776 79.9434 16.1094C88.0603 24.2553 92.6201 35.3023 92.6201 46.8115C92.62 66.0777 81.9905 82.9251 71.7578 94.7305C67.3952 99.7433 62.6653 104.426 57.6064 108.739C55.6793 110.384 54.0641 111.664 52.9258 112.534C52.3526 112.972 51.9091 113.306 51.5957 113.534L51.2305 113.796L51.1377 113.867L51.1074 113.889L51.0947 113.895C50.0275 114.644 48.5985 114.644 47.5313 113.895L47.5186 113.889L47.4912 113.867L47.3916 113.799C46.8223 113.385 46.2584 112.963 45.7002 112.534C44.5619 111.664 42.9497 110.384 41.0195 108.739C35.9606 104.426 31.2299 99.7434 26.8672 94.7305C16.6345 82.9251 6.00597 66.0776 6.00586 46.8145C6.00141 35.3106 10.5586 24.2716 18.6826 16.1064C22.6946 12.0751 27.4668 8.87485 32.7236 6.69043C37.9802 4.50618 43.618 3.38013 49.3125 3.37793ZM62.5918 18.4736C61.411 17.9031 60.4255 17.845 59.6357 18.2998L58.3945 19.1982L57.5684 20.3262L57.1025 21.4111L56.7022 22.7832L56.3281 24.2021C55.9749 25.4114 55.1594 26.6496 53.8809 27.916C52.6023 29.1825 51.088 30.38 49.3389 31.5098C47.5896 32.6395 45.8172 33.742 44.0225 34.8164C42.2276 35.8909 40.4627 37.0298 38.7285 38.2324C36.9945 39.4349 35.6768 40.5404 34.7754 41.5488C32.9928 43.5542 31.4903 45.7178 30.2686 48.0391C29.0469 50.3603 28.1406 52.7718 27.5498 55.2734C26.9591 57.7752 26.8429 60.3506 27.2012 62.999C27.5595 65.6475 28.4172 68.1443 29.7744 70.4893C30.4 71.57 31.1054 72.5777 31.8897 73.5127C32.0482 73.6933 32.4695 74.0491 33.1543 74.5791C33.8382 75.1084 34.204 75.4141 34.252 75.4961C34.4762 75.8835 34.4457 76.5539 34.1602 77.5068C33.8746 78.4597 33.5166 79.4271 33.0859 80.4092C32.6553 81.3913 32.3531 82.4559 32.1797 83.6025C32.0063 84.7492 32.126 85.6798 32.5391 86.3936C32.6217 86.5362 32.7172 86.6653 32.8242 86.7803C32.931 86.8949 33.0173 86.9739 33.083 87.0176C33.1488 87.0613 33.2641 87.1315 33.4277 87.2275C33.5913 87.3236 33.717 87.4008 33.8047 87.459C34.8066 88.0238 35.6185 88.3657 36.2402 88.4834C36.8619 88.601 37.6079 88.4086 38.4785 87.9072C39.0658 87.569 39.4852 86.893 39.7354 85.8789C39.9855 84.8648 40.1039 83.8449 40.0908 82.8193C40.0777 81.7937 40.1205 80.8173 40.2188 79.8906C40.317 78.9642 40.5276 78.4074 40.8516 78.2207C41.3173 77.9525 42.508 77.7698 44.4229 77.6729C46.3375 77.5759 47.4767 77.491 47.8398 77.418C51.1893 76.7668 54.3631 75.5786 57.3604 73.8525C61.8969 71.2399 65.6956 67.584 68.7549 62.8857C71.9036 58.1089 73.9418 53.2911 74.8701 48.4336C75.7984 43.5761 75.4065 38.5953 73.6943 33.4912C72.9427 31.2596 72.006 29.1745 70.8848 27.2373C70.4363 26.4625 69.7888 25.5306 68.9424 24.4414C68.0958 23.352 67.1206 22.2276 66.0176 21.0684C64.9146 19.9092 63.7726 19.0442 62.5918 18.4736ZM55.7588 41.4141C56.2854 41.1108 56.8538 41.0422 57.4629 41.208C58.0718 41.3739 58.5301 41.7219 58.8369 42.252C59.1436 42.782 59.2162 43.3521 59.0557 43.9609C58.8951 44.5697 58.5518 45.0259 58.0254 45.3291C54.3395 47.4518 51.4713 49.8102 49.4219 52.4043C47.3725 54.9984 45.6928 58.359 44.3818 62.4854C44.201 63.1061 43.9117 64.1695 43.5147 65.6758C43.1175 67.1824 42.787 68.3383 42.5234 69.1426C42.3224 69.7747 41.979 70.2308 41.4932 70.5107C40.9666 70.814 40.3981 70.8826 39.7891 70.7168C39.1803 70.5509 38.7228 70.2028 38.416 69.6729C38.1328 69.1834 38.0594 68.6137 38.1963 67.9639C39.0737 63.7882 40.1626 60.1767 41.4639 57.1299C42.7652 54.083 44.603 51.2035 46.9756 48.4912C49.3481 45.7792 52.2757 43.4201 55.7588 41.4141Z" fill="#355E3B"/>
</svg>
