<svg width="24" height="24" viewBox="0 0 24 24" fill="none" xmlns="http://www.w3.org/2000/svg">
<g id="ph:plant-duotone">
<g id="Group">
<path id="Vector" d="M23.2153 4.48974C23.2046 4.30626 23.1269 4.1331 22.9969 4.00314C22.8669 3.87318 22.6938 3.79546 22.5103 3.78474C17.6578 3.50349 13.7616 4.97912 12.0872 7.74287C10.9809 9.56912 10.9828 11.7891 12.0722 13.906C11.4529 14.6429 10.9997 15.5047 10.7437 16.4326L9.21843 14.9063C9.95156 13.3754 9.92343 11.7788 9.12468 10.4541C7.88343 8.41224 5.02687 7.31256 1.48031 7.52537C1.29682 7.53608 1.12366 7.6138 0.9937 7.74376C0.863738 7.87373 0.786021 8.04689 0.775306 8.23037C0.566244 11.7769 1.66218 14.6335 3.70499 15.871C4.38026 16.2833 5.15631 16.501 5.94749 16.5001C6.71427 16.4906 7.4691 16.3089 8.15624 15.9685L10.5 18.3122V21.0001C10.5 21.199 10.579 21.3897 10.7197 21.5304C10.8603 21.671 11.0511 21.7501 11.25 21.7501C11.4489 21.7501 11.6397 21.671 11.7803 21.5304C11.921 21.3897 12 21.199 12 21.0001V18.2354C11.9966 17.0422 12.4026 15.884 13.1503 14.9541C14.1149 15.4583 15.1848 15.7281 16.2731 15.7416C17.3253 15.745 18.358 15.4576 19.2572 14.911C22.0209 13.2385 23.5003 9.34224 23.2153 4.48974ZM8.06812 13.7569L5.77968 11.4694C5.63788 11.3347 5.44907 11.2607 5.2535 11.2632C5.05793 11.2657 4.87107 11.3445 4.73277 11.4828C4.59447 11.6211 4.51567 11.808 4.51316 12.0036C4.51066 12.1991 4.58465 12.3879 4.71937 12.5297L7.00781 14.8182C6.10687 15.1163 5.23312 15.0422 4.48218 14.5876C3.04406 13.7166 2.23031 11.6551 2.24999 9.00006C4.90406 8.97662 6.96656 9.79412 7.83749 11.2322C8.29218 11.9832 8.36624 12.8569 8.06812 13.7569ZM18.48 13.6294C17.2237 14.3897 15.7472 14.4479 14.2472 13.8169L19.2806 8.78256C19.4214 8.64195 19.5005 8.4512 19.5005 8.25226C19.5006 8.05333 19.4217 7.86251 19.2811 7.72178C19.1405 7.58105 18.9497 7.50193 18.7508 7.50185C18.5519 7.50176 18.361 7.5807 18.2203 7.72131L13.1859 12.7501C12.5522 11.2501 12.6094 9.77256 13.3734 8.51724C14.6803 6.36099 17.7797 5.16099 21.7481 5.25193C21.8381 9.21943 20.6381 12.3226 18.48 13.6294Z" fill="#F7F6EB"/>
</g>
</g>
</svg>
