<svg width="24" height="19" viewBox="0 0 24 19" fill="none" xmlns="http://www.w3.org/2000/svg">
<path d="M19.257 11.9129C18.3578 12.4594 17.3251 12.7469 16.2729 12.7435C15.3914 12.7365 14.5198 12.5562 13.7079 12.2129C13.0821 13.0963 12.7472 14.1528 12.7498 15.2354V18.0001C12.75 18.1029 12.7291 18.2046 12.6883 18.299C12.6476 18.3934 12.5878 18.4784 12.5129 18.5488C12.4379 18.6191 12.3492 18.6733 12.2524 18.7079C12.1556 18.7425 12.0527 18.7569 11.9501 18.7501C11.7573 18.7333 11.578 18.6442 11.4481 18.5008C11.3183 18.3574 11.2474 18.1701 11.2498 17.9766V16.8104L7.62917 13.1897C7.09095 13.3905 6.52173 13.4956 5.94729 13.5001C5.15647 13.5021 4.38044 13.2857 3.70479 12.8747C1.66198 11.6335 0.562291 8.77693 0.775103 5.23037C0.785818 5.04689 0.863535 4.87373 0.993497 4.74376C1.12346 4.6138 1.29662 4.53608 1.4801 4.52537C5.02667 4.31631 7.88323 5.41224 9.12073 7.45506C9.60693 8.25576 9.81919 9.193 9.72542 10.1251C9.71959 10.1973 9.69296 10.2663 9.64876 10.3237C9.60456 10.3811 9.54468 10.4244 9.47636 10.4485C9.40803 10.4726 9.33419 10.4764 9.26376 10.4594C9.19333 10.4425 9.12932 10.4054 9.07948 10.3529L7.27948 8.4685C7.13768 8.33378 6.94887 8.25979 6.7533 8.26229C6.55773 8.26479 6.37087 8.3436 6.23257 8.4819C6.09427 8.6202 6.01546 8.80706 6.01296 9.00263C6.01046 9.1982 6.08445 9.38701 6.21917 9.52881L11.2704 14.7085C11.276 14.6354 11.2826 14.5622 11.2901 14.4901C11.4541 13.0995 12.0677 11.8006 13.0376 10.7907L17.7804 5.77881C17.9211 5.6382 18.0003 5.44745 18.0003 5.24851C18.0004 5.04958 17.9215 4.85876 17.7809 4.71803C17.6403 4.5773 17.4495 4.49819 17.2506 4.4981C17.0517 4.49801 16.8608 4.57695 16.7201 4.71756L12.1264 9.57568C12.0804 9.62439 12.0222 9.65989 11.9578 9.67849C11.8935 9.6971 11.8253 9.69813 11.7605 9.68148C11.6956 9.66483 11.6363 9.6311 11.5889 9.58381C11.5415 9.53652 11.5076 9.47739 11.4907 9.41256C11.0464 7.77381 11.2423 6.14256 12.0907 4.74193C13.7651 1.97818 17.6614 0.498808 22.5139 0.783808C22.6973 0.794523 22.8705 0.872239 23.0005 1.0022C23.1304 1.13216 23.2081 1.30533 23.2189 1.48881C23.5001 6.34225 22.0207 10.2385 19.257 11.9129Z" fill="#355E3B"/>
</svg>
