<svg width="32" height="32" viewBox="0 0 32 32" fill="none" xmlns="http://www.w3.org/2000/svg">
<path d="M15.9998 2.66675C8.6665 2.66675 2.6665 8.66675 2.6665 16.0001C2.6665 23.3334 8.6665 29.3334 15.9998 29.3334C23.3332 29.3334 29.3332 23.3334 29.3332 16.0001C29.3332 8.66675 23.3332 2.66675 15.9998 2.66675Z" fill="#A8C686"/>
<path d="M30 16C30 23.8 23.6667 30 16 30C8.33333 30 2 23.8 2 16C2 8.2 8.2 2 16 2C23.8 2 30 8.2 30 16ZM15.8667 22.4667C15.8667 22.2 15.7333 22.0667 15.4667 21.9333C14.6 21.6667 13.8 21.6667 13.0667 20.9333C12.9333 20.6667 12.9333 20.4 12.8 20.0667C12.5333 19.8 11.8 19.6667 11.4 19.5333H8.6C8.2 19.4 7.86667 18.8 7.6 18.4C7.6 18.2667 7.6 18 7.33333 18C7.06667 17.8667 6.8 18.1333 6.46667 18C6.33333 17.8667 6.33333 17.7333 6.33333 17.6C6.33333 17.2 6.6 16.7333 6.86667 16.4667C7.26667 16.2 7.73333 16.6 8.13333 16.6C8.26667 16.6 8.26667 16.6 8.4 16.7333C8.8 16.8667 8.93333 17.4 8.93333 17.8667V18.1333C8.93333 18.2667 9.06667 18.2667 9.2 18.2667C9.33333 17.5333 9.33333 16.8667 9.46667 16.1333C9.46667 15.2667 10.3333 14.4667 11 14.2C11.2667 14.0667 11.4 14.3333 11.7333 14.2C12.6 13.9333 14.6667 13.0667 14.2667 11.9333C14 10.9333 13.1333 10 12 10.1333C11.7333 10.2667 11.6 10.4 11.3333 10.5333C10.9333 10.8 10.0667 11.6667 9.66667 11.6667C8.93333 11.5333 8.93333 10.5333 9.13333 10.1333C9.26667 9.6 10.5333 7.73333 11.4 8.06667L11.9333 8.6C12.2 8.73333 12.6667 8.73333 13.0667 8.73333C13.2 8.73333 13.3333 8.73333 13.4667 8.6C13.6 8.46667 13.6 8.46667 13.6 8.33333C13.6 7.93333 13.2 7.46667 12.9333 7.2C12.6667 6.93333 12.2 6.66667 11.8 6.46667C10.4 6.06667 8.13333 6.6 7.06667 7.6C6 8.6 5.13333 10.2667 4.53333 11.6667C4.26667 12.5333 4 13.6 3.86667 14.6C3.73333 15.2667 3.6 15.8667 4 16.5333C4.4 17.4 5.26667 18.2 6.13333 18.8C6.66667 19.2 7.8 19.2 8.4 19.9333C8.8 20.4667 8.66667 21.2 8.66667 21.8667C8.66667 22.7333 9.2 23.4 9.53333 24.1333C9.66667 24.5333 9.8 25.1333 9.93333 25.5333C9.93333 25.6667 10.0667 26.5333 10.0667 26.6667C10.9333 27.0667 11.6 27.5333 12.6 27.8C12.7333 27.8 13.2667 26.9333 13.2667 26.8C13.6667 26.4 14 25.8 14.4 25.5333C14.6667 25.4 14.9333 25.2667 15.2667 25C15.5333 24.7333 15.6667 24.1333 15.8 23.7333C15.8667 23.4 16 22.8667 15.8667 22.4667ZM16.1333 9.53333C16.2667 9.53333 16.4 9.4 16.6667 9.26667C17.0667 9 17.5333 8.53333 17.9333 8.26667C18.3333 8 18.8 7.53333 19.0667 7.26667C19.4667 7 19.8 6.4 19.9333 6C20.0667 5.73333 20.4667 5.13333 20.3333 4.73333C20.2 4.46667 19.4667 4.33333 19.2 4.2C18.0667 3.93333 17.1333 3.8 16 3.8C15.6 3.8 15 3.93333 14.8667 4.33333C14.7333 5.06667 15.2667 4.86667 15.8667 5.06667C15.8667 5.06667 16 6.2 16 6.33333C16.1333 7 15.7333 7.46667 15.7333 8.13333C15.7333 8.53333 15.7333 9.26667 16 9.53333H16.1333ZM27.8667 19.3333C28 19.0667 28 18.6 28.1333 18.3333C28.2667 17.6667 28.2667 16.9333 28.2667 16.2667C28.2667 14.8667 28.1333 13.4667 27.7333 12.2C27.4667 11.8 27.3333 11.3333 27.2 10.9333C26.9333 10.2 26.5333 9.53333 25.9333 9C25.4 8.26667 24.6667 6.33333 23.4 6.93333C23 7.06667 22.7333 7.6 22.4 7.93333C22.1333 8.33333 21.8667 8.8 21.5333 9.2C21.4 9.33333 21.2667 9.6 21.4 9.73333C21.4 9.86667 21.5333 9.86667 21.6667 9.86667C21.9333 10 22.0667 10 22.3333 10.1333C22.4667 10.1333 22.6 10.2667 22.4667 10.4C22.4667 10.4 22.4667 10.5333 22.3333 10.5333C21.6667 11.2667 20.9333 11.8 20.2667 12.4667C20.1333 12.6 20 12.8667 20 13C20 13.1333 20.1333 13.1333 20.1333 13.2667C20.1333 13.4 20 13.4 19.8667 13.5333C19.6 13.6667 19.3333 13.8 19.1333 13.9333C19 14.2 19.1333 14.6667 19 14.9333C18.8667 15.6667 18.4667 16.2 18.1333 16.8667C17.8667 17.2667 17.7333 17.7333 17.4667 18.1333C17.4667 18.6667 17.3333 19.1333 17.6 19.5333C18.2667 20.5333 19.5333 19.9333 20.5333 20.4C20.8 20.5333 21.0667 20.5333 21.2667 20.8C21.6667 21.2 21.6667 21.9333 21.8 22.3333C21.9333 22.8667 22.0667 23.4667 22.3333 24C22.4667 24.6667 22.7333 25.4 22.8667 25.9333C24.1333 24.9333 25.2667 23.8667 26.0667 22.4667C27.0667 21.6 27.4667 20.4667 27.8667 19.3333Z" fill="#4E91DC"/>
</svg>
