<svg width="19" height="21" viewBox="0 0 19 21" fill="none" xmlns="http://www.w3.org/2000/svg">
<path d="M12.541 1.15996C12.7057 1.26593 12.8357 1.41794 12.9149 1.59714C12.994 1.77634 13.0187 1.97483 12.986 2.16796L12.268 6.39296C12.2104 6.73168 12.2411 7.07953 12.357 7.40296L14.167 12.453C15.047 12.627 15.827 12.853 16.434 13.13C16.8 13.297 17.158 13.506 17.438 13.776C17.719 14.047 18 14.459 18 15C18 15.848 17.337 16.37 16.88 16.64C16.357 16.949 15.666 17.193 14.9 17.384C13.352 17.771 11.266 18 9 18C6.734 18 4.648 17.771 3.1 17.384C2.334 17.193 1.643 16.949 1.12 16.64C0.663 16.37 0 15.848 0 15C0 14.46 0.28 14.047 0.562 13.776C0.842 13.506 1.2 13.296 1.566 13.13C2.174 12.853 2.953 12.627 3.834 12.452L6.294 5.58596C6.58051 4.78605 7.1143 4.09815 7.818 3.62196L11.44 1.17196C11.6021 1.06229 11.7928 1.00259 11.9885 1.00028C12.1843 0.997972 12.3763 1.05414 12.541 1.15996ZM15.778 3.43096C15.948 3.07796 16.005 3.03196 16.116 3.22296L16.183 3.35096L16.222 3.43096C16.6514 4.3255 17.3092 5.09092 18.129 5.64996L18.355 5.79696C18.618 5.95696 18.663 6.00296 18.433 6.15496L18.355 6.20396C17.5099 6.72293 16.8166 7.45556 16.345 8.32796L16.116 8.77696C16.006 8.96796 15.948 8.92196 15.778 8.56896C15.3486 7.67442 14.6908 6.909 13.871 6.34996L13.514 6.11996C13.375 6.01996 13.384 5.96696 13.567 5.84596L13.645 5.79596C14.5684 5.22891 15.309 4.40784 15.778 3.43096ZM4.598 0.664961L4.667 0.787961C4.981 1.36796 5.455 1.86396 6.043 2.23296L6.269 2.36396C6.454 2.46496 6.482 2.50196 6.384 2.56896L6.269 2.63596C5.66869 2.95719 5.16031 3.42633 4.792 3.99896L4.591 4.34296C4.514 4.45896 4.473 4.44896 4.403 4.33496L4.333 4.21296C4.00739 3.62012 3.53321 3.12216 2.957 2.76796L2.731 2.63596C2.546 2.53496 2.518 2.49796 2.616 2.43096L2.731 2.36396C3.33131 2.04273 3.83969 1.57359 4.208 1.00096L4.333 0.787961C4.465 0.544961 4.508 0.518961 4.598 0.664961Z" fill="#355E3B"/>
</svg>
