<svg width="440" height="1278" viewBox="0 0 440 1278" fill="none" xmlns="http://www.w3.org/2000/svg">
<g clip-path="url(#clip0_323_3355)">
<rect x="2.5" y="2.5" width="435" height="1273" rx="17.5" fill="#E9C982" stroke="#7A6545" stroke-width="5"/>
<path d="M67.7159 238.912V326.644H371.238V238.912H67.7159Z" fill="#9F8448"/>
<path d="M46.6533 238.912C41.1305 238.912 36.6533 243.389 36.6533 248.912V351.603L67.7159 326.644V238.912H46.6533Z" fill="#CAAE6C"/>
<path d="M403.348 351.603V248.912C403.348 243.389 398.871 238.912 393.348 238.912H371.238V326.644L403.348 351.603Z" fill="#CAAE6C"/>
<path d="M36.6533 351.603H403.348L371.238 326.644H67.7159L36.6533 351.603Z" fill="#CAAE6C"/>
<path d="M370.381 329.144L396.059 349.104H43.7549L68.5967 329.144H370.381ZM393.348 241.412C397.49 241.412 400.848 244.77 400.848 248.912V346.492L373.738 325.42V241.412H393.348ZM46.6533 241.412H65.2158V325.445L39.1533 346.387V248.912C39.1533 244.77 42.5112 241.412 46.6533 241.412ZM368.738 241.412V324.144H70.2158V241.412H368.738Z" stroke="#7A6545" stroke-width="5"/>
<path d="M67.7159 404.912V492.644H371.238V404.912H67.7159Z" fill="#9F8448"/>
<path d="M46.6533 404.912C41.1305 404.912 36.6533 409.389 36.6533 414.912V517.603L67.7159 492.644V404.912H46.6533Z" fill="#CAAE6C"/>
<path d="M403.348 517.603V414.912C403.348 409.389 398.871 404.912 393.348 404.912H371.238V492.644L403.348 517.603Z" fill="#CAAE6C"/>
<path d="M36.6533 517.603H403.348L371.238 492.644H67.7159L36.6533 517.603Z" fill="#CAAE6C"/>
<path d="M370.381 495.144L396.059 515.104H43.7549L68.5967 495.144H370.381ZM393.348 407.412C397.49 407.412 400.848 410.77 400.848 414.912V512.492L373.738 491.42V407.412H393.348ZM46.6533 407.412H65.2158V491.445L39.1533 512.387V414.912C39.1533 410.77 42.5112 407.412 46.6533 407.412ZM368.738 407.412V490.144H70.2158V407.412H368.738Z" stroke="#7A6545" stroke-width="5"/>
<path d="M67.7159 570.912V658.644H371.238V570.912H67.7159Z" fill="#9F8448"/>
<path d="M46.6533 570.912C41.1305 570.912 36.6533 575.389 36.6533 580.912V683.603L67.7159 658.644V570.912H46.6533Z" fill="#CAAE6C"/>
<path d="M403.348 683.603V580.912C403.348 575.389 398.871 570.912 393.348 570.912H371.238V658.644L403.348 683.603Z" fill="#CAAE6C"/>
<path d="M36.6533 683.603H403.348L371.238 658.644H67.7159L36.6533 683.603Z" fill="#CAAE6C"/>
<path d="M370.381 661.144L396.059 681.104H43.7549L68.5967 661.144H370.381ZM393.348 573.412C397.49 573.412 400.848 576.77 400.848 580.912V678.492L373.738 657.42V573.412H393.348ZM46.6533 573.412H65.2158V657.445L39.1533 678.387V580.912C39.1533 576.77 42.5112 573.412 46.6533 573.412ZM368.738 573.412V656.144H70.2158V573.412H368.738Z" stroke="#7A6545" stroke-width="5"/>
<path d="M67.7159 736.912V824.644H371.238V736.912H67.7159Z" fill="#9F8448"/>
<path d="M46.6533 736.912C41.1305 736.912 36.6533 741.389 36.6533 746.912V849.603L67.7159 824.644V736.912H46.6533Z" fill="#CAAE6C"/>
<path d="M403.348 849.603V746.912C403.348 741.389 398.871 736.912 393.348 736.912H371.238V824.644L403.348 849.603Z" fill="#CAAE6C"/>
<path d="M36.6533 849.603H403.348L371.238 824.644H67.7159L36.6533 849.603Z" fill="#CAAE6C"/>
<path d="M370.381 827.144L396.059 847.104H43.7549L68.5967 827.144H370.381ZM393.348 739.412C397.49 739.412 400.848 742.77 400.848 746.912V844.492L373.738 823.42V739.412H393.348ZM46.6533 739.412H65.2158V823.445L39.1533 844.387V746.912C39.1533 742.77 42.5112 739.412 46.6533 739.412ZM368.738 739.412V822.144H70.2158V739.412H368.738Z" stroke="#7A6545" stroke-width="5"/>
<path d="M67.0626 903V990.732H370.585V903H67.0626Z" fill="#9F8448"/>
<path d="M46 903C40.4772 903 36 907.477 36 913V1015.69L67.0626 990.732V903H46Z" fill="#CAAE6C"/>
<path d="M402.694 1015.69V913C402.694 907.477 398.217 903 392.694 903H370.585V990.732L402.694 1015.69Z" fill="#CAAE6C"/>
<path d="M36 1015.69H402.694L370.585 990.732H67.0626L36 1015.69Z" fill="#CAAE6C"/>
<path d="M369.728 993.231L395.405 1013.19H43.1016L67.9434 993.231H369.728ZM392.694 905.5C396.836 905.5 400.194 908.858 400.194 913V1010.58L373.085 989.508V905.5H392.694ZM46 905.5H64.5625V989.533L38.5 1010.47V913C38.5 908.858 41.8579 905.5 46 905.5ZM368.085 905.5V988.231H69.5625V905.5H368.085Z" stroke="#7A6545" stroke-width="5"/>
<path d="M67.0626 1069V1156.73H370.585V1069H67.0626Z" fill="#9F8448"/>
<path d="M46 1069C40.4772 1069 36 1073.48 36 1079V1181.69L67.0626 1156.73V1069H46Z" fill="#CAAE6C"/>
<path d="M402.694 1181.69V1079C402.694 1073.48 398.217 1069 392.694 1069H370.585V1156.73L402.694 1181.69Z" fill="#CAAE6C"/>
<path d="M36 1181.69H402.694L370.585 1156.73H67.0626L36 1181.69Z" fill="#CAAE6C"/>
<path d="M369.728 1159.23L395.405 1179.19H43.1016L67.9434 1159.23H369.728ZM392.694 1071.5C396.836 1071.5 400.194 1074.86 400.194 1079V1176.58L373.085 1155.51V1071.5H392.694ZM46 1071.5H64.5625V1155.53L38.5 1176.47V1079C38.5 1074.86 41.8579 1071.5 46 1071.5ZM368.085 1071.5V1154.23H69.5625V1071.5H368.085Z" stroke="#7A6545" stroke-width="5"/>
</g>
<defs>
<clipPath id="clip0_323_3355">
<rect width="440" height="1278" fill="white"/>
</clipPath>
</defs>
</svg>
