<svg width="69" height="68" viewBox="0 0 69 68" fill="none" xmlns="http://www.w3.org/2000/svg">
<path d="M56.3855 40.8458H50.5771C49.4887 40.8458 48.6063 41.7282 48.6063 42.8166C48.6063 43.905 49.4887 44.7873 50.5771 44.7873H56.3855C57.4228 44.7873 58.3563 45.6171 58.3563 46.7581C58.3563 47.899 57.5265 48.7288 56.3855 48.7288H7.84328C6.80605 48.7288 5.87255 49.5586 5.87255 50.6995C5.87255 51.7368 6.70233 52.6703 7.84328 52.6703H56.4893C59.7047 52.6703 62.2977 50.0772 62.2977 46.8618C62.2977 43.4389 59.6009 40.8458 56.3855 40.8458ZM58.1667 25.4167C57.9826 26.5224 56.8809 27.3879 55.7637 27.2973C54.7673 27.2166 54.1202 26.3978 54.2838 25.4116C54.932 21.5068 56.4961 12.2215 56.9041 9.93625C57.1769 8.4816 57.6887 4.71597 61.7923 3.80818C62.855 3.57308 63.7499 4.49145 63.7499 5.57987C63.7499 6.66828 62.768 7.36592 61.8412 7.93656C61.1461 8.36451 60.9755 9.14329 60.8456 10.2474C60.3666 12.4827 58.8431 21.3539 58.1667 25.4167Z" fill="#9EB3A9"/>
<path d="M58.0451 13.5666H5.45765C3.48692 13.5666 3.17575 15.4336 3.48692 16.4708L9.39912 42.8166C9.71029 43.8538 10.7475 44.6836 11.8885 44.6836H53.1701C54.2074 44.6836 55.2446 43.8538 55.452 42.7128L59.8084 15.4336C59.9121 14.5001 59.0823 13.5666 58.0451 13.5666ZM8.46562 22.3831L7.42839 18.4416C7.32466 17.9229 7.63583 17.5081 8.15445 17.5081H15.5188C16.0374 17.5081 16.556 17.9229 16.556 18.4416L16.9709 22.3831C17.0746 22.9017 16.6597 23.3166 16.1411 23.3166H9.60657C9.08795 23.3166 8.56934 22.9017 8.46562 22.3831ZM11.7847 32.0293C10.6903 32.0293 10.4112 30.5618 10.1544 29.4979L9.81401 28.0878C9.71029 27.5692 10.0215 27.1543 10.5401 27.1543H16.4523C16.9709 27.1543 17.4895 27.5692 17.4895 28.0878L17.8007 30.9921C17.9046 31.5117 16.0737 31.9913 15.5439 32.0011C14.0083 32.0293 11.7847 32.0293 11.7847 32.0293ZM18.0081 40.8458H13.9629C12.8685 40.8458 12.5893 39.3783 12.3325 38.3144L11.9922 36.9043C11.8885 36.3857 12.1996 35.9708 12.7182 35.9708H17.3858C17.9044 35.9708 18.423 36.3857 18.423 36.9043L18.5753 38.3259C18.6807 39.3097 18.9976 40.8458 18.0081 40.8458ZM29.9362 39.8086C29.9362 40.3272 29.5213 40.7421 29.0027 40.7421H23.9203C23.4017 40.7421 22.8831 40.3272 22.8831 39.8086L22.5719 36.9043C22.4682 36.3857 22.8831 35.9708 23.4017 35.9708H29.0027C29.5213 35.9708 29.9362 36.3857 29.9362 36.9043V39.8086ZM29.9362 31.0958C29.9362 31.6144 29.5213 32.0293 29.0027 32.0293H22.9868C22.4682 32.0293 21.9496 31.6144 21.9496 31.0958L21.6384 28.1916C21.5347 27.6729 21.9496 27.2581 22.4682 27.2581H29.0027C29.5213 27.2581 29.9362 27.6729 29.9362 28.1916V31.0958ZM29.9362 22.3831C29.9362 22.3831 29.9362 22.3831 29.9362 22.3831C29.9362 22.9017 29.5213 23.3166 29.0027 23.3166H22.0533C21.5347 23.3166 21.0161 22.9017 21.0161 22.3831L20.4975 18.4416C20.3937 17.9229 20.8086 17.5081 21.3272 17.5081H28.899C29.7096 17.5081 29.9001 19.0918 29.9152 19.9023C29.9362 21.0242 29.9362 22.383 29.9362 22.3831ZM40.5159 39.8086C40.4122 40.3272 39.9973 40.7421 39.4787 40.7421H34.9149C34.3963 40.7421 33.9814 40.3272 33.9814 39.8086V36.9043C33.9814 36.3857 34.3963 35.9708 34.9149 35.9708H39.9973C40.5159 35.9708 40.9308 36.3857 40.8271 36.9043L40.5159 39.8086ZM41.4495 31.0958C41.3457 31.6144 40.9308 32.0293 40.4122 32.0293H34.9149C34.3963 32.0293 33.9814 31.6144 33.9814 31.0958V28.1916C33.9814 27.6729 34.3963 27.2581 34.9149 27.2581H40.9308C41.4495 27.2581 41.8643 27.6729 41.7606 28.1916L41.4495 31.0958ZM42.383 22.3831C42.2792 22.9017 41.8643 23.3166 41.3457 23.3166H34.9149C34.3963 23.3166 33.9814 22.9017 33.9814 22.3831V18.4416C33.9814 17.9229 34.3963 17.5081 34.9149 17.5081H41.9681C42.4867 17.5081 42.9016 17.9229 42.7979 18.4416L42.383 22.3831ZM51.4068 39.8086C51.3031 40.3272 50.7845 40.7421 50.2659 40.7421H45.2872C44.7686 40.7421 44.3537 40.3272 44.4574 39.8086L44.7686 36.9043C44.8723 36.3857 45.2872 35.9708 45.8058 35.9708H51.0957C51.6143 35.9708 52.0292 36.3857 51.9255 36.9043L51.4068 39.8086ZM52.7552 31.0958C52.6515 31.6144 52.1329 32.0293 51.6143 32.0293H46.117C45.5984 32.0293 45.1835 31.6144 45.2872 31.0958L45.5984 28.1916C45.7021 27.6729 46.117 27.2581 46.6356 27.2581H52.3403C52.859 27.2581 53.2739 27.6729 53.1701 28.1916L52.7552 31.0958ZM54.1036 22.3831C53.9999 22.9017 53.4813 23.3166 52.9627 23.3166H47.0505C46.5319 23.3166 46.117 22.9017 46.2207 22.3831L46.6356 18.4416C46.7393 17.9229 47.1542 17.5081 47.6728 17.5081H53.7925C54.3111 17.5081 54.726 17.9229 54.6222 18.4416L54.1036 22.3831Z" fill="#EE8F00"/>
<path d="M14.0666 65.1171C17.2746 65.1171 19.8751 62.5165 19.8751 59.3086C19.8751 56.1006 17.2746 53.5001 14.0666 53.5001C10.8587 53.5001 8.25817 56.1006 8.25817 59.3086C8.25817 62.5165 10.8587 65.1171 14.0666 65.1171Z" fill="#5F6964"/>
<path d="M14.0666 62.2128C15.6706 62.2128 16.9709 60.9126 16.9709 59.3086C16.9709 57.7046 15.6706 56.4043 14.0666 56.4043C12.4627 56.4043 11.1624 57.7046 11.1624 59.3086C11.1624 60.9126 12.4627 62.2128 14.0666 62.2128Z" fill="#F7F6EB"/>
<path d="M49.1249 65.1171C52.3329 65.1171 54.9334 62.5165 54.9334 59.3086C54.9334 56.1006 52.3329 53.5001 49.1249 53.5001C45.917 53.5001 43.3165 56.1006 43.3165 59.3086C43.3165 62.5165 45.917 65.1171 49.1249 65.1171Z" fill="#5F6964"/>
<path d="M52.0292 59.3086C52.0292 60.9682 50.6808 62.2128 49.1249 62.2128C47.4654 62.2128 46.2207 60.8644 46.2207 59.3086C46.2207 57.649 47.5691 56.4043 49.1249 56.4043C50.6808 56.4043 52.0292 57.649 52.0292 59.3086Z" fill="#F7F6EB"/>
<path d="M64.6834 2.88306C63.0794 2.88306 61.7791 4.18334 61.7791 5.78731C61.7791 7.39128 63.0794 8.69157 64.6834 8.69157C65.202 8.69157 65.6169 8.27667 65.6169 7.75806V3.81657C65.6169 3.29795 65.202 2.88306 64.6834 2.88306Z" fill="#5F6964"/>
<path d="M14.0666 51.5293C12.5351 51.5293 11.0977 51.9867 9.88531 52.7708C6.27757 55.1037 9.77031 59.3086 14.0666 59.3086C18.363 59.3086 21.9217 55.0636 18.3016 52.7498C17.0895 51.9752 15.6389 51.5293 14.0666 51.5293ZM49.1249 51.5293C47.5934 51.5293 46.156 51.9867 44.9436 52.7708C41.3359 55.1037 44.8286 59.3086 49.1249 59.3086C53.4213 59.3086 56.948 55.0833 53.3328 52.7619C52.1149 51.9798 50.6677 51.5293 49.1249 51.5293Z" fill="#EE8F00"/>
<path d="M56.3855 40.8458H50.5771C49.4887 40.8458 48.6063 41.7282 48.6063 42.8166C48.6063 43.905 49.4887 44.7873 50.5771 44.7873H56.3855C57.4228 44.7873 58.3563 45.6171 58.3563 46.7581C58.3563 47.899 57.5265 48.7288 56.3855 48.7288H7.84328C6.80605 48.7288 5.87255 49.5586 5.87255 50.6995C5.87255 51.7368 6.70233 52.6703 7.84328 52.6703H56.4893C59.7047 52.6703 62.2977 50.0772 62.2977 46.8618C62.2977 43.4389 59.6009 40.8458 56.3855 40.8458ZM58.1667 25.4167C57.9826 26.5224 56.8809 27.3879 55.7637 27.2973C54.7673 27.2166 54.1202 26.3978 54.2838 25.4116C54.932 21.5068 56.4961 12.2215 56.9041 9.93625C57.1769 8.4816 57.6887 4.71597 61.7923 3.80818C62.855 3.57308 63.7499 4.49145 63.7499 5.57987C63.7499 6.66828 62.768 7.36592 61.8412 7.93656C61.1461 8.36451 60.9755 9.14329 60.8456 10.2474C60.3666 12.4827 58.8431 21.3539 58.1667 25.4167Z" stroke="#F7F6EB" stroke-width="5"/>
<path d="M58.0451 13.5666H5.45765C3.48692 13.5666 3.17575 15.4336 3.48692 16.4708L9.39912 42.8166C9.71029 43.8538 10.7475 44.6836 11.8885 44.6836H53.1701C54.2074 44.6836 55.2446 43.8538 55.452 42.7128L59.8084 15.4336C59.9121 14.5001 59.0823 13.5666 58.0451 13.5666ZM8.46562 22.3831L7.42839 18.4416C7.32466 17.9229 7.63583 17.5081 8.15445 17.5081H15.5188C16.0374 17.5081 16.556 17.9229 16.556 18.4416L16.9709 22.3831C17.0746 22.9017 16.6597 23.3166 16.1411 23.3166H9.60657C9.08795 23.3166 8.56934 22.9017 8.46562 22.3831ZM11.7847 32.0293C10.6903 32.0293 10.4112 30.5618 10.1544 29.4979L9.81401 28.0878C9.71029 27.5692 10.0215 27.1543 10.5401 27.1543H16.4523C16.9709 27.1543 17.4895 27.5692 17.4895 28.0878L17.8007 30.9921C17.9046 31.5117 16.0737 31.9913 15.5439 32.0011C14.0083 32.0293 11.7847 32.0293 11.7847 32.0293ZM18.0081 40.8458H13.9629C12.8685 40.8458 12.5893 39.3783 12.3325 38.3144L11.9922 36.9043C11.8885 36.3857 12.1996 35.9708 12.7182 35.9708H17.3858C17.9044 35.9708 18.423 36.3857 18.423 36.9043L18.5753 38.3259C18.6807 39.3097 18.9976 40.8458 18.0081 40.8458ZM29.9362 39.8086C29.9362 40.3272 29.5213 40.7421 29.0027 40.7421H23.9203C23.4017 40.7421 22.8831 40.3272 22.8831 39.8086L22.5719 36.9043C22.4682 36.3857 22.8831 35.9708 23.4017 35.9708H29.0027C29.5213 35.9708 29.9362 36.3857 29.9362 36.9043V39.8086ZM29.9362 31.0958C29.9362 31.6144 29.5213 32.0293 29.0027 32.0293H22.9868C22.4682 32.0293 21.9496 31.6144 21.9496 31.0958L21.6384 28.1916C21.5347 27.6729 21.9496 27.2581 22.4682 27.2581H29.0027C29.5213 27.2581 29.9362 27.6729 29.9362 28.1916V31.0958ZM29.9362 22.3831C29.9362 22.3831 29.9362 22.3831 29.9362 22.3831C29.9362 22.9017 29.5213 23.3166 29.0027 23.3166H22.0533C21.5347 23.3166 21.0161 22.9017 21.0161 22.3831L20.4975 18.4416C20.3937 17.9229 20.8086 17.5081 21.3272 17.5081H28.899C29.7096 17.5081 29.9001 19.0918 29.9152 19.9023C29.9362 21.0242 29.9362 22.383 29.9362 22.3831ZM40.5159 39.8086C40.4122 40.3272 39.9973 40.7421 39.4787 40.7421H34.9149C34.3963 40.7421 33.9814 40.3272 33.9814 39.8086V36.9043C33.9814 36.3857 34.3963 35.9708 34.9149 35.9708H39.9973C40.5159 35.9708 40.9308 36.3857 40.8271 36.9043L40.5159 39.8086ZM41.4495 31.0958C41.3457 31.6144 40.9308 32.0293 40.4122 32.0293H34.9149C34.3963 32.0293 33.9814 31.6144 33.9814 31.0958V28.1916C33.9814 27.6729 34.3963 27.2581 34.9149 27.2581H40.9308C41.4495 27.2581 41.8643 27.6729 41.7606 28.1916L41.4495 31.0958ZM42.383 22.3831C42.2792 22.9017 41.8643 23.3166 41.3457 23.3166H34.9149C34.3963 23.3166 33.9814 22.9017 33.9814 22.3831V18.4416C33.9814 17.9229 34.3963 17.5081 34.9149 17.5081H41.9681C42.4867 17.5081 42.9016 17.9229 42.7979 18.4416L42.383 22.3831ZM51.4068 39.8086C51.3031 40.3272 50.7845 40.7421 50.2659 40.7421H45.2872C44.7686 40.7421 44.3537 40.3272 44.4574 39.8086L44.7686 36.9043C44.8723 36.3857 45.2872 35.9708 45.8058 35.9708H51.0957C51.6143 35.9708 52.0292 36.3857 51.9255 36.9043L51.4068 39.8086ZM52.7552 31.0958C52.6515 31.6144 52.1329 32.0293 51.6143 32.0293H46.117C45.5984 32.0293 45.1835 31.6144 45.2872 31.0958L45.5984 28.1916C45.7021 27.6729 46.117 27.2581 46.6356 27.2581H52.3403C52.859 27.2581 53.2739 27.6729 53.1701 28.1916L52.7552 31.0958ZM54.1036 22.3831C53.9999 22.9017 53.4813 23.3166 52.9627 23.3166H47.0505C46.5319 23.3166 46.117 22.9017 46.2207 22.3831L46.6356 18.4416C46.7393 17.9229 47.1542 17.5081 47.6728 17.5081H53.7925C54.3111 17.5081 54.726 17.9229 54.6222 18.4416L54.1036 22.3831Z" stroke="#F7F6EB" stroke-width="5"/>
<path d="M14.0666 65.1171C17.2746 65.1171 19.8751 62.5165 19.8751 59.3086C19.8751 56.1006 17.2746 53.5001 14.0666 53.5001C10.8587 53.5001 8.25817 56.1006 8.25817 59.3086C8.25817 62.5165 10.8587 65.1171 14.0666 65.1171Z" stroke="#F7F6EB" stroke-width="5"/>
<path d="M14.0666 62.2128C15.6706 62.2128 16.9709 60.9126 16.9709 59.3086C16.9709 57.7046 15.6706 56.4043 14.0666 56.4043C12.4627 56.4043 11.1624 57.7046 11.1624 59.3086C11.1624 60.9126 12.4627 62.2128 14.0666 62.2128Z" stroke="#F7F6EB" stroke-width="5"/>
<path d="M49.1249 65.1171C52.3329 65.1171 54.9334 62.5165 54.9334 59.3086C54.9334 56.1006 52.3329 53.5001 49.1249 53.5001C45.917 53.5001 43.3165 56.1006 43.3165 59.3086C43.3165 62.5165 45.917 65.1171 49.1249 65.1171Z" stroke="#F7F6EB" stroke-width="5"/>
<path d="M52.0292 59.3086C52.0292 60.9682 50.6808 62.2128 49.1249 62.2128C47.4654 62.2128 46.2207 60.8644 46.2207 59.3086C46.2207 57.649 47.5691 56.4043 49.1249 56.4043C50.6808 56.4043 52.0292 57.649 52.0292 59.3086Z" stroke="#F7F6EB" stroke-width="5"/>
<path d="M64.6834 2.88306C63.0794 2.88306 61.7791 4.18334 61.7791 5.78731C61.7791 7.39128 63.0794 8.69157 64.6834 8.69157C65.202 8.69157 65.6169 8.27667 65.6169 7.75806V3.81657C65.6169 3.29795 65.202 2.88306 64.6834 2.88306Z" stroke="#F7F6EB" stroke-width="5"/>
<path d="M14.0666 51.5293C12.5351 51.5293 11.0977 51.9867 9.88531 52.7708C6.27757 55.1037 9.77031 59.3086 14.0666 59.3086C18.363 59.3086 21.9217 55.0636 18.3016 52.7498C17.0895 51.9752 15.6389 51.5293 14.0666 51.5293ZM49.1249 51.5293C47.5934 51.5293 46.156 51.9867 44.9436 52.7708C41.3359 55.1037 44.8286 59.3086 49.1249 59.3086C53.4213 59.3086 56.948 55.0833 53.3328 52.7619C52.1149 51.9798 50.6677 51.5293 49.1249 51.5293Z" stroke="#F7F6EB" stroke-width="5"/>
<path d="M55.9297 40.7031H48.3125V44.5625H55.9297C56.9453 44.5625 57.8594 45.375 57.8594 46.4922C57.8594 47.6094 57.0469 48.4219 55.9297 48.4219H8.39844C7.38281 48.4219 6.46875 49.2344 6.46875 50.3516C6.46875 51.3672 7.28125 52.2812 8.39844 52.2812H56.0312C59.1797 52.2812 61.7187 49.7422 61.7187 46.5937C61.7187 43.2422 59.0781 40.7031 55.9297 40.7031ZM57.3516 27.6016L53.5937 27.2969C53.5937 27.1953 55.9297 13.2812 56.4375 10.4375C56.7422 8.8125 57.3516 4.24219 63.1406 4.24219V8.10156C60.8047 8.10156 60.5 9.01562 60.2969 10.7422C59.6875 13.5859 57.3516 27.3984 57.3516 27.6016Z" fill="#9EB3A9"/>
<path d="M57.5546 13.9922H6.06239C4.1327 13.9922 3.82802 15.8203 4.1327 16.8359L9.92177 42.6328C10.2265 43.6484 11.2421 44.4609 12.3593 44.4609H52.7811C53.7968 44.4609 54.8124 43.6484 55.0155 42.5313L59.2812 15.8203C59.3827 14.9063 58.5702 13.9922 57.5546 13.9922ZM9.0077 22.625L7.99208 18.7656C7.89052 18.2578 8.1952 17.8516 8.70302 17.8516H15.914C16.4218 17.8516 16.9296 18.2578 16.9296 18.7656L17.3358 22.625C17.4374 23.1328 17.0311 23.5391 16.5233 23.5391H10.1249C9.61708 23.5391 9.10927 23.1328 9.0077 22.625ZM12.2577 32.0703C11.7499 32.0703 11.2421 31.6641 11.039 31.1563L10.328 28.2109C10.2265 27.7031 10.5311 27.2969 11.039 27.2969H16.828C17.3358 27.2969 17.8436 27.7031 17.8436 28.2109L18.1483 31.0547C18.2499 31.5625 17.8436 31.9688 17.3358 31.9688C17.4374 32.0703 12.2577 32.0703 12.2577 32.0703ZM18.3515 40.7031H14.3905C13.8827 40.7031 13.3749 40.2969 13.1718 39.7891L12.4608 36.8438C12.3593 36.3359 12.664 35.9297 13.1718 35.9297H17.7421C18.2499 35.9297 18.7577 36.3359 18.7577 36.8438L19.0624 39.6875C19.2655 40.1953 18.8593 40.7031 18.3515 40.7031ZM30.0311 39.6875C30.0311 40.1953 29.6249 40.6016 29.1171 40.6016H24.1405C23.6327 40.6016 23.1249 40.1953 23.1249 39.6875L22.8202 36.8438C22.7186 36.3359 23.1249 35.9297 23.6327 35.9297H29.1171C29.6249 35.9297 30.0311 36.3359 30.0311 36.8438V39.6875ZM30.0311 31.1563C30.0311 31.6641 29.6249 32.0703 29.1171 32.0703H23.2265C22.7186 32.0703 22.2108 31.6641 22.2108 31.1563L21.9061 28.3125C21.8046 27.8047 22.2108 27.3984 22.7186 27.3984H29.1171C29.6249 27.3984 30.0311 27.8047 30.0311 28.3125V31.1563ZM30.0311 22.625C30.0311 23.1328 29.6249 23.5391 29.1171 23.5391H22.3124C21.8046 23.5391 21.2968 23.1328 21.2968 22.625L20.789 18.7656C20.6874 18.2578 21.0936 17.8516 21.6015 17.8516H29.0155C29.5233 17.8516 29.9296 18.2578 29.9296 18.7656C30.0311 18.7656 30.0311 22.625 30.0311 22.625ZM40.3905 39.6875C40.289 40.1953 39.8827 40.6016 39.3749 40.6016H34.9061C34.3983 40.6016 33.9921 40.1953 33.9921 39.6875V36.8438C33.9921 36.3359 34.3983 35.9297 34.9061 35.9297H39.8827C40.3905 35.9297 40.7968 36.3359 40.6952 36.8438L40.3905 39.6875ZM41.3046 31.1563C41.203 31.6641 40.7968 32.0703 40.289 32.0703H34.9061C34.3983 32.0703 33.9921 31.6641 33.9921 31.1563V28.3125C33.9921 27.8047 34.3983 27.3984 34.9061 27.3984H40.7968C41.3046 27.3984 41.7108 27.8047 41.6093 28.3125L41.3046 31.1563ZM42.2186 22.625C42.1171 23.1328 41.7108 23.5391 41.203 23.5391H34.9061C34.3983 23.5391 33.9921 23.1328 33.9921 22.625V18.7656C33.9921 18.2578 34.3983 17.8516 34.9061 17.8516H41.8124C42.3202 17.8516 42.7265 18.2578 42.6249 18.7656L42.2186 22.625ZM51.0546 39.6875C50.953 40.1953 50.4452 40.6016 49.9374 40.6016H45.0624C44.5546 40.6016 44.1483 40.1953 44.2499 39.6875L44.5546 36.8438C44.6561 36.3359 45.0624 35.9297 45.5702 35.9297H50.7499C51.2577 35.9297 51.664 36.3359 51.5624 36.8438L51.0546 39.6875ZM52.3749 31.1563C52.2733 31.6641 51.7655 32.0703 51.2577 32.0703H45.8749C45.3671 32.0703 44.9608 31.6641 45.0624 31.1563L45.3671 28.3125C45.4686 27.8047 45.8749 27.3984 46.3827 27.3984H51.9686C52.4765 27.3984 52.8827 27.8047 52.7811 28.3125L52.3749 31.1563ZM53.6952 22.625C53.5936 23.1328 53.0858 23.5391 52.578 23.5391H46.789C46.2811 23.5391 45.8749 23.1328 45.9765 22.625L46.3827 18.7656C46.4843 18.2578 46.8905 17.8516 47.3983 17.8516H53.3905C53.8983 17.8516 54.3046 18.2578 54.203 18.7656L53.6952 22.625Z" fill="#EE8F00"/>
<path d="M14.4922 64.4688C17.6333 64.4688 20.1797 61.9224 20.1797 58.7813C20.1797 55.6401 17.6333 53.0938 14.4922 53.0938C11.3511 53.0938 8.80469 55.6401 8.80469 58.7813C8.80469 61.9224 11.3511 64.4688 14.4922 64.4688Z" fill="#5F6964"/>
<path d="M14.4922 61.625C16.0627 61.625 17.3359 60.3518 17.3359 58.7813C17.3359 57.2107 16.0627 55.9375 14.4922 55.9375C12.9216 55.9375 11.6484 57.2107 11.6484 58.7813C11.6484 60.3518 12.9216 61.625 14.4922 61.625Z" fill="#F7F6EB"/>
<path d="M48.8203 64.4688C51.9614 64.4688 54.5078 61.9224 54.5078 58.7813C54.5078 55.6401 51.9614 53.0938 48.8203 53.0938C45.6792 53.0938 43.1328 55.6401 43.1328 58.7813C43.1328 61.9224 45.6792 64.4688 48.8203 64.4688Z" fill="#5F6964"/>
<path d="M51.6641 58.7813C51.6641 60.4063 50.3437 61.625 48.8203 61.625C47.1953 61.625 45.9766 60.3047 45.9766 58.7813C45.9766 57.1563 47.2969 55.9375 48.8203 55.9375C50.3437 55.9375 51.6641 57.1563 51.6641 58.7813Z" fill="#F7F6EB"/>
<path d="M64.0547 3.53125H61.2109V9.21875H64.0547C64.5625 9.21875 64.9688 8.8125 64.9688 8.30469V4.44531C64.9688 3.9375 64.5625 3.53125 64.0547 3.53125Z" fill="#5F6964"/>
<path d="M14.4922 51.1641C10.3281 51.1641 6.875 54.6172 6.875 58.7812H22.1094C22.1094 54.5156 18.7578 51.1641 14.4922 51.1641ZM48.8203 51.1641C44.6562 51.1641 41.2031 54.6172 41.2031 58.7812H56.4375C56.4375 54.5156 52.9844 51.1641 48.8203 51.1641Z" fill="#EE8F00"/>
</svg>
