<svg width="20" height="18" viewBox="0 0 20 18" fill="none" xmlns="http://www.w3.org/2000/svg">
<path d="M6.82846 0C6.03322 0.000435018 5.27069 0.316597 4.70846 0.879L1.70746 3.879C1.14505 4.44158 0.829102 5.20451 0.829102 6C0.829102 6.79549 1.14505 7.55842 1.70746 8.121L3.17246 9.586C3.35999 9.77347 3.6143 9.87879 3.87946 9.87879C4.14463 9.87879 4.39893 9.77347 4.58646 9.586L8.58646 5.586C8.77393 5.39847 8.87925 5.14416 8.87925 4.879C8.87925 4.61384 8.77393 4.35953 8.58646 4.172L6.47846 2.064C6.59036 2.02192 6.70891 2.00024 6.82846 2H13.1725C13.292 2.00024 13.4106 2.02192 13.5225 2.064L6.29246 9.293C5.93408 9.65105 5.6505 10.0768 5.45822 10.5455C5.26594 11.0142 5.1688 11.5164 5.17246 12.023C5.17377 12.5222 5.27345 13.0163 5.4658 13.477C5.65815 13.9377 5.93939 14.356 6.29346 14.708C6.69572 15.1108 7.18293 15.4187 7.71946 15.609C8.25599 15.7993 8.82827 15.8673 9.39446 15.808L10.7935 17.208C10.9811 17.3955 11.2355 17.5008 11.5008 17.5007C11.7661 17.5006 12.0205 17.3951 12.208 17.2075C12.3955 17.0199 12.5008 16.7654 12.5007 16.5001C12.5006 16.2349 12.3951 15.9805 12.2075 15.793L11.3985 14.984C11.5051 14.898 11.6085 14.8057 11.7085 14.707L12.0005 14.414L13.2935 15.707C13.4821 15.8892 13.7347 15.99 13.9969 15.9877C14.2591 15.9854 14.5099 15.8802 14.6953 15.6948C14.8807 15.5094 14.9859 15.2586 14.9881 14.9964C14.9904 14.7342 14.8896 14.4816 14.7075 14.293L13.4145 13L14.0005 12.414L15.7935 14.207C15.9821 14.3892 16.2347 14.49 16.4969 14.4877C16.7591 14.4854 17.0099 14.3802 17.1953 14.1948C17.3807 14.0094 17.4859 13.7586 17.4881 13.4964C17.4904 13.2342 17.3896 12.9816 17.2075 12.793L15.4145 11L18.2935 8.121C18.8559 7.55842 19.1718 6.79549 19.1718 6C19.1718 5.20451 18.8559 4.44158 18.2935 3.879L15.2935 0.879C14.731 0.316352 13.968 0.000169912 13.1725 0H6.82846Z" fill="#355E3B"/>
</svg>
