<svg width="34" height="42" viewBox="0 0 34 42" fill="none" xmlns="http://www.w3.org/2000/svg">
<path d="M1.72269 28.308L4.89733 22.4122C5.10443 22.0276 5.56151 21.8521 5.97279 21.9992C8.95318 17.4631 15.9392 8.86785 20.0402 10.7753C24.1412 12.6828 27.8687 13.6365 29.2198 13.875C31.1363 16.299 34.3587 23.1739 31.9158 31.2807C32.4854 31.4844 32.8115 32.0831 32.6738 32.6722L31.1089 39.3665C30.9076 40.2277 30.1624 40.8566 29.2789 40.8986C16.2105 41.5196 9.64813 39.4387 1.95366 30.522C1.42229 29.9063 1.33709 29.0242 1.72269 28.308Z" fill="#8BA8E9"/>
<path d="M5.97279 21.9992V21.9992C5.56151 21.8521 5.10443 22.0276 4.89733 22.4122L1.72269 28.308C1.33709 29.0242 1.42229 29.9063 1.95366 30.522C9.64813 39.4387 16.2105 41.5196 29.2789 40.8986C30.1624 40.8566 30.9076 40.2277 31.1089 39.3665L32.6738 32.6722C32.8115 32.0831 32.4854 31.4844 31.9158 31.2807V31.2807M5.97279 21.9992C8.95318 17.4631 15.9392 8.86785 20.0402 10.7753C24.1412 12.6828 27.8687 13.6365 29.2198 13.875C31.1363 16.299 34.3587 23.1739 31.9158 31.2807M5.97279 21.9992C13.676 29.579 19.613 31.1925 31.9158 31.2807" stroke="#5F6964" stroke-width="2"/>
<path d="M25.5273 2.1189C28.8594 2.11915 31.5605 4.82084 31.5605 8.15308C31.5603 11.4851 28.8593 14.186 25.5273 14.1863C22.1952 14.1863 19.4934 11.4853 19.4932 8.15308C19.4932 4.82068 22.195 2.1189 25.5273 2.1189Z" fill="#F7F6EB" stroke="#8BA8E9" stroke-width="2"/>
<path d="M22.6602 3.50269L23.0178 4.21799" stroke="#E5E9E4" stroke-width="2" stroke-linecap="round"/>
<path d="M21.4717 7.55679L22.783 7.31836" stroke="#E5E9E4" stroke-width="2" stroke-linecap="round"/>
<path d="M23.8564 10.5378L25.0486 12.4453" stroke="#E5E9E4" stroke-width="2" stroke-linecap="round"/>
<path d="M25.4082 1.7153V1" stroke="#E5E9E4" stroke-width="2" stroke-linecap="round"/>
<path d="M29.6934 12.5637L31.3624 11.8484" stroke="#E5E9E4" stroke-width="2" stroke-linecap="round"/>
<path d="M20.6365 12.0864L19.4443 12.3249" stroke="#E5E9E4" stroke-width="2" stroke-linecap="round"/>
<path d="M25.1631 14.2329L25.4015 15.1866" stroke="#E5E9E4" stroke-width="2" stroke-linecap="round"/>
<path d="M19.7992 8.86865H19.0293" stroke="#E5E9E4" stroke-width="2" stroke-linecap="round"/>
<path d="M27.0723 6.36554L27.4299 5.88867" stroke="#E5E9E4" stroke-width="2" stroke-linecap="round"/>
<path d="M28.1484 9.3457L29.6982 10.061" stroke="#E5E9E4" stroke-width="2" stroke-linecap="round"/>
<path d="M29.2178 3.50403L30.0523 2.55029" stroke="#E5E9E4" stroke-width="2" stroke-linecap="round"/>
<path d="M29.6934 6.36401H30.2894" stroke="#E5E9E4" stroke-width="2" stroke-linecap="round"/>
<path d="M31.3643 8.62939H32.4372" stroke="#E5E9E4" stroke-width="2" stroke-linecap="round"/>
<path d="M20.5173 4.69649L19.4443 3.62354" stroke="#E5E9E4" stroke-width="2" stroke-linecap="round"/>
</svg>
