<svg width="44" height="42" viewBox="0 0 44 42" fill="none" xmlns="http://www.w3.org/2000/svg">
<path fill-rule="evenodd" clip-rule="evenodd" d="M29.4112 14.4524L31.8722 21.4575C31.6075 23.8156 27.228 25.6202 21.9998 25.6202C16.7717 25.6202 12.3944 23.8156 12.1297 21.4575L14.5885 14.4524C15.166 16.1437 18.362 17.3438 21.9998 17.3438C25.6377 17.3438 28.8337 16.1437 29.4112 14.4524ZM27.4096 8.74298L26.8189 7.05763C26.1531 5.15807 25.588 3.54583 25.198 2.44014C24.8655 1.49116 23.3583 1 21.9998 1C20.6414 1 19.1342 1.49116 18.8017 2.44014L16.5901 8.74298C17.2595 9.94532 19.5433 10.7187 21.9998 10.7187C24.4586 10.7187 26.7402 9.94532 27.4096 8.74298ZM33.9394 27.1337L32.9922 24.4512L41.2063 27.8159C43.5098 28.7583 43.6082 30.5029 41.4229 31.6919L25.9724 40.1082C23.7871 41.2973 20.2105 41.2973 18.0273 40.1082L2.57898 31.6919C0.391448 30.5029 0.489887 28.7583 2.79335 27.8159L11.0075 24.4512L10.0603 27.1337C10.1063 29.9784 15.5401 32.243 21.9998 32.243C28.4618 32.243 33.8913 29.9762 33.9394 27.1337Z" fill="#EE8F00"/>
<path d="M31.8722 21.4575C31.6075 23.8156 27.228 25.6202 21.9998 25.6202C16.7717 25.6202 12.3944 23.8156 12.1297 21.4575L11.0075 24.4512L10.0603 27.1337C10.1063 29.9784 15.5401 32.243 21.9998 32.243C28.4618 32.243 33.8913 29.9762 33.9394 27.1337L32.9922 24.4512L31.8722 21.4575Z" fill="#F7F6EB"/>
<path d="M21.9998 17.3438C25.6377 17.3438 28.8337 16.1437 29.4112 14.4524L27.4096 8.74298C26.7402 9.94532 24.4586 10.7187 21.9998 10.7187C19.5433 10.7187 17.2595 9.94532 16.5901 8.74298L14.5885 14.4524C15.166 16.1437 18.362 17.3438 21.9998 17.3438Z" fill="#F7F6EB"/>
<path d="M31.8722 21.4575C31.6075 23.8156 27.228 25.6202 21.9998 25.6202C16.7717 25.6202 12.3944 23.8156 12.1297 21.4575M31.8722 21.4575L29.4112 14.4524M31.8722 21.4575L32.9922 24.4512M29.4112 14.4524C28.8337 16.1437 25.6377 17.3438 21.9998 17.3438C18.362 17.3438 15.166 16.1437 14.5885 14.4524M29.4112 14.4524L27.4096 8.74298M14.5885 14.4524L12.1297 21.4575M14.5885 14.4524L16.5901 8.74298M12.1297 21.4575L11.0075 24.4512M27.4096 8.74298C26.7402 9.94532 24.4586 10.7187 21.9998 10.7187C19.5433 10.7187 17.2595 9.94532 16.5901 8.74298M27.4096 8.74298C27.2057 8.16132 27.0082 7.59785 26.8189 7.05763M27.4096 8.74298L26.8189 7.05763M16.5901 8.74298L18.8017 2.44014C19.1342 1.49116 20.6414 1 21.9998 1C23.3583 1 24.8655 1.49116 25.198 2.44014C25.588 3.54583 26.1531 5.15807 26.8189 7.05763M32.9922 24.4512L41.2063 27.8159C43.5098 28.7583 43.6082 30.5029 41.4229 31.6919L25.9724 40.1082C23.7871 41.2973 20.2105 41.2973 18.0273 40.1082L2.57898 31.6919C0.391449 30.5029 0.489887 28.7583 2.79335 27.8159L11.0075 24.4512M32.9922 24.4512L33.9394 27.1337C33.8913 29.9762 28.4618 32.243 21.9998 32.243C15.5401 32.243 10.1063 29.9784 10.0603 27.1337L11.0075 24.4512" stroke="#9A5E05" stroke-width="2"/>
</svg>
