<svg width="62" height="42" viewBox="0 0 62 42" fill="none" xmlns="http://www.w3.org/2000/svg">
<path d="M44.0283 7.47163C46.7135 6.95628 52.8831 6.70293 57.4414 9.61842C59.4744 10.9187 60.4485 12.2436 60.4509 13.4772L60.7093 13.7439C62.1211 17.4048 58.1802 21.2254 53.4501 23.3064C50.1618 24.7532 45.9785 24.7405 42.8738 26.5481C37.9626 29.4075 30.864 34.8227 26.7029 38.1952C25.069 41.6164 5.56384 43.1257 1.78538 35.4784C-0.257047 30.5479 1.8875 23.8062 5.87022 18.2719C7.86261 14.9273 12.1156 14.5599 14.5505 14.8414C14.0059 12.1613 14.0195 6.72045 18.4311 6.39846C23.2512 4.7885 28.4049 2.44064 30.3793 1.46795C31.5707 0.851884 34.362 0.357996 35.9959 3.31097C36.6982 3.06692 37.3834 2.82219 38.0384 2.57482C40.384 1.41922 42.4811 4.11815 44.0283 7.47163Z" fill="#9A5E05"/>
<path d="M26.7029 38.1952C29.4602 30.3802 38.1609 15.535 50.9056 18.6745C57.0859 17.7577 60.4553 15.7758 60.4509 13.4772M26.7029 38.1952C25.069 41.6164 5.56384 43.1257 1.78538 35.4784C-0.257047 30.5479 1.8875 23.8062 5.87022 18.2719C7.86261 14.9273 12.1156 14.5599 14.5505 14.8414M26.7029 38.1952C30.864 34.8227 37.9626 29.4075 42.8738 26.5481C45.9785 24.7405 50.1618 24.7532 53.4501 23.3064C58.1802 21.2254 62.1211 17.4048 60.7093 13.7439L60.4509 13.4772M43.8593 7.50535C46.4464 6.96869 52.7847 6.63999 57.4414 9.61842C59.4744 10.9187 60.4485 12.2436 60.4509 13.4772M14.5505 14.8414C14.8053 16.7833 15.1956 20.0928 15.3161 22.1369C15.3759 23.1515 15.8902 24.3851 16.8953 24.5363C22.9466 25.447 41.7688 20.679 45.9233 14.7808C46.1995 14.3886 46.2511 13.892 46.1289 13.4282C44.867 8.63866 41.7665 0.738112 38.0384 2.57482C37.3834 2.82219 36.6982 3.06692 35.9959 3.31097M14.5505 14.8414C14.0059 12.1613 14.0195 6.72045 18.4311 6.39846C23.2512 4.7885 28.4049 2.44064 30.3793 1.46795C31.5707 0.851884 34.362 0.357996 35.9959 3.31097M22.6181 10.4234C23.0741 7.34176 30.1282 5.3502 35.9959 3.31097" stroke="#1F1F1F" stroke-width="2" stroke-linecap="round"/>
</svg>
