<svg width="78" height="44" viewBox="0 0 78 44" fill="none" xmlns="http://www.w3.org/2000/svg">
<g filter="url(#filter0_d_298_4436)">
<path d="M39 8.24219C55.5683 8.24222 68.9998 14.4018 69 22C69 29.5983 55.5684 35.7578 39 35.7578C22.4315 35.7578 9 29.5983 9 22C9.00018 14.4018 22.4316 8.24219 39 8.24219ZM39.1904 9.38867C24.2053 9.38876 12.0579 14.0084 12.0576 19.707C12.0576 25.4057 24.2051 30.0253 39.1904 30.0254C54.1759 30.0254 66.3242 25.4058 66.3242 19.707C66.324 14.0084 54.1758 9.38867 39.1904 9.38867Z" fill="url(#paint0_linear_298_4436)"/>
</g>
<defs>
<filter id="filter0_d_298_4436" x="0.8" y="0.0421877" width="76.4" height="43.9156" filterUnits="userSpaceOnUse" color-interpolation-filters="sRGB">
<feFlood flood-opacity="0" result="BackgroundImageFix"/>
<feColorMatrix in="SourceAlpha" type="matrix" values="0 0 0 0 0 0 0 0 0 0 0 0 0 0 0 0 0 0 127 0" result="hardAlpha"/>
<feOffset/>
<feGaussianBlur stdDeviation="4.1"/>
<feComposite in2="hardAlpha" operator="out"/>
<feColorMatrix type="matrix" values="0 0 0 0 1 0 0 0 0 0.920673 0 0 0 0 0.471154 0 0 0 1 0"/>
<feBlend mode="normal" in2="BackgroundImageFix" result="effect1_dropShadow_298_4436"/>
<feBlend mode="normal" in="SourceGraphic" in2="effect1_dropShadow_298_4436" result="shape"/>
</filter>
<linearGradient id="paint0_linear_298_4436" x1="39" y1="8.24219" x2="39" y2="35.7578" gradientUnits="userSpaceOnUse">
<stop stop-color="#FFFBCA"/>
<stop offset="0.5" stop-color="#E6C400"/>
<stop offset="1" stop-color="#FFFBCA"/>
</linearGradient>
</defs>
</svg>
