<svg width="40" height="41" viewBox="0 0 40 41" fill="none" xmlns="http://www.w3.org/2000/svg">
<path d="M17.2344 7.05883C19.5909 6.35554 20.8918 6.50141 22.9217 7.49749C25.357 5.85004 29.4803 3.28981 32.5981 1.92708C35.0616 0.850338 37.7173 2.12381 38.1441 4.77823C38.6953 8.20692 38.6227 13.3664 37.8106 16.9154C37.6618 18.554 36.5617 21.1381 33.4059 19.8518C32.5337 19.4963 31.708 19.0227 30.8312 18.6787C29.7127 18.2399 28.7194 17.8477 27.8453 17.5006C35.0097 23.6646 34.7738 29.4226 34.3611 30.8923C34.1106 31.7841 30.7909 35.4819 27.9842 38.4724C26.6427 39.9017 24.5306 39.8759 23.3639 38.3006C22.0667 36.549 22.0962 31.6521 22.2731 29.4226C22.3419 27.613 22.3261 23.6399 21.7129 22.2242C21.0633 20.7245 20.2149 17.9352 19.8934 16.4955C19.8183 16.8635 19.719 17.3073 19.6196 17.789C19.3837 18.9326 17.143 23.6039 17.143 26.0633C17.143 26.6395 17.5853 33.6217 17.143 35.8711C16.4921 39.1821 12.0914 39.4228 9.82803 36.9201C8.66228 35.6311 7.44577 34.0902 6.34971 32.3411C5.62648 31.187 5.11357 29.8739 5.21267 28.5155C5.54914 23.9034 9.56207 19.5658 11.8066 17.789C9.32656 18.9268 6.74862 19.9663 5.32034 20.1547C2.58432 20.1547 1.78239 16.5155 1.72342 14.6959C1.3598 10.1769 1.17504 1.22291 3.34499 1.55883C5.51493 1.89475 13.2921 5.75789 16.9095 7.64747C16.8437 7.39528 16.9846 7.13337 17.2344 7.05883Z" fill="#B45051"/>
<path d="M22.9217 7.49749C20.8918 6.50141 19.5909 6.35554 17.2344 7.05883C16.9846 7.13337 16.8437 7.39528 16.9095 7.64747V7.64747M22.9217 7.49749C21.9148 10.6253 21.8666 12.3781 22.9217 15.5057M22.9217 7.49749C25.357 5.85004 29.4803 3.28981 32.5981 1.92708C35.0616 0.850338 37.7173 2.12381 38.1441 4.77823C38.6953 8.20692 38.6227 13.3664 37.8106 16.9154C37.6618 18.554 36.5617 21.1381 33.4059 19.8518C32.5337 19.4963 31.708 19.0227 30.8312 18.6787C29.7127 18.2399 28.7194 17.8477 27.8453 17.5006M22.9217 15.5057H20.0029M22.9217 15.5057C23.4453 15.73 25.0229 16.3798 27.8453 17.5006M16.8557 15.2958V15.2958C16.8233 15.3997 16.9006 15.5057 17.0094 15.5057H20.0029M16.8557 15.2958C17.7535 12.4117 17.6863 10.6232 16.9095 7.64747M16.8557 15.2958C15.6328 15.9458 13.7497 16.8976 11.8066 17.789M16.9095 7.64747C13.2921 5.75789 5.51493 1.89475 3.34499 1.55883C1.17504 1.22291 1.3598 10.1769 1.72342 14.6959C1.78239 16.5155 2.58432 20.1547 5.32034 20.1547C6.74862 19.9663 9.32656 18.9268 11.8066 17.789M11.8066 17.789C9.56207 19.5658 5.54914 23.9034 5.21267 28.5155C5.11357 29.8739 5.62648 31.187 6.34971 32.3411C7.44577 34.0902 8.66228 35.6311 9.82803 36.9201C12.0914 39.4228 16.4921 39.1821 17.143 35.8711V35.8711C17.5853 33.6217 17.143 26.6395 17.143 26.0633C17.143 23.6039 19.3837 18.9326 19.6196 17.789C19.719 17.3073 19.8183 16.8635 19.8934 16.4955M20.0029 15.5057C20.0541 15.6272 19.9966 15.9898 19.8934 16.4955M19.8934 16.4955C20.2149 17.9352 21.0633 20.7245 21.7129 22.2242C22.3261 23.6399 22.3419 27.613 22.2731 29.4226C22.0962 31.6521 22.0667 36.549 23.3639 38.3006V38.3006C24.5306 39.8759 26.6427 39.9017 27.9842 38.4724C30.7909 35.4819 34.1106 31.7841 34.3611 30.8923C34.7738 29.4226 35.0097 23.6646 27.8453 17.5006" stroke="#582223" stroke-width="2"/>
</svg>
