<svg width="169" height="169" viewBox="0 0 169 169" fill="none" xmlns="http://www.w3.org/2000/svg">
<path d="M41.0315 55.7103L129.871 57.4011C137.308 57.5666 144.376 60.6736 149.527 66.0411C154.677 71.4087 157.49 78.599 157.348 86.0365C157.207 93.4741 154.123 100.552 148.772 105.72C143.421 110.888 136.24 113.723 128.802 113.606L39.9619 111.915C32.5249 111.75 25.4567 108.643 20.3063 103.275C15.1559 97.9075 12.3434 90.7171 12.4849 83.2796C12.6265 75.8421 15.7106 68.7639 21.0615 63.5963C26.4124 58.4286 33.5936 55.5928 41.0315 55.7103Z" fill="#D99E82"/>
<path d="M31.3721 71.9448C32.6383 73.2602 34.7312 73.3001 36.0466 72.0338C37.362 70.7675 37.4018 68.6747 36.1355 67.3593C34.8693 66.0439 32.7764 66.004 31.461 67.2703C30.1456 68.5366 30.1058 70.6294 31.3721 71.9448Z" fill="#C1694F"/>
<path d="M31.1074 85.9707C32.3737 87.2861 34.4665 87.3259 35.7819 86.0597C37.0973 84.7934 37.1372 82.7006 35.8709 81.3852C34.6046 80.0698 32.5118 80.0299 31.1964 81.2962C29.881 82.5625 29.8412 84.6553 31.1074 85.9707Z" fill="#C1694F"/>
<path d="M30.8379 99.9966C32.1042 101.312 34.197 101.352 35.5124 100.086C36.8278 98.8193 36.8676 96.7264 35.6014 95.411C34.3351 94.0956 32.2423 94.0558 30.9269 95.3221C29.6115 96.5883 29.5716 98.6812 30.8379 99.9966Z" fill="#C1694F"/>
<path d="M45.4004 72.2114C46.6667 73.5268 48.7595 73.5667 50.0749 72.3004C51.3903 71.0341 51.4301 68.9413 50.1639 67.6259C48.8976 66.3105 46.8048 66.2707 45.4894 67.5369C44.174 68.8032 44.1341 70.896 45.4004 72.2114Z" fill="#C1694F"/>
<path d="M45.1309 86.2373C46.3971 87.5527 48.49 87.5925 49.8054 86.3263C51.1208 85.06 51.1606 82.9672 49.8943 81.6518C48.6281 80.3364 46.5352 80.2965 45.2198 81.5628C43.9044 82.8291 43.8646 84.9219 45.1309 86.2373Z" fill="#C1694F"/>
<path d="M44.8662 100.264C46.1325 101.579 48.2253 101.619 49.5407 100.353C50.8561 99.0864 50.896 96.9935 49.6297 95.6781C48.3634 94.3627 46.2706 94.3229 44.9552 95.5892C43.6398 96.8554 43.6 98.9483 44.8662 100.264Z" fill="#C1694F"/>
<path d="M120.598 68.7036C120.944 68.4366 121.339 68.2409 121.761 68.1277C122.183 68.0146 122.624 67.9863 123.057 68.0444C123.49 68.1026 123.907 68.246 124.285 68.4665C124.662 68.687 124.992 68.9801 125.255 69.3289C125.519 69.6777 125.71 70.0752 125.819 70.4985C125.928 70.9218 125.952 71.3625 125.889 71.795C125.826 72.2276 125.678 72.6434 125.454 73.0184C125.23 73.3935 124.933 73.7203 124.582 73.98C123.881 74.4975 123.005 74.7177 122.143 74.5928C121.281 74.468 120.503 74.0081 119.979 73.3131C119.454 72.6182 119.225 71.7442 119.341 70.8812C119.456 70.0181 119.908 69.2356 120.598 68.7036Z" fill="#C1694F"/>
<path d="M119.941 87.6621C121.208 88.9775 123.301 89.0173 124.616 87.7511C125.931 86.4848 125.971 84.392 124.705 83.0766C123.439 81.7612 121.346 81.7213 120.03 82.9876C118.715 84.2539 118.675 86.3467 119.941 87.6621Z" fill="#C1694F"/>
<path d="M119.672 101.688C120.938 103.003 123.031 103.043 124.346 101.777C125.662 100.511 125.702 98.4178 124.435 97.1024C123.169 95.787 121.076 95.7472 119.761 97.0135C118.445 98.2797 118.406 100.373 119.672 101.688Z" fill="#C1694F"/>
<path d="M134.234 73.9033C135.501 75.2187 137.593 75.2585 138.909 73.9923C140.224 72.726 140.264 70.6332 138.998 69.3178C137.732 68.0024 135.639 67.9625 134.323 69.2288C133.008 70.4951 132.968 72.5879 134.234 73.9033Z" fill="#C1694F"/>
<path d="M133.965 87.9292C135.231 89.2446 137.324 89.2844 138.639 88.0182C139.955 86.7519 139.995 84.659 138.728 83.3437C137.462 82.0283 135.369 81.9884 134.054 83.2547C132.738 84.521 132.699 86.6138 133.965 87.9292Z" fill="#C1694F"/>
<path d="M133.7 101.955C134.966 103.27 137.059 103.31 138.375 102.044C139.69 100.778 139.73 98.6849 138.464 97.3695C137.197 96.0541 135.105 96.0143 133.789 97.2806C132.474 98.5468 132.434 100.64 133.7 101.955Z" fill="#C1694F"/>
<path d="M59.7359 56.1172L111.163 57.0887L110.097 113.2L58.6682 112.221L59.7359 56.1172Z" fill="#EABAA7"/>
<path d="M64.535 65.5614C64.0811 65.0903 63.7772 64.495 63.6618 63.851C63.5463 63.207 63.6246 62.5432 63.8866 61.9437C64.1486 61.3442 64.5826 60.836 65.1336 60.4833C65.6847 60.1306 66.328 59.9493 66.9821 59.9624L104.085 60.6685C104.519 60.6768 104.947 60.7705 105.345 60.9443C105.743 61.1181 106.103 61.3685 106.404 61.6814C106.705 61.9943 106.942 62.3634 107.101 62.7677C107.259 63.172 107.336 63.6035 107.328 64.0377C107.32 64.4719 107.226 64.9002 107.052 65.2982C106.879 65.6962 106.628 66.056 106.315 66.3572C106.002 66.6584 105.633 66.895 105.229 67.0535C104.825 67.212 104.393 67.2894 103.959 67.2811L66.8563 66.575C66.4216 66.5673 65.9929 66.4738 65.5945 66.2998C65.1962 66.1259 64.8361 65.875 64.535 65.5614Z" fill="#F7DED5"/>
</svg>
