<svg width="352" height="130" viewBox="0 0 352 130" fill="none" xmlns="http://www.w3.org/2000/svg">
<path fill-rule="evenodd" clip-rule="evenodd" d="M9.47468 7.45122C105.979 -6.76561 123.181 11.0623 176.38 12.1428C229.58 11.0623 246.782 -9.60897 343.286 7.45122C349.314 8.5317 349.911 8.7876 350.934 14.7587C351.361 17.403 351.645 28.5774 351.731 31.2218C351.93 36.1123 350.963 36.7663 346.101 39.3538C341.864 41.6 339.902 42.254 339.902 51.1822C339.902 110.04 313.175 128.237 277.263 129.631C239.304 131.109 208.425 109.528 195.573 76.4028C177.375 29.6011 174.532 29.5726 156.335 76.4028C143.511 109.528 113.428 131.138 75.4976 129.659C39.5859 128.237 12.8583 107.936 12.8583 51.2106C12.8583 42.2825 10.8964 41.6285 6.65974 39.3822C1.79759 36.7663 0.802411 36.1123 1.02988 31.2218C1.14361 28.5774 1.42795 17.403 1.82602 14.7587C2.84963 8.7876 3.44674 11.3466 9.47468 7.45122Z" fill="#2F2F2F" stroke="#464747" stroke-width="0.375" stroke-miterlimit="10"/>
<path fill-rule="evenodd" clip-rule="evenodd" d="M321.648 48.2533C322.131 26.1034 319.004 20.9569 304.957 18.0851C291.793 15.384 278.315 14.076 265.008 14.5878C249 15.2134 230.802 21.4403 218.491 26.928C202.795 33.9511 200.549 35.2875 203.961 45.2109C213.6 73.2464 225.627 111.291 274.363 109.499C310.417 108.135 320.909 82.3736 321.648 48.2533ZM27.5302 48.2533C28.2979 82.3736 38.7615 108.163 74.8154 109.471C123.579 111.291 135.578 73.218 145.217 45.1824C148.629 35.2591 146.383 33.9227 130.687 26.8996C118.404 21.4119 100.207 15.1849 84.17 14.5594C70.8631 14.0476 57.3855 15.3555 44.2207 18.0567C30.1461 20.9569 27.0184 26.1034 27.5302 48.2533Z" fill="#F7F6EB"/>
<path fill-rule="evenodd" clip-rule="evenodd" d="M9.47468 7.45122C105.979 -6.76561 123.181 11.0623 176.38 12.1428C229.58 11.0623 246.782 -9.60897 343.286 7.45122C349.314 8.5317 349.911 8.7876 350.934 14.7587C351.361 17.403 351.645 28.5774 351.731 31.2218C351.93 36.1123 350.963 36.7663 346.101 39.3538C341.864 41.6 339.902 42.254 339.902 51.1822C339.902 110.04 313.175 128.237 277.263 129.631C239.304 131.109 208.425 109.528 195.573 76.4028C177.375 29.6011 174.532 29.5726 156.335 76.4028C143.511 109.528 113.428 131.138 75.4976 129.659C39.5859 128.237 12.8583 107.936 12.8583 51.2106C12.8583 42.2825 10.8964 41.6285 6.65974 39.3822C1.79759 36.7663 0.802411 36.1123 1.02988 31.2218C1.14361 28.5774 1.42795 17.403 1.82602 14.7587C2.84963 8.7876 3.44674 11.3466 9.47468 7.45122ZM324.065 50.0733C324.548 27.9235 321.42 22.777 307.374 19.9052C294.209 17.204 280.732 15.896 267.425 16.4078C251.417 17.0334 233.105 20.5023 220.822 25.99C205.127 33.0131 203.392 38.5008 206.804 48.3957C216.443 76.4313 228.016 113.111 276.779 111.291C312.833 109.955 323.325 84.1937 324.065 50.0733ZM28.6958 50.0733C29.4635 84.1937 39.9271 109.983 75.981 111.291C124.745 113.082 136.744 75.038 146.383 47.0024C149.795 37.0791 147.549 35.7427 131.853 28.7196C119.57 23.2319 101.372 17.0049 85.3357 16.3794C72.0287 15.8676 58.5512 17.1755 45.3864 19.8767C31.3402 22.777 28.2125 27.9235 28.6958 50.0733Z" fill="#1F1F1F"/>
<path d="M147.975 75.2365C134.895 98.9502 101.742 120.076 79.3075 120.076C56.8734 120.076 25.767 106.627 33.0744 70.8293C40.7799 33.0126 56.8734 14.4738 79.3075 14.4738C101.742 14.4454 179.735 17.5731 147.975 75.2365ZM330.405 75.2365C319.828 100.173 284.2 120.076 261.738 120.076C239.275 120.076 220.196 99.6042 220.822 68.0144C221.533 32.9841 242.574 14.0758 265.008 14.5876C309.563 15.5827 355.341 16.3789 330.405 75.2365Z" fill="#1F1F1F"/>
</svg>
