<svg width="356" height="334" viewBox="0 0 356 334" fill="none" xmlns="http://www.w3.org/2000/svg">
<mask id="path-1-inside-1_253_2805" fill="white">
<path d="M104.82 5.95654C124.235 5.95654 139.974 21.6952 139.975 41.1099C139.975 60.5246 124.235 76.2642 104.82 76.2642C104.405 76.2642 103.992 76.254 103.581 76.2397C101.389 93.548 86.6124 106.932 68.709 106.932C49.2943 106.932 33.5548 91.1935 33.5547 71.7788C33.5547 63.7162 36.2713 56.2887 40.8359 50.3579C40.0344 47.411 39.6035 44.3107 39.6035 41.1099C39.6036 21.6952 55.3431 5.95654 74.7578 5.95654C80.1361 5.95662 85.2314 7.16644 89.7891 9.32568C94.3467 7.16646 99.442 5.95658 104.82 5.95654Z"/>
</mask>
<path d="M104.82 5.95654C124.235 5.95654 139.974 21.6952 139.975 41.1099C139.975 60.5246 124.235 76.2642 104.82 76.2642C104.405 76.2642 103.992 76.254 103.581 76.2397C101.389 93.548 86.6124 106.932 68.709 106.932C49.2943 106.932 33.5548 91.1935 33.5547 71.7788C33.5547 63.7162 36.2713 56.2887 40.8359 50.3579C40.0344 47.411 39.6035 44.3107 39.6035 41.1099C39.6036 21.6952 55.3431 5.95654 74.7578 5.95654C80.1361 5.95662 85.2314 7.16644 89.7891 9.32568C94.3467 7.16646 99.442 5.95658 104.82 5.95654Z" fill="#4E91DC"/>
<path d="M104.82 5.95654V2.95654H104.82L104.82 5.95654ZM139.975 41.1099H142.975V41.1098L139.975 41.1099ZM104.82 76.2642L104.82 79.2642H104.82V76.2642ZM103.581 76.2397L103.685 73.2415L100.949 73.1467L100.605 75.8628L103.581 76.2397ZM68.709 106.932V109.932H68.709L68.709 106.932ZM33.5547 71.7788H30.5547V71.7788L33.5547 71.7788ZM40.8359 50.3579L43.2133 52.1877L44.1216 51.0076L43.7308 49.5706L40.8359 50.3579ZM39.6035 41.1099L36.6035 41.1098V41.1099H39.6035ZM74.7578 5.95654L74.7579 2.95654H74.7578V5.95654ZM89.7891 9.32568L88.5046 12.0368L89.7891 12.6453L91.0735 12.0368L89.7891 9.32568ZM104.82 5.95654V8.95654C122.578 8.95654 136.974 23.3521 136.975 41.1099L139.975 41.1099L142.975 41.1098C142.974 20.0383 125.892 2.95654 104.82 2.95654V5.95654ZM139.975 41.1099H136.975C136.975 58.8678 122.578 73.2642 104.82 73.2642V76.2642V79.2642C125.892 79.2642 142.975 62.1815 142.975 41.1099H139.975ZM104.82 76.2642L104.82 73.2642C104.453 73.2642 104.078 73.2551 103.685 73.2415L103.581 76.2397L103.477 79.2379C103.907 79.2529 104.358 79.2642 104.82 79.2642L104.82 76.2642ZM103.581 76.2397L100.605 75.8628C98.6002 91.6911 85.0821 103.932 68.709 103.932L68.709 106.932L68.709 109.932C88.1427 109.932 104.178 95.405 106.557 76.6167L103.581 76.2397ZM68.709 106.932V103.932C50.9511 103.932 36.5548 89.5365 36.5547 71.7788L33.5547 71.7788L30.5547 71.7788C30.5548 92.8504 47.6375 109.932 68.709 109.932V106.932ZM33.5547 71.7788H36.5547C36.5547 64.4017 39.0377 57.6129 43.2133 52.1877L40.8359 50.3579L38.4586 48.5281C33.5048 54.9644 30.5547 63.0307 30.5547 71.7788H33.5547ZM40.8359 50.3579L43.7308 49.5706C42.9979 46.8759 42.6035 44.0402 42.6035 41.1099H39.6035H36.6035C36.6035 44.5811 37.071 47.9461 37.9411 51.1453L40.8359 50.3579ZM39.6035 41.1099L42.6035 41.1099C42.6036 23.3521 56.9999 8.95654 74.7578 8.95654V5.95654V2.95654C53.6863 2.95654 36.6037 20.0383 36.6035 41.1098L39.6035 41.1099ZM74.7578 5.95654L74.7578 8.95654C79.6818 8.95661 84.3392 10.0634 88.5046 12.0368L89.7891 9.32568L91.0735 6.61455C86.1236 4.26947 80.5905 2.95662 74.7579 2.95654L74.7578 5.95654ZM89.7891 9.32568L91.0735 12.0368C95.2389 10.0634 99.8964 8.95658 104.82 8.95654L104.82 5.95654L104.82 2.95654C98.9876 2.95658 93.4545 4.26951 88.5046 6.61454L89.7891 9.32568Z" fill="#355E3B" mask="url(#path-1-inside-1_253_2805)"/>
<mask id="path-3-inside-2_253_2805" fill="white">
<path d="M258.38 0.961914C238.965 0.961914 223.226 16.7006 223.226 36.1152C223.226 55.53 238.965 71.2695 258.38 71.2695C258.795 71.2695 259.208 71.2594 259.619 71.2451C261.811 88.5534 276.588 101.937 294.491 101.938C313.906 101.938 329.644 86.1988 329.645 66.7842C329.645 58.7216 326.929 51.294 322.364 45.3633C323.166 42.4164 323.597 39.316 323.597 36.1152C323.597 16.7006 307.857 0.961914 288.442 0.961914C283.064 0.961987 277.969 2.17181 273.411 4.33105C268.853 2.17183 263.758 0.961951 258.38 0.961914Z"/>
</mask>
<path d="M258.38 0.961914C238.965 0.961914 223.226 16.7006 223.226 36.1152C223.226 55.53 238.965 71.2695 258.38 71.2695C258.795 71.2695 259.208 71.2594 259.619 71.2451C261.811 88.5534 276.588 101.937 294.491 101.938C313.906 101.938 329.644 86.1988 329.645 66.7842C329.645 58.7216 326.929 51.294 322.364 45.3633C323.166 42.4164 323.597 39.316 323.597 36.1152C323.597 16.7006 307.857 0.961914 288.442 0.961914C283.064 0.961987 277.969 2.17181 273.411 4.33105C268.853 2.17183 263.758 0.961951 258.38 0.961914Z" fill="#4E91DC"/>
<path d="M258.38 0.961914V-2.03809H258.38L258.38 0.961914ZM223.226 36.1152H220.226V36.1152L223.226 36.1152ZM258.38 71.2695L258.38 74.2695H258.38V71.2695ZM259.619 71.2451L259.515 68.2469L262.251 68.1521L262.595 70.8682L259.619 71.2451ZM294.491 101.938V104.938H294.491L294.491 101.938ZM329.645 66.7842H332.645V66.7842L329.645 66.7842ZM322.364 45.3633L319.987 47.1931L319.079 46.0129L319.469 44.5759L322.364 45.3633ZM323.597 36.1152L326.597 36.1152V36.1152H323.597ZM288.442 0.961914L288.442 -2.03809H288.442V0.961914ZM273.411 4.33105L274.696 7.04219L273.411 7.6507L272.127 7.04219L273.411 4.33105ZM258.38 0.961914V3.96191C240.622 3.96191 226.226 18.3575 226.226 36.1153L223.226 36.1152L220.226 36.1152C220.226 15.0436 237.308 -2.03809 258.38 -2.03809V0.961914ZM223.226 36.1152H226.226C226.226 53.8732 240.622 68.2695 258.38 68.2695V71.2695V74.2695C237.308 74.2695 220.226 57.1869 220.226 36.1152H223.226ZM258.38 71.2695L258.38 68.2695C258.747 68.2695 259.123 68.2605 259.515 68.2469L259.619 71.2451L259.723 74.2433C259.293 74.2582 258.842 74.2695 258.38 74.2695L258.38 71.2695ZM259.619 71.2451L262.595 70.8682C264.6 86.6964 278.118 98.9374 294.491 98.9375L294.491 101.938L294.491 104.938C275.058 104.937 259.022 90.4104 256.643 71.6221L259.619 71.2451ZM294.491 101.938V98.9375C312.249 98.9375 326.644 84.542 326.645 66.7842L329.645 66.7842L332.645 66.7842C332.644 87.8557 315.563 104.938 294.491 104.938V101.938ZM329.645 66.7842H326.645C326.645 59.4068 324.162 52.6181 319.987 47.1931L322.364 45.3633L324.742 43.5335C329.696 49.97 332.645 58.0363 332.645 66.7842H329.645ZM322.364 45.3633L319.469 44.5759C320.202 41.8813 320.597 39.0456 320.597 36.1152H323.597H326.597C326.597 39.5865 326.129 42.9514 325.259 46.1506L322.364 45.3633ZM323.597 36.1152L320.597 36.1153C320.597 18.3575 306.2 3.96191 288.442 3.96191V0.961914V-2.03809C309.514 -2.03809 326.597 15.0436 326.597 36.1152L323.597 36.1152ZM288.442 0.961914L288.442 3.96191C283.518 3.96198 278.861 5.06877 274.696 7.04219L273.411 4.33105L272.127 1.61992C277.077 -0.725155 282.61 -2.03801 288.442 -2.03809L288.442 0.961914ZM273.411 4.33105L272.127 7.04219C267.961 5.06878 263.304 3.96195 258.38 3.96191L258.38 0.961914L258.38 -2.03809C264.213 -2.03805 269.746 -0.725116 274.696 1.61992L273.411 4.33105Z" fill="#355E3B" mask="url(#path-3-inside-2_253_2805)"/>
<path d="M74.3491 126.162L88.1554 206.389L11.7726 178.232L74.3491 126.162Z" fill="#EE8F00" stroke="#355E3B" stroke-width="3"/>
<path d="M218.729 248.681L188.267 315.776L145.392 255.848L218.729 248.681Z" fill="#054BC4" stroke="#355E3B" stroke-width="3"/>
<path d="M69.7884 162.022L33.7578 235.021L114.993 229.725L69.7884 162.022Z" fill="#EEEE00" stroke="#355E3B" stroke-width="3"/>
<path d="M81.666 197.945L72.8478 278.873L147.343 246.046L81.666 197.945Z" fill="#1BC405" stroke="#355E3B" stroke-width="3"/>
<path d="M103.764 229.487L125.401 307.965L182.548 249.987L103.764 229.487Z" fill="#05C4C4" stroke="#355E3B" stroke-width="3"/>
<path d="M279.177 114.032L271.669 195.092L345.623 161.064L279.177 114.032Z" fill="#EE8F00" stroke="#355E3B" stroke-width="3"/>
<path d="M286.52 149.428L328.134 219.394L246.733 220.45L286.52 149.428Z" fill="#C44105" stroke="#355E3B" stroke-width="3"/>
<path d="M277.48 186.168L292.582 266.161L215.754 239.244L277.48 186.168Z" fill="#C40508" stroke="#355E3B" stroke-width="3"/>
<path d="M257.909 219.336L242.458 299.263L180.964 245.918L257.909 219.336Z" fill="#8E05C4" stroke="#355E3B" stroke-width="3"/>
<circle cx="177.076" cy="143.429" r="135.973" fill="#F7F6EB" stroke="#5F6964" stroke-width="3"/>
<mask id="path-15-inside-3_253_2805" fill="white">
<path d="M227.506 90.0164C228.714 86.3532 233.896 86.3533 235.104 90.0164L240.697 106.981L257.558 112.876C261.199 114.149 261.107 119.33 257.423 120.472L240.331 125.77L235.364 139.559C234.108 143.043 229.201 143.097 227.868 139.642L222.361 125.357L207.884 119.848C204.423 118.531 204.456 113.623 207.934 112.352L221.814 107.283L227.506 90.0164Z"/>
</mask>
<path d="M227.506 90.0164C228.714 86.3532 233.896 86.3533 235.104 90.0164L240.697 106.981L257.558 112.876C261.199 114.149 261.107 119.33 257.423 120.472L240.331 125.77L235.364 139.559C234.108 143.043 229.201 143.097 227.868 139.642L222.361 125.357L207.884 119.848C204.423 118.531 204.456 113.623 207.934 112.352L221.814 107.283L227.506 90.0164Z" fill="#8ED5F8"/>
<path d="M227.506 90.0164L224.657 89.077L224.657 89.0771L227.506 90.0164ZM235.104 90.0164L237.953 89.0772L237.953 89.077L235.104 90.0164ZM240.697 106.981L237.847 107.921L238.31 109.325L239.707 109.813L240.697 106.981ZM257.558 112.876L256.568 115.708L256.568 115.708L257.558 112.876ZM257.423 120.472L258.311 123.338L258.312 123.338L257.423 120.472ZM240.331 125.77L239.443 122.905L238.015 123.347L237.509 124.754L240.331 125.77ZM235.364 139.559L238.186 140.577L238.186 140.576L235.364 139.559ZM227.868 139.642L225.069 140.722L225.069 140.722L227.868 139.642ZM222.361 125.357L225.16 124.278L224.678 123.029L223.428 122.553L222.361 125.357ZM207.884 119.848L206.817 122.652L206.817 122.652L207.884 119.848ZM207.934 112.352L206.905 109.534L206.904 109.535L207.934 112.352ZM221.814 107.283L222.843 110.101L224.208 109.602L224.663 108.222L221.814 107.283ZM227.506 90.0164L230.355 90.9558C230.657 90.0403 231.953 90.0399 232.255 90.9559L235.104 90.0164L237.953 89.077C235.839 82.6666 226.771 82.6661 224.657 89.077L227.506 90.0164ZM235.104 90.0164L232.255 90.9557L237.847 107.921L240.697 106.981L243.546 106.042L237.953 89.0772L235.104 90.0164ZM240.697 106.981L239.707 109.813L256.568 115.708L257.558 112.876L258.548 110.044L241.687 104.149L240.697 106.981ZM257.558 112.876L256.568 115.708C257.479 116.026 257.455 117.322 256.535 117.607L257.423 120.472L258.312 123.338C264.76 121.338 264.919 112.271 258.548 110.044L257.558 112.876ZM257.423 120.472L256.535 117.607L239.443 122.905L240.331 125.77L241.22 128.636L258.311 123.338L257.423 120.472ZM240.331 125.77L237.509 124.754L232.541 138.543L235.364 139.559L238.186 140.576L243.154 126.787L240.331 125.77ZM235.364 139.559L232.541 138.542C232.227 139.413 231.001 139.427 230.667 138.563L227.868 139.642L225.069 140.722C227.401 146.768 235.989 146.673 238.186 140.577L235.364 139.559ZM227.868 139.642L230.668 138.563L225.16 124.278L222.361 125.357L219.561 126.437L225.069 140.722L227.868 139.642ZM222.361 125.357L223.428 122.553L208.951 117.045L207.884 119.848L206.817 122.652L221.294 128.161L222.361 125.357ZM207.884 119.848L208.951 117.045C208.085 116.715 208.094 115.488 208.963 115.17L207.934 112.352L206.904 109.535C200.817 111.758 200.761 120.347 206.817 122.652L207.884 119.848ZM207.934 112.352L208.963 115.17L222.843 110.101L221.814 107.283L220.785 104.465L206.905 109.534L207.934 112.352ZM221.814 107.283L224.663 108.222L230.355 90.9557L227.506 90.0164L224.657 89.0771L218.965 106.344L221.814 107.283Z" fill="#4E91DC" mask="url(#path-15-inside-3_253_2805)"/>
<mask id="path-17-inside-4_253_2805" fill="white">
<path d="M119.047 88.544C120.255 84.8805 125.437 84.8805 126.645 88.544L132.237 105.508L149.099 111.402C152.74 112.675 152.648 117.857 148.964 118.999L131.871 124.297L126.905 138.086C125.649 141.57 120.741 141.624 119.409 138.169L113.9 123.884L99.4251 118.375C95.9641 117.058 95.9966 112.15 99.4749 110.879L113.355 105.809L119.047 88.544Z"/>
</mask>
<path d="M119.047 88.544C120.255 84.8805 125.437 84.8805 126.645 88.544L132.237 105.508L149.099 111.402C152.74 112.675 152.648 117.857 148.964 118.999L131.871 124.297L126.905 138.086C125.649 141.57 120.741 141.624 119.409 138.169L113.9 123.884L99.4251 118.375C95.9641 117.058 95.9966 112.15 99.4749 110.879L113.355 105.809L119.047 88.544Z" fill="#F8E88E"/>
<path d="M119.047 88.544L121.896 89.4834L121.896 89.4833L119.047 88.544ZM126.645 88.544L129.494 87.6049L129.494 87.6048L126.645 88.544ZM132.237 105.508L129.387 106.447L129.85 107.852L131.247 108.34L132.237 105.508ZM149.099 111.402L148.109 114.234L148.109 114.234L149.099 111.402ZM148.964 118.999L149.852 121.865L149.853 121.865L148.964 118.999ZM131.871 124.297L130.983 121.431L129.555 121.874L129.049 123.28L131.871 124.297ZM126.905 138.086L129.727 139.103L129.727 139.103L126.905 138.086ZM119.409 138.169L122.208 137.09L122.208 137.09L119.409 138.169ZM113.9 123.884L116.699 122.804L116.217 121.556L114.967 121.08L113.9 123.884ZM99.4251 118.375L100.492 115.571L100.492 115.571L99.4251 118.375ZM99.4749 110.879L100.504 113.697L100.504 113.697L99.4749 110.879ZM113.355 105.809L114.384 108.627L115.749 108.128L116.204 106.748L113.355 105.809ZM119.047 88.544L121.896 89.4833C122.198 88.5674 123.494 88.5674 123.796 89.4833L126.645 88.544L129.494 87.6048C127.381 81.1936 118.312 81.1936 116.198 87.6048L119.047 88.544ZM126.645 88.544L123.796 89.4832L129.387 106.447L132.237 105.508L135.086 104.569L129.494 87.6049L126.645 88.544ZM132.237 105.508L131.247 108.34L148.109 114.234L149.099 111.402L150.089 108.57L133.227 102.676L132.237 105.508ZM149.099 111.402L148.109 114.234C149.02 114.553 148.996 115.848 148.076 116.134L148.964 118.999L149.853 121.865C156.301 119.865 156.46 110.798 150.089 108.57L149.099 111.402ZM148.964 118.999L148.076 116.134L130.983 121.431L131.871 124.297L132.76 127.162L149.852 121.865L148.964 118.999ZM131.871 124.297L129.049 123.28L124.082 137.069L126.905 138.086L129.727 139.103L134.694 125.314L131.871 124.297ZM126.905 138.086L124.082 137.069C123.769 137.94 122.541 137.954 122.208 137.09L119.409 138.169L116.609 139.248C118.941 145.295 127.53 145.2 129.727 139.103L126.905 138.086ZM119.409 138.169L122.208 137.09L116.699 122.804L113.9 123.884L111.101 124.963L116.609 139.248L119.409 138.169ZM113.9 123.884L114.967 121.08L100.492 115.571L99.4251 118.375L98.358 121.179L112.833 126.688L113.9 123.884ZM99.4251 118.375L100.492 115.571C99.6261 115.242 99.6355 114.014 100.504 113.697L99.4749 110.879L98.4456 108.061C92.3576 110.285 92.302 118.874 98.3581 121.179L99.4251 118.375ZM99.4749 110.879L100.504 113.697L114.384 108.627L113.355 105.809L112.325 102.991L98.4456 108.061L99.4749 110.879ZM113.355 105.809L116.204 106.748L121.896 89.4834L119.047 88.544L116.198 87.6046L110.506 104.869L113.355 105.809Z" fill="#B7AC72" mask="url(#path-17-inside-4_253_2805)"/>
<circle cx="177.076" cy="189.074" r="33.6536" fill="#C40505" stroke="#530101" stroke-width="3"/>
<circle cx="100.618" cy="199.305" r="24.9221" fill="#FFC1EB"/>
<circle cx="249.332" cy="199.305" r="24.9221" fill="#FFC1EB"/>
<path d="M104.82 207.692C112.331 271.69 233.174 273.142 249.333 207.692" stroke="#C40505" stroke-width="3" stroke-linecap="round"/>
</svg>
