<svg width="297" height="170" viewBox="0 0 297 170" fill="none" xmlns="http://www.w3.org/2000/svg">
<path d="M10.9572 24.2779C11.5488 39.5091 10.6913 72.1898 2.52832 81.063C7.61804 123.922 29.852 141.927 54.4839 152.266C86.2531 131.527 178.621 104.116 293.938 160.39C300.716 150.48 268.853 111.127 225.233 92.5981C216.001 88.4513 207.403 84.5391 199.348 80.8737C165.046 65.2654 140.577 54.1313 118.8 48.4109L104.976 60.2412C105.981 63.3037 106.525 66.5755 106.525 69.9743C106.525 87.1967 92.563 101.158 75.3405 101.158C58.1181 101.158 44.1565 87.1967 44.1565 69.9743C44.1565 52.7518 58.1181 38.7903 75.3405 38.7903C84.2639 38.7903 92.3119 42.5383 97.9961 48.5461L109.493 39.0228L109.404 38.7834C103.681 23.3873 97.3021 6.22701 74.3976 2.09668C47.0697 9.54934 20.7174 19.9894 10.9572 24.2779Z" fill="#5F6964"/>
<path d="M75.3405 101.158C92.563 101.158 106.525 87.1967 106.525 69.9743C106.525 66.5755 105.981 63.3037 104.976 60.2412L97.9961 48.5461C92.3119 42.5383 84.2639 38.7903 75.3405 38.7903C58.1181 38.7903 44.1565 52.7518 44.1565 69.9743C44.1565 87.1967 58.1181 101.158 75.3405 101.158Z" fill="#F7F6EB"/>
<path d="M101.902 167.572C123.641 148.052 191.34 119.748 288.229 162.692C291.053 162.692 292.926 161.869 293.938 160.39C178.621 104.116 86.2531 131.527 54.4839 152.266C64.0888 156.298 74.0583 159.164 83.518 161.883C89.9765 163.74 96.1973 165.528 101.902 167.572Z" fill="#1F1F1F"/>
<path d="M112.55 46.9037C111.491 44.388 110.501 41.734 109.493 39.0228L97.9961 48.5461L104.976 60.2412L118.8 48.4109C116.694 47.8576 114.613 47.3549 112.55 46.9037Z" fill="#1F1F1F"/>
<path d="M97.9961 48.5461C92.3119 42.5383 84.2639 38.7903 75.3405 38.7903C58.1181 38.7903 44.1565 52.7518 44.1565 69.9743C44.1565 87.1967 58.1181 101.158 75.3405 101.158C92.563 101.158 106.525 87.1967 106.525 69.9743C106.525 66.5755 105.981 63.3037 104.976 60.2412M97.9961 48.5461L109.493 39.0228M97.9961 48.5461L104.976 60.2412M109.493 39.0228C110.501 41.734 111.491 44.388 112.55 46.9037C114.613 47.3549 116.694 47.8576 118.8 48.4109M109.493 39.0228L109.404 38.7834M109.493 39.0228C109.463 38.943 109.434 38.8633 109.404 38.7834M104.976 60.2412L118.8 48.4109M118.8 48.4109C140.577 54.1313 165.046 65.2654 199.348 80.8737C207.403 84.5391 216.001 88.4513 225.233 92.5981C268.853 111.127 300.716 150.48 293.938 160.39M109.404 38.7834C103.681 23.3873 97.3021 6.22701 74.3976 2.09668C47.0697 9.54934 20.7174 19.9894 10.9572 24.2779C11.5488 39.5091 10.6913 72.1898 2.52832 81.063C7.61804 123.922 29.852 141.927 54.4839 152.266M54.4839 152.266C64.0888 156.298 74.0583 159.164 83.518 161.883C89.9765 163.74 96.1973 165.528 101.902 167.572C123.641 148.052 191.34 119.748 288.229 162.692C291.053 162.692 292.926 161.869 293.938 160.39M54.4839 152.266C86.2531 131.527 178.621 104.116 293.938 160.39" stroke="#1F1F1F" stroke-width="3"/>
</svg>
