<svg width="486" height="278" viewBox="0 0 486 278" fill="none" xmlns="http://www.w3.org/2000/svg">
<path fill-rule="evenodd" clip-rule="evenodd" d="M237.821 2.77005L100.445 34.9943C86.476 38.271 75.7866 49.5299 73.2386 63.6499L70.3312 79.7616L62.2342 124.632C61.263 130.014 61.5308 135.547 63.0174 140.81L78.965 197.274L82.3806 209.367C84.9966 218.629 91.2219 226.509 99.7304 231.008C208.789 288.669 275.172 290.796 383.186 239.016C391.258 235.147 397.478 228.248 400.699 219.896L404.76 209.367L431.845 139.127C434.971 131.022 435.06 122.06 432.097 113.894L422.03 86.1538L411.963 58.4139C407.874 47.1481 398.448 38.6555 386.818 35.7607L254.738 2.88465C249.188 1.50325 243.389 1.46397 237.821 2.77005Z" fill="#A2DFF2"/>
<path d="M70.3312 79.7616L62.2342 124.632C61.263 130.014 61.5308 135.547 63.0174 140.81L78.965 197.274M70.3312 79.7616C-10.3938 42.9035 -33.3997 44.135 78.965 197.274M70.3312 79.7616L73.2386 63.6499M78.965 197.274L82.3806 209.367M100.445 34.9943L237.821 2.77005M100.445 34.9943C86.476 38.271 75.7866 49.5299 73.2386 63.6499M100.445 34.9943V34.9943C86.476 38.271 75.7866 49.5299 73.2386 63.6499V63.6499M237.821 2.77005C243.389 1.46397 249.188 1.50325 254.738 2.88465M237.821 2.77005V2.77005C243.389 1.46397 249.188 1.50325 254.738 2.88465V2.88465M254.738 2.88465L386.818 35.7607M386.818 35.7607C398.448 38.6555 407.874 47.1481 411.963 58.4139M386.818 35.7607V35.7607C398.448 38.6555 407.874 47.1481 411.963 58.4139V58.4139M411.963 58.4139L422.03 86.1538M432.097 113.894C435.06 122.06 434.971 131.022 431.845 139.127M432.097 113.894V113.894C435.06 122.06 434.971 131.022 431.845 139.127V139.127M432.097 113.894L422.03 86.1538M431.845 139.127L404.76 209.367M400.699 219.896C397.478 228.248 391.258 235.147 383.186 239.016M400.699 219.896V219.896C397.478 228.248 391.258 235.147 383.186 239.016V239.016M400.699 219.896L404.76 209.367M383.186 239.016C275.172 290.796 208.789 288.669 99.7304 231.008M99.7304 231.008C91.2219 226.509 84.9966 218.629 82.3806 209.367M99.7304 231.008V231.008C91.2219 226.509 84.9966 218.629 82.3806 209.367V209.367M422.03 86.1538C504.32 49.0141 511.89 65.1157 404.76 209.367" stroke="#4E91DC" stroke-width="3"/>
<g filter="url(#filter0_d_253_2687)">
<path d="M74.4326 120.093L206.747 88.1553M74.4328 142.906C193.06 175.985 301.897 168.706 415.486 142.906M98.3864 186.251C206.149 254.101 269.446 258.606 389.251 186.251" stroke="#355E3B" stroke-width="3"/>
</g>
<path d="M275.187 90.4365L414.345 118.953" stroke="#355E3B" stroke-width="3"/>
<defs>
<filter id="filter0_d_253_2687" x="70.0303" y="86.6973" width="349.788" height="161.644" filterUnits="userSpaceOnUse" color-interpolation-filters="sRGB">
<feFlood flood-opacity="0" result="BackgroundImageFix"/>
<feColorMatrix in="SourceAlpha" type="matrix" values="0 0 0 0 0 0 0 0 0 0 0 0 0 0 0 0 0 0 127 0" result="hardAlpha"/>
<feOffset dy="4"/>
<feGaussianBlur stdDeviation="2"/>
<feComposite in2="hardAlpha" operator="out"/>
<feColorMatrix type="matrix" values="0 0 0 0 0 0 0 0 0 0 0 0 0 0 0 0 0 0 0.25 0"/>
<feBlend mode="normal" in2="BackgroundImageFix" result="effect1_dropShadow_253_2687"/>
<feBlend mode="normal" in="SourceGraphic" in2="effect1_dropShadow_253_2687" result="shape"/>
</filter>
</defs>
</svg>
